<?xml version="1.0" encoding="utf-8"?>
<!-- Generator: Adobe Illustrator 21.0.0, SVG Export Plug-In . SVG Version: 6.00 Build 0)  -->
<svg version="1.1" id="Layer_1" xmlns="http://www.w3.org/2000/svg" xmlns:xlink="http://www.w3.org/1999/xlink" x="0px" y="0px"
	 viewBox="0 0 800 600" style="enable-background:new 0 0 800 600;" xml:space="preserve">
<style type="text/css">
	.st0{fill:#37515E;}
	.st1{fill:#00C9FF;}
</style>
<g id="Layer_1_1_">
	<g>
		<rect class="st0" width="800" height="600"/>
	</g>
</g>
<g id="Layer_2">
	<path class="st1" d="M400,180c-66.3,0-120,53.7-120,120s53.7,120,120,120s120-53.7,120-120S466.3,180,400,180z M400,411
		c-61.3,0-111-49.7-111-111s49.7-111,111-111s111,49.7,111,111S461.3,411,400,411z"/>
	<g>
		<g>
			<path class="st1" d="M457,271.7h-26.7c7.2-4.5,9-15.8,4-23.6c-3.4-5.3-9.2-8.2-15.1-8.2c-3.3,0-6.7,0.9-9.7,2.9
				c-3.5,2.3-6.8,8.2-9.5,14.3c-2.7-6.1-6-12.1-9.5-14.3c-3-1.9-6.3-2.8-9.7-2.8c-5.9,0-11.7,2.8-15.1,8.1c-5,7.8-3.2,19.1,4,23.6
				H343c-1.7,0-3,1.6-3,3.2v24c0,1.7,1.3,2.8,3,2.8h7.5v55.2c0,1.7,0.8,3.3,2.5,3.3h32h30h32c1.7,0,2.5-1.6,2.5-3.3v-55.2h7.5
				c1.7,0,3-1.1,3-2.8v-24C460,273.2,458.7,271.7,457,271.7z M414.4,250.3c1.4-0.9,3.1-1.4,4.8-1.4c3.1,0,5.9,1.5,7.5,4.1
				c2.7,4.1,1.4,9.7-2.7,12.3c0,0-2.2,1.3-10.2,1.3c-2.6,0-5.3-0.1-7.8-0.3C408.9,258.4,412.3,251.7,414.4,250.3z M373.3,253
				c1.7-2.6,4.5-4.1,7.5-4.1c1.7,0,3.4,0.5,4.8,1.4c2,1.4,5.4,8.1,8.4,16c-2.5,0.2-5.2,0.3-7.8,0.3c-8,0-10.2-1.3-10.2-1.3
				C371.8,262.7,370.6,257.2,373.3,253z M347.5,279.2H385v15h-37.5V279.2z M358,352.7v-51h27v51H358z M442,352.7h-27v-51h27V352.7z
				 M452.5,294.2H415v-15h37.5V294.2z"/>
		</g>
	</g>
</g>
</svg>
