<?xml version="1.0" encoding="utf-8"?>
<!-- Generator: Adobe Illustrator 21.0.0, SVG Export Plug-In . SVG Version: 6.00 Build 0)  -->
<svg version="1.1" xmlns="http://www.w3.org/2000/svg" xmlns:xlink="http://www.w3.org/1999/xlink" x="0px" y="0px"
	 viewBox="0 0 800 600" style="enable-background:new 0 0 800 600;" xml:space="preserve">
<style type="text/css">
	.st0{fill:#37515E;}
	.st1{fill:#00C9FF;}
</style>
<g id="Layer_1">
	<g>
		<rect class="st0" width="800" height="600"/>
	</g>
</g>
<g id="Layer_2">
	<g>
		<path class="st1" d="M400,180c-66.3,0-120,53.7-120,120c0,66.3,53.7,120,120,120s120-53.7,120-120C520,233.7,466.3,180,400,180z
			 M400,411c-61.3,0-111-49.7-111-111s49.7-111,111-111s111,49.7,111,111S461.3,411,400,411z"/>
		<g>
			<path class="st1" d="M368,270h-26c-1.1,0-2-0.9-2-2v-26c0-1.1,0.9-2,2-2h26c1.1,0,2,0.9,2,2v26C370,269.1,369.1,270,368,270z"/>
			<path class="st1" d="M457,270c1.7,0,3-1.3,3-3v-24c0-0.6-0.2-1.1-0.4-1.5c-0.3-0.4-0.6-0.8-1-1c-0.5-0.3-1-0.4-1.5-0.4h-45.5H388
				c-1.7,0-3,1.3-3,3v23.5v0.5c0,0.6,0.2,1.2,0.5,1.6c0.2,0.4,0.5,0.7,0.9,0.9c0.5,0.3,1,0.5,1.6,0.5H457z"/>
			<path class="st1" d="M368,315h-26c-1.1,0-2-0.9-2-2v-26c0-1.1,0.9-2,2-2h26c1.1,0,2,0.9,2,2v26C370,314.1,369.1,315,368,315z"/>
			<path class="st1" d="M413.3,295.5H457c1.7,0,3-1.3,3-3V288c0-1.7-1.3-3-3-3h-54.2H388c-1.7,0-3,1.3-3,3v4.5
				c0,0.7,0.2,1.3,0.6,1.8c0.2,0.2,0.4,0.4,0.6,0.6c0.5,0.4,1.1,0.6,1.8,0.6H413.3z"/>
			<path class="st1" d="M413.3,315H427c1.7,0,3-1.3,3-3v-4.5c0-1.7-1.3-3-3-3h-24.2H388c-1.7,0-3,1.3-3,3v4.5c0,0.7,0.3,1.4,0.7,1.9
				c0.1,0.1,0.2,0.2,0.3,0.3c0.5,0.4,1.2,0.7,1.9,0.7H413.3z"/>
			<path class="st1" d="M413.3,340.5H457c1.7,0,3-1.3,3-3V333c0-1.7-1.3-3-3-3h-54.2H388c-1.7,0-3,1.3-3,3v4.5
				c0,0.7,0.3,1.4,0.7,1.9c0.1,0.1,0.2,0.2,0.3,0.3c0.5,0.4,1.2,0.7,1.9,0.7H413.3z"/>
			<path class="st1" d="M413.3,360H427c1.7,0,3-1.3,3-3v-4.5c0-1.7-1.3-3-3-3h-24.2h-13.2H388c-1.7,0-3,1.3-3,3v1.6v2.9
				c0,0.7,0.3,1.4,0.7,1.9c0.1,0.1,0.2,0.2,0.3,0.3c0.5,0.4,1.2,0.7,1.9,0.7H413.3z"/>
			<polygon class="st1" points="370,339 370,339 364.7,333.7 364.7,333.7 352,346.4 350,344.5 345.3,339.8 340,345.1 346.7,351.8 
				352,357.1 352,357 357.3,351.8 			"/>
		</g>
	</g>
</g>
</svg>
