<?xml version="1.0" encoding="utf-8"?>
<!-- Generator: Adobe Illustrator 21.0.0, SVG Export Plug-In . SVG Version: 6.00 Build 0)  -->
<svg version="1.1" id="Layer_1" xmlns="http://www.w3.org/2000/svg" xmlns:xlink="http://www.w3.org/1999/xlink" x="0px" y="0px"
	 viewBox="0 0 800 600" style="enable-background:new 0 0 800 600;" xml:space="preserve">
<style type="text/css">
	.st0{fill:#37515E;}
	.st1{fill:#00C9FF;}
</style>
<g id="Layer_1_1_">
	<g>
		<rect class="st0" width="800" height="600"/>
	</g>
</g>
<g id="Layer_2">
	<g>
		<path class="st1" d="M400,180c-66.3,0-120,53.7-120,120s53.7,120,120,120s120-53.7,120-120S466.3,180,400,180z M400,411
			c-61.3,0-111-49.7-111-111s49.7-111,111-111s111,49.7,111,111S461.3,411,400,411z"/>
		<g>
			<g>
				<path class="st1" d="M464.2,264.7c0-4.1-3.4-7.5-7.5-7.5s-7.5,3.4-7.5,7.5c0,0.9,0.2,1.7,0.5,2.5l-30.1,26.1l-14-40.1
					c2.1-1.6,3.4-4.2,3.4-7c0-5-4-9-9-9l0,0l0,0l0,0c-5,0-9,4-9,9c0,2.9,1.3,5.4,3.4,7l-14,40.2l-30.1-25.9c0.3-0.8,0.5-1.8,0.5-2.7
					c0-4.1-3.4-7.5-7.5-7.5s-7.5,3.4-7.5,7.5c0,3.8,2.8,7,6.4,7.6l15.2,84.7h0.1h84.4l0,0l15.5-84.7
					C461.3,271.9,464.2,268.6,464.2,264.7z M439.8,326.9h-79.6l-9-49l24.2,21l8.3,7.2l3.6-10.4l12.5-35.9l12.5,35.9l3.6,10.4
					l8.3-7.2l24.2-21.1L439.8,326.9z"/>
			</g>
		</g>
	</g>
</g>
</svg>
