<?xml version="1.0" encoding="utf-8"?>
<!-- Generator: Adobe Illustrator 21.0.0, SVG Export Plug-In . SVG Version: 6.00 Build 0)  -->
<svg version="1.1" id="Layer_1" xmlns="http://www.w3.org/2000/svg" xmlns:xlink="http://www.w3.org/1999/xlink" x="0px" y="0px"
	 viewBox="0 0 800 600" style="enable-background:new 0 0 800 600;" xml:space="preserve">
<style type="text/css">
	.st0{fill:#37515E;}
	.st1{fill:#00C9FF;}
</style>
<g id="Layer_1_1_">
	<g>
		<rect class="st0" width="800" height="600"/>
	</g>
</g>
<g id="Layer_2">
	<path class="st1" d="M400,180c-66.3,0-120,53.7-120,120s53.7,120,120,120s120-53.7,120-120S466.3,180,400,180z M400,411
		c-61.3,0-111-49.7-111-111s49.7-111,111-111s111,49.7,111,111S461.3,411,400,411z"/>
	<g>
		<g>
			<path class="st1" d="M355.8,270.8c0.7,5.5,4.9,9.6,10.1,9.6c5,0,9.4-4.3,10.1-9.9l0.7-4.7c0.4-3.3-0.5-6.5-2.5-8.8
				c-1.9-2.2-4.6-3.5-7.5-3.5h-1.4c-3,0-5.6,1.3-7.6,3.5c-2,2.3-2.9,5.5-2.5,8.8L355.8,270.8z"/>
		</g>
		<g>
			<path class="st1" d="M381.9,286.3c-1.4-0.9-3-1.6-4.7-2.2c-3.2,2.7-7.1,4.1-11.3,4.1c-4.1,0-8-1.5-11.3-4.3
				c-6.6,2.3-11.3,6.6-12.2,11.4l-1.4,7.9c-0.8,4,1,7.3,2.7,9.4c3.7,4.6,10.3,7.6,17.6,8.3l1.9-11.1v-0.1v-0.1
				C365.1,300.1,371.8,291.9,381.9,286.3z"/>
		</g>
		<g>
			<path class="st1" d="M392.9,271.5c1.4,11.2,10.2,19.2,20.6,19.2s19.2-8.6,20.6-19.8l1.1-7.1c1.7-13.6-8-23.8-20.6-23.8h-2.3
				c-12.6,0-22.3,10.1-20.6,23.7L392.9,271.5z M402.5,251.1c2.5-2.8,6-3.6,9.8-3.6h2.3c3.8,0,7.3,0.8,9.8,3.6
				c2.7,3,3.9,6.8,3.3,11.3l-1.1,7.6l0,0c-0.9,7.5-6.6,13.1-13.1,13.1c-6.7,0-12.2-5.4-13.1-12.8l-1.1-8.2
				C398.7,257.7,399.9,254.1,402.5,251.1z"/>
		</g>
		<g>
			<path class="st1" d="M458.9,324.8l-2.4-12.7c-2.1-10.2-11.9-19.1-25.1-23.1c-4.7,4.7-11.1,7.3-17.9,7.3s-13.2-3-17.9-7.7
				c-13.2,4-23,12.3-25.1,22.5l-2.4,13.8c-3.6,17.5,16.7,35.2,43,35.2h4.7C442.2,360,462.4,342.3,458.9,324.8z M447.7,338.9
				c-6.5,7.9-18.7,13.6-31.8,13.6h-4.7c-13.2,0-25.4-5.7-31.8-13.6c-2.3-2.8-4.9-7.7-3.8-13c0-0.1,0-0.3,0-0.3l2.4-13.1
				c1.3-6.2,7.3-12,16.1-15.5c5.7,4.3,12.5,6.6,19.5,6.6c7.1,0,13.9-2.2,19.5-6.4c8.7,3.6,14.8,9.5,16.2,15.9l2.4,12.3
				c0,0,0,0.2,0,0.3C452.6,331,450,336.1,447.7,338.9z"/>
		</g>
	</g>
</g>
</svg>
