<svg id="Layer_1" data-name="Layer 1" xmlns="http://www.w3.org/2000/svg" viewBox="0 0 800 600"><defs><style>.cls-1{fill:#37515e;}.cls-2{fill:#fff;}</style></defs><title>perks</title><rect class="cls-1" width="800" height="600"/><path class="cls-2" d="M95.12,138.39l-12.54-12.1c-0.16-.14-4.58-4.18-4.58-9,0-5.89,3.6-9.4,9.61-9.4,3.52,0,6.81,2.77,8.4,4.34,1.59-1.57,4.88-4.34,8.4-4.34,6,0,9.61,3.52,9.61,9.4,0,4.82-4.42,8.86-4.6,9L96.89,138.39A1.26,1.26,0,0,1,95.12,138.39Z"/><path class="cls-2" d="M80.09,171.37a16,16,0,0,1,1.46-7,10.54,10.54,0,0,1,4.19-4.62,12.4,12.4,0,0,1,6.41-1.61,17.29,17.29,0,0,1,7.52,1.81l-1.76,4.43a29.1,29.1,0,0,0-2.9-1.2,8.65,8.65,0,0,0-2.87-.51A5.55,5.55,0,0,0,87.39,165a10.75,10.75,0,0,0-1.69,6.44q0,8.6,6.45,8.6a20.39,20.39,0,0,0,6.56-1.35v4.57a18.21,18.21,0,0,1-7.07,1.32q-5.61,0-8.58-3.4T80.09,171.37Z"/><path class="cls-2" d="M102.56,174.31q0-4.81,2.51-7.48a9.22,9.22,0,0,1,7.06-2.67,9.87,9.87,0,0,1,5,1.23,8.19,8.19,0,0,1,3.31,3.53,11.86,11.86,0,0,1,1.16,5.39,10.6,10.6,0,0,1-2.52,7.51,9.14,9.14,0,0,1-7,2.71,9.84,9.84,0,0,1-5-1.24,8.24,8.24,0,0,1-3.32-3.56A12,12,0,0,1,102.56,174.31Zm5.45,0a8.21,8.21,0,0,0,1,4.41,3.44,3.44,0,0,0,3.13,1.49,3.38,3.38,0,0,0,3.09-1.48,8.33,8.33,0,0,0,.94-4.41,8.08,8.08,0,0,0-1-4.37,4.05,4.05,0,0,0-6.22,0A8.08,8.08,0,0,0,108,174.31Z"/><path class="cls-2" d="M126,184.18V164.53h4.1l0.72,2.49h0.3a5.43,5.43,0,0,1,2.29-2.1,7.47,7.47,0,0,1,3.43-.76q4.41,0,6,2.86h0.47a5.29,5.29,0,0,1,2.33-2.11,7.82,7.82,0,0,1,3.47-.75,6.83,6.83,0,0,1,5,1.71q1.71,1.71,1.71,5.49v12.81h-5.36v-11.5a5.81,5.81,0,0,0-.71-3.2,2.5,2.5,0,0,0-2.24-1.07,3.34,3.34,0,0,0-2.94,1.41,8,8,0,0,0-1,4.47v9.88h-5.36v-11.5a5.81,5.81,0,0,0-.71-3.2,2.5,2.5,0,0,0-2.24-1.07,3.24,3.24,0,0,0-3,1.52,10,10,0,0,0-.93,5v9.27H126Z"/><path class="cls-2" d="M161.39,192.83v-28.3h4.36l0.76,2.53h0.25a6.22,6.22,0,0,1,5.57-2.9,6.36,6.36,0,0,1,5.44,2.69q2,2.69,2,7.46a14.8,14.8,0,0,1-.92,5.47,7.67,7.67,0,0,1-2.62,3.54,6.7,6.7,0,0,1-4,1.21,6.53,6.53,0,0,1-5.43-2.5h-0.28q0.28,2.46.28,2.84v8h-5.36Zm5.36-18.55a8.35,8.35,0,0,0,.94,4.56,3.35,3.35,0,0,0,3,1.38q3.6,0,3.6-6a8.55,8.55,0,0,0-.89-4.37,3,3,0,0,0-2.79-1.46,3.38,3.38,0,0,0-2.9,1.23,7.07,7.07,0,0,0-.95,4.05v0.58Z"/><path class="cls-2" d="M183,174.49q0-4.94,2.47-7.64a8.81,8.81,0,0,1,6.84-2.7,8.61,8.61,0,0,1,6.47,2.37,9,9,0,0,1,2.31,6.56v2.6H188.43a5.2,5.2,0,0,0,1.35,3.58,4.73,4.73,0,0,0,3.54,1.29,14.6,14.6,0,0,0,3.35-.37A16.66,16.66,0,0,0,200,179v4.14a12.51,12.51,0,0,1-3,1,18.92,18.92,0,0,1-3.89.34,10.15,10.15,0,0,1-7.42-2.62Q183,179.29,183,174.49Zm5.57-2.37h7.51a4.47,4.47,0,0,0-1-3.07,3.5,3.5,0,0,0-2.7-1.08,3.39,3.39,0,0,0-2.67,1.08A5,5,0,0,0,188.55,172.12Z"/><path class="cls-2" d="M203.46,168.5v-2.24l3-1.77,1.55-4.2h3.43v4.24h5.5v4h-5.5V178a2.11,2.11,0,0,0,.64,1.7,2.52,2.52,0,0,0,1.7.55,11.56,11.56,0,0,0,3.38-.62v4a12.08,12.08,0,0,1-4.92.89q-3.22,0-4.68-1.63A7.12,7.12,0,0,1,206,178V168.5h-2.57Z"/><path class="cls-2" d="M220.84,159.45q0-2.62,2.92-2.62t2.92,2.62a2.55,2.55,0,0,1-.73,1.94,3.07,3.07,0,0,1-2.19.69Q220.84,162.08,220.84,159.45Zm0.23,24.73V164.53h5.36v19.65h-5.36Z"/><path class="cls-2" d="M230.07,168.5v-2.24l3-1.77,1.55-4.2H238v4.24h5.5v4H238V178a2.11,2.11,0,0,0,.64,1.7,2.52,2.52,0,0,0,1.7.55,11.56,11.56,0,0,0,3.38-.62v4a12.08,12.08,0,0,1-4.92.89q-3.22,0-4.68-1.63a7.12,7.12,0,0,1-1.47-4.89V168.5h-2.57Z"/><path class="cls-2" d="M247.45,159.45q0-2.62,2.92-2.62t2.92,2.62a2.55,2.55,0,0,1-.73,1.94,3.07,3.07,0,0,1-2.19.69Q247.45,162.08,247.45,159.45Zm0.23,24.73V164.53H253v19.65h-5.36Z"/><path class="cls-2" d="M255.86,164.53h5.61l3.8,11.2a18.06,18.06,0,0,1,.76,4h0.14a15.12,15.12,0,0,1,.79-4l3.78-11.2h5.61l-7.49,19.65h-5.5Z"/><path class="cls-2" d="M278,174.49q0-4.94,2.47-7.64a8.81,8.81,0,0,1,6.84-2.7,8.61,8.61,0,0,1,6.47,2.37,9,9,0,0,1,2.31,6.56v2.6H283.4a5.2,5.2,0,0,0,1.35,3.58,4.73,4.73,0,0,0,3.54,1.29,14.6,14.6,0,0,0,3.35-.37,16.66,16.66,0,0,0,3.29-1.18v4.14a12.51,12.51,0,0,1-3,1,18.92,18.92,0,0,1-3.89.34,10.15,10.15,0,0,1-7.42-2.62Q278,179.29,278,174.49Zm5.57-2.37H291a4.47,4.47,0,0,0-1-3.07,3.5,3.5,0,0,0-2.7-1.08,3.39,3.39,0,0,0-2.67,1.08A5,5,0,0,0,283.52,172.12Z"/><path class="cls-2" d="M309.77,184.18V164.53h4.06l0.79,3.3h0.26a7.39,7.39,0,0,1,2.47-2.66,6.09,6.09,0,0,1,3.38-1,8.65,8.65,0,0,1,1.81.16l-0.4,5a6.14,6.14,0,0,0-1.58-.18,5.69,5.69,0,0,0-4,1.32,4.77,4.77,0,0,0-1.43,3.69v10h-5.36Z"/><path class="cls-2" d="M324.57,174.49q0-4.94,2.47-7.64a8.81,8.81,0,0,1,6.84-2.7,8.61,8.61,0,0,1,6.47,2.37,9,9,0,0,1,2.31,6.56v2.6H330a5.2,5.2,0,0,0,1.35,3.58,4.73,4.73,0,0,0,3.54,1.29,14.6,14.6,0,0,0,3.35-.37,16.66,16.66,0,0,0,3.29-1.18v4.14a12.51,12.51,0,0,1-3,1,18.92,18.92,0,0,1-3.89.34,10.15,10.15,0,0,1-7.42-2.62Q324.57,179.29,324.57,174.49Zm5.57-2.37h7.51a4.47,4.47,0,0,0-1-3.07,3.5,3.5,0,0,0-2.7-1.08,3.39,3.39,0,0,0-2.67,1.08A5,5,0,0,0,330.14,172.12Z"/><path class="cls-2" d="M347,184.18V164.53h4.1l0.72,2.49h0.3a5.43,5.43,0,0,1,2.29-2.1,7.47,7.47,0,0,1,3.43-.76q4.41,0,6,2.86h0.47a5.29,5.29,0,0,1,2.33-2.11,7.82,7.82,0,0,1,3.47-.75,6.83,6.83,0,0,1,5,1.71q1.71,1.71,1.71,5.49v12.81H371.5v-11.5a5.81,5.81,0,0,0-.71-3.2,2.5,2.5,0,0,0-2.24-1.07,3.34,3.34,0,0,0-2.94,1.41,8,8,0,0,0-1,4.47v9.88h-5.36v-11.5a5.81,5.81,0,0,0-.71-3.2,2.5,2.5,0,0,0-2.24-1.07,3.24,3.24,0,0,0-3,1.52,10,10,0,0,0-.93,5v9.27H347Z"/><path class="cls-2" d="M382.28,177.34V164.53h5.36V176a5.53,5.53,0,0,0,.76,3.19,2.75,2.75,0,0,0,2.41,1.06,3.62,3.62,0,0,0,3.25-1.5,9.34,9.34,0,0,0,1-5v-9.26h5.36v19.65H396.3l-0.72-2.5H395.3a5.65,5.65,0,0,1-2.44,2.11,8.37,8.37,0,0,1-3.6.74,6.86,6.86,0,0,1-5.22-1.85A7.46,7.46,0,0,1,382.28,177.34Z"/><path class="cls-2" d="M406,184.18V164.53h4.1l0.72,2.49h0.3a5.65,5.65,0,0,1,2.47-2.14,8.47,8.47,0,0,1,3.58-.72,6.87,6.87,0,0,1,5.2,1.85,7.44,7.44,0,0,1,1.78,5.35v12.81h-5.36v-11.5a5.54,5.54,0,0,0-.76-3.2,2.75,2.75,0,0,0-2.41-1.07,3.62,3.62,0,0,0-3.25,1.51,9.36,9.36,0,0,0-1,5v9.27H406Z"/><path class="cls-2" d="M428.51,174.49q0-4.94,2.47-7.64a8.81,8.81,0,0,1,6.84-2.7,8.61,8.61,0,0,1,6.47,2.37,9,9,0,0,1,2.31,6.56v2.6H434a5.2,5.2,0,0,0,1.35,3.58,4.73,4.73,0,0,0,3.54,1.29,14.6,14.6,0,0,0,3.35-.37,16.66,16.66,0,0,0,3.29-1.18v4.14a12.51,12.51,0,0,1-3,1,18.92,18.92,0,0,1-3.89.34,10.15,10.15,0,0,1-7.42-2.62Q428.51,179.29,428.51,174.49Zm5.57-2.37h7.51a4.47,4.47,0,0,0-1-3.07,3.5,3.5,0,0,0-2.7-1.08,3.39,3.39,0,0,0-2.67,1.08A5,5,0,0,0,434.08,172.12Z"/><path class="cls-2" d="M451,184.18V164.53H455l0.79,3.3h0.26a7.39,7.39,0,0,1,2.47-2.66,6.09,6.09,0,0,1,3.38-1,8.65,8.65,0,0,1,1.81.16l-0.4,5a6.14,6.14,0,0,0-1.58-.18,5.69,5.69,0,0,0-4,1.32,4.77,4.77,0,0,0-1.43,3.69v10H451Z"/><path class="cls-2" d="M465.67,178.31a5.19,5.19,0,0,1,2.18-4.61q2.18-1.49,6.58-1.64l3.4-.11v-0.86q0-3-3.07-3a13.89,13.89,0,0,0-5.53,1.42l-1.76-3.62a15.88,15.88,0,0,1,7.5-1.78,9.46,9.46,0,0,1,6.1,1.72,6.35,6.35,0,0,1,2.12,5.24v13.1h-3.77l-1-2.67h-0.14a7.94,7.94,0,0,1-2.79,2.36,9.05,9.05,0,0,1-3.75.66,6,6,0,0,1-4.42-1.62A6.24,6.24,0,0,1,465.67,178.31Zm5.45,0q0,2.25,2.61,2.25a4.16,4.16,0,0,0,3-1.06,3.71,3.71,0,0,0,1.12-2.82v-1.6l-2.08.07a6.73,6.73,0,0,0-3.49.84A2.61,2.61,0,0,0,471.12,178.31Z"/><path class="cls-2" d="M486.73,168.5v-2.24l3-1.77,1.55-4.2h3.43v4.24h5.5v4h-5.5V178a2.11,2.11,0,0,0,.64,1.7,2.52,2.52,0,0,0,1.7.55,11.56,11.56,0,0,0,3.38-.62v4a12.08,12.08,0,0,1-4.92.89q-3.22,0-4.68-1.63a7.12,7.12,0,0,1-1.47-4.89V168.5h-2.57Z"/><path class="cls-2" d="M504.11,159.45q0-2.62,2.92-2.62t2.92,2.62a2.55,2.55,0,0,1-.73,1.94,3.07,3.07,0,0,1-2.19.69Q504.11,162.08,504.11,159.45Zm0.23,24.73V164.53h5.36v19.65h-5.36Z"/><path class="cls-2" d="M514.13,174.31q0-4.81,2.51-7.48a9.22,9.22,0,0,1,7.06-2.67,9.87,9.87,0,0,1,5,1.23,8.19,8.19,0,0,1,3.31,3.53,11.86,11.86,0,0,1,1.16,5.39,10.6,10.6,0,0,1-2.52,7.51,9.14,9.14,0,0,1-7,2.71,9.84,9.84,0,0,1-5-1.24,8.24,8.24,0,0,1-3.32-3.56A12,12,0,0,1,514.13,174.31Zm5.45,0a8.21,8.21,0,0,0,1,4.41,3.44,3.44,0,0,0,3.13,1.49,3.38,3.38,0,0,0,3.09-1.48,8.33,8.33,0,0,0,.94-4.41,8.08,8.08,0,0,0-1-4.37,4.05,4.05,0,0,0-6.22,0A8.08,8.08,0,0,0,519.58,174.31Z"/><path class="cls-2" d="M537.62,184.18V164.53h4.1l0.72,2.49h0.3a5.65,5.65,0,0,1,2.47-2.14,8.47,8.47,0,0,1,3.58-.72A6.87,6.87,0,0,1,554,166a7.44,7.44,0,0,1,1.78,5.35v12.81h-5.36v-11.5a5.54,5.54,0,0,0-.76-3.2,2.75,2.75,0,0,0-2.41-1.07,3.62,3.62,0,0,0-3.25,1.51,9.36,9.36,0,0,0-1,5v9.27h-5.36Z"/><path class="cls-2" d="M570.63,192.83v-28.3H575l0.76,2.53H576a6.22,6.22,0,0,1,5.57-2.9,6.36,6.36,0,0,1,5.44,2.69q2,2.69,2,7.46a14.8,14.8,0,0,1-.92,5.47,7.67,7.67,0,0,1-2.62,3.54,6.7,6.7,0,0,1-4,1.21A6.53,6.53,0,0,1,576,182h-0.28q0.28,2.46.28,2.84v8h-5.36ZM576,174.27a8.35,8.35,0,0,0,.94,4.56,3.35,3.35,0,0,0,3,1.38q3.6,0,3.6-6a8.55,8.55,0,0,0-.89-4.37,3,3,0,0,0-2.79-1.46,3.38,3.38,0,0,0-2.9,1.23,7.07,7.07,0,0,0-.95,4.05v0.58Z"/><path class="cls-2" d="M592.11,178.31a5.19,5.19,0,0,1,2.18-4.61q2.18-1.49,6.58-1.64l3.4-.11v-0.86q0-3-3.07-3a13.89,13.89,0,0,0-5.53,1.42l-1.76-3.62a15.88,15.88,0,0,1,7.5-1.78,9.46,9.46,0,0,1,6.1,1.72,6.35,6.35,0,0,1,2.12,5.24v13.1h-3.77l-1-2.67h-0.14a7.94,7.94,0,0,1-2.79,2.36,9.05,9.05,0,0,1-3.75.66,6,6,0,0,1-4.42-1.62A6.24,6.24,0,0,1,592.11,178.31Zm5.45,0q0,2.25,2.61,2.25a4.16,4.16,0,0,0,3-1.06,3.71,3.71,0,0,0,1.12-2.82v-1.6l-2.08.07a6.73,6.73,0,0,0-3.49.84A2.61,2.61,0,0,0,597.56,178.31Z"/><path class="cls-2" d="M614,174.47q0-5,2.49-7.66t7.14-2.65a13.64,13.64,0,0,1,6.12,1.34l-1.58,4.15q-1.27-.51-2.36-0.84a7.59,7.59,0,0,0-2.18-.33q-4.18,0-4.18,6,0,5.77,4.18,5.77a9.52,9.52,0,0,0,2.87-.41,10.34,10.34,0,0,0,2.64-1.29v4.58a8.65,8.65,0,0,1-2.63,1.14,14.84,14.84,0,0,1-3.35.31Q614,184.53,614,174.47Z"/><path class="cls-2" d="M633.66,184.18V156.83H639V169l-0.28,4.46h0.07l2.34-3,5.5-6h6l-7.8,8.53,8.28,11.13H647l-5.66-8-2.3,1.85v6.12h-5.36Z"/><path class="cls-2" d="M654.69,178.31a5.19,5.19,0,0,1,2.18-4.61q2.18-1.49,6.58-1.64l3.4-.11v-0.86q0-3-3.07-3a13.89,13.89,0,0,0-5.53,1.42l-1.76-3.62a15.88,15.88,0,0,1,7.5-1.78,9.46,9.46,0,0,1,6.1,1.72,6.35,6.35,0,0,1,2.12,5.24v13.1h-3.77l-1-2.67h-0.14a7.94,7.94,0,0,1-2.79,2.36,9.05,9.05,0,0,1-3.75.66,6,6,0,0,1-4.42-1.62A6.24,6.24,0,0,1,654.69,178.31Zm5.45,0q0,2.25,2.61,2.25a4.16,4.16,0,0,0,3-1.06,3.71,3.71,0,0,0,1.12-2.82v-1.6l-2.08.07a6.73,6.73,0,0,0-3.49.84A2.61,2.61,0,0,0,660.13,178.31Z"/><path class="cls-2" d="M676.54,174.38q0-4.83,2-7.52a6.53,6.53,0,0,1,5.54-2.69,6.66,6.66,0,0,1,5.71,2.88h0.14l0.44-2.51h4.54v19.69q0,4.24-2.47,6.42t-7.36,2.19a20.5,20.5,0,0,1-7.35-1.17v-4.31a19.47,19.47,0,0,0,7.67,1.51q4.15,0,4.15-4.46V184l0.15-2.4h-0.15a6.25,6.25,0,0,1-5.6,2.9,6.32,6.32,0,0,1-5.47-2.72A12.54,12.54,0,0,1,676.54,174.38Zm5.45,0.07a8.2,8.2,0,0,0,.95,4.41,3.25,3.25,0,0,0,2.94,1.46,3.62,3.62,0,0,0,3.09-1.24,6.75,6.75,0,0,0,.93-4v-0.65a8,8,0,0,0-1-4.52,3.58,3.58,0,0,0-3.14-1.38Q682,168.51,682,174.45Z"/><path class="cls-2" d="M699.32,174.49q0-4.94,2.47-7.64a8.81,8.81,0,0,1,6.84-2.7,8.61,8.61,0,0,1,6.47,2.37,9,9,0,0,1,2.31,6.56v2.6H704.77a5.2,5.2,0,0,0,1.35,3.58,4.73,4.73,0,0,0,3.54,1.29,14.6,14.6,0,0,0,3.35-.37A16.66,16.66,0,0,0,716.3,179v4.14a12.51,12.51,0,0,1-3,1,18.92,18.92,0,0,1-3.89.34,10.15,10.15,0,0,1-7.42-2.62Q699.32,179.29,699.32,174.49Zm5.57-2.37h7.51a4.47,4.47,0,0,0-1-3.07,3.5,3.5,0,0,0-2.7-1.08,3.39,3.39,0,0,0-2.67,1.08A5,5,0,0,0,704.89,172.12Z"/><path class="cls-2" d="M108.87,267.32a15.43,15.43,0,1,1-15.43-15.43A15.44,15.44,0,0,1,108.87,267.32Zm-10.39-4.58a1.47,1.47,0,0,0,.26-0.46,1.33,1.33,0,0,1,.44-0.3,4.64,4.64,0,0,1,1-.24,1,1,0,0,1,1,.22,1.43,1.43,0,0,1,.48-0.5,1.46,1.46,0,0,0,.6-0.24,1.9,1.9,0,0,0,0-.44,0.49,0.49,0,0,1-.48-0.56,0.43,0.43,0,0,1-.12.16c0-.3-0.36-0.08-0.5-0.12a0.85,0.85,0,0,1-.54-0.78c-0.08-.18-0.3-0.24-0.38-0.42a0.62,0.62,0,0,0-.3-0.4,1.76,1.76,0,0,0-.38.4c-0.18-.1-0.26,0-0.4.12a2.24,2.24,0,0,1-.34.1c0.36-.12-0.16-0.32-0.34-0.28,0.28-.08.14-0.38,0-0.52h0.1a2.25,2.25,0,0,0-.78-0.46,2.61,2.61,0,0,0-1.35-.2c-0.24.14,0.06,0.54,0.06,0.74a3,3,0,0,1-.24.5c0,0.34.64,0.28,0.48,0.74a2.87,2.87,0,0,1-.64.56,0.6,0.6,0,0,0,.18.7c0.16,0.12-.28.32-0.34,0.36-0.34.16-.6-0.34-0.68-0.64a0.79,0.79,0,0,0-.32-0.6,0.73,0.73,0,0,0-.58,0,1.29,1.29,0,0,0-.82-0.52,2.29,2.29,0,0,0-1.17-.08c0.14,0,0-.64-0.38-0.54a2.27,2.27,0,0,0,.1-0.62,1.13,1.13,0,0,1,.24-0.46,1.16,1.16,0,0,0,.34-0.56,1.14,1.14,0,0,0,1-.22c0.18-.18.26-0.48,0.44-0.68s0.58,0.08.86,0.1,0.38-.42.16-0.62c0.26,0,0-.46-0.1-0.52s-0.86.12-.5,0.26c-0.08,0-.56,1-0.84.46a1,1,0,0,0-.3-0.54,0.44,0.44,0,0,0-.32.3c0.1-.26-0.56-0.44-0.7-0.46,0.3-.2.06-0.42-0.16-0.54a0.88,0.88,0,0,0-.8,0c-0.38.46,0.4,0.52,0.6,0.64s0.3,0.18.16,0.28a2.09,2.09,0,0,0-.52.24,1.8,1.8,0,0,1,0,.56,4.19,4.19,0,0,1-.32-0.68c0.18,0.22-.72.1-0.7,0.1a1.16,1.16,0,0,1-1-.1c0-.08,0-0.54.08-0.44-0.18-.14-0.3-0.28-0.42-0.36a12.18,12.18,0,0,0-1.89.82,0.34,0.34,0,0,0,.24,0,5.1,5.1,0,0,0,.46-0.24,1,1,0,0,1,.84-0.14,0.44,0.44,0,0,1,.1-0.1,4.79,4.79,0,0,1,.4.5,1.21,1.21,0,0,0-.6,0,0.61,0.61,0,0,0-.44.24,0.5,0.5,0,0,1,.1.36,1.88,1.88,0,0,0-.82-0.52,3,3,0,0,0-.44,0,13.06,13.06,0,0,0-4.72,4.46,0.56,0.56,0,0,0,.24.16c0.2,0.06,0,.64.38,0.34a0.28,0.28,0,0,1,.06.38s0.82,0.5.88,0.54a1.41,1.41,0,0,1,.42.42,0.35,0.35,0,0,1-.2.36,0.62,0.62,0,0,0-.36-0.26c-0.06.1,0,.64,0.22,0.62-0.32,0-.18,1.27-0.26,1.51,0,0,0,0,0,0-0.06.24,0.14,1.19,0.54,1.08-0.26.06,0.46,1,.56,1a2.6,2.6,0,0,1,.74.56,3.69,3.69,0,0,0,.48.92c-0.08.24,0.42,0.52,0.4,0.86l-0.1,0a5.5,5.5,0,0,0,.62.54c0.08,0.16,0,.54.26,0.46a2.24,2.24,0,0,0-.48-1.25c-0.12-.2-0.24-0.38-0.34-0.58a5.42,5.42,0,0,1-.2-0.6,1.07,1.07,0,0,1,.48.24c-0.16.4,0.64,1.1,0.86,1.37,0.06,0.06.52,0.66,0.28,0.66a1.3,1.3,0,0,1,.74.6,5.67,5.67,0,0,1,.26,1,1.84,1.84,0,0,0,1,.76,8,8,0,0,0,.8.44,1.21,1.21,0,0,0,.88,0c0.52-.08.58,0.5,1,0.72a1.68,1.68,0,0,0,1.1.22,2.65,2.65,0,0,0,.46.92c0.18,0.24.52,0.36,0.72,0.6a0.32,0.32,0,0,0,.14-0.18,0.61,0.61,0,0,0,.5.6A0.7,0.7,0,0,0,96,275a0.7,0.7,0,0,1-1-.36c0-.1-0.36-0.66-0.08-0.66s0.12-.3.08-0.58a2.25,2.25,0,0,0-.46-0.7,0.39,0.39,0,0,1-.64,0c0,0.06-.06.16-0.06,0.24a0.76,0.76,0,0,1-.3,0c0-.24.06-0.54,0.12-0.8s0.76-1.06-.1-1a0.52,0.52,0,0,0-.52.4,0.74,0.74,0,0,1-.34.58,1.76,1.76,0,0,1-1-.06,1.79,1.79,0,0,1-.64-1.33,3.28,3.28,0,0,0,0-1.53c0.12-.1.24-0.3,0.38-0.4s0.26,0.06.32-.18a1.66,1.66,0,0,0-.16-0.12c0.3,0.14.86-.2,1.13,0s0.34,0.16.44,0a1,1,0,0,1-.06-0.46c0.06,0.34.28,0.4,0.58,0.18a5.37,5.37,0,0,0,.66.2c0.22,0.14.26,0.36,0.52,0.06a1.1,1.1,0,0,1,.24.48,1.77,1.77,0,0,0,.38.88c0.42,0.26.32-.44,0.28-0.68,0,0,0-.68,0-0.68-0.64-.14-0.4-0.64,0-1a4.67,4.67,0,0,0,.72-0.36,0.71,0.71,0,0,0,.3-0.7,0.25,0.25,0,0,0,.22-0.18,2.08,2.08,0,0,0-.34-0.2,0.2,0.2,0,0,0,0-.32,3.85,3.85,0,0,1,.3-0.42c0.22,0.3.66,0,.44-0.28,0.2-.28.66-0.14,0.78-0.4,0.3,0.08.08-.3,0.24-0.52A1.49,1.49,0,0,1,99,263.7s0.5-.28.34-0.3c0.34,0,1-.32.5-0.62,0.08-.18-0.18-0.26-0.36-0.3a1.56,1.56,0,0,0,.44,0c0.26-.18.08-0.26-0.14-0.32a1.21,1.21,0,0,0-.86.24A1.37,1.37,0,0,1,98.48,262.74Zm4.24,13.44a1.83,1.83,0,0,0-.5-0.16,2.72,2.72,0,0,0-.48-0.16,1,1,0,0,0-.68-0.74,0.89,0.89,0,0,0-.8-0.34s-0.44.16-.36,0.24a1.68,1.68,0,0,0-.72-0.44c-0.32-.1-0.54-0.5-0.86-0.14a1.5,1.5,0,0,0-.16.56c-0.26-.22.24-0.48,0-0.72s-0.66.18-.86,0.3a1.52,1.52,0,0,0-.34.26,5,5,0,0,0-.22.46c-0.06-.16-0.4-0.12-0.42-0.24,0.08,0.48.08,1,.18,1.47a1.13,1.13,0,0,1-.24,1,1.45,1.45,0,0,0-.58.8,0.41,0.41,0,0,0,.24.52c0,0.3-.32.52-0.3,0.84,0,0,0,.22,0,0.32A12.75,12.75,0,0,0,102.72,276.18Z"/><path class="cls-2" d="M78,302.48h5.45l4.84,15.29q0.4,1.35.84,3.16t0.54,2.5A45,45,0,0,1,91,317.77l4.88-15.29h5.45l-8.69,25.7H86.67Z"/><path class="cls-2" d="M104,303.45q0-2.62,2.92-2.62t2.92,2.62a2.55,2.55,0,0,1-.73,1.94,3.07,3.07,0,0,1-2.19.69Q104,306.08,104,303.45Zm0.23,24.73V308.53h5.36v19.65h-5.36Z"/><path class="cls-2" d="M114,313.64a4.66,4.66,0,0,1,2-4,10,10,0,0,1,5.78-1.43,16.16,16.16,0,0,1,6.87,1.55l-1.61,3.86q-1.47-.63-2.74-1a8.63,8.63,0,0,0-2.6-.4q-2.36,0-2.36,1.28a1.5,1.5,0,0,0,.76,1.24,20.62,20.62,0,0,0,3.33,1.56,15.44,15.44,0,0,1,3.35,1.73,5.12,5.12,0,0,1,1.57,1.86,5.71,5.71,0,0,1,.51,2.5,5.48,5.48,0,0,1-2.09,4.64q-2.09,1.59-6.25,1.59a19.62,19.62,0,0,1-3.67-.29,13.71,13.71,0,0,1-2.84-.86v-4.46a18.91,18.91,0,0,0,3.38,1.17,13.79,13.79,0,0,0,3.31.47q2.91,0,2.91-1.68a1.4,1.4,0,0,0-.39-1,5.57,5.57,0,0,0-1.33-.89q-0.94-.5-2.52-1.16A16,16,0,0,1,116,318a4.94,4.94,0,0,1-1.56-1.85A6,6,0,0,1,114,313.64Z"/><path class="cls-2" d="M131.79,322.31a5.19,5.19,0,0,1,2.18-4.61q2.18-1.49,6.58-1.64l3.4-.11v-0.86q0-3-3.07-3a13.89,13.89,0,0,0-5.53,1.42l-1.76-3.62a15.88,15.88,0,0,1,7.5-1.78,9.46,9.46,0,0,1,6.1,1.72,6.35,6.35,0,0,1,2.12,5.24v13.1h-3.77l-1-2.67h-0.14a7.94,7.94,0,0,1-2.79,2.36,9.05,9.05,0,0,1-3.75.66,6,6,0,0,1-4.42-1.62A6.24,6.24,0,0,1,131.79,322.31Zm5.45,0q0,2.25,2.61,2.25a4.16,4.16,0,0,0,3-1.06,3.71,3.71,0,0,0,1.12-2.82v-1.6l-2.08.07a6.73,6.73,0,0,0-3.49.84A2.61,2.61,0,0,0,137.24,322.31Z"/><path class="cls-2" d="M162.88,322.31a5.19,5.19,0,0,1,2.18-4.61q2.18-1.49,6.58-1.64l3.4-.11v-0.86q0-3-3.07-3a13.89,13.89,0,0,0-5.53,1.42l-1.76-3.62a15.88,15.88,0,0,1,7.5-1.78,9.46,9.46,0,0,1,6.1,1.72,6.35,6.35,0,0,1,2.12,5.24v13.1h-3.77l-1-2.67h-0.14a7.94,7.94,0,0,1-2.79,2.36,9.05,9.05,0,0,1-3.75.66,6,6,0,0,1-4.42-1.62A6.24,6.24,0,0,1,162.88,322.31Zm5.45,0q0,2.25,2.61,2.25a4.16,4.16,0,0,0,3-1.06,3.71,3.71,0,0,0,1.12-2.82v-1.6l-2.08.07a6.73,6.73,0,0,0-3.49.84A2.61,2.61,0,0,0,168.33,322.31Z"/><path class="cls-2" d="M185.93,328.18V308.53H190l0.72,2.49H191a5.65,5.65,0,0,1,2.47-2.14,8.47,8.47,0,0,1,3.58-.72,6.87,6.87,0,0,1,5.2,1.85,7.44,7.44,0,0,1,1.78,5.35v12.81h-5.36v-11.5a5.53,5.53,0,0,0-.76-3.2,2.75,2.75,0,0,0-2.41-1.07,3.62,3.62,0,0,0-3.25,1.51,9.36,9.36,0,0,0-1,5v9.27h-5.36Z"/><path class="cls-2" d="M208.39,318.39q0-4.83,2-7.53a6.55,6.55,0,0,1,5.56-2.7A6.38,6.38,0,0,1,221.6,311h0.17a22.88,22.88,0,0,1-.39-3.92v-6.29h5.36v27.35h-4.11l-1-2.55h-0.22a6.12,6.12,0,0,1-5.56,2.9,6.4,6.4,0,0,1-5.45-2.69A12.35,12.35,0,0,1,208.39,318.39Zm5.45,0.07a7.71,7.71,0,0,0,1,4.35,3.27,3.27,0,0,0,2.86,1.45,3.6,3.6,0,0,0,3-1.2,7,7,0,0,0,1-4.06v-0.58a8.07,8.07,0,0,0-1-4.54,3.59,3.59,0,0,0-3.15-1.37,3.14,3.14,0,0,0-2.78,1.52A8.13,8.13,0,0,0,213.84,318.46Z"/><path class="cls-2" d="M241.72,328.18V308.53h4.06l0.79,3.3h0.26a7.39,7.39,0,0,1,2.47-2.66,6.09,6.09,0,0,1,3.38-1,8.65,8.65,0,0,1,1.81.16l-0.4,5a6.14,6.14,0,0,0-1.58-.18,5.69,5.69,0,0,0-4,1.32,4.77,4.77,0,0,0-1.43,3.69v10h-5.36Z"/><path class="cls-2" d="M256.52,318.49q0-4.94,2.47-7.64a8.81,8.81,0,0,1,6.84-2.7,8.61,8.61,0,0,1,6.47,2.37,9,9,0,0,1,2.31,6.56v2.6H262a5.2,5.2,0,0,0,1.35,3.58,4.74,4.74,0,0,0,3.54,1.29,14.6,14.6,0,0,0,3.35-.37,16.69,16.69,0,0,0,3.29-1.18v4.14a12.56,12.56,0,0,1-3,1,19,19,0,0,1-3.89.34,10.15,10.15,0,0,1-7.42-2.62Q256.52,323.29,256.52,318.49Zm5.57-2.37h7.51a4.47,4.47,0,0,0-1-3.07,3.5,3.5,0,0,0-2.7-1.08,3.39,3.39,0,0,0-2.67,1.08A5,5,0,0,0,262.1,316.12Z"/><path class="cls-2" d="M279,328.18V300.83h5.36v27.35H279Z"/><path class="cls-2" d="M288.78,318.31q0-4.81,2.51-7.48a9.22,9.22,0,0,1,7.06-2.67,9.88,9.88,0,0,1,5,1.23,8.19,8.19,0,0,1,3.31,3.53,11.86,11.86,0,0,1,1.16,5.39,10.6,10.6,0,0,1-2.52,7.51,9.14,9.14,0,0,1-7,2.71,9.83,9.83,0,0,1-5-1.24,8.25,8.25,0,0,1-3.32-3.56A12,12,0,0,1,288.78,318.31Zm5.45,0a8.21,8.21,0,0,0,1,4.41,3.44,3.44,0,0,0,3.13,1.49,3.38,3.38,0,0,0,3.09-1.48,8.33,8.33,0,0,0,.94-4.41,8.08,8.08,0,0,0-1-4.37,4.05,4.05,0,0,0-6.22,0A8.08,8.08,0,0,0,294.23,318.31Z"/><path class="cls-2" d="M311.07,318.47q0-5,2.49-7.66t7.14-2.65a13.64,13.64,0,0,1,6.12,1.34l-1.58,4.15q-1.27-.51-2.36-0.84a7.56,7.56,0,0,0-2.18-.33q-4.18,0-4.18,6,0,5.77,4.18,5.77a9.51,9.51,0,0,0,2.87-.41,10.32,10.32,0,0,0,2.64-1.29v4.58a8.62,8.62,0,0,1-2.63,1.14,14.84,14.84,0,0,1-3.35.32Q311.07,328.53,311.07,318.47Z"/><path class="cls-2" d="M329.47,322.31a5.19,5.19,0,0,1,2.18-4.61q2.18-1.49,6.58-1.64l3.4-.11v-0.86q0-3-3.07-3a13.89,13.89,0,0,0-5.53,1.42l-1.76-3.62a15.88,15.88,0,0,1,7.5-1.78,9.46,9.46,0,0,1,6.1,1.72,6.35,6.35,0,0,1,2.12,5.24v13.1h-3.77l-1-2.67H342a7.94,7.94,0,0,1-2.79,2.36,9.05,9.05,0,0,1-3.75.66,6,6,0,0,1-4.42-1.62A6.24,6.24,0,0,1,329.47,322.31Zm5.45,0q0,2.25,2.61,2.25a4.16,4.16,0,0,0,3-1.06,3.71,3.71,0,0,0,1.12-2.82v-1.6l-2.08.07a6.73,6.73,0,0,0-3.49.84A2.61,2.61,0,0,0,334.92,322.31Z"/><path class="cls-2" d="M350.53,312.5v-2.24l3-1.77,1.55-4.2h3.43v4.24H364v4h-5.5V322a2.11,2.11,0,0,0,.64,1.7,2.52,2.52,0,0,0,1.7.55,11.55,11.55,0,0,0,3.38-.62v4a12.09,12.09,0,0,1-4.92.89q-3.22,0-4.68-1.63A7.12,7.12,0,0,1,353.1,322V312.5h-2.57Z"/><path class="cls-2" d="M367.92,303.45q0-2.62,2.92-2.62t2.92,2.62a2.55,2.55,0,0,1-.73,1.94,3.07,3.07,0,0,1-2.19.69Q367.92,306.08,367.92,303.45Zm0.23,24.73V308.53h5.36v19.65h-5.36Z"/><path class="cls-2" d="M377.94,318.31q0-4.81,2.51-7.48a9.22,9.22,0,0,1,7.06-2.67,9.88,9.88,0,0,1,5,1.23,8.19,8.19,0,0,1,3.31,3.53,11.86,11.86,0,0,1,1.16,5.39,10.6,10.6,0,0,1-2.52,7.51,9.14,9.14,0,0,1-7,2.71,9.83,9.83,0,0,1-5-1.24,8.25,8.25,0,0,1-3.32-3.56A12,12,0,0,1,377.94,318.31Zm5.45,0a8.21,8.21,0,0,0,1,4.41,3.44,3.44,0,0,0,3.13,1.49,3.38,3.38,0,0,0,3.09-1.48,8.33,8.33,0,0,0,.94-4.41,8.08,8.08,0,0,0-1-4.37,4.05,4.05,0,0,0-6.22,0A8.08,8.08,0,0,0,383.38,318.31Z"/><path class="cls-2" d="M401.42,328.18V308.53h4.1l0.72,2.49h0.3a5.65,5.65,0,0,1,2.47-2.14,8.47,8.47,0,0,1,3.58-.72,6.87,6.87,0,0,1,5.2,1.85,7.44,7.44,0,0,1,1.78,5.35v12.81H414.2v-11.5a5.53,5.53,0,0,0-.76-3.2,2.75,2.75,0,0,0-2.41-1.07,3.62,3.62,0,0,0-3.25,1.51,9.36,9.36,0,0,0-1,5v9.27h-5.36Z"/><path class="cls-2" d="M433.13,322.31a5.19,5.19,0,0,1,2.18-4.61q2.18-1.49,6.58-1.64l3.4-.11v-0.86q0-3-3.07-3a13.89,13.89,0,0,0-5.53,1.42l-1.76-3.62a15.88,15.88,0,0,1,7.5-1.78,9.46,9.46,0,0,1,6.1,1.72,6.35,6.35,0,0,1,2.12,5.24v13.1h-3.77l-1-2.67H445.7a7.94,7.94,0,0,1-2.79,2.36,9.05,9.05,0,0,1-3.75.66,6,6,0,0,1-4.42-1.62A6.24,6.24,0,0,1,433.13,322.31Zm5.45,0q0,2.25,2.61,2.25a4.16,4.16,0,0,0,3-1.06,3.71,3.71,0,0,0,1.12-2.82v-1.6l-2.08.07a6.73,6.73,0,0,0-3.49.84A2.61,2.61,0,0,0,438.58,322.31Z"/><path class="cls-2" d="M455,313.64a4.66,4.66,0,0,1,2-4,10,10,0,0,1,5.78-1.43,16.16,16.16,0,0,1,6.87,1.55l-1.61,3.86q-1.47-.63-2.74-1a8.63,8.63,0,0,0-2.6-.4q-2.36,0-2.36,1.28a1.5,1.5,0,0,0,.76,1.24,20.62,20.62,0,0,0,3.33,1.56,15.44,15.44,0,0,1,3.35,1.73,5.12,5.12,0,0,1,1.57,1.86,5.71,5.71,0,0,1,.51,2.5,5.48,5.48,0,0,1-2.09,4.64q-2.09,1.59-6.25,1.59a19.62,19.62,0,0,1-3.67-.29,13.71,13.71,0,0,1-2.84-.86v-4.46a18.91,18.91,0,0,0,3.38,1.17,13.79,13.79,0,0,0,3.31.47q2.91,0,2.91-1.68a1.4,1.4,0,0,0-.39-1,5.57,5.57,0,0,0-1.33-.89q-0.94-.5-2.52-1.16A16,16,0,0,1,457,318a4.94,4.94,0,0,1-1.56-1.85A6,6,0,0,1,455,313.64Z"/><path class="cls-2" d="M472.88,313.64a4.66,4.66,0,0,1,2-4,10,10,0,0,1,5.78-1.43,16.16,16.16,0,0,1,6.87,1.55l-1.61,3.86q-1.47-.63-2.74-1a8.63,8.63,0,0,0-2.6-.4q-2.36,0-2.36,1.28a1.5,1.5,0,0,0,.76,1.24,20.62,20.62,0,0,0,3.33,1.56,15.44,15.44,0,0,1,3.35,1.73,5.12,5.12,0,0,1,1.57,1.86,5.71,5.71,0,0,1,.51,2.5,5.48,5.48,0,0,1-2.09,4.64q-2.09,1.59-6.25,1.59a19.62,19.62,0,0,1-3.67-.29,13.71,13.71,0,0,1-2.84-.86v-4.46a18.91,18.91,0,0,0,3.38,1.17,13.79,13.79,0,0,0,3.31.47q2.91,0,2.91-1.68a1.4,1.4,0,0,0-.39-1,5.57,5.57,0,0,0-1.33-.89q-0.94-.5-2.52-1.16a16,16,0,0,1-3.35-1.75,4.94,4.94,0,0,1-1.56-1.85A6,6,0,0,1,472.88,313.64Z"/><path class="cls-2" d="M491.74,303.45q0-2.62,2.92-2.62t2.92,2.62a2.55,2.55,0,0,1-.73,1.94,3.07,3.07,0,0,1-2.19.69Q491.74,306.08,491.74,303.45ZM492,328.18V308.53h5.36v19.65H492Z"/><path class="cls-2" d="M501.76,313.64a4.66,4.66,0,0,1,2-4,10,10,0,0,1,5.78-1.43,16.16,16.16,0,0,1,6.87,1.55l-1.61,3.86q-1.47-.63-2.74-1a8.63,8.63,0,0,0-2.6-.4q-2.36,0-2.36,1.28a1.5,1.5,0,0,0,.76,1.24,20.62,20.62,0,0,0,3.33,1.56,15.44,15.44,0,0,1,3.35,1.73,5.12,5.12,0,0,1,1.57,1.86,5.71,5.71,0,0,1,.51,2.5,5.48,5.48,0,0,1-2.09,4.64q-2.09,1.59-6.25,1.59a19.62,19.62,0,0,1-3.67-.29,13.71,13.71,0,0,1-2.84-.86v-4.46a18.91,18.91,0,0,0,3.38,1.17,13.79,13.79,0,0,0,3.31.47q2.91,0,2.91-1.68a1.4,1.4,0,0,0-.39-1,5.57,5.57,0,0,0-1.33-.89q-0.94-.5-2.52-1.16A16,16,0,0,1,503.8,318a4.94,4.94,0,0,1-1.56-1.85A6,6,0,0,1,501.76,313.64Z"/><path class="cls-2" d="M518.86,312.5v-2.24l3-1.77,1.55-4.2h3.43v4.24h5.5v4h-5.5V322a2.11,2.11,0,0,0,.64,1.7,2.52,2.52,0,0,0,1.7.55,11.55,11.55,0,0,0,3.38-.62v4a12.09,12.09,0,0,1-4.92.89q-3.22,0-4.68-1.63a7.12,7.12,0,0,1-1.47-4.89V312.5h-2.57Z"/><path class="cls-2" d="M535.17,322.31a5.19,5.19,0,0,1,2.18-4.61q2.18-1.49,6.58-1.64l3.4-.11v-0.86q0-3-3.07-3a13.89,13.89,0,0,0-5.53,1.42L537,309.9a15.88,15.88,0,0,1,7.5-1.78,9.46,9.46,0,0,1,6.1,1.72,6.35,6.35,0,0,1,2.12,5.24v13.1h-3.77l-1-2.67h-0.14a7.94,7.94,0,0,1-2.79,2.36,9.05,9.05,0,0,1-3.75.66,6,6,0,0,1-4.42-1.62A6.24,6.24,0,0,1,535.17,322.31Zm5.45,0q0,2.25,2.61,2.25a4.16,4.16,0,0,0,3-1.06,3.71,3.71,0,0,0,1.12-2.82v-1.6l-2.08.07a6.73,6.73,0,0,0-3.49.84A2.61,2.61,0,0,0,540.62,322.31Z"/><path class="cls-2" d="M558.22,328.18V308.53h4.1L563,311h0.3a5.65,5.65,0,0,1,2.47-2.14,8.47,8.47,0,0,1,3.58-.72,6.87,6.87,0,0,1,5.2,1.85,7.44,7.44,0,0,1,1.78,5.35v12.81H571v-11.5a5.53,5.53,0,0,0-.76-3.2,2.75,2.75,0,0,0-2.41-1.07,3.62,3.62,0,0,0-3.25,1.51,9.36,9.36,0,0,0-1,5v9.27h-5.36Z"/><path class="cls-2" d="M580.68,318.47q0-5,2.49-7.66t7.14-2.65a13.64,13.64,0,0,1,6.12,1.34l-1.58,4.15q-1.27-.51-2.36-0.84a7.56,7.56,0,0,0-2.18-.33q-4.18,0-4.18,6,0,5.77,4.18,5.77a9.51,9.51,0,0,0,2.87-.41,10.32,10.32,0,0,0,2.64-1.29v4.58a8.62,8.62,0,0,1-2.63,1.14,14.84,14.84,0,0,1-3.35.32Q580.68,328.53,580.68,318.47Z"/><path class="cls-2" d="M599.19,318.49q0-4.94,2.47-7.64a8.81,8.81,0,0,1,6.84-2.7,8.61,8.61,0,0,1,6.47,2.37,9,9,0,0,1,2.31,6.56v2.6H604.64a5.2,5.2,0,0,0,1.35,3.58,4.74,4.74,0,0,0,3.54,1.29,14.6,14.6,0,0,0,3.35-.37,16.69,16.69,0,0,0,3.29-1.18v4.14a12.56,12.56,0,0,1-3,1,19,19,0,0,1-3.89.34,10.15,10.15,0,0,1-7.42-2.62Q599.19,323.29,599.19,318.49Zm5.57-2.37h7.51a4.47,4.47,0,0,0-1-3.07,3.5,3.5,0,0,0-2.7-1.08,3.39,3.39,0,0,0-2.67,1.08A5,5,0,0,0,604.76,316.12Z"/><path class="cls-2" d="M83.14,400.67v25.44a0.66,0.66,0,0,1-.64.64H81.21a0.66,0.66,0,0,1-.64-0.64V400.67A2.57,2.57,0,1,1,83.14,400.67ZM114,415.08a1.43,1.43,0,0,1-1,1.33,16,16,0,0,1-7.42,2.33c-3.7,0-5.47-2.81-9.85-2.81-3.2,0-6.55,1.45-9.32,2.93a1.32,1.32,0,0,1-.66.18,1.3,1.3,0,0,1-1.29-1.29V402.84a1.32,1.32,0,0,1,.62-1.11,15.26,15.26,0,0,1,1.59-.86,19.71,19.71,0,0,1,8.46-2.41c3.16,0,5.63,1,8.42,2.35a3.85,3.85,0,0,0,1.77.38c3.16,0,6.55-2.73,7.44-2.73a1.3,1.3,0,0,1,1.29,1.29v15.33Z"/><path class="cls-2" d="M81.23,472.18v-25.7H96v4.46H86.6v6.63h8.72V462H86.6v10.16H81.23Z"/><path class="cls-2" d="M100.57,472.18V452.53h4.06l0.79,3.3h0.26a7.39,7.39,0,0,1,2.47-2.66,6.09,6.09,0,0,1,3.38-1,8.65,8.65,0,0,1,1.81.16l-0.4,5a6.14,6.14,0,0,0-1.58-.18,5.69,5.69,0,0,0-4,1.32,4.77,4.77,0,0,0-1.43,3.69v10h-5.36Z"/><path class="cls-2" d="M115.37,462.49q0-4.94,2.47-7.64a8.81,8.81,0,0,1,6.84-2.7,8.61,8.61,0,0,1,6.47,2.37,9,9,0,0,1,2.31,6.56v2.6H120.82a5.2,5.2,0,0,0,1.35,3.58,4.74,4.74,0,0,0,3.54,1.29,14.6,14.6,0,0,0,3.35-.37,16.69,16.69,0,0,0,3.29-1.18v4.14a12.56,12.56,0,0,1-3,1,19,19,0,0,1-3.89.34,10.15,10.15,0,0,1-7.42-2.62Q115.37,467.29,115.37,462.49Zm5.57-2.37h7.51a4.47,4.47,0,0,0-1-3.07,3.5,3.5,0,0,0-2.7-1.08,3.39,3.39,0,0,0-2.67,1.08A5,5,0,0,0,120.94,460.12Z"/><path class="cls-2" d="M136.64,462.49q0-4.94,2.47-7.64a8.81,8.81,0,0,1,6.84-2.7,8.61,8.61,0,0,1,6.47,2.37,9,9,0,0,1,2.31,6.56v2.6H142.09a5.2,5.2,0,0,0,1.35,3.58,4.74,4.74,0,0,0,3.54,1.29,14.6,14.6,0,0,0,3.35-.37,16.69,16.69,0,0,0,3.29-1.18v4.14a12.56,12.56,0,0,1-3,1,19,19,0,0,1-3.89.34,10.15,10.15,0,0,1-7.42-2.62Q136.64,467.29,136.64,462.49Zm5.57-2.37h7.51a4.47,4.47,0,0,0-1-3.07A3.5,3.5,0,0,0,146,456a3.39,3.39,0,0,0-2.67,1.08A5,5,0,0,0,142.21,460.12Z"/><path class="cls-2" d="M167.74,459.29q0-6.22,3.56-9.7t9.87-3.48a19.26,19.26,0,0,1,7.66,1.58L187,452.05a13,13,0,0,0-5.88-1.41,7.23,7.23,0,0,0-5.66,2.37,9.21,9.21,0,0,0-2.13,6.38q0,4.18,1.71,6.39a5.93,5.93,0,0,0,5,2.21,17.63,17.63,0,0,0,3.46-.35v-5.36h-4.83v-4.54h10.2v13.32a29,29,0,0,1-4.69,1.13,30.62,30.62,0,0,1-4.49.33q-5.82,0-8.89-3.42T167.74,459.29Z"/><path class="cls-2" d="M193.33,462.49q0-4.94,2.47-7.64a8.81,8.81,0,0,1,6.84-2.7,8.61,8.61,0,0,1,6.47,2.37,9,9,0,0,1,2.31,6.56v2.6H198.78a5.2,5.2,0,0,0,1.35,3.58,4.74,4.74,0,0,0,3.54,1.29,14.6,14.6,0,0,0,3.35-.37,16.69,16.69,0,0,0,3.29-1.18v4.14a12.56,12.56,0,0,1-3,1,19,19,0,0,1-3.89.34,10.15,10.15,0,0,1-7.42-2.62Q193.33,467.29,193.33,462.49Zm5.57-2.37h7.51a4.47,4.47,0,0,0-1-3.07,3.5,3.5,0,0,0-2.7-1.08,3.39,3.39,0,0,0-2.67,1.08A5,5,0,0,0,198.9,460.12Z"/><path class="cls-2" d="M215.79,472.18V452.53h4.06l0.79,3.3h0.26a7.39,7.39,0,0,1,2.47-2.66,6.09,6.09,0,0,1,3.38-1,8.65,8.65,0,0,1,1.81.16l-0.4,5a6.14,6.14,0,0,0-1.58-.18,5.69,5.69,0,0,0-4,1.32,4.77,4.77,0,0,0-1.43,3.69v10h-5.36Z"/><path class="cls-2" d="M232.14,472.18V452.53h4.1L237,455h0.3a5.43,5.43,0,0,1,2.29-2.1,7.47,7.47,0,0,1,3.43-.76q4.41,0,6,2.86h0.47a5.29,5.29,0,0,1,2.33-2.11,7.82,7.82,0,0,1,3.47-.75,6.83,6.83,0,0,1,5,1.71q1.71,1.71,1.71,5.49v12.81h-5.36v-11.5a5.8,5.8,0,0,0-.71-3.2,2.5,2.5,0,0,0-2.24-1.07,3.34,3.34,0,0,0-2.94,1.41,8,8,0,0,0-1,4.48v9.88h-5.36v-11.5a5.8,5.8,0,0,0-.71-3.2,2.5,2.5,0,0,0-2.24-1.07,3.24,3.24,0,0,0-3,1.52,10,10,0,0,0-.93,5v9.27h-5.36Z"/><path class="cls-2" d="M266.19,466.31a5.19,5.19,0,0,1,2.18-4.61q2.18-1.49,6.58-1.64l3.4-.11v-0.86q0-3-3.07-3a13.89,13.89,0,0,0-5.53,1.42L268,453.9a15.88,15.88,0,0,1,7.5-1.78,9.46,9.46,0,0,1,6.1,1.72,6.35,6.35,0,0,1,2.12,5.24v13.1h-3.77l-1-2.67h-0.14a7.94,7.94,0,0,1-2.79,2.36,9.05,9.05,0,0,1-3.75.66,6,6,0,0,1-4.42-1.62A6.24,6.24,0,0,1,266.19,466.31Zm5.45,0q0,2.25,2.61,2.25a4.16,4.16,0,0,0,3-1.06,3.71,3.71,0,0,0,1.12-2.82v-1.6l-2.08.07a6.73,6.73,0,0,0-3.49.84A2.61,2.61,0,0,0,271.64,466.31Z"/><path class="cls-2" d="M289.24,472.18V452.53h4.1l0.72,2.49h0.3a5.65,5.65,0,0,1,2.47-2.14,8.47,8.47,0,0,1,3.58-.72,6.87,6.87,0,0,1,5.2,1.85,7.44,7.44,0,0,1,1.78,5.35v12.81H302v-11.5a5.53,5.53,0,0,0-.76-3.2,2.75,2.75,0,0,0-2.41-1.07,3.62,3.62,0,0,0-3.25,1.51,9.36,9.36,0,0,0-1,5v9.27h-5.36Z"/><path class="cls-2" d="M321.05,462.47q0-5,2.49-7.66t7.14-2.65a13.64,13.64,0,0,1,6.12,1.34l-1.58,4.15q-1.27-.51-2.36-0.84a7.56,7.56,0,0,0-2.18-.33q-4.18,0-4.18,6,0,5.77,4.18,5.77a9.51,9.51,0,0,0,2.87-.41,10.32,10.32,0,0,0,2.64-1.29v4.58a8.62,8.62,0,0,1-2.63,1.14,14.84,14.84,0,0,1-3.35.32Q321.05,472.53,321.05,462.47Z"/><path class="cls-2" d="M340.76,472.18V444.83h5.36v27.35h-5.36Z"/><path class="cls-2" d="M350.44,466.31a5.19,5.19,0,0,1,2.18-4.61q2.18-1.49,6.58-1.64l3.4-.11v-0.86q0-3-3.07-3a13.89,13.89,0,0,0-5.53,1.42l-1.76-3.62a15.88,15.88,0,0,1,7.5-1.78,9.46,9.46,0,0,1,6.1,1.72,6.35,6.35,0,0,1,2.12,5.24v13.1H364.2l-1-2.67H363a7.94,7.94,0,0,1-2.79,2.36,9.05,9.05,0,0,1-3.75.66,6,6,0,0,1-4.42-1.62A6.24,6.24,0,0,1,350.44,466.31Zm5.45,0q0,2.25,2.61,2.25a4.16,4.16,0,0,0,3-1.06,3.71,3.71,0,0,0,1.12-2.82v-1.6l-2.08.07A6.73,6.73,0,0,0,357,464,2.61,2.61,0,0,0,355.89,466.31Z"/><path class="cls-2" d="M372.29,457.64a4.66,4.66,0,0,1,2-4,10,10,0,0,1,5.78-1.43,16.16,16.16,0,0,1,6.87,1.55l-1.61,3.86q-1.47-.63-2.74-1a8.63,8.63,0,0,0-2.6-.4q-2.36,0-2.36,1.28a1.5,1.5,0,0,0,.76,1.24,20.62,20.62,0,0,0,3.33,1.56,15.44,15.44,0,0,1,3.35,1.73,5.12,5.12,0,0,1,1.57,1.86,5.71,5.71,0,0,1,.51,2.5,5.48,5.48,0,0,1-2.09,4.64q-2.09,1.59-6.25,1.59a19.62,19.62,0,0,1-3.67-.29,13.71,13.71,0,0,1-2.84-.86v-4.46a18.91,18.91,0,0,0,3.38,1.17,13.79,13.79,0,0,0,3.31.47q2.91,0,2.91-1.68a1.4,1.4,0,0,0-.39-1,5.57,5.57,0,0,0-1.33-.89q-0.94-.5-2.52-1.16a16,16,0,0,1-3.35-1.75,4.94,4.94,0,0,1-1.56-1.85A6,6,0,0,1,372.29,457.64Z"/><path class="cls-2" d="M390.19,457.64a4.66,4.66,0,0,1,2-4,10,10,0,0,1,5.78-1.43,16.16,16.16,0,0,1,6.87,1.55l-1.61,3.86q-1.47-.63-2.74-1a8.63,8.63,0,0,0-2.6-.4q-2.36,0-2.36,1.28a1.5,1.5,0,0,0,.76,1.24,20.62,20.62,0,0,0,3.33,1.56,15.44,15.44,0,0,1,3.35,1.73,5.12,5.12,0,0,1,1.57,1.86,5.71,5.71,0,0,1,.51,2.5,5.48,5.48,0,0,1-2.09,4.64q-2.09,1.59-6.25,1.59a19.62,19.62,0,0,1-3.67-.29,13.71,13.71,0,0,1-2.84-.86v-4.46a18.91,18.91,0,0,0,3.38,1.17,13.79,13.79,0,0,0,3.31.47q2.91,0,2.91-1.68a1.4,1.4,0,0,0-.39-1,5.57,5.57,0,0,0-1.33-.89q-0.94-.5-2.52-1.16a16,16,0,0,1-3.35-1.75,4.94,4.94,0,0,1-1.56-1.85A6,6,0,0,1,390.19,457.64Z"/><path class="cls-2" d="M408.08,462.49q0-4.94,2.47-7.64a8.81,8.81,0,0,1,6.84-2.7,8.61,8.61,0,0,1,6.47,2.37,9,9,0,0,1,2.31,6.56v2.6H413.53a5.2,5.2,0,0,0,1.35,3.58,4.74,4.74,0,0,0,3.54,1.29,14.6,14.6,0,0,0,3.35-.37,16.69,16.69,0,0,0,3.29-1.18v4.14a12.56,12.56,0,0,1-3,1,19,19,0,0,1-3.89.34,10.15,10.15,0,0,1-7.42-2.62Q408.08,467.29,408.08,462.49Zm5.57-2.37h7.51a4.47,4.47,0,0,0-1-3.07,3.5,3.5,0,0,0-2.7-1.08,3.39,3.39,0,0,0-2.67,1.08A5,5,0,0,0,413.65,460.12Z"/><path class="cls-2" d="M429.35,457.64a4.66,4.66,0,0,1,2-4,10,10,0,0,1,5.78-1.43,16.16,16.16,0,0,1,6.87,1.55l-1.61,3.86q-1.47-.63-2.74-1a8.63,8.63,0,0,0-2.6-.4q-2.36,0-2.36,1.28a1.5,1.5,0,0,0,.76,1.24,20.62,20.62,0,0,0,3.33,1.56,15.44,15.44,0,0,1,3.35,1.73,5.12,5.12,0,0,1,1.57,1.86,5.71,5.71,0,0,1,.51,2.5,5.48,5.48,0,0,1-2.09,4.64q-2.09,1.59-6.25,1.59a19.62,19.62,0,0,1-3.67-.29,13.71,13.71,0,0,1-2.84-.86v-4.46a18.91,18.91,0,0,0,3.38,1.17,13.79,13.79,0,0,0,3.31.47q2.91,0,2.91-1.68a1.4,1.4,0,0,0-.39-1,5.57,5.57,0,0,0-1.33-.89q-0.94-.5-2.52-1.16a16,16,0,0,1-3.35-1.75,4.94,4.94,0,0,1-1.56-1.85A6,6,0,0,1,429.35,457.64Z"/><path class="cls-2" d="M455.33,452.53h5.36l2.27,8.7q0.39,1.55,1.07,6.46h0.14a36.28,36.28,0,0,1,.61-4.24l0.28-1.49,2.42-9.42h5.9l2.09,9.46,0.63,2.83a17,17,0,0,1,.44,2.87h0.14q0.19-1.56.54-3.56t0.6-2.89l2.36-8.7h5.26l-5.66,19.65h-5.93l-1.54-6.84-2-8.68h-0.16l-3.54,15.53h-5.69Z"/><path class="cls-2" d="M488.38,447.45q0-2.62,2.92-2.62t2.92,2.62a2.55,2.55,0,0,1-.73,1.94,3.07,3.07,0,0,1-2.19.69Q488.38,450.08,488.38,447.45Zm0.23,24.73V452.53H494v19.65h-5.36Z"/><path class="cls-2" d="M497.61,456.5v-2.24l3-1.77,1.55-4.2h3.43v4.24H511v4h-5.5V466a2.11,2.11,0,0,0,.64,1.7,2.52,2.52,0,0,0,1.7.55,11.55,11.55,0,0,0,3.38-.62v4a12.09,12.09,0,0,1-4.92.89q-3.22,0-4.68-1.63a7.12,7.12,0,0,1-1.47-4.89V456.5h-2.57Z"/><path class="cls-2" d="M515.22,472.18V444.83h5.36v5.57q0,0.65-.12,3.06L520.34,455h0.28a6.21,6.21,0,0,1,5.7-2.88,7,7,0,0,1,5.26,1.86,7.4,7.4,0,0,1,1.79,5.34v12.81H528V460.7q0-4.25-3.16-4.25a3.6,3.6,0,0,0-3.25,1.53,9.34,9.34,0,0,0-1,5v9.25h-5.36Z"/><path class="cls-2" d="M548.23,472.18V452.53h4.1L553,455h0.3a5.43,5.43,0,0,1,2.29-2.1,7.47,7.47,0,0,1,3.43-.76q4.41,0,6,2.86h0.47a5.29,5.29,0,0,1,2.33-2.11,7.82,7.82,0,0,1,3.47-.75,6.83,6.83,0,0,1,5,1.71q1.71,1.71,1.71,5.49v12.81H572.7v-11.5a5.8,5.8,0,0,0-.71-3.2,2.5,2.5,0,0,0-2.24-1.07,3.34,3.34,0,0,0-2.94,1.41,8,8,0,0,0-1,4.48v9.88h-5.36v-11.5a5.8,5.8,0,0,0-.71-3.2,2.5,2.5,0,0,0-2.24-1.07,3.24,3.24,0,0,0-3,1.52,10,10,0,0,0-.93,5v9.27h-5.36Z"/><path class="cls-2" d="M582.28,466.31a5.19,5.19,0,0,1,2.18-4.61q2.18-1.49,6.58-1.64l3.4-.11v-0.86q0-3-3.07-3a13.89,13.89,0,0,0-5.53,1.42l-1.76-3.62a15.88,15.88,0,0,1,7.5-1.78,9.46,9.46,0,0,1,6.1,1.72,6.35,6.35,0,0,1,2.12,5.24v13.1H596l-1-2.67h-0.14a7.94,7.94,0,0,1-2.79,2.36,9.05,9.05,0,0,1-3.75.66,6,6,0,0,1-4.42-1.62A6.24,6.24,0,0,1,582.28,466.31Zm5.45,0q0,2.25,2.61,2.25a4.16,4.16,0,0,0,3-1.06,3.71,3.71,0,0,0,1.12-2.82v-1.6l-2.08.07a6.73,6.73,0,0,0-3.49.84A2.61,2.61,0,0,0,587.73,466.31Z"/><path class="cls-2" d="M603.34,456.5v-2.24l3-1.77,1.55-4.2h3.43v4.24h5.5v4h-5.5V466a2.11,2.11,0,0,0,.64,1.7,2.52,2.52,0,0,0,1.7.55,11.55,11.55,0,0,0,3.38-.62v4a12.09,12.09,0,0,1-4.92.89q-3.22,0-4.68-1.63a7.12,7.12,0,0,1-1.47-4.89V456.5h-2.57Z"/><path class="cls-2" d="M619.76,462.49q0-4.94,2.47-7.64a8.81,8.81,0,0,1,6.84-2.7,8.61,8.61,0,0,1,6.47,2.37,9,9,0,0,1,2.31,6.56v2.6H625.21a5.2,5.2,0,0,0,1.35,3.58,4.74,4.74,0,0,0,3.54,1.29,14.6,14.6,0,0,0,3.35-.37,16.69,16.69,0,0,0,3.29-1.18v4.14a12.56,12.56,0,0,1-3,1,19,19,0,0,1-3.89.34,10.15,10.15,0,0,1-7.42-2.62Q619.76,467.29,619.76,462.49Zm5.57-2.37h7.51a4.47,4.47,0,0,0-1-3.07,3.5,3.5,0,0,0-2.7-1.08,3.39,3.39,0,0,0-2.67,1.08A5,5,0,0,0,625.33,460.12Z"/><path class="cls-2" d="M642.22,472.18V452.53h4.06l0.79,3.3h0.26a7.39,7.39,0,0,1,2.47-2.66,6.09,6.09,0,0,1,3.38-1,8.65,8.65,0,0,1,1.81.16l-0.4,5a6.14,6.14,0,0,0-1.58-.18,5.69,5.69,0,0,0-4,1.32,4.77,4.77,0,0,0-1.43,3.69v10h-5.36Z"/><path class="cls-2" d="M658.34,447.45q0-2.62,2.92-2.62t2.92,2.62a2.55,2.55,0,0,1-.73,1.94,3.07,3.07,0,0,1-2.19.69Q658.34,450.08,658.34,447.45Zm0.23,24.73V452.53h5.36v19.65h-5.36Z"/><path class="cls-2" d="M668.26,466.31a5.19,5.19,0,0,1,2.18-4.61q2.18-1.49,6.58-1.64l3.4-.11v-0.86q0-3-3.07-3a13.89,13.89,0,0,0-5.53,1.42l-1.76-3.62a15.88,15.88,0,0,1,7.5-1.78,9.46,9.46,0,0,1,6.1,1.72,6.35,6.35,0,0,1,2.12,5.24v13.1H682l-1-2.67h-0.14a7.94,7.94,0,0,1-2.79,2.36,9.05,9.05,0,0,1-3.75.66,6,6,0,0,1-4.42-1.62A6.24,6.24,0,0,1,668.26,466.31Zm5.45,0q0,2.25,2.61,2.25a4.16,4.16,0,0,0,3-1.06,3.71,3.71,0,0,0,1.12-2.82v-1.6l-2.08.07a6.73,6.73,0,0,0-3.49.84A2.61,2.61,0,0,0,673.71,466.31Z"/><path class="cls-2" d="M691.3,472.18V444.83h5.36v27.35H691.3Z"/><path class="cls-2" d="M80.58,495.45q0-2.62,2.92-2.62t2.92,2.62a2.55,2.55,0,0,1-.73,1.94,3.07,3.07,0,0,1-2.19.69Q80.58,498.08,80.58,495.45Zm0.23,24.73V500.53h5.36v19.65H80.81Z"/><path class="cls-2" d="M91.8,520.18V500.53h4.1L96.62,503h0.3a5.65,5.65,0,0,1,2.47-2.14,8.47,8.47,0,0,1,3.58-.72,6.87,6.87,0,0,1,5.2,1.85,7.44,7.44,0,0,1,1.78,5.35v12.81h-5.36v-11.5a5.53,5.53,0,0,0-.76-3.2,2.75,2.75,0,0,0-2.41-1.07,3.62,3.62,0,0,0-3.25,1.51,9.36,9.36,0,0,0-1,5v9.27H91.8Z"/><path class="cls-2" d="M114.26,510.47q0-5,2.49-7.66t7.14-2.65a13.64,13.64,0,0,1,6.12,1.34l-1.58,4.15q-1.27-.51-2.36-0.84a7.56,7.56,0,0,0-2.18-.33q-4.18,0-4.18,6,0,5.77,4.18,5.77a9.51,9.51,0,0,0,2.87-.41,10.32,10.32,0,0,0,2.64-1.29v4.58a8.62,8.62,0,0,1-2.63,1.14,14.84,14.84,0,0,1-3.35.32Q114.26,520.53,114.26,510.47Z"/><path class="cls-2" d="M134,520.18V492.83h5.36v27.35H134Z"/><path class="cls-2" d="M144.85,513.34V500.53h5.36V512a5.53,5.53,0,0,0,.76,3.19,2.75,2.75,0,0,0,2.41,1.06,3.62,3.62,0,0,0,3.25-1.5,9.34,9.34,0,0,0,1-5v-9.26H163v19.65h-4.11l-0.72-2.5h-0.28a5.65,5.65,0,0,1-2.44,2.11,8.37,8.37,0,0,1-3.6.74,6.86,6.86,0,0,1-5.22-1.85A7.46,7.46,0,0,1,144.85,513.34Z"/><path class="cls-2" d="M167.42,510.39q0-4.83,2-7.53a6.55,6.55,0,0,1,5.56-2.7,6.38,6.38,0,0,1,5.64,2.88h0.17a22.88,22.88,0,0,1-.39-3.92v-6.29h5.36v27.35h-4.11l-1-2.55h-0.22a6.12,6.12,0,0,1-5.56,2.9,6.4,6.4,0,0,1-5.45-2.69A12.35,12.35,0,0,1,167.42,510.39Zm5.45,0.07a7.71,7.71,0,0,0,1,4.35,3.27,3.27,0,0,0,2.86,1.45,3.6,3.6,0,0,0,3-1.2,7,7,0,0,0,1-4.06v-0.58a8.07,8.07,0,0,0-1-4.54,3.59,3.59,0,0,0-3.15-1.37,3.14,3.14,0,0,0-2.78,1.52A8.13,8.13,0,0,0,172.87,510.46Z"/><path class="cls-2" d="M190.2,510.49q0-4.94,2.47-7.64a8.81,8.81,0,0,1,6.84-2.7,8.61,8.61,0,0,1,6.47,2.37,9,9,0,0,1,2.31,6.56v2.6H195.65a5.2,5.2,0,0,0,1.35,3.58,4.74,4.74,0,0,0,3.54,1.29,14.6,14.6,0,0,0,3.35-.37,16.69,16.69,0,0,0,3.29-1.18v4.14a12.56,12.56,0,0,1-3,1,19,19,0,0,1-3.89.34,10.15,10.15,0,0,1-7.42-2.62Q190.2,515.29,190.2,510.49Zm5.57-2.37h7.51a4.47,4.47,0,0,0-1-3.07,3.5,3.5,0,0,0-2.7-1.08,3.39,3.39,0,0,0-2.67,1.08A5,5,0,0,0,195.77,508.12Z"/><path class="cls-2" d="M211.47,510.39q0-4.83,2-7.53a6.55,6.55,0,0,1,5.56-2.7,6.38,6.38,0,0,1,5.64,2.88h0.17a22.88,22.88,0,0,1-.39-3.92v-6.29h5.36v27.35h-4.11l-1-2.55h-0.22a6.12,6.12,0,0,1-5.56,2.9,6.4,6.4,0,0,1-5.45-2.69A12.35,12.35,0,0,1,211.47,510.39Zm5.45,0.07a7.71,7.71,0,0,0,1,4.35,3.27,3.27,0,0,0,2.86,1.45,3.6,3.6,0,0,0,3-1.2,7,7,0,0,0,1-4.06v-0.58a8.07,8.07,0,0,0-1-4.54,3.59,3.59,0,0,0-3.15-1.37,3.14,3.14,0,0,0-2.78,1.52A8.13,8.13,0,0,0,216.92,510.46Z"/></svg>