<svg id="Layer_1" data-name="Layer 1" xmlns="http://www.w3.org/2000/svg" viewBox="0 0 800 600"><defs><style>.cls-1{fill:#37515e;}.cls-2{fill:#fff;}</style></defs><title>perks</title><rect class="cls-1" width="800" height="600"/><path class="cls-2" d="M81.23,131.85v-25.7H88.7q5.22,0,7.73,1.91a7.65,7.65,0,0,1,1.27,9.83,8.19,8.19,0,0,1-3.5,2.77l7.54,11.19h-6L89.58,122h-2.9v9.84H81.23Zm5.45-14.29h1.76a6.72,6.72,0,0,0,3.81-.86A3.07,3.07,0,0,0,93.49,114a2.81,2.81,0,0,0-1.26-2.6,7.63,7.63,0,0,0-3.89-.77H86.68v6.94Z"/><path class="cls-2" d="M103.38,122.17q0-4.94,2.47-7.64a8.81,8.81,0,0,1,6.84-2.7,8.61,8.61,0,0,1,6.47,2.37,9,9,0,0,1,2.31,6.56v2.6H108.83a5.2,5.2,0,0,0,1.35,3.58,4.73,4.73,0,0,0,3.54,1.29,14.6,14.6,0,0,0,3.35-.37,16.66,16.66,0,0,0,3.29-1.18v4.14a12.51,12.51,0,0,1-3,1,18.92,18.92,0,0,1-3.89.34,10.15,10.15,0,0,1-7.42-2.62Q103.38,127,103.38,122.17Zm5.57-2.37h7.51a4.47,4.47,0,0,0-1-3.07,3.5,3.5,0,0,0-2.7-1.08,3.39,3.39,0,0,0-2.67,1.08A5,5,0,0,0,109,119.79Z"/><path class="cls-2" d="M123,112.2h5.36l2.27,8.7q0.39,1.55,1.07,6.46h0.14a36.28,36.28,0,0,1,.61-4.24l0.28-1.49,2.42-9.42h5.9l2.09,9.46,0.63,2.82a17,17,0,0,1,.44,2.87h0.14q0.19-1.56.54-3.56t0.6-2.89l2.36-8.7h5.26l-5.66,19.65h-5.93L140,125l-2-8.68h-0.16l-3.54,15.53h-5.69Z"/><path class="cls-2" d="M155,126a5.19,5.19,0,0,1,2.18-4.61q2.18-1.49,6.58-1.64l3.4-.11v-0.86q0-3-3.07-3a13.89,13.89,0,0,0-5.53,1.42l-1.76-3.62a15.88,15.88,0,0,1,7.5-1.78,9.46,9.46,0,0,1,6.1,1.72,6.35,6.35,0,0,1,2.12,5.24v13.1h-3.77l-1-2.67h-0.14a7.94,7.94,0,0,1-2.79,2.36,9.05,9.05,0,0,1-3.75.66,6,6,0,0,1-4.42-1.62A6.24,6.24,0,0,1,155,126Zm5.45,0q0,2.25,2.61,2.25a4.16,4.16,0,0,0,3-1.06,3.71,3.71,0,0,0,1.12-2.82v-1.6l-2.08.07a6.73,6.73,0,0,0-3.49.84A2.61,2.61,0,0,0,160.46,126Z"/><path class="cls-2" d="M178.05,131.85V112.2h4.06l0.79,3.3h0.26a7.39,7.39,0,0,1,2.47-2.66,6.09,6.09,0,0,1,3.38-1,8.65,8.65,0,0,1,1.81.16l-0.4,5a6.14,6.14,0,0,0-1.58-.18,5.69,5.69,0,0,0-4,1.32,4.77,4.77,0,0,0-1.43,3.69v10h-5.36Z"/><path class="cls-2" d="M192.86,122.06q0-4.83,2-7.53a6.55,6.55,0,0,1,5.56-2.7,6.38,6.38,0,0,1,5.64,2.88h0.17a22.88,22.88,0,0,1-.39-3.92V104.5h5.36v27.35h-4.11l-1-2.55h-0.22a6.12,6.12,0,0,1-5.56,2.9,6.4,6.4,0,0,1-5.45-2.69A12.35,12.35,0,0,1,192.86,122.06Zm5.45,0.07a7.71,7.71,0,0,0,1,4.35,3.27,3.27,0,0,0,2.86,1.45,3.6,3.6,0,0,0,3-1.2,7,7,0,0,0,1-4.06V122.1a8.07,8.07,0,0,0-1-4.54,3.59,3.59,0,0,0-3.15-1.37,3.14,3.14,0,0,0-2.78,1.52A8.13,8.13,0,0,0,198.3,122.13Z"/><path class="cls-2" d="M216.6,107.12q0-2.62,2.92-2.62t2.92,2.62a2.55,2.55,0,0,1-.73,1.94,3.07,3.07,0,0,1-2.19.69Q216.6,109.76,216.6,107.12Zm0.23,24.73V112.2h5.36v19.65h-5.36Z"/><path class="cls-2" d="M227.82,131.85V112.2h4.1l0.72,2.49h0.3a5.65,5.65,0,0,1,2.47-2.14,8.47,8.47,0,0,1,3.58-.72,6.87,6.87,0,0,1,5.2,1.85A7.44,7.44,0,0,1,246,119v12.81H240.6v-11.5a5.54,5.54,0,0,0-.76-3.2,2.75,2.75,0,0,0-2.41-1.07,3.62,3.62,0,0,0-3.25,1.51,9.36,9.36,0,0,0-1,5v9.27h-5.36Z"/><path class="cls-2" d="M250.28,122q0-4.83,2-7.52a6.53,6.53,0,0,1,5.54-2.69,6.66,6.66,0,0,1,5.71,2.88h0.14l0.44-2.51h4.54v19.69q0,4.24-2.47,6.42t-7.36,2.19a20.5,20.5,0,0,1-7.35-1.17V135a19.47,19.47,0,0,0,7.67,1.51q4.15,0,4.15-4.46v-0.39l0.15-2.4h-0.15a6.25,6.25,0,0,1-5.6,2.9,6.32,6.32,0,0,1-5.47-2.72A12.54,12.54,0,0,1,250.28,122Zm5.45,0.07a8.2,8.2,0,0,0,.95,4.41,3.25,3.25,0,0,0,2.94,1.46,3.62,3.62,0,0,0,3.09-1.24,6.75,6.75,0,0,0,.93-4v-0.65a8,8,0,0,0-1-4.52,3.58,3.58,0,0,0-3.14-1.38Q255.73,116.18,255.73,122.12Z"/><path class="cls-2" d="M282.42,122.14q0-5,2.49-7.66t7.14-2.65a13.64,13.64,0,0,1,6.12,1.34l-1.58,4.15q-1.27-.51-2.36-0.84a7.59,7.59,0,0,0-2.18-.33q-4.18,0-4.18,6,0,5.77,4.18,5.77a9.52,9.52,0,0,0,2.87-.41,10.34,10.34,0,0,0,2.64-1.29v4.58a8.65,8.65,0,0,1-2.63,1.14,14.84,14.84,0,0,1-3.35.31Q282.42,132.2,282.42,122.14Z"/><path class="cls-2" d="M300.82,126a5.19,5.19,0,0,1,2.18-4.61q2.18-1.49,6.58-1.64l3.4-.11v-0.86q0-3-3.07-3a13.89,13.89,0,0,0-5.53,1.42l-1.76-3.62a15.88,15.88,0,0,1,7.5-1.78,9.46,9.46,0,0,1,6.1,1.72,6.35,6.35,0,0,1,2.12,5.24v13.1h-3.77l-1-2.67h-0.14a7.94,7.94,0,0,1-2.79,2.36,9.05,9.05,0,0,1-3.75.66,6,6,0,0,1-4.42-1.62A6.24,6.24,0,0,1,300.82,126Zm5.45,0q0,2.25,2.61,2.25a4.16,4.16,0,0,0,3-1.06,3.71,3.71,0,0,0,1.12-2.82v-1.6l-2.08.07a6.73,6.73,0,0,0-3.49.84A2.61,2.61,0,0,0,306.27,126Z"/><path class="cls-2" d="M323.87,131.85V112.2h4.06l0.79,3.3H329a7.39,7.39,0,0,1,2.47-2.66,6.09,6.09,0,0,1,3.38-1,8.65,8.65,0,0,1,1.81.16l-0.4,5a6.14,6.14,0,0,0-1.58-.18,5.69,5.69,0,0,0-4,1.32,4.77,4.77,0,0,0-1.43,3.69v10h-5.36Z"/><path class="cls-2" d="M338.67,122.17q0-4.94,2.47-7.64a8.81,8.81,0,0,1,6.84-2.7,8.61,8.61,0,0,1,6.47,2.37,9,9,0,0,1,2.31,6.56v2.6H344.12a5.2,5.2,0,0,0,1.35,3.58,4.73,4.73,0,0,0,3.54,1.29,14.6,14.6,0,0,0,3.35-.37,16.66,16.66,0,0,0,3.29-1.18v4.14a12.51,12.51,0,0,1-3,1,18.92,18.92,0,0,1-3.89.34,10.15,10.15,0,0,1-7.42-2.62Q338.67,127,338.67,122.17Zm5.57-2.37h7.51a4.47,4.47,0,0,0-1-3.07,3.5,3.5,0,0,0-2.7-1.08,3.39,3.39,0,0,0-2.67,1.08A5,5,0,0,0,344.24,119.79Z"/><path class="cls-2" d="M359.94,122.17q0-4.94,2.47-7.64a8.81,8.81,0,0,1,6.84-2.7,8.61,8.61,0,0,1,6.47,2.37,9,9,0,0,1,2.31,6.56v2.6H365.38a5.2,5.2,0,0,0,1.35,3.58,4.73,4.73,0,0,0,3.54,1.29,14.6,14.6,0,0,0,3.35-.37,16.66,16.66,0,0,0,3.29-1.18v4.14a12.51,12.51,0,0,1-3,1,18.92,18.92,0,0,1-3.89.34,10.15,10.15,0,0,1-7.42-2.62Q359.93,127,359.94,122.17Zm5.57-2.37H373a4.47,4.47,0,0,0-1-3.07,3.5,3.5,0,0,0-2.7-1.08,3.39,3.39,0,0,0-2.67,1.08A5,5,0,0,0,365.51,119.79Z"/><path class="cls-2" d="M382.4,131.85V112.2h4.06l0.79,3.3h0.26a7.39,7.39,0,0,1,2.47-2.66,6.09,6.09,0,0,1,3.38-1,8.65,8.65,0,0,1,1.81.16l-0.4,5a6.14,6.14,0,0,0-1.58-.18,5.69,5.69,0,0,0-4,1.32,4.77,4.77,0,0,0-1.43,3.69v10H382.4Z"/><path class="cls-2" d="M398,129.34a3,3,0,0,1,.75-2.23,3,3,0,0,1,2.2-.76,2.89,2.89,0,0,1,2.16.77,3.54,3.54,0,0,1,0,4.4,2.84,2.84,0,0,1-2.15.8,2.93,2.93,0,0,1-2.18-.78A3,3,0,0,1,398,129.34Z"/><path class="cls-2" d="M418.79,131.85v-25.7h14.73v4.46h-9.37v6.63h8.72v4.45h-8.72v10.16h-5.36Z"/><path class="cls-2" d="M436.82,126a5.19,5.19,0,0,1,2.18-4.61q2.18-1.49,6.58-1.64l3.4-.11v-0.86q0-3-3.07-3a13.89,13.89,0,0,0-5.53,1.42l-1.76-3.62a15.88,15.88,0,0,1,7.5-1.78,9.46,9.46,0,0,1,6.1,1.72,6.35,6.35,0,0,1,2.12,5.24v13.1h-3.77l-1-2.67h-0.14a7.94,7.94,0,0,1-2.79,2.36,9.05,9.05,0,0,1-3.75.66,6,6,0,0,1-4.42-1.62A6.24,6.24,0,0,1,436.82,126Zm5.45,0q0,2.25,2.61,2.25a4.16,4.16,0,0,0,3-1.06,3.71,3.71,0,0,0,1.12-2.82v-1.6l-2.08.07a6.73,6.73,0,0,0-3.49.84A2.61,2.61,0,0,0,442.27,126Z"/><path class="cls-2" d="M458.67,117.31a4.66,4.66,0,0,1,2-4,10,10,0,0,1,5.78-1.43,16.16,16.16,0,0,1,6.87,1.55l-1.61,3.86q-1.47-.63-2.74-1a8.6,8.6,0,0,0-2.6-.4q-2.36,0-2.36,1.28a1.5,1.5,0,0,0,.76,1.24,20.66,20.66,0,0,0,3.33,1.56,15.42,15.42,0,0,1,3.35,1.73,5.11,5.11,0,0,1,1.57,1.86,5.71,5.71,0,0,1,.51,2.5,5.48,5.48,0,0,1-2.09,4.64q-2.09,1.59-6.25,1.59a19.66,19.66,0,0,1-3.67-.29,13.77,13.77,0,0,1-2.84-.86v-4.46a18.87,18.87,0,0,0,3.38,1.17,13.79,13.79,0,0,0,3.31.47q2.91,0,2.91-1.68a1.4,1.4,0,0,0-.39-1,5.58,5.58,0,0,0-1.33-.89q-0.94-.5-2.52-1.16a16.1,16.1,0,0,1-3.35-1.75,4.94,4.94,0,0,1-1.56-1.85A6,6,0,0,1,458.67,117.31Z"/><path class="cls-2" d="M475.78,116.17v-2.24l3-1.77,1.55-4.2h3.43v4.24h5.5v4h-5.5v9.53a2.11,2.11,0,0,0,.64,1.7,2.52,2.52,0,0,0,1.7.55,11.56,11.56,0,0,0,3.38-.62v4a12.08,12.08,0,0,1-4.92.89q-3.22,0-4.68-1.63a7.12,7.12,0,0,1-1.47-4.89v-9.51h-2.57Z"/><path class="cls-2" d="M501.54,122q0-4.83,2-7.52a6.53,6.53,0,0,1,5.54-2.69,6.66,6.66,0,0,1,5.71,2.88h0.14l0.44-2.51h4.54v19.69q0,4.24-2.47,6.42t-7.36,2.19a20.5,20.5,0,0,1-7.35-1.17V135a19.47,19.47,0,0,0,7.67,1.51q4.15,0,4.15-4.46v-0.39l0.15-2.4h-0.15a6.25,6.25,0,0,1-5.6,2.9,6.32,6.32,0,0,1-5.47-2.72A12.54,12.54,0,0,1,501.54,122Zm5.45,0.07a8.2,8.2,0,0,0,.95,4.41,3.25,3.25,0,0,0,2.94,1.46,3.62,3.62,0,0,0,3.09-1.24,6.75,6.75,0,0,0,.93-4v-0.65a8,8,0,0,0-1-4.52,3.58,3.58,0,0,0-3.14-1.38Q507,116.18,507,122.12Z"/><path class="cls-2" d="M525.52,131.85V112.2h4.06l0.79,3.3h0.26a7.39,7.39,0,0,1,2.47-2.66,6.09,6.09,0,0,1,3.38-1,8.65,8.65,0,0,1,1.81.16l-0.4,5a6.14,6.14,0,0,0-1.58-.18,5.69,5.69,0,0,0-4,1.32,4.77,4.77,0,0,0-1.43,3.69v10h-5.36Z"/><path class="cls-2" d="M540.32,122q0-4.81,2.51-7.48a9.22,9.22,0,0,1,7.06-2.67,9.87,9.87,0,0,1,5,1.23,8.19,8.19,0,0,1,3.31,3.53,11.86,11.86,0,0,1,1.16,5.39,10.6,10.6,0,0,1-2.52,7.51,9.14,9.14,0,0,1-7,2.71,9.84,9.84,0,0,1-5-1.24,8.24,8.24,0,0,1-3.32-3.56A12,12,0,0,1,540.32,122Zm5.45,0a8.21,8.21,0,0,0,1,4.41,3.44,3.44,0,0,0,3.13,1.49A3.38,3.38,0,0,0,553,126.4a8.33,8.33,0,0,0,.94-4.41,8.08,8.08,0,0,0-1-4.37,4.05,4.05,0,0,0-6.22,0A8.08,8.08,0,0,0,545.77,122Z"/><path class="cls-2" d="M561,112.2h5.36l2.27,8.7q0.39,1.55,1.07,6.46h0.14a36.28,36.28,0,0,1,.61-4.24l0.28-1.49,2.42-9.42H579l2.09,9.46,0.63,2.82a17,17,0,0,1,.44,2.87h0.14q0.19-1.56.54-3.56t0.6-2.89l2.36-8.7h5.26l-5.66,19.65h-5.93L578,125l-2-8.68h-0.16l-3.54,15.53h-5.69Z"/><path class="cls-2" d="M594,107.12q0-2.62,2.92-2.62t2.92,2.62a2.55,2.55,0,0,1-.73,1.94,3.07,3.07,0,0,1-2.19.69Q594,109.76,594,107.12Zm0.23,24.73V112.2h5.36v19.65h-5.36Z"/><path class="cls-2" d="M605.26,131.85V112.2h4.1l0.72,2.49h0.3a5.65,5.65,0,0,1,2.47-2.14,8.47,8.47,0,0,1,3.58-.72,6.87,6.87,0,0,1,5.2,1.85A7.44,7.44,0,0,1,623.4,119v12.81H618v-11.5a5.54,5.54,0,0,0-.76-3.2,2.75,2.75,0,0,0-2.41-1.07,3.62,3.62,0,0,0-3.25,1.51,9.36,9.36,0,0,0-1,5v9.27h-5.36Z"/><path class="cls-2" d="M627.72,122q0-4.83,2-7.52a6.53,6.53,0,0,1,5.54-2.69,6.66,6.66,0,0,1,5.71,2.88h0.14l0.44-2.51h4.54v19.69q0,4.24-2.47,6.42t-7.36,2.19a20.5,20.5,0,0,1-7.35-1.17V135a19.47,19.47,0,0,0,7.67,1.51q4.15,0,4.15-4.46v-0.39l0.15-2.4h-0.15a6.25,6.25,0,0,1-5.6,2.9,6.32,6.32,0,0,1-5.47-2.72A12.54,12.54,0,0,1,627.72,122Zm5.45,0.07a8.2,8.2,0,0,0,.95,4.41,3.25,3.25,0,0,0,2.94,1.46,3.62,3.62,0,0,0,3.09-1.24,6.75,6.75,0,0,0,.93-4v-0.65a8,8,0,0,0-1-4.52,3.58,3.58,0,0,0-3.14-1.38Q633.17,116.18,633.17,122.12Z"/><path class="cls-2" d="M79.62,165.31a4.66,4.66,0,0,1,2-4,10,10,0,0,1,5.78-1.43,16.16,16.16,0,0,1,6.87,1.55l-1.61,3.86q-1.47-.63-2.74-1a8.6,8.6,0,0,0-2.6-.4q-2.36,0-2.36,1.28a1.5,1.5,0,0,0,.76,1.24,20.66,20.66,0,0,0,3.33,1.56,15.42,15.42,0,0,1,3.35,1.73A5.11,5.11,0,0,1,94,171.47a5.71,5.71,0,0,1,.51,2.5,5.48,5.48,0,0,1-2.09,4.64q-2.09,1.59-6.25,1.59a19.66,19.66,0,0,1-3.67-.29,13.77,13.77,0,0,1-2.84-.86v-4.46A18.87,18.87,0,0,0,83,175.76a13.79,13.79,0,0,0,3.31.47q2.91,0,2.91-1.68a1.4,1.4,0,0,0-.39-1,5.58,5.58,0,0,0-1.33-.89q-0.94-.5-2.52-1.16a16.1,16.1,0,0,1-3.35-1.75,4.94,4.94,0,0,1-1.56-1.85A6,6,0,0,1,79.62,165.31Z"/><path class="cls-2" d="M96.72,164.17v-2.24l3-1.77,1.55-4.2h3.43v4.24h5.5v4h-5.5v9.53a2.11,2.11,0,0,0,.64,1.7,2.52,2.52,0,0,0,1.7.55,11.56,11.56,0,0,0,3.38-.62v4a12.08,12.08,0,0,1-4.92.89q-3.22,0-4.68-1.63a7.12,7.12,0,0,1-1.47-4.89v-9.51H96.72Z"/><path class="cls-2" d="M113,174a5.19,5.19,0,0,1,2.18-4.61q2.18-1.49,6.58-1.64l3.4-.11v-0.86q0-3-3.07-3a13.89,13.89,0,0,0-5.53,1.42l-1.76-3.62a15.88,15.88,0,0,1,7.5-1.78,9.46,9.46,0,0,1,6.1,1.72,6.35,6.35,0,0,1,2.12,5.24v13.1h-3.77l-1-2.67H125.6a7.94,7.94,0,0,1-2.79,2.36,9.05,9.05,0,0,1-3.75.66,6,6,0,0,1-4.42-1.62A6.24,6.24,0,0,1,113,174Zm5.45,0q0,2.25,2.61,2.25a4.16,4.16,0,0,0,3-1.06,3.71,3.71,0,0,0,1.12-2.82v-1.6l-2.08.07a6.73,6.73,0,0,0-3.49.84A2.61,2.61,0,0,0,118.48,174Z"/><path class="cls-2" d="M136.08,179.85V160.2h4.06l0.79,3.3h0.26a7.39,7.39,0,0,1,2.47-2.66,6.09,6.09,0,0,1,3.38-1,8.65,8.65,0,0,1,1.81.16l-0.4,5a6.14,6.14,0,0,0-1.58-.18,5.69,5.69,0,0,0-4,1.32,4.77,4.77,0,0,0-1.43,3.69v10h-5.36Z"/><path class="cls-2" d="M150.44,164.17v-2.24l3-1.77,1.55-4.2h3.43v4.24h5.5v4h-5.5v9.53a2.11,2.11,0,0,0,.64,1.7,2.52,2.52,0,0,0,1.7.55,11.56,11.56,0,0,0,3.38-.62v4a12.08,12.08,0,0,1-4.92.89q-3.22,0-4.68-1.63a7.12,7.12,0,0,1-1.47-4.89v-9.51h-2.57Z"/><path class="cls-2" d="M167.95,173V160.2h5.36v11.49a5.53,5.53,0,0,0,.76,3.19,2.75,2.75,0,0,0,2.41,1.06,3.62,3.62,0,0,0,3.25-1.5,9.34,9.34,0,0,0,1-5V160.2h5.36v19.65H182l-0.72-2.5H181a5.65,5.65,0,0,1-2.44,2.11,8.37,8.37,0,0,1-3.6.74,6.86,6.86,0,0,1-5.22-1.85A7.46,7.46,0,0,1,167.95,173Z"/><path class="cls-2" d="M191.71,188.5V160.2h4.36l0.76,2.53h0.25a6.22,6.22,0,0,1,5.57-2.9,6.36,6.36,0,0,1,5.44,2.69q2,2.69,2,7.46a14.8,14.8,0,0,1-.92,5.47A7.67,7.67,0,0,1,206.5,179a6.7,6.7,0,0,1-4,1.21,6.53,6.53,0,0,1-5.43-2.5h-0.28q0.28,2.46.28,2.84v8h-5.36Zm5.36-18.55a8.35,8.35,0,0,0,.94,4.56,3.35,3.35,0,0,0,3,1.38q3.6,0,3.6-6a8.55,8.55,0,0,0-.89-4.37,3,3,0,0,0-2.79-1.46,3.38,3.38,0,0,0-2.9,1.23,7.07,7.07,0,0,0-.95,4.05v0.58Z"/><path class="cls-2" d="M213.74,177.34a3,3,0,0,1,.75-2.23,3,3,0,0,1,2.2-.76,2.89,2.89,0,0,1,2.16.77,3.54,3.54,0,0,1,0,4.4,2.84,2.84,0,0,1-2.15.8,2.93,2.93,0,0,1-2.18-.78A3,3,0,0,1,213.74,177.34Z"/><path class="cls-2" d="M234.53,179.85v-25.7H242L248,173.81h0.11l6.45-19.65H262v25.7h-5.06V167.69q0-.86,0-2t0.17-6H257l-6.61,20.13h-5l-6.18-20.16h-0.06q0.23,6.15.23,8.21v12h-4.87Z"/><path class="cls-2" d="M266.86,170q0-4.81,2.51-7.48a9.22,9.22,0,0,1,7.06-2.67,9.87,9.87,0,0,1,5,1.23,8.19,8.19,0,0,1,3.31,3.53,11.86,11.86,0,0,1,1.16,5.39,10.6,10.6,0,0,1-2.52,7.51,9.14,9.14,0,0,1-7,2.71,9.84,9.84,0,0,1-5-1.24A8.24,8.24,0,0,1,268,175.4,12,12,0,0,1,266.86,170Zm5.45,0a8.21,8.21,0,0,0,1,4.41,3.44,3.44,0,0,0,3.13,1.49,3.38,3.38,0,0,0,3.09-1.48,8.33,8.33,0,0,0,.94-4.41,8.08,8.08,0,0,0-1-4.37,4.05,4.05,0,0,0-6.22,0A8.08,8.08,0,0,0,272.31,170Z"/><path class="cls-2" d="M290.34,179.85V152.46h5.36v6.37q0,1.21-.21,3.89h0.21a6.22,6.22,0,0,1,5.57-2.89,6.34,6.34,0,0,1,5.44,2.71,12.46,12.46,0,0,1,2,7.44q0,4.87-2,7.55a7.08,7.08,0,0,1-10.95.17h-0.37l-0.9,2.15h-4.1Zm5.36-9.91a8.35,8.35,0,0,0,.94,4.56,3.35,3.35,0,0,0,3,1.38,3,3,0,0,0,2.63-1.53,8.3,8.3,0,0,0,1-4.44,7.86,7.86,0,0,0-1-4.37,3.08,3.08,0,0,0-2.69-1.46,3.38,3.38,0,0,0-2.9,1.23,7.07,7.07,0,0,0-.95,4.05v0.58Z"/><path class="cls-2" d="M312.9,155.12q0-2.62,2.92-2.62t2.92,2.62a2.55,2.55,0,0,1-.73,1.94,3.07,3.07,0,0,1-2.19.69Q312.9,157.76,312.9,155.12Zm0.23,24.73V160.2h5.36v19.65h-5.36Z"/><path class="cls-2" d="M324.11,179.85V152.5h5.36v27.35h-5.36Z"/><path class="cls-2" d="M333.9,170.17q0-4.94,2.47-7.64a8.81,8.81,0,0,1,6.84-2.7,8.61,8.61,0,0,1,6.47,2.37,9,9,0,0,1,2.31,6.56v2.6H339.35a5.2,5.2,0,0,0,1.35,3.58,4.73,4.73,0,0,0,3.54,1.29,14.6,14.6,0,0,0,3.35-.37,16.66,16.66,0,0,0,3.29-1.18v4.14a12.51,12.51,0,0,1-3,1,18.92,18.92,0,0,1-3.89.34,10.15,10.15,0,0,1-7.42-2.62Q333.9,175,333.9,170.17Zm5.57-2.37H347a4.47,4.47,0,0,0-1-3.07,3.5,3.5,0,0,0-2.7-1.08,3.39,3.39,0,0,0-2.67,1.08A5,5,0,0,0,339.47,167.79Z"/><path class="cls-2" d="M364.42,174a5.19,5.19,0,0,1,2.18-4.61q2.18-1.49,6.58-1.64l3.4-.11v-0.86q0-3-3.07-3a13.89,13.89,0,0,0-5.53,1.42l-1.76-3.62a15.88,15.88,0,0,1,7.5-1.78,9.46,9.46,0,0,1,6.1,1.72,6.35,6.35,0,0,1,2.12,5.24v13.1h-3.77l-1-2.67H377a7.94,7.94,0,0,1-2.79,2.36,9.05,9.05,0,0,1-3.75.66,6,6,0,0,1-4.42-1.62A6.24,6.24,0,0,1,364.42,174Zm5.45,0q0,2.25,2.61,2.25a4.16,4.16,0,0,0,3-1.06,3.71,3.71,0,0,0,1.12-2.82v-1.6l-2.08.07a6.73,6.73,0,0,0-3.49.84A2.61,2.61,0,0,0,369.87,174Z"/><path class="cls-2" d="M386.27,170.06q0-4.83,2-7.53a6.55,6.55,0,0,1,5.56-2.7,6.38,6.38,0,0,1,5.64,2.88h0.17a22.88,22.88,0,0,1-.39-3.92V152.5h5.36v27.35h-4.11l-1-2.55h-0.22a6.12,6.12,0,0,1-5.56,2.9,6.4,6.4,0,0,1-5.45-2.69A12.35,12.35,0,0,1,386.27,170.06Zm5.45,0.07a7.71,7.71,0,0,0,1,4.35,3.27,3.27,0,0,0,2.86,1.45,3.6,3.6,0,0,0,3-1.2,7,7,0,0,0,1-4.06V170.1a8.07,8.07,0,0,0-1-4.54,3.59,3.59,0,0,0-3.15-1.37,3.14,3.14,0,0,0-2.78,1.52A8.13,8.13,0,0,0,391.72,170.13Z"/><path class="cls-2" d="M407.43,160.2H413l3.8,11.2a18.06,18.06,0,0,1,.76,4h0.14a15.12,15.12,0,0,1,.79-4l3.78-11.2h5.61l-7.49,19.65h-5.5Z"/><path class="cls-2" d="M429.53,170.17q0-4.94,2.47-7.64a8.81,8.81,0,0,1,6.84-2.7,8.61,8.61,0,0,1,6.47,2.37,9,9,0,0,1,2.31,6.56v2.6H435a5.2,5.2,0,0,0,1.35,3.58,4.73,4.73,0,0,0,3.54,1.29,14.6,14.6,0,0,0,3.35-.37,16.66,16.66,0,0,0,3.29-1.18v4.14a12.51,12.51,0,0,1-3,1,18.92,18.92,0,0,1-3.89.34,10.15,10.15,0,0,1-7.42-2.62Q429.53,175,429.53,170.17Zm5.57-2.37h7.51a4.47,4.47,0,0,0-1-3.07,3.5,3.5,0,0,0-2.7-1.08,3.39,3.39,0,0,0-2.67,1.08A5,5,0,0,0,435.1,167.79Z"/><path class="cls-2" d="M452,179.85V160.2h4.06l0.79,3.3h0.26a7.39,7.39,0,0,1,2.47-2.66,6.09,6.09,0,0,1,3.38-1,8.65,8.65,0,0,1,1.81.16l-0.4,5a6.14,6.14,0,0,0-1.58-.18,5.69,5.69,0,0,0-4,1.32,4.77,4.77,0,0,0-1.43,3.69v10H452Z"/><path class="cls-2" d="M466.35,164.17v-2.24l3-1.77,1.55-4.2h3.43v4.24h5.5v4h-5.5v9.53a2.11,2.11,0,0,0,.64,1.7,2.52,2.52,0,0,0,1.7.55,11.56,11.56,0,0,0,3.38-.62v4a12.08,12.08,0,0,1-4.92.89q-3.22,0-4.68-1.63a7.12,7.12,0,0,1-1.47-4.89v-9.51h-2.57Z"/><path class="cls-2" d="M483.74,155.12q0-2.62,2.92-2.62t2.92,2.62a2.55,2.55,0,0,1-.73,1.94,3.07,3.07,0,0,1-2.19.69Q483.74,157.76,483.74,155.12ZM484,179.85V160.2h5.36v19.65H484Z"/><path class="cls-2" d="M493.76,165.31a4.66,4.66,0,0,1,2-4,10,10,0,0,1,5.78-1.43,16.16,16.16,0,0,1,6.87,1.55l-1.61,3.86q-1.47-.63-2.74-1a8.6,8.6,0,0,0-2.6-.4q-2.36,0-2.36,1.28a1.5,1.5,0,0,0,.76,1.24,20.66,20.66,0,0,0,3.33,1.56,15.42,15.42,0,0,1,3.35,1.73,5.11,5.11,0,0,1,1.57,1.86,5.71,5.71,0,0,1,.51,2.5,5.48,5.48,0,0,1-2.09,4.64q-2.09,1.59-6.25,1.59a19.66,19.66,0,0,1-3.67-.29,13.77,13.77,0,0,1-2.84-.86v-4.46a18.87,18.87,0,0,0,3.38,1.17,13.79,13.79,0,0,0,3.31.47q2.91,0,2.91-1.68a1.4,1.4,0,0,0-.39-1,5.58,5.58,0,0,0-1.33-.89q-0.94-.5-2.52-1.16a16.1,16.1,0,0,1-3.35-1.75,4.94,4.94,0,0,1-1.56-1.85A6,6,0,0,1,493.76,165.31Z"/><path class="cls-2" d="M512.62,155.12q0-2.62,2.92-2.62t2.92,2.62a2.55,2.55,0,0,1-.73,1.94,3.07,3.07,0,0,1-2.19.69Q512.62,157.76,512.62,155.12Zm0.23,24.73V160.2h5.36v19.65h-5.36Z"/><path class="cls-2" d="M523.83,179.85V160.2h4.1l0.72,2.49h0.3a5.65,5.65,0,0,1,2.47-2.14,8.47,8.47,0,0,1,3.58-.72,6.87,6.87,0,0,1,5.2,1.85A7.44,7.44,0,0,1,542,167v12.81h-5.36v-11.5a5.54,5.54,0,0,0-.76-3.2,2.75,2.75,0,0,0-2.41-1.07,3.62,3.62,0,0,0-3.25,1.51,9.36,9.36,0,0,0-1,5v9.27h-5.36Z"/><path class="cls-2" d="M546.3,170q0-4.83,2-7.52a6.53,6.53,0,0,1,5.54-2.69,6.66,6.66,0,0,1,5.71,2.88h0.14l0.44-2.51h4.54v19.69q0,4.24-2.47,6.42t-7.36,2.19a20.5,20.5,0,0,1-7.35-1.17V183a19.47,19.47,0,0,0,7.67,1.51q4.15,0,4.15-4.46v-0.39l0.15-2.4h-0.15a6.25,6.25,0,0,1-5.6,2.9,6.32,6.32,0,0,1-5.47-2.72A12.54,12.54,0,0,1,546.3,170Zm5.45,0.07a8.2,8.2,0,0,0,.95,4.41,3.25,3.25,0,0,0,2.94,1.46,3.62,3.62,0,0,0,3.09-1.24,6.75,6.75,0,0,0,.93-4v-0.65a8,8,0,0,0-1-4.52,3.58,3.58,0,0,0-3.14-1.38Q551.75,164.18,551.75,170.12Z"/><path class="cls-2" d="M579.4,155.12q0-2.62,2.92-2.62t2.92,2.62a2.55,2.55,0,0,1-.73,1.94,3.07,3.07,0,0,1-2.19.69Q579.4,157.76,579.4,155.12Zm0.23,24.73V160.2H585v19.65h-5.36Z"/><path class="cls-2" d="M590.61,179.85V160.2h4.1l0.72,2.49h0.3a5.65,5.65,0,0,1,2.47-2.14,8.47,8.47,0,0,1,3.58-.72,6.87,6.87,0,0,1,5.2,1.85,7.44,7.44,0,0,1,1.78,5.35v12.81h-5.36v-11.5a5.54,5.54,0,0,0-.76-3.2,2.75,2.75,0,0,0-2.41-1.07,3.62,3.62,0,0,0-3.25,1.51,9.36,9.36,0,0,0-1,5v9.27h-5.36Z"/><path class="cls-2" d="M613.08,170.06q0-4.83,2-7.53a6.55,6.55,0,0,1,5.56-2.7,6.38,6.38,0,0,1,5.64,2.88h0.17a22.88,22.88,0,0,1-.39-3.92V152.5h5.36v27.35h-4.11l-1-2.55h-0.22a6.12,6.12,0,0,1-5.56,2.9,6.4,6.4,0,0,1-5.45-2.69A12.35,12.35,0,0,1,613.08,170.06Zm5.45,0.07a7.71,7.71,0,0,0,1,4.35,3.27,3.27,0,0,0,2.86,1.45,3.6,3.6,0,0,0,3-1.2,7,7,0,0,0,1-4.06V170.1a8.07,8.07,0,0,0-1-4.54,3.59,3.59,0,0,0-3.15-1.37,3.14,3.14,0,0,0-2.78,1.52A8.13,8.13,0,0,0,618.53,170.13Z"/><path class="cls-2" d="M636.95,173V160.2h5.36v11.49a5.53,5.53,0,0,0,.76,3.19,2.75,2.75,0,0,0,2.41,1.06,3.62,3.62,0,0,0,3.25-1.5,9.34,9.34,0,0,0,1-5V160.2h5.36v19.65H651l-0.72-2.5H650a5.65,5.65,0,0,1-2.44,2.11,8.37,8.37,0,0,1-3.6.74,6.86,6.86,0,0,1-5.22-1.85A7.46,7.46,0,0,1,636.95,173Z"/><path class="cls-2" d="M659.52,165.31a4.66,4.66,0,0,1,2-4,10,10,0,0,1,5.78-1.43,16.16,16.16,0,0,1,6.87,1.55l-1.61,3.86q-1.47-.63-2.74-1a8.6,8.6,0,0,0-2.6-.4q-2.36,0-2.36,1.28a1.5,1.5,0,0,0,.76,1.24,20.66,20.66,0,0,0,3.33,1.56,15.42,15.42,0,0,1,3.35,1.73,5.11,5.11,0,0,1,1.57,1.86,5.71,5.71,0,0,1,.51,2.5,5.48,5.48,0,0,1-2.09,4.64q-2.09,1.59-6.25,1.59a19.66,19.66,0,0,1-3.67-.29,13.77,13.77,0,0,1-2.84-.86v-4.46a18.87,18.87,0,0,0,3.38,1.17,13.79,13.79,0,0,0,3.31.47q2.91,0,2.91-1.68a1.4,1.4,0,0,0-.39-1,5.58,5.58,0,0,0-1.33-.89q-0.94-.5-2.52-1.16a16.1,16.1,0,0,1-3.35-1.75,4.94,4.94,0,0,1-1.56-1.85A6,6,0,0,1,659.52,165.31Z"/><path class="cls-2" d="M676.62,164.17v-2.24l3-1.77,1.55-4.2h3.43v4.24h5.5v4h-5.5v9.53a2.11,2.11,0,0,0,.64,1.7,2.52,2.52,0,0,0,1.7.55,11.56,11.56,0,0,0,3.38-.62v4a12.08,12.08,0,0,1-4.92.89q-3.22,0-4.68-1.63a7.12,7.12,0,0,1-1.47-4.89v-9.51h-2.57Z"/><path class="cls-2" d="M694.24,179.85V160.2h4.06l0.79,3.3h0.26a7.39,7.39,0,0,1,2.47-2.66,6.09,6.09,0,0,1,3.38-1A8.65,8.65,0,0,1,707,160l-0.4,5a6.14,6.14,0,0,0-1.58-.18,5.69,5.69,0,0,0-4,1.32,4.77,4.77,0,0,0-1.43,3.69v10h-5.36Z"/><path class="cls-2" d="M707.77,160.2h5.87l3.71,11.06a15.34,15.34,0,0,1,.65,3.41h0.11a15.07,15.07,0,0,1,.76-3.41l3.64-11.06h5.75l-8.31,22.17a9.6,9.6,0,0,1-3.26,4.61,8.23,8.23,0,0,1-4.95,1.53,12.44,12.44,0,0,1-2.72-.3v-4.25a9.16,9.16,0,0,0,2.11.23,3.81,3.81,0,0,0,2.49-.87,5.64,5.64,0,0,0,1.66-2.63l0.32-1Z"/><path class="cls-2" d="M80.09,263a16,16,0,0,1,1.46-7,10.54,10.54,0,0,1,4.19-4.62,12.4,12.4,0,0,1,6.41-1.61,17.29,17.29,0,0,1,7.52,1.81L97.92,256a29.1,29.1,0,0,0-2.9-1.2,8.65,8.65,0,0,0-2.87-.51,5.55,5.55,0,0,0-4.76,2.31,10.75,10.75,0,0,0-1.69,6.44q0,8.6,6.45,8.6a20.39,20.39,0,0,0,6.56-1.35v4.57a18.21,18.21,0,0,1-7.07,1.32q-5.61,0-8.58-3.4T80.09,263Z"/><path class="cls-2" d="M103.75,275.85V248.5h5.36v5.57q0,0.65-.12,3.06l-0.12,1.58h0.28a6.21,6.21,0,0,1,5.7-2.88,7,7,0,0,1,5.26,1.86,7.4,7.4,0,0,1,1.79,5.34v12.81h-5.36V264.37q0-4.25-3.16-4.25a3.6,3.6,0,0,0-3.25,1.53,9.34,9.34,0,0,0-1,5v9.25h-5.36Z"/><path class="cls-2" d="M126.22,266q0-4.81,2.51-7.48a9.22,9.22,0,0,1,7.06-2.67,9.87,9.87,0,0,1,5,1.23,8.19,8.19,0,0,1,3.31,3.53,11.86,11.86,0,0,1,1.16,5.39,10.6,10.6,0,0,1-2.52,7.51,9.14,9.14,0,0,1-7,2.71,9.84,9.84,0,0,1-5-1.24,8.24,8.24,0,0,1-3.32-3.56A12,12,0,0,1,126.22,266Zm5.45,0a8.21,8.21,0,0,0,1,4.41,3.44,3.44,0,0,0,3.13,1.49,3.38,3.38,0,0,0,3.09-1.48,8.33,8.33,0,0,0,.94-4.41,8.08,8.08,0,0,0-1-4.37,4.05,4.05,0,0,0-6.22,0A8.08,8.08,0,0,0,131.67,266Z"/><path class="cls-2" d="M148.51,266q0-4.81,2.51-7.48a9.22,9.22,0,0,1,7.06-2.67,9.87,9.87,0,0,1,5,1.23,8.19,8.19,0,0,1,3.31,3.53,11.86,11.86,0,0,1,1.16,5.39,10.6,10.6,0,0,1-2.52,7.51,9.14,9.14,0,0,1-7,2.71,9.84,9.84,0,0,1-5-1.24,8.24,8.24,0,0,1-3.32-3.56A12,12,0,0,1,148.51,266Zm5.45,0a8.21,8.21,0,0,0,1,4.41,3.44,3.44,0,0,0,3.13,1.49,3.38,3.38,0,0,0,3.09-1.48,8.33,8.33,0,0,0,.94-4.41,8.08,8.08,0,0,0-1-4.37,4.05,4.05,0,0,0-6.22,0A8.08,8.08,0,0,0,154,266Z"/><path class="cls-2" d="M170.79,261.31a4.66,4.66,0,0,1,2-4,10,10,0,0,1,5.78-1.43,16.16,16.16,0,0,1,6.87,1.55l-1.61,3.86q-1.47-.63-2.74-1a8.6,8.6,0,0,0-2.6-.4q-2.36,0-2.36,1.28a1.5,1.5,0,0,0,.76,1.24,20.66,20.66,0,0,0,3.33,1.56,15.42,15.42,0,0,1,3.35,1.73,5.11,5.11,0,0,1,1.57,1.86,5.71,5.71,0,0,1,.51,2.5,5.48,5.48,0,0,1-2.09,4.64q-2.09,1.59-6.25,1.59a19.66,19.66,0,0,1-3.67-.29,13.77,13.77,0,0,1-2.84-.86v-4.46a18.87,18.87,0,0,0,3.38,1.17,13.79,13.79,0,0,0,3.31.47q2.91,0,2.91-1.68a1.4,1.4,0,0,0-.39-1,5.58,5.58,0,0,0-1.33-.89q-0.94-.5-2.52-1.16a16.1,16.1,0,0,1-3.35-1.75,4.94,4.94,0,0,1-1.56-1.85A6,6,0,0,1,170.79,261.31Z"/><path class="cls-2" d="M188.69,266.17q0-4.94,2.47-7.64a8.81,8.81,0,0,1,6.84-2.7,8.61,8.61,0,0,1,6.47,2.37,9,9,0,0,1,2.31,6.56v2.6H194.14a5.2,5.2,0,0,0,1.35,3.58,4.73,4.73,0,0,0,3.54,1.29,14.6,14.6,0,0,0,3.35-.37,16.66,16.66,0,0,0,3.29-1.18v4.14a12.51,12.51,0,0,1-3,1,18.92,18.92,0,0,1-3.89.34,10.15,10.15,0,0,1-7.42-2.62Q188.69,271,188.69,266.17Zm5.57-2.37h7.51a4.47,4.47,0,0,0-1-3.07,3.5,3.5,0,0,0-2.7-1.08,3.39,3.39,0,0,0-2.67,1.08A5,5,0,0,0,194.26,263.79Z"/><path class="cls-2" d="M217.69,256.2h5.87l3.71,11.06a15.34,15.34,0,0,1,.65,3.41H228a15.07,15.07,0,0,1,.76-3.41l3.64-11.06h5.75l-8.31,22.17A9.6,9.6,0,0,1,226.6,283a8.23,8.23,0,0,1-4.95,1.53,12.44,12.44,0,0,1-2.72-.3v-4.25a9.16,9.16,0,0,0,2.11.23,3.81,3.81,0,0,0,2.49-.87,5.64,5.64,0,0,0,1.66-2.63l0.32-1Z"/><path class="cls-2" d="M239.79,266q0-4.81,2.51-7.48a9.22,9.22,0,0,1,7.06-2.67,9.87,9.87,0,0,1,5,1.23,8.19,8.19,0,0,1,3.31,3.53,11.86,11.86,0,0,1,1.16,5.39,10.6,10.6,0,0,1-2.52,7.51,9.14,9.14,0,0,1-7,2.71,9.84,9.84,0,0,1-5-1.24,8.24,8.24,0,0,1-3.32-3.56A12,12,0,0,1,239.79,266Zm5.45,0a8.21,8.21,0,0,0,1,4.41,3.44,3.44,0,0,0,3.13,1.49,3.38,3.38,0,0,0,3.09-1.48,8.33,8.33,0,0,0,.94-4.41,8.08,8.08,0,0,0-1-4.37,4.05,4.05,0,0,0-6.22,0A8.08,8.08,0,0,0,245.24,266Z"/><path class="cls-2" d="M263.17,269V256.2h5.36v11.49a5.53,5.53,0,0,0,.76,3.19,2.75,2.75,0,0,0,2.41,1.06,3.62,3.62,0,0,0,3.25-1.5,9.34,9.34,0,0,0,1-5V256.2h5.36v19.65H277.2l-0.72-2.5h-0.28a5.65,5.65,0,0,1-2.44,2.11,8.37,8.37,0,0,1-3.6.74,6.86,6.86,0,0,1-5.22-1.85A7.46,7.46,0,0,1,263.17,269Z"/><path class="cls-2" d="M286.93,275.85V256.2H291l0.79,3.3H292a7.39,7.39,0,0,1,2.47-2.66,6.09,6.09,0,0,1,3.38-1,8.65,8.65,0,0,1,1.81.16l-0.4,5a6.14,6.14,0,0,0-1.58-.18,5.69,5.69,0,0,0-4,1.32,4.77,4.77,0,0,0-1.43,3.69v10h-5.36Z"/><path class="cls-2" d="M312.63,275.85V256.2h4.1l0.72,2.49h0.3a5.43,5.43,0,0,1,2.29-2.1,7.47,7.47,0,0,1,3.43-.76q4.41,0,6,2.86h0.47a5.29,5.29,0,0,1,2.33-2.11,7.82,7.82,0,0,1,3.47-.75,6.83,6.83,0,0,1,5,1.71q1.71,1.71,1.71,5.49v12.81H337.1v-11.5a5.81,5.81,0,0,0-.71-3.2,2.5,2.5,0,0,0-2.24-1.07,3.34,3.34,0,0,0-2.94,1.41,8,8,0,0,0-1,4.47v9.88h-5.36v-11.5a5.81,5.81,0,0,0-.71-3.2,2.5,2.5,0,0,0-2.24-1.07,3.24,3.24,0,0,0-3,1.52,10,10,0,0,0-.93,5v9.27h-5.36Z"/><path class="cls-2" d="M346.68,270a5.19,5.19,0,0,1,2.18-4.61q2.18-1.49,6.58-1.64l3.4-.11v-0.86q0-3-3.07-3a13.89,13.89,0,0,0-5.53,1.42l-1.76-3.62a15.88,15.88,0,0,1,7.5-1.78,9.46,9.46,0,0,1,6.1,1.72,6.35,6.35,0,0,1,2.12,5.24v13.1h-3.77l-1-2.67h-0.14a7.94,7.94,0,0,1-2.79,2.36,9.05,9.05,0,0,1-3.75.66,6,6,0,0,1-4.42-1.62A6.24,6.24,0,0,1,346.68,270Zm5.45,0q0,2.25,2.61,2.25a4.16,4.16,0,0,0,3-1.06,3.71,3.71,0,0,0,1.12-2.82v-1.6l-2.08.07a6.73,6.73,0,0,0-3.49.84A2.61,2.61,0,0,0,352.13,270Z"/><path class="cls-2" d="M368.53,266.14q0-5,2.49-7.66t7.14-2.65a13.64,13.64,0,0,1,6.12,1.34l-1.58,4.15q-1.27-.51-2.36-0.84a7.59,7.59,0,0,0-2.18-.33q-4.18,0-4.18,6,0,5.77,4.18,5.77a9.52,9.52,0,0,0,2.87-.41,10.34,10.34,0,0,0,2.64-1.29v4.58a8.65,8.65,0,0,1-2.63,1.14,14.84,14.84,0,0,1-3.35.31Q368.53,276.2,368.53,266.14Z"/><path class="cls-2" d="M388.24,275.85V248.5h5.36v5.57q0,0.65-.12,3.06l-0.12,1.58h0.28a6.21,6.21,0,0,1,5.7-2.88,7,7,0,0,1,5.26,1.86,7.4,7.4,0,0,1,1.79,5.34v12.81H401V264.37q0-4.25-3.16-4.25a3.6,3.6,0,0,0-3.25,1.53,9.34,9.34,0,0,0-1,5v9.25h-5.36Z"/><path class="cls-2" d="M411.67,251.12q0-2.62,2.92-2.62t2.92,2.62a2.55,2.55,0,0,1-.73,1.94,3.07,3.07,0,0,1-2.19.69Q411.67,253.76,411.67,251.12Zm0.23,24.73V256.2h5.36v19.65H411.9Z"/><path class="cls-2" d="M422.88,275.85V256.2H427l0.72,2.49H428a5.65,5.65,0,0,1,2.47-2.14,8.47,8.47,0,0,1,3.58-.72,6.87,6.87,0,0,1,5.2,1.85A7.44,7.44,0,0,1,441,263v12.81h-5.36v-11.5a5.54,5.54,0,0,0-.76-3.2,2.75,2.75,0,0,0-2.41-1.07,3.62,3.62,0,0,0-3.25,1.51,9.36,9.36,0,0,0-1,5v9.27h-5.36Z"/><path class="cls-2" d="M445.35,266.17q0-4.94,2.47-7.64a8.81,8.81,0,0,1,6.84-2.7,8.61,8.61,0,0,1,6.47,2.37,9,9,0,0,1,2.31,6.56v2.6H450.8a5.2,5.2,0,0,0,1.35,3.58,4.73,4.73,0,0,0,3.54,1.29,14.6,14.6,0,0,0,3.35-.37,16.66,16.66,0,0,0,3.29-1.18v4.14a12.51,12.51,0,0,1-3,1,18.92,18.92,0,0,1-3.89.34,10.15,10.15,0,0,1-7.42-2.62Q445.35,271,445.35,266.17Zm5.57-2.37h7.51a4.47,4.47,0,0,0-1-3.07,3.5,3.5,0,0,0-2.7-1.08,3.39,3.39,0,0,0-2.67,1.08A5,5,0,0,0,450.92,263.79Z"/><path class="cls-2" d="M466.11,280.49q1.14-4.68,1.78-8.82h5l0.27,0.4a54.09,54.09,0,0,1-3.14,8.42h-3.9Z"/><path class="cls-2" d="M487.85,275.85v-25.7h7.42l6.08,19.65h0.11l6.45-19.65h7.4v25.7h-5.06V263.69q0-.86,0-2t0.17-6h-0.11l-6.61,20.13h-5l-6.18-20.16h-0.06q0.23,6.15.23,8.21v12h-4.87Z"/><path class="cls-2" d="M520.07,270a5.19,5.19,0,0,1,2.18-4.61q2.18-1.49,6.58-1.64l3.4-.11v-0.86q0-3-3.07-3a13.89,13.89,0,0,0-5.53,1.42l-1.76-3.62a15.88,15.88,0,0,1,7.5-1.78,9.46,9.46,0,0,1,6.1,1.72,6.35,6.35,0,0,1,2.12,5.24v13.1h-3.77l-1-2.67h-0.14a7.94,7.94,0,0,1-2.79,2.36,9.05,9.05,0,0,1-3.75.66,6,6,0,0,1-4.42-1.62A6.24,6.24,0,0,1,520.07,270Zm5.45,0q0,2.25,2.61,2.25a4.16,4.16,0,0,0,3-1.06,3.71,3.71,0,0,0,1.12-2.82v-1.6l-2.08.07a6.73,6.73,0,0,0-3.49.84A2.61,2.61,0,0,0,525.52,270Z"/><path class="cls-2" d="M541.92,266.14q0-5,2.49-7.66t7.14-2.65a13.64,13.64,0,0,1,6.12,1.34l-1.58,4.15q-1.27-.51-2.36-0.84a7.59,7.59,0,0,0-2.18-.33q-4.18,0-4.18,6,0,5.77,4.18,5.77a9.52,9.52,0,0,0,2.87-.41,10.34,10.34,0,0,0,2.64-1.29v4.58a8.65,8.65,0,0,1-2.63,1.14,14.84,14.84,0,0,1-3.35.31Q541.92,276.2,541.92,266.14Z"/><path class="cls-2" d="M559.92,280.49q1.14-4.68,1.78-8.82h5l0.27,0.4a54.09,54.09,0,0,1-3.14,8.42h-3.9Z"/><path class="cls-2" d="M581.67,275.85v-25.7h5.45v21.16h10.42v4.54H581.67Z"/><path class="cls-2" d="M601.35,251.12q0-2.62,2.92-2.62t2.92,2.62a2.55,2.55,0,0,1-.73,1.94,3.07,3.07,0,0,1-2.19.69Q601.35,253.76,601.35,251.12Zm0.23,24.73V256.2h5.36v19.65h-5.36Z"/><path class="cls-2" d="M612.57,275.85V256.2h4.1l0.72,2.49h0.3a5.65,5.65,0,0,1,2.47-2.14,8.47,8.47,0,0,1,3.58-.72,6.87,6.87,0,0,1,5.2,1.85,7.44,7.44,0,0,1,1.78,5.35v12.81h-5.36v-11.5a5.54,5.54,0,0,0-.76-3.2,2.75,2.75,0,0,0-2.41-1.07,3.62,3.62,0,0,0-3.25,1.51,9.36,9.36,0,0,0-1,5v9.27h-5.36Z"/><path class="cls-2" d="M636.12,269V256.2h5.36v11.49a5.53,5.53,0,0,0,.76,3.19,2.75,2.75,0,0,0,2.41,1.06,3.62,3.62,0,0,0,3.25-1.5,9.34,9.34,0,0,0,1-5V256.2h5.36v19.65h-4.11l-0.72-2.5h-0.28a5.65,5.65,0,0,1-2.44,2.11,8.37,8.37,0,0,1-3.6.74,6.86,6.86,0,0,1-5.22-1.85A7.46,7.46,0,0,1,636.12,269Z"/><path class="cls-2" d="M657.25,275.85l6.66-10-6.33-9.62h6.08l3.81,6.26,3.85-6.26h6.08l-6.4,9.62,6.7,10h-6.1l-4.13-6.73-4.15,6.73h-6.08Z"/><path class="cls-2" d="M679,280.49q1.14-4.68,1.78-8.82h5l0.27,0.4a54.09,54.09,0,0,1-3.14,8.42H679Z"/><path class="cls-2" d="M78,298.15h5.36l3.29,14q0.86,3.88,1.25,6.73,0.11-1,.53-3.1l0.67-3.27,3.77-14.4h5.19l3.77,14.38q0.25,1,.59,3L103,318.9q0.17-1.37.55-3.42t0.69-3.31l3.2-14h5.36l-6.54,25.7h-6.21l-3.49-13.5q-0.19-.72-0.62-3l-0.57-3a9.85,9.85,0,0,1-.29,3.12l-0.63,3-3.56,13.4H84.56Z"/><path class="cls-2" d="M115.39,299.12q0-2.62,2.92-2.62t2.92,2.62a2.55,2.55,0,0,1-.73,1.94,3.07,3.07,0,0,1-2.19.69Q115.39,301.76,115.39,299.12Zm0.23,24.73V304.2H121v19.65h-5.36Z"/><path class="cls-2" d="M126.6,323.85V304.2h4.1l0.72,2.49h0.3a5.65,5.65,0,0,1,2.47-2.14,8.47,8.47,0,0,1,3.58-.72,6.87,6.87,0,0,1,5.2,1.85,7.44,7.44,0,0,1,1.78,5.35v12.81h-5.36v-11.5a5.53,5.53,0,0,0-.76-3.2,2.75,2.75,0,0,0-2.41-1.07,3.62,3.62,0,0,0-3.25,1.51,9.36,9.36,0,0,0-1,5v9.27H126.6Z"/><path class="cls-2" d="M149.51,321.34a3,3,0,0,1,.75-2.23,3,3,0,0,1,2.2-.76,2.89,2.89,0,0,1,2.16.77,3.54,3.54,0,0,1,0,4.4,2.84,2.84,0,0,1-2.15.8,2.93,2.93,0,0,1-2.18-.78A3,3,0,0,1,149.51,321.34Z"/><path class="cls-2" d="M168.75,322.64v-5.08a30,30,0,0,0,4.4,1.63,13,13,0,0,0,3.29.47,4.67,4.67,0,0,0,2.74-.68,2.34,2.34,0,0,0,1-2,2.25,2.25,0,0,0-.42-1.34,4.71,4.71,0,0,0-1.24-1.13,31.73,31.73,0,0,0-3.32-1.74,16,16,0,0,1-3.55-2.12,8,8,0,0,1-1.89-2.37,6.71,6.71,0,0,1-.71-3.16,6.63,6.63,0,0,1,2.32-5.36,9.65,9.65,0,0,1,6.41-2,15.13,15.13,0,0,1,3.83.47,26.37,26.37,0,0,1,3.81,1.34l-1.76,4.24a25.78,25.78,0,0,0-3.4-1.18,11,11,0,0,0-2.65-.33,3.49,3.49,0,0,0-2.37.72,2.38,2.38,0,0,0-.82,1.88,2.33,2.33,0,0,0,.33,1.25,3.66,3.66,0,0,0,1.06,1,32.64,32.64,0,0,0,3.44,1.8,13.81,13.81,0,0,1,5,3.45,7.33,7.33,0,0,1-1.17,9.74,10.87,10.87,0,0,1-7,2A16.26,16.26,0,0,1,168.75,322.64Z"/><path class="cls-2" d="M187.72,308.17v-2.24l3-1.77,1.55-4.2h3.43v4.24h5.5v4h-5.5v9.53a2.11,2.11,0,0,0,.64,1.7,2.52,2.52,0,0,0,1.7.55,11.55,11.55,0,0,0,3.38-.62v4a12.09,12.09,0,0,1-4.92.89q-3.22,0-4.68-1.63a7.12,7.12,0,0,1-1.47-4.89v-9.51h-2.57Z"/><path class="cls-2" d="M204,318a5.19,5.19,0,0,1,2.18-4.61q2.18-1.49,6.58-1.64l3.4-.11v-0.86q0-3-3.07-3a13.89,13.89,0,0,0-5.53,1.42l-1.76-3.62a15.88,15.88,0,0,1,7.5-1.78,9.46,9.46,0,0,1,6.1,1.72,6.35,6.35,0,0,1,2.12,5.24v13.1h-3.77l-1-2.67h-0.14a7.94,7.94,0,0,1-2.79,2.36,9.05,9.05,0,0,1-3.75.66,6,6,0,0,1-4.42-1.62A6.24,6.24,0,0,1,204,318Zm5.45,0q0,2.25,2.61,2.25a4.16,4.16,0,0,0,3-1.06,3.71,3.71,0,0,0,1.12-2.82v-1.6l-2.08.07a6.73,6.73,0,0,0-3.49.84A2.61,2.61,0,0,0,209.48,318Z"/><path class="cls-2" d="M227.08,323.85V304.2h4.1l0.72,2.49h0.3a5.65,5.65,0,0,1,2.47-2.14,8.47,8.47,0,0,1,3.58-.72,6.87,6.87,0,0,1,5.2,1.85,7.44,7.44,0,0,1,1.78,5.35v12.81h-5.36v-11.5a5.53,5.53,0,0,0-.76-3.2,2.75,2.75,0,0,0-2.41-1.07,3.62,3.62,0,0,0-3.25,1.51,9.36,9.36,0,0,0-1,5v9.27h-5.36Z"/><path class="cls-2" d="M249.54,314.06q0-4.83,2-7.53a6.55,6.55,0,0,1,5.56-2.7,6.38,6.38,0,0,1,5.64,2.88h0.17a22.88,22.88,0,0,1-.39-3.92V296.5h5.36v27.35h-4.11l-1-2.55h-0.22a6.12,6.12,0,0,1-5.56,2.9,6.4,6.4,0,0,1-5.45-2.69A12.35,12.35,0,0,1,249.54,314.06Zm5.45,0.07a7.71,7.71,0,0,0,1,4.35,3.27,3.27,0,0,0,2.86,1.45,3.6,3.6,0,0,0,3-1.2,7,7,0,0,0,1-4.06V314.1a8.07,8.07,0,0,0-1-4.54,3.59,3.59,0,0,0-3.15-1.37,3.14,3.14,0,0,0-2.78,1.52A8.13,8.13,0,0,0,255,314.13Z"/><path class="cls-2" d="M273.29,299.12q0-2.62,2.92-2.62t2.92,2.62a2.55,2.55,0,0,1-.73,1.94,3.07,3.07,0,0,1-2.19.69Q273.29,301.76,273.29,299.12Zm0.23,24.73V304.2h5.36v19.65h-5.36Z"/><path class="cls-2" d="M284.51,323.85V304.2h4.1l0.72,2.49h0.3a5.65,5.65,0,0,1,2.47-2.14,8.47,8.47,0,0,1,3.58-.72,6.87,6.87,0,0,1,5.2,1.85,7.44,7.44,0,0,1,1.78,5.35v12.81h-5.36v-11.5a5.53,5.53,0,0,0-.76-3.2,2.75,2.75,0,0,0-2.41-1.07,3.62,3.62,0,0,0-3.25,1.51,9.36,9.36,0,0,0-1,5v9.27h-5.36Z"/><path class="cls-2" d="M307,314q0-4.83,2-7.52a6.53,6.53,0,0,1,5.54-2.69,6.66,6.66,0,0,1,5.71,2.88h0.14l0.44-2.51h4.54v19.69q0,4.24-2.47,6.42t-7.36,2.19a20.5,20.5,0,0,1-7.35-1.17V327a19.47,19.47,0,0,0,7.67,1.51q4.15,0,4.15-4.46v-0.39l0.15-2.4H320a6.25,6.25,0,0,1-5.6,2.9,6.32,6.32,0,0,1-5.47-2.72A12.54,12.54,0,0,1,307,314Zm5.45,0.07a8.2,8.2,0,0,0,.95,4.41,3.25,3.25,0,0,0,2.94,1.46,3.63,3.63,0,0,0,3.09-1.24,6.76,6.76,0,0,0,.93-4v-0.65a8,8,0,0,0-1-4.52,3.58,3.58,0,0,0-3.14-1.38Q312.42,308.18,312.42,314.12Z"/><path class="cls-2" d="M339.11,314.06q0-4.83,2-7.53a6.55,6.55,0,0,1,5.56-2.7,6.38,6.38,0,0,1,5.64,2.88h0.17a22.88,22.88,0,0,1-.39-3.92V296.5h5.36v27.35h-4.11l-1-2.55H352.1a6.12,6.12,0,0,1-5.56,2.9,6.4,6.4,0,0,1-5.45-2.69A12.35,12.35,0,0,1,339.11,314.06Zm5.45,0.07a7.71,7.71,0,0,0,1,4.35,3.27,3.27,0,0,0,2.86,1.45,3.6,3.6,0,0,0,3-1.2,7,7,0,0,0,1-4.06V314.1a8.07,8.07,0,0,0-1-4.54,3.59,3.59,0,0,0-3.15-1.37,3.14,3.14,0,0,0-2.78,1.52A8.13,8.13,0,0,0,344.55,314.13Z"/><path class="cls-2" d="M361.89,314.17q0-4.94,2.47-7.64a8.81,8.81,0,0,1,6.84-2.7,8.61,8.61,0,0,1,6.47,2.37,9,9,0,0,1,2.31,6.56v2.6H367.34a5.2,5.2,0,0,0,1.35,3.58,4.74,4.74,0,0,0,3.54,1.29,14.6,14.6,0,0,0,3.35-.37,16.69,16.69,0,0,0,3.29-1.18v4.14a12.56,12.56,0,0,1-3,1,19,19,0,0,1-3.89.34,10.15,10.15,0,0,1-7.42-2.62Q361.89,319,361.89,314.17Zm5.57-2.37H375a4.47,4.47,0,0,0-1-3.07,3.5,3.5,0,0,0-2.7-1.08,3.39,3.39,0,0,0-2.67,1.08A5,5,0,0,0,367.46,311.79Z"/><path class="cls-2" d="M383.16,309.31a4.66,4.66,0,0,1,2-4,10,10,0,0,1,5.78-1.43,16.16,16.16,0,0,1,6.87,1.55l-1.61,3.86q-1.47-.63-2.74-1a8.63,8.63,0,0,0-2.6-.4q-2.36,0-2.36,1.28a1.5,1.5,0,0,0,.76,1.24,20.62,20.62,0,0,0,3.33,1.56,15.44,15.44,0,0,1,3.35,1.73,5.12,5.12,0,0,1,1.57,1.86A5.71,5.71,0,0,1,398,318a5.48,5.48,0,0,1-2.09,4.64q-2.09,1.59-6.25,1.59a19.62,19.62,0,0,1-3.67-.29,13.71,13.71,0,0,1-2.84-.86v-4.46a18.91,18.91,0,0,0,3.38,1.17,13.79,13.79,0,0,0,3.31.47q2.91,0,2.91-1.68a1.4,1.4,0,0,0-.39-1,5.57,5.57,0,0,0-1.33-.89q-0.94-.5-2.52-1.16a16,16,0,0,1-3.35-1.75,4.94,4.94,0,0,1-1.56-1.85A6,6,0,0,1,383.16,309.31Z"/><path class="cls-2" d="M402.25,323.85V296.5h5.36v12.2l-0.28,4.46h0.07l2.34-3,5.5-6h6l-7.8,8.53,8.28,11.13h-6.19l-5.66-8-2.3,1.85v6.12h-5.36Z"/><path class="cls-2" d="M423.38,309.31a4.66,4.66,0,0,1,2-4,10,10,0,0,1,5.78-1.43,16.16,16.16,0,0,1,6.87,1.55l-1.61,3.86q-1.47-.63-2.74-1a8.63,8.63,0,0,0-2.6-.4q-2.36,0-2.36,1.28a1.5,1.5,0,0,0,.76,1.24,20.62,20.62,0,0,0,3.33,1.56,15.44,15.44,0,0,1,3.35,1.73,5.12,5.12,0,0,1,1.57,1.86,5.71,5.71,0,0,1,.51,2.5,5.48,5.48,0,0,1-2.09,4.64q-2.09,1.59-6.25,1.59a19.62,19.62,0,0,1-3.67-.29,13.71,13.71,0,0,1-2.84-.86v-4.46a18.91,18.91,0,0,0,3.38,1.17,13.79,13.79,0,0,0,3.31.47q2.91,0,2.91-1.68a1.4,1.4,0,0,0-.39-1,5.57,5.57,0,0,0-1.33-.89q-0.94-.5-2.52-1.16a16,16,0,0,1-3.35-1.75,4.94,4.94,0,0,1-1.56-1.85A6,6,0,0,1,423.38,309.31Z"/><path class="cls-2" d="M441.71,321.34a3,3,0,0,1,.75-2.23,3,3,0,0,1,2.2-.76,2.89,2.89,0,0,1,2.16.77,3.54,3.54,0,0,1,0,4.4,2.84,2.84,0,0,1-2.15.8,2.93,2.93,0,0,1-2.18-.78A3,3,0,0,1,441.71,321.34Z"/><path class="cls-2" d="M78,394.15h5.91l5.34,10.58,5.38-10.58h5.87L92,409.85v10H86.53V410Z"/><path class="cls-2" d="M101.2,410.17q0-4.94,2.47-7.64a8.81,8.81,0,0,1,6.84-2.7A8.61,8.61,0,0,1,117,402.2a9,9,0,0,1,2.31,6.56v2.6H106.65a5.2,5.2,0,0,0,1.35,3.58,4.74,4.74,0,0,0,3.54,1.29,14.6,14.6,0,0,0,3.35-.37,16.69,16.69,0,0,0,3.29-1.18v4.14a12.56,12.56,0,0,1-3,1,19,19,0,0,1-3.89.34,10.15,10.15,0,0,1-7.42-2.62Q101.2,415,101.2,410.17Zm5.57-2.37h7.51a4.47,4.47,0,0,0-1-3.07,3.5,3.5,0,0,0-2.7-1.08,3.39,3.39,0,0,0-2.67,1.08A5,5,0,0,0,106.78,407.79Z"/><path class="cls-2" d="M122.37,414a5.19,5.19,0,0,1,2.18-4.61q2.18-1.49,6.58-1.64l3.4-.11v-0.86q0-3-3.07-3a13.89,13.89,0,0,0-5.53,1.42l-1.76-3.62a15.88,15.88,0,0,1,7.5-1.78,9.46,9.46,0,0,1,6.1,1.72,6.35,6.35,0,0,1,2.12,5.24v13.1h-3.77l-1-2.67h-0.14a7.94,7.94,0,0,1-2.79,2.36,9.05,9.05,0,0,1-3.75.66,6,6,0,0,1-4.42-1.62A6.24,6.24,0,0,1,122.37,414Zm5.45,0q0,2.25,2.61,2.25a4.16,4.16,0,0,0,3-1.06,3.71,3.71,0,0,0,1.12-2.82v-1.6l-2.08.07a6.73,6.73,0,0,0-3.49.84A2.61,2.61,0,0,0,127.82,414Z"/><path class="cls-2" d="M145.41,419.85V400.2h4.06l0.79,3.3h0.26a7.39,7.39,0,0,1,2.47-2.66,6.09,6.09,0,0,1,3.38-1,8.65,8.65,0,0,1,1.81.16l-0.4,5a6.14,6.14,0,0,0-1.58-.18,5.69,5.69,0,0,0-4,1.32,4.77,4.77,0,0,0-1.43,3.69v10h-5.36Z"/><path class="cls-2" d="M161.76,419.85V392.5h5.36v27.35h-5.36Z"/><path class="cls-2" d="M169.93,400.2h5.87l3.71,11.06a15.34,15.34,0,0,1,.65,3.41h0.11a15.07,15.07,0,0,1,.76-3.41l3.64-11.06h5.75l-8.31,22.17a9.6,9.6,0,0,1-3.26,4.61,8.23,8.23,0,0,1-4.95,1.53,12.44,12.44,0,0,1-2.72-.3v-4.25a9.16,9.16,0,0,0,2.11.23,3.81,3.81,0,0,0,2.49-.87,5.64,5.64,0,0,0,1.66-2.63l0.32-1Z"/><path class="cls-2" d="M201.38,410q0-4.81,2.51-7.48a9.22,9.22,0,0,1,7.06-2.67,9.88,9.88,0,0,1,5,1.23,8.19,8.19,0,0,1,3.31,3.53A11.86,11.86,0,0,1,220.4,410a10.6,10.6,0,0,1-2.52,7.51,9.14,9.14,0,0,1-7,2.71,9.83,9.83,0,0,1-5-1.24,8.25,8.25,0,0,1-3.32-3.56A12,12,0,0,1,201.38,410Zm5.45,0a8.21,8.21,0,0,0,1,4.41,3.44,3.44,0,0,0,3.13,1.49A3.38,3.38,0,0,0,214,414.4,8.33,8.33,0,0,0,215,410a8.08,8.08,0,0,0-1-4.37,4.05,4.05,0,0,0-6.22,0A8.08,8.08,0,0,0,206.83,410Z"/><path class="cls-2" d="M222.77,404.17v-2.55l3-1.42v-1.44q0-3.36,1.65-4.9t5.29-1.55a13.77,13.77,0,0,1,4.94.83l-1.37,3.94a10,10,0,0,0-3-.51,1.93,1.93,0,0,0-1.65.68,2.8,2.8,0,0,0-.51,1.73v1.23h4.64v4h-4.64v15.68h-5.36V404.17h-3Z"/><path class="cls-2" d="M236.71,404.17v-2.55l3-1.42v-1.44q0-3.36,1.65-4.9t5.29-1.55a13.77,13.77,0,0,1,4.94.83l-1.37,3.94a10,10,0,0,0-3-.51,1.93,1.93,0,0,0-1.65.68A2.8,2.8,0,0,0,245,399v1.23h4.64v4H245v15.68h-5.36V404.17h-3Z"/><path class="cls-2" d="M251,412.4V408h9.44v4.45H251Z"/><path class="cls-2" d="M263.13,405.31a4.66,4.66,0,0,1,2-4,10,10,0,0,1,5.78-1.43,16.16,16.16,0,0,1,6.87,1.55l-1.61,3.86q-1.47-.63-2.74-1a8.63,8.63,0,0,0-2.6-.4q-2.36,0-2.36,1.28a1.5,1.5,0,0,0,.76,1.24,20.62,20.62,0,0,0,3.33,1.56,15.44,15.44,0,0,1,3.35,1.73,5.12,5.12,0,0,1,1.57,1.86A5.71,5.71,0,0,1,278,414a5.48,5.48,0,0,1-2.09,4.64q-2.09,1.59-6.25,1.59a19.62,19.62,0,0,1-3.67-.29,13.71,13.71,0,0,1-2.84-.86v-4.46a18.91,18.91,0,0,0,3.38,1.17,13.79,13.79,0,0,0,3.31.47q2.91,0,2.91-1.68a1.4,1.4,0,0,0-.39-1,5.57,5.57,0,0,0-1.33-.89q-0.94-.5-2.52-1.16a16,16,0,0,1-3.35-1.75,4.94,4.94,0,0,1-1.56-1.85A6,6,0,0,1,263.13,405.31Z"/><path class="cls-2" d="M282,395.12q0-2.62,2.92-2.62t2.92,2.62a2.55,2.55,0,0,1-.73,1.94,3.07,3.07,0,0,1-2.19.69Q282,397.76,282,395.12Zm0.23,24.73V400.2h5.36v19.65h-5.36Z"/><path class="cls-2" d="M291.22,404.17v-2.24l3-1.77,1.55-4.2h3.43v4.24h5.5v4h-5.5v9.53a2.11,2.11,0,0,0,.64,1.7,2.52,2.52,0,0,0,1.7.55,11.55,11.55,0,0,0,3.38-.62v4a12.09,12.09,0,0,1-4.92.89q-3.22,0-4.68-1.63a7.12,7.12,0,0,1-1.47-4.89v-9.51h-2.57Z"/><path class="cls-2" d="M307.64,410.17q0-4.94,2.47-7.64a8.81,8.81,0,0,1,6.84-2.7,8.61,8.61,0,0,1,6.47,2.37,9,9,0,0,1,2.31,6.56v2.6H313.09a5.2,5.2,0,0,0,1.35,3.58,4.74,4.74,0,0,0,3.54,1.29,14.6,14.6,0,0,0,3.35-.37,16.69,16.69,0,0,0,3.29-1.18v4.14a12.56,12.56,0,0,1-3,1,19,19,0,0,1-3.89.34,10.15,10.15,0,0,1-7.42-2.62Q307.64,415,307.64,410.17Zm5.57-2.37h7.51a4.47,4.47,0,0,0-1-3.07,3.5,3.5,0,0,0-2.7-1.08,3.39,3.39,0,0,0-2.67,1.08A5,5,0,0,0,313.21,407.79Z"/><path class="cls-2" d="M338.26,410.17q0-4.94,2.47-7.64a8.81,8.81,0,0,1,6.84-2.7A8.61,8.61,0,0,1,354,402.2a9,9,0,0,1,2.31,6.56v2.6H343.71a5.2,5.2,0,0,0,1.35,3.58,4.74,4.74,0,0,0,3.54,1.29,14.6,14.6,0,0,0,3.35-.37,16.69,16.69,0,0,0,3.29-1.18v4.14a12.56,12.56,0,0,1-3,1,19,19,0,0,1-3.89.34,10.15,10.15,0,0,1-7.42-2.62Q338.26,415,338.26,410.17Zm5.57-2.37h7.51a4.47,4.47,0,0,0-1-3.07,3.5,3.5,0,0,0-2.7-1.08,3.39,3.39,0,0,0-2.67,1.08A5,5,0,0,0,343.83,407.79Z"/><path class="cls-2" d="M357.56,400.2h5.61l3.8,11.2a18.06,18.06,0,0,1,.76,4h0.14a15.12,15.12,0,0,1,.79-4l3.78-11.2H378l-7.49,19.65h-5.5Z"/><path class="cls-2" d="M379.66,410.17q0-4.94,2.47-7.64a8.81,8.81,0,0,1,6.84-2.7,8.61,8.61,0,0,1,6.47,2.37,9,9,0,0,1,2.31,6.56v2.6H385.11a5.2,5.2,0,0,0,1.35,3.58,4.74,4.74,0,0,0,3.54,1.29,14.6,14.6,0,0,0,3.35-.37,16.69,16.69,0,0,0,3.29-1.18v4.14a12.56,12.56,0,0,1-3,1,19,19,0,0,1-3.89.34,10.15,10.15,0,0,1-7.42-2.62Q379.66,415,379.66,410.17Zm5.57-2.37h7.51a4.47,4.47,0,0,0-1-3.07,3.5,3.5,0,0,0-2.7-1.08,3.39,3.39,0,0,0-2.67,1.08A5,5,0,0,0,385.23,407.79Z"/><path class="cls-2" d="M402.12,419.85V400.2h4.1l0.72,2.49h0.3a5.65,5.65,0,0,1,2.47-2.14,8.47,8.47,0,0,1,3.58-.72,6.87,6.87,0,0,1,5.2,1.85,7.44,7.44,0,0,1,1.78,5.35v12.81H414.9v-11.5a5.53,5.53,0,0,0-.76-3.2,2.75,2.75,0,0,0-2.41-1.07,3.62,3.62,0,0,0-3.25,1.51,9.36,9.36,0,0,0-1,5v9.27h-5.36Z"/><path class="cls-2" d="M423.8,404.17v-2.24l3-1.77,1.55-4.2h3.43v4.24h5.5v4h-5.5v9.53a2.11,2.11,0,0,0,.64,1.7,2.52,2.52,0,0,0,1.7.55,11.55,11.55,0,0,0,3.38-.62v4a12.09,12.09,0,0,1-4.92.89q-3.22,0-4.68-1.63a7.12,7.12,0,0,1-1.47-4.89v-9.51H423.8Z"/><path class="cls-2" d="M440.21,405.31a4.66,4.66,0,0,1,2-4,10,10,0,0,1,5.78-1.43,16.16,16.16,0,0,1,6.87,1.55l-1.61,3.86q-1.47-.63-2.74-1a8.63,8.63,0,0,0-2.6-.4q-2.36,0-2.36,1.28a1.5,1.5,0,0,0,.76,1.24,20.62,20.62,0,0,0,3.33,1.56,15.44,15.44,0,0,1,3.35,1.73,5.12,5.12,0,0,1,1.57,1.86,5.71,5.71,0,0,1,.51,2.5,5.48,5.48,0,0,1-2.09,4.64q-2.09,1.59-6.25,1.59a19.62,19.62,0,0,1-3.67-.29,13.71,13.71,0,0,1-2.84-.86v-4.46a18.91,18.91,0,0,0,3.38,1.17,13.79,13.79,0,0,0,3.31.47q2.91,0,2.91-1.68a1.4,1.4,0,0,0-.39-1,5.57,5.57,0,0,0-1.33-.89q-0.94-.5-2.52-1.16a16,16,0,0,1-3.35-1.75,4.94,4.94,0,0,1-1.56-1.85A6,6,0,0,1,440.21,405.31Z"/><path class="cls-2" d="M458.55,417.34a3,3,0,0,1,.75-2.23,3,3,0,0,1,2.2-.76,2.89,2.89,0,0,1,2.16.77,3.54,3.54,0,0,1,0,4.4,2.84,2.84,0,0,1-2.15.8,2.93,2.93,0,0,1-2.18-.78A3,3,0,0,1,458.55,417.34Z"/><path class="cls-2" d="M79.44,458a27.51,27.51,0,0,1,1.35-8.72,21.49,21.49,0,0,1,3.91-7.12h3a24.78,24.78,0,0,0-3.81,7.45A27.72,27.72,0,0,0,82.61,458a26.65,26.65,0,0,0,1.3,8.24,25.59,25.59,0,0,0,3.74,7.35h-3a20.57,20.57,0,0,1-3.92-7A26.8,26.8,0,0,1,79.44,458Z"/><path class="cls-2" d="M89.13,445v-2.85h19.28V445h-8v22.85H97.18V445H89.13Z"/><path class="cls-2" d="M111.87,467.85V440.5H115v8a17.85,17.85,0,0,1-.18,2.71h0.21a5.86,5.86,0,0,1,2.44-2.2,7.87,7.87,0,0,1,3.57-.79,7.5,7.5,0,0,1,5.32,1.68q1.78,1.68,1.78,5.37v12.57H125V455.51a5.08,5.08,0,0,0-1-3.51,4.22,4.22,0,0,0-3.28-1.15,5.28,5.28,0,0,0-4.3,1.63q-1.36,1.63-1.36,5.4v10h-3.16Z"/><path class="cls-2" d="M133.05,458.33a11.16,11.16,0,0,1,2.3-7.39,7.66,7.66,0,0,1,6.2-2.75,7.54,7.54,0,0,1,5.82,2.35,9,9,0,0,1,2.17,6.35v1.92H136.29a7.36,7.36,0,0,0,1.67,5,5.84,5.84,0,0,0,4.49,1.7,15.41,15.41,0,0,0,2.95-.27,17,17,0,0,0,3.26-1.06v2.78a15.29,15.29,0,0,1-3,1,17.17,17.17,0,0,1-3.33.28,8.85,8.85,0,0,1-6.79-2.63A10.17,10.17,0,0,1,133.05,458.33Zm3.3-2.07h9.84a6.26,6.26,0,0,0-1.25-4.11,4.29,4.29,0,0,0-3.43-1.41,4.6,4.6,0,0,0-3.59,1.46A6.83,6.83,0,0,0,136.36,456.27Z"/><path class="cls-2" d="M163.78,467.85V440.5h3.16v27.35h-3.16Z"/><path class="cls-2" d="M171.66,462.49q0-5.87,9.24-6.15l3.26-.12v-1.14a4.71,4.71,0,0,0-1-3.24,3.94,3.94,0,0,0-3-1,9.06,9.06,0,0,0-2.9.46,23.78,23.78,0,0,0-2.56,1l-1-2.37a14.29,14.29,0,0,1,3.18-1.21,13.72,13.72,0,0,1,3.41-.44,7.62,7.62,0,0,1,5.23,1.55q1.72,1.55,1.72,4.92v13.15H185l-0.67-2.74H184.2a8.13,8.13,0,0,1-2.88,2.45,8.91,8.91,0,0,1-3.62.64,6.25,6.25,0,0,1-4.43-1.49A5.48,5.48,0,0,1,171.66,462.49Zm3.23,0a2.92,2.92,0,0,0,.92,2.32,3.82,3.82,0,0,0,2.6.81,5.86,5.86,0,0,0,4.18-1.43,5.32,5.32,0,0,0,1.52-4.07v-1.74l-2.85.12a10.39,10.39,0,0,0-4.85,1.05A3.19,3.19,0,0,0,174.89,462.53Z"/><path class="cls-2" d="M192,453.29a4.32,4.32,0,0,1,1.93-3.72,9,9,0,0,1,5.29-1.36,14.92,14.92,0,0,1,6.16,1.28l-1.07,2.5a13.89,13.89,0,0,0-5.3-1.23,5.81,5.81,0,0,0-3,.63,1.93,1.93,0,0,0-1,1.72,2.15,2.15,0,0,0,.88,1.75,18.85,18.85,0,0,0,4.11,1.93,17.84,17.84,0,0,1,3.56,1.67,5.24,5.24,0,0,1,1.7,1.74,4.67,4.67,0,0,1,.54,2.33,4.9,4.9,0,0,1-2,4.2,9.46,9.46,0,0,1-5.69,1.49,12.72,12.72,0,0,1-6-1.21V464.1a13.86,13.86,0,0,0,6.11,1.55,6.12,6.12,0,0,0,3.49-.78,2.42,2.42,0,0,0,1.09-2.08,2.36,2.36,0,0,0-1-1.94A16.39,16.39,0,0,0,198,459a20.65,20.65,0,0,1-3.83-1.81,5,5,0,0,1-1.61-1.68A4.67,4.67,0,0,1,192,453.29Z"/><path class="cls-2" d="M208,451V449.5l2.78-1.27,1.25-4.11h1.88v4.43h5.59V451h-5.59v11.17a3.74,3.74,0,0,0,.8,2.57,2.83,2.83,0,0,0,2.23.9,10,10,0,0,0,1.45-.12,6.53,6.53,0,0,0,1.25-.28v2.4a7.22,7.22,0,0,1-1.36.37,9.67,9.67,0,0,1-1.87.18q-5.66,0-5.66-6V451H208Z"/><path class="cls-2" d="M231.77,458.15q0-4.7,2.35-7.33a8.39,8.39,0,0,1,6.59-2.62,8.23,8.23,0,0,1,6.46,2.68,10.52,10.52,0,0,1,2.39,7.27q0,4.74-2.38,7.4a8.4,8.4,0,0,1-6.59,2.66A8.74,8.74,0,0,1,236,467a8,8,0,0,1-3.1-3.51A12.27,12.27,0,0,1,231.77,458.15Zm3.23,0a9.07,9.07,0,0,0,1.43,5.54,5.65,5.65,0,0,0,8.44,0,9,9,0,0,0,1.44-5.54,8.75,8.75,0,0,0-1.45-5.49,5.09,5.09,0,0,0-4.25-1.84Q235,450.82,235,458.15Z"/><path class="cls-2" d="M254.63,467.85v-19.3h2.51l0.5,2.6h0.18a5.94,5.94,0,0,1,2.51-2.18,8.16,8.16,0,0,1,3.57-.77q3.57,0,5.3,1.72t1.73,5.36v12.57h-3.16V455.49a5.09,5.09,0,0,0-1-3.51,4.22,4.22,0,0,0-3.28-1.15,5.25,5.25,0,0,0-4.32,1.65q-1.34,1.65-1.34,5.36v10h-3.16Z"/><path class="cls-2" d="M275.81,458.33a11.16,11.16,0,0,1,2.3-7.39,7.66,7.66,0,0,1,6.2-2.75,7.54,7.54,0,0,1,5.82,2.35,9,9,0,0,1,2.17,6.35v1.92H279a7.36,7.36,0,0,0,1.67,5,5.84,5.84,0,0,0,4.49,1.7,15.41,15.41,0,0,0,2.95-.27,17,17,0,0,0,3.26-1.06v2.78a15.29,15.29,0,0,1-3,1,17.17,17.17,0,0,1-3.33.28,8.85,8.85,0,0,1-6.79-2.63A10.17,10.17,0,0,1,275.81,458.33Zm3.3-2.07H289a6.26,6.26,0,0,0-1.25-4.11,4.29,4.29,0,0,0-3.43-1.41,4.6,4.6,0,0,0-3.59,1.46A6.83,6.83,0,0,0,279.11,456.27Z"/><path class="cls-2" d="M303.88,448.55h3.23l2.78,10.83a46.15,46.15,0,0,1,1.13,5.23h0.14l0.25-1.09q0.55-2.51,1.07-4.1L316,448.55h3.48l3.36,10.85,0.36,1.31,0.38,1.37q0.19,0.68.33,1.33t0.21,1.17h0.16q0.15-1.34,1.25-5.73l2.64-10.3h3.23L326,467.85H322.3L319,457q-0.46-1.35-1.33-5.12h-0.14q-0.74,3.43-1.3,5.15l-3.45,10.83h-3.58Z"/><path class="cls-2" d="M333.43,462.49q0-5.87,9.24-6.15l3.26-.12v-1.14a4.71,4.71,0,0,0-1-3.24,3.94,3.94,0,0,0-3-1,9.06,9.06,0,0,0-2.9.46,23.78,23.78,0,0,0-2.56,1l-1-2.37a14.29,14.29,0,0,1,3.18-1.21,13.72,13.72,0,0,1,3.41-.44,7.62,7.62,0,0,1,5.23,1.55q1.72,1.55,1.72,4.92v13.15h-2.27l-0.67-2.74H346a8.13,8.13,0,0,1-2.88,2.45,8.91,8.91,0,0,1-3.62.64,6.25,6.25,0,0,1-4.43-1.49A5.48,5.48,0,0,1,333.43,462.49Zm3.23,0a2.92,2.92,0,0,0,.92,2.32,3.82,3.82,0,0,0,2.6.81,5.86,5.86,0,0,0,4.18-1.43,5.32,5.32,0,0,0,1.52-4.07v-1.74l-2.85.12a10.39,10.39,0,0,0-4.85,1.05A3.19,3.19,0,0,0,336.66,462.53Z"/><path class="cls-2" d="M353.8,453.29a4.32,4.32,0,0,1,1.93-3.72A9,9,0,0,1,361,448.2a14.92,14.92,0,0,1,6.16,1.28l-1.07,2.5a13.89,13.89,0,0,0-5.3-1.23,5.81,5.81,0,0,0-3,.63,1.93,1.93,0,0,0-1,1.72,2.15,2.15,0,0,0,.88,1.75,18.85,18.85,0,0,0,4.11,1.93,17.84,17.84,0,0,1,3.56,1.67,5.24,5.24,0,0,1,1.7,1.74,4.67,4.67,0,0,1,.54,2.33,4.9,4.9,0,0,1-2,4.2,9.46,9.46,0,0,1-5.69,1.49,12.72,12.72,0,0,1-6-1.21V464.1a13.86,13.86,0,0,0,6.11,1.55,6.12,6.12,0,0,0,3.49-.78,2.42,2.42,0,0,0,1.09-2.08,2.36,2.36,0,0,0-1-1.94,16.39,16.39,0,0,0-3.73-1.81,20.65,20.65,0,0,1-3.83-1.81,5,5,0,0,1-1.61-1.68A4.67,4.67,0,0,1,353.8,453.29Z"/><path class="cls-2" d="M381.38,443.33a2,2,0,0,1,.5-1.53,1.72,1.72,0,0,1,1.23-.47,2.16,2.16,0,0,1,1.39.47,1.84,1.84,0,0,1,.59,1.53,1.87,1.87,0,0,1-.59,1.53,2.11,2.11,0,0,1-1.39.49,1.68,1.68,0,0,1-1.23-.49A2.07,2.07,0,0,1,381.38,443.33Zm0.25,24.52v-19.3h2.92v19.3h-2.92Z"/><path class="cls-2" d="M390.91,467.85v-19.3h2.51l0.5,2.6h0.18a5.94,5.94,0,0,1,2.51-2.18,8.16,8.16,0,0,1,3.57-.77q3.57,0,5.3,1.72t1.73,5.36v12.57h-3.16V455.49a5.09,5.09,0,0,0-1-3.51,4.22,4.22,0,0,0-3.28-1.15,5.25,5.25,0,0,0-4.32,1.65q-1.34,1.65-1.34,5.36v10h-3.16Z"/><path class="cls-2" d="M423,467.85v-25.7h7.33q5.17,0,7.46,1.54a5.4,5.4,0,0,1,2.29,4.83,5.66,5.66,0,0,1-1.25,3.77,6,6,0,0,1-3.64,1.92v0.18a7.29,7.29,0,0,1,4.33,2.05,5.9,5.9,0,0,1,1.38,4.09,6.6,6.6,0,0,1-2.35,5.39,10,10,0,0,1-6.55,1.94h-9Zm3.23-14.77h4.75a7.77,7.77,0,0,0,4.39-1,3.68,3.68,0,0,0,1.37-3.23,3.3,3.3,0,0,0-1.5-3,9.31,9.31,0,0,0-4.75-.93h-4.25v8.17Zm0,12h5.19A7.29,7.29,0,0,0,436,463.9a4.35,4.35,0,0,0,1.49-3.61,3.85,3.85,0,0,0-1.58-3.39,8.36,8.36,0,0,0-4.75-1.1h-4.94v9.3Z"/><path class="cls-2" d="M444.5,462.49q0-5.87,9.24-6.15l3.26-.12v-1.14a4.71,4.71,0,0,0-1-3.24,3.94,3.94,0,0,0-3-1,9.06,9.06,0,0,0-2.9.46,23.78,23.78,0,0,0-2.56,1l-1-2.37a14.29,14.29,0,0,1,3.18-1.21,13.72,13.72,0,0,1,3.41-.44,7.62,7.62,0,0,1,5.23,1.55q1.72,1.55,1.72,4.92v13.15h-2.27l-0.67-2.74H457a8.13,8.13,0,0,1-2.88,2.45,8.91,8.91,0,0,1-3.62.64,6.25,6.25,0,0,1-4.43-1.49A5.48,5.48,0,0,1,444.5,462.49Zm3.23,0a2.92,2.92,0,0,0,.92,2.32,3.82,3.82,0,0,0,2.6.81,5.86,5.86,0,0,0,4.18-1.43,5.32,5.32,0,0,0,1.52-4.07v-1.74l-2.85.12a10.39,10.39,0,0,0-4.85,1.05A3.19,3.19,0,0,0,447.74,462.53Z"/><path class="cls-2" d="M466.11,467.85V440.5h3.16v27.35h-3.16Z"/><path class="cls-2" d="M475.14,443.33a2,2,0,0,1,.5-1.53,1.72,1.72,0,0,1,1.23-.47,2.16,2.16,0,0,1,1.39.47,1.84,1.84,0,0,1,.59,1.53,1.87,1.87,0,0,1-.59,1.53,2.11,2.11,0,0,1-1.39.49,1.68,1.68,0,0,1-1.23-.49A2.07,2.07,0,0,1,475.14,443.33Zm0.25,24.52v-19.3h2.92v19.3h-2.92Z"/><path class="cls-2" d="M484.2,465.9a2.55,2.55,0,0,1,.57-1.78,2.09,2.09,0,0,1,1.63-.62,2.2,2.2,0,0,1,1.67.62,2.48,2.48,0,0,1,.6,1.78,2.58,2.58,0,0,1-.6,1.8,2.14,2.14,0,0,1-1.67.66,2.05,2.05,0,0,1-1.62-.65A2.63,2.63,0,0,1,484.2,465.9Z"/><path class="cls-2" d="M492.33,442.15h3a21.42,21.42,0,0,1,3.92,7.15,27.64,27.64,0,0,1,1.34,8.69,26.75,26.75,0,0,1-1.35,8.61,20.46,20.46,0,0,1-3.91,6.94h-3a25.32,25.32,0,0,0,3.74-7.34,26.73,26.73,0,0,0,1.3-8.25,27.72,27.72,0,0,0-1.27-8.35A24.78,24.78,0,0,0,492.33,442.15Z"/></svg>