<svg id="Layer_1" data-name="Layer 1" xmlns="http://www.w3.org/2000/svg" viewBox="0 0 800 600"><defs><style>.cls-1{fill:#37515e;}.cls-2{fill:#fcfcfc;}.cls-3{fill:#fff;}</style></defs><title>perks</title><rect class="cls-1" width="800" height="600"/><path class="cls-2" d="M74.89,128.09V85.25H88.53q7.77,0,11.82,3.35t4,10q0,6.91-4.3,10.58t-12.24,3.66H84v15.23H74.89ZM84,105.41h3q4.19,0,6.27-1.66a5.79,5.79,0,0,0,2.08-4.82,5.94,5.94,0,0,0-1.74-4.72Q91.82,92.7,88.1,92.7H84v12.71Z"/><path class="cls-2" d="M112.57,128.09V85.25h24.67V92.7H121.65v9.4h14.5v7.44h-14.5v11h15.59v7.56H112.57Z"/><path class="cls-2" d="M146.17,128.09V85.25h12.44q8.7,0,12.88,3.18t4.18,9.65a11.48,11.48,0,0,1-2.06,6.74,13.65,13.65,0,0,1-5.83,4.62l12.57,18.64H170.27l-10.19-16.41h-4.83v16.41h-9.08Zm9.08-23.82h2.93q4.31,0,6.36-1.44a5.12,5.12,0,0,0,2.05-4.51A4.69,4.69,0,0,0,164.5,94Q162.4,92.7,158,92.7h-2.75v11.57Z"/><path class="cls-2" d="M185.78,128.09V85.25h9.08v19.6l3.57-5L210,85.25h10.08l-14.94,19,15.06,23.88H209.92L198.7,110l-3.84,2.75v15.29h-9.08Z"/><path class="cls-2" d="M223,126.07v-8.47a50,50,0,0,0,7.34,2.72,21.73,21.73,0,0,0,5.49.79,7.78,7.78,0,0,0,4.57-1.14,3.9,3.9,0,0,0,1.59-3.39,3.75,3.75,0,0,0-.7-2.24,7.85,7.85,0,0,0-2.06-1.89,53,53,0,0,0-5.53-2.89,26.59,26.59,0,0,1-5.92-3.54,13.29,13.29,0,0,1-3.16-3.95,11.18,11.18,0,0,1-1.18-5.26,11.05,11.05,0,0,1,3.86-8.93q3.86-3.25,10.68-3.25a25.21,25.21,0,0,1,6.38.79,44,44,0,0,1,6.35,2.23l-2.94,7.06a42.88,42.88,0,0,0-5.67-2,18.29,18.29,0,0,0-4.41-.56,5.81,5.81,0,0,0-3.94,1.2,4,4,0,0,0-1.37,3.13,3.87,3.87,0,0,0,.55,2.09,6.1,6.1,0,0,0,1.77,1.73,54.54,54.54,0,0,0,5.74,3q6,2.86,8.25,5.74a12.21,12.21,0,0,1-1.94,16.24q-4.18,3.35-11.62,3.35A27.11,27.11,0,0,1,223,126.07Z"/><path class="cls-2" d="M271.27,116.45A12.75,12.75,0,0,1,273,109.6a16.69,16.69,0,0,1,6-5.29,19,19,0,0,1-3.24-4.82,12.37,12.37,0,0,1-1-5,8.61,8.61,0,0,1,3.44-7.12q3.44-2.7,9.2-2.7a14.14,14.14,0,0,1,8.79,2.51,8,8,0,0,1,3.29,6.72,10.8,10.8,0,0,1-2,6.38,20.24,20.24,0,0,1-6.6,5.5l8.41,8.12a36,36,0,0,0,3.61-8.83h9.32a42.27,42.27,0,0,1-2.9,7.73,35.27,35.27,0,0,1-4.19,6.67l8.82,8.64h-11l-3.37-3.34a21.81,21.81,0,0,1-12.76,3.92q-7.13,0-11.31-3.3A10.77,10.77,0,0,1,271.27,116.45Zm9.35-.85a4.85,4.85,0,0,0,1.89,4,7.61,7.61,0,0,0,4.86,1.5,12.74,12.74,0,0,0,6.69-1.79l-9.78-9.68a12.28,12.28,0,0,0-2.68,2.7A5.54,5.54,0,0,0,280.61,115.6Zm2.52-20.53q0,2.58,2.79,5.69A17.48,17.48,0,0,0,289.81,98a4.38,4.38,0,0,0,1.35-3.18,3,3,0,0,0-1.06-2.45,4.09,4.09,0,0,0-2.73-.89,4.72,4.72,0,0,0-3.1.94A3.27,3.27,0,0,0,283.13,95.07Z"/><path class="cls-2" d="M334.84,128.09V85.25h13.64q7.77,0,11.82,3.35t4,10q0,6.91-4.3,10.58t-12.24,3.66h-3.88v15.23h-9.08Zm9.08-22.68h3q4.19,0,6.27-1.66a5.79,5.79,0,0,0,2.08-4.82,5.94,5.94,0,0,0-1.74-4.72q-1.74-1.52-5.46-1.52h-4.13v12.71Z"/><path class="cls-2" d="M372.52,128.09V85.25H385q8.7,0,12.88,3.18T402,98.09a11.48,11.48,0,0,1-2.06,6.74,13.65,13.65,0,0,1-5.83,4.62l12.57,18.64H396.62l-10.19-16.41H381.6v16.41h-9.08Zm9.08-23.82h2.93q4.31,0,6.36-1.44a5.12,5.12,0,0,0,2.05-4.51A4.69,4.69,0,0,0,390.84,94q-2.09-1.29-6.49-1.29H381.6v11.57Z"/><path class="cls-2" d="M410.22,106.58q0-10.71,5.29-16.35t15.16-5.65q9.87,0,15.1,5.69T451,106.64q0,10.62-5.27,16.33t-15.12,5.71q-9.84,0-15.12-5.71T410.22,106.58Zm9.52,0.06q0,7.19,2.72,10.83t8.14,3.64q10.87,0,10.87-14.47t-10.81-14.5q-5.42,0-8.17,3.65T419.74,106.64Z"/><path class="cls-2" d="M457.29,126.07v-8.47a50,50,0,0,0,7.34,2.72,21.73,21.73,0,0,0,5.49.79A7.78,7.78,0,0,0,474.7,120a3.9,3.9,0,0,0,1.59-3.39,3.75,3.75,0,0,0-.7-2.24,7.85,7.85,0,0,0-2.06-1.89,53,53,0,0,0-5.53-2.89,26.59,26.59,0,0,1-5.92-3.54,13.29,13.29,0,0,1-3.16-3.95,11.18,11.18,0,0,1-1.18-5.26,11.05,11.05,0,0,1,3.86-8.93q3.86-3.25,10.68-3.25a25.21,25.21,0,0,1,6.38.79A44,44,0,0,1,485,87.66l-2.94,7.06a42.88,42.88,0,0,0-5.67-2A18.29,18.29,0,0,0,472,92.2a5.81,5.81,0,0,0-3.94,1.2,4,4,0,0,0-1.37,3.13,3.87,3.87,0,0,0,.55,2.09,6.1,6.1,0,0,0,1.77,1.73,54.54,54.54,0,0,0,5.74,3q6,2.86,8.25,5.74A12.21,12.21,0,0,1,481,125.32q-4.18,3.35-11.62,3.35A27.11,27.11,0,0,1,457.29,126.07Z"/><path class="cls-2" d="M492.93,128.09V85.25h13.64q7.77,0,11.82,3.35t4,10q0,6.91-4.3,10.58t-12.24,3.66H502v15.23h-9.08ZM502,105.41h3q4.19,0,6.27-1.66a5.79,5.79,0,0,0,2.08-4.82,5.94,5.94,0,0,0-1.74-4.72q-1.74-1.52-5.46-1.52H502v12.71Z"/><path class="cls-2" d="M530.6,128.09V85.25h24.67V92.7H539.69v9.4h14.5v7.44h-14.5v11h15.59v7.56H530.6Z"/><path class="cls-2" d="M562.3,106.73A26.58,26.58,0,0,1,564.73,95a17.57,17.57,0,0,1,7-7.71,20.67,20.67,0,0,1,10.68-2.68,28.83,28.83,0,0,1,12.54,3L592,95a48.61,48.61,0,0,0-4.83-2,14.42,14.42,0,0,0-4.78-.85A9.26,9.26,0,0,0,574.46,96q-2.81,3.85-2.81,10.74,0,14.33,10.75,14.33a34,34,0,0,0,10.93-2.26v7.62a30.35,30.35,0,0,1-11.78,2.2q-9.35,0-14.3-5.67T562.3,106.73Z"/><path class="cls-2" d="M598.25,92.81V85.25h32.34v7.56H619v35.27h-9.08V92.81H598.25Z"/><path class="cls-2" d="M634.6,126.07v-8.47a50,50,0,0,0,7.34,2.72,21.73,21.73,0,0,0,5.49.79A7.78,7.78,0,0,0,652,120a3.9,3.9,0,0,0,1.59-3.39,3.75,3.75,0,0,0-.7-2.24,7.85,7.85,0,0,0-2.06-1.89,53,53,0,0,0-5.53-2.89,26.59,26.59,0,0,1-5.92-3.54,13.29,13.29,0,0,1-3.16-3.95A11.18,11.18,0,0,1,635,96.82a11.05,11.05,0,0,1,3.86-8.93q3.86-3.25,10.68-3.25a25.21,25.21,0,0,1,6.38.79,44,44,0,0,1,6.35,2.23l-2.94,7.06a42.88,42.88,0,0,0-5.67-2,18.29,18.29,0,0,0-4.41-.56,5.81,5.81,0,0,0-3.94,1.2A4,4,0,0,0,644,96.53a3.87,3.87,0,0,0,.55,2.09,6.1,6.1,0,0,0,1.77,1.73,54.54,54.54,0,0,0,5.74,3q6,2.86,8.25,5.74a12.21,12.21,0,0,1-1.94,16.24q-4.18,3.35-11.62,3.35A27.11,27.11,0,0,1,634.6,126.07Z"/><path class="cls-2" d="M72.58,190a12.69,12.69,0,0,1,3.64-7.33,9.94,9.94,0,0,1,7.05-2.62q4.07,0,6,2.68T90.37,190a12.8,12.8,0,0,1-3.69,7.4,10,10,0,0,1-7.06,2.66,7.67,7.67,0,0,1-4.41-1.22,6.23,6.23,0,0,1-2.48-3.51A11.52,11.52,0,0,1,72.58,190Zm3.23,0q-0.64,3.65.46,5.54a4.13,4.13,0,0,0,3.9,1.89,6,6,0,0,0,4.54-1.89A10.63,10.63,0,0,0,87.14,190q0.64-3.65-.48-5.49a4.23,4.23,0,0,0-3.93-1.84Q77.11,182.67,75.82,190Z"/><path class="cls-2" d="M94.18,182.86l0.26-1.48L98,180.3l0.2-1.11a9.32,9.32,0,0,1,2.47-5.29,7,7,0,0,1,5-1.76,10.45,10.45,0,0,1,3.63.65l-1.28,2.49a8.69,8.69,0,0,0-2.77-.53,3.29,3.29,0,0,0-2.56,1.05,6.65,6.65,0,0,0-1.36,3.34l-0.22,1.25H106l-0.43,2.46h-4.87l-3,16.84H94.59l3-16.84H94.18Z"/><path class="cls-2" d="M116.22,180.4h3.23l0.87,10.83a43.48,43.48,0,0,1,.21,5.23h0.14l0.44-1.09q1-2.52,1.79-4.1l5.38-10.88h3.48l1.44,10.86,0.13,1.3,0.14,1.37c0,0.45.08,0.89,0.09,1.33s0,0.82,0,1.17h0.16q0.39-1.34,2.26-5.73l4.46-10.3h3.23l-8.77,19.3h-3.69l-1.4-10.86q-0.22-1.35-.43-5.12h-0.14q-1.34,3.43-2.21,5.15L121.7,199.7h-3.58Z"/><path class="cls-2" d="M144.41,190a12.69,12.69,0,0,1,3.64-7.33,9.94,9.94,0,0,1,7.05-2.62q4.07,0,6,2.68T162.2,190a12.8,12.8,0,0,1-3.69,7.4,10,10,0,0,1-7.06,2.66,7.67,7.67,0,0,1-4.41-1.22,6.23,6.23,0,0,1-2.48-3.51A11.52,11.52,0,0,1,144.41,190Zm3.23,0q-0.64,3.65.46,5.54a4.13,4.13,0,0,0,3.9,1.89,6,6,0,0,0,4.54-1.89A10.63,10.63,0,0,0,159,190q0.64-3.65-.48-5.49a4.23,4.23,0,0,0-3.93-1.84Q148.94,182.67,147.64,190Z"/><path class="cls-2" d="M165.55,199.7l3.4-19.3h2.6l-0.27,3.5h0.14a10.75,10.75,0,0,1,3.13-2.87,6.81,6.81,0,0,1,3.46-1,10.52,10.52,0,0,1,2.23.21l-0.9,2.88a8.84,8.84,0,0,0-2-.25,5.89,5.89,0,0,0-3,.85,7.44,7.44,0,0,0-2.46,2.33,8.5,8.5,0,0,0-1.32,3.3l-1.82,10.32h-3.16Z"/><path class="cls-2" d="M180.42,199.7l4.82-27.35h3.16l-2.52,14.29-0.69,3.13h0.14l1.31-1.37,1.49-1.48,7.32-6.52h3.69l-9.26,8.24,6.4,11.06h-3.81l-5.11-9-2.54,1.92-1.25,7.08h-3.16Z"/><path class="cls-2" d="M199.65,199.7l3.4-19.3H206l-3.4,19.3h-2.92Zm4.08-24.52a2.44,2.44,0,0,1,.77-1.53,2,2,0,0,1,1.31-.47,1.84,1.84,0,0,1,1.3.47,1.6,1.6,0,0,1,.32,1.53,2.28,2.28,0,0,1-.86,1.53,2.47,2.47,0,0,1-1.47.49,1.41,1.41,0,0,1-1.14-.49A1.84,1.84,0,0,1,203.73,175.18Z"/><path class="cls-2" d="M208.93,199.7l3.4-19.3h2.51l0,2.6h0.18a7.63,7.63,0,0,1,2.9-2.18,9.07,9.07,0,0,1,3.7-.77q3.57,0,5,1.72t0.79,5.36l-2.22,12.57h-3.16l2.18-12.37a4.57,4.57,0,0,0-.43-3.51,3.58,3.58,0,0,0-3.08-1.15,6.2,6.2,0,0,0-4.61,1.65,10,10,0,0,0-2.29,5.36l-1.77,10h-3.16Z"/><path class="cls-2" d="M231.81,190.06a13.7,13.7,0,0,1,3.4-7.33,8.35,8.35,0,0,1,6.25-2.68q3.93,0,5.55,2.88h0.19l0.9-2.53h2.51L247.16,200a10.14,10.14,0,0,1-3.21,6.24,10.44,10.44,0,0,1-6.93,2.09,15.42,15.42,0,0,1-6.72-1.23l0.51-2.91a13.31,13.31,0,0,0,6.84,1.52,6.16,6.16,0,0,0,4.15-1.45,6.57,6.57,0,0,0,2.14-4l0.13-.76,0.53-2.38h-0.14a8.1,8.1,0,0,1-6.5,2.92q-3.73,0-5.36-2.62T231.81,190.06Zm3.22,0.06q-0.63,3.6.33,5.49a3.6,3.6,0,0,0,3.53,1.89,6.19,6.19,0,0,0,4.53-1.58,9.25,9.25,0,0,0,2.22-5.08l0.13-.76q0.68-3.88-.34-5.65t-4-1.77a5.21,5.21,0,0,0-4.1,1.93A11.34,11.34,0,0,0,235,190.12Z"/><path class="cls-2" d="M262.69,199.7l3.4-19.3H269l-3.4,19.3h-2.92Zm4.08-24.52a2.44,2.44,0,0,1,.77-1.53,2,2,0,0,1,1.31-.47,1.84,1.84,0,0,1,1.3.47,1.6,1.6,0,0,1,.32,1.53,2.28,2.28,0,0,1-.86,1.53,2.47,2.47,0,0,1-1.47.49,1.41,1.41,0,0,1-1.14-.49A1.84,1.84,0,0,1,266.76,175.18Z"/><path class="cls-2" d="M272,199.7l3.4-19.3h2.51l0,2.6h0.18a7.63,7.63,0,0,1,2.9-2.18,9.07,9.07,0,0,1,3.7-.77q3.57,0,5,1.72t0.79,5.36l-2.22,12.57h-3.16l2.18-12.37a4.57,4.57,0,0,0-.43-3.51,3.58,3.58,0,0,0-3.08-1.15,6.2,6.2,0,0,0-4.61,1.65,10,10,0,0,0-2.29,5.36l-1.77,10H272Z"/><path class="cls-2" d="M302.46,198.86l0.54-3.08a16,16,0,0,0,3.38,1.11,16.8,16.8,0,0,0,3.56.41,8.08,8.08,0,0,0,4.54-1.11,4.46,4.46,0,0,0,2-3,3.55,3.55,0,0,0-.16-2.11,3.9,3.9,0,0,0-1.5-1.55,20.3,20.3,0,0,0-3.47-1.64,9.5,9.5,0,0,1-4.54-3.07,6,6,0,0,1-.71-4.57,7.13,7.13,0,0,1,3.1-4.79,10.7,10.7,0,0,1,6.25-1.78,15.53,15.53,0,0,1,6.84,1.44l-1.49,2.78a14.45,14.45,0,0,0-5.92-1.37,6.6,6.6,0,0,0-3.76,1,4,4,0,0,0-1.78,2.76,3.73,3.73,0,0,0,.13,2.1,3.63,3.63,0,0,0,1.35,1.52,17.18,17.18,0,0,0,3.24,1.57,15.51,15.51,0,0,1,3.92,2.05,5,5,0,0,1,1.67,2.29,6.23,6.23,0,0,1,.12,3.09,7.84,7.84,0,0,1-3.36,5.27,12.16,12.16,0,0,1-7.1,1.93A15.25,15.25,0,0,1,302.46,198.86Z"/><path class="cls-2" d="M323.33,199.7l4.82-27.35h3.16l-1.41,8a19.17,19.17,0,0,1-.65,2.71h0.21a7.57,7.57,0,0,1,2.83-2.2,8.76,8.76,0,0,1,3.71-.79q3.53,0,5,1.68t0.84,5.37l-2.22,12.57h-3.16l2.18-12.34a4.56,4.56,0,0,0-.43-3.51,3.58,3.58,0,0,0-3.08-1.15,6.23,6.23,0,0,0-4.59,1.63,9.93,9.93,0,0,0-2.31,5.4l-1.76,10h-3.16Z"/><path class="cls-2" d="M345.12,194.34q1-5.87,10.32-6.15l3.28-.12,0.2-1.14a4.23,4.23,0,0,0-.38-3.24,3.35,3.35,0,0,0-2.86-1,9.82,9.82,0,0,0-3,.46,28.42,28.42,0,0,0-2.74,1l-0.53-2.37a17,17,0,0,1,3.39-1.21,14.71,14.71,0,0,1,3.48-.44q3.52,0,5,1.55t0.85,4.92l-2.32,13.15h-2.27L357.35,197H357.2a10.45,10.45,0,0,1-3.31,2.45,9.76,9.76,0,0,1-3.74.64,5.33,5.33,0,0,1-4.17-1.49A4.78,4.78,0,0,1,345.12,194.34Zm3.23,0a2.53,2.53,0,0,0,.52,2.32,3.29,3.29,0,0,0,2.46.81,6.84,6.84,0,0,0,4.44-1.43A6.45,6.45,0,0,0,358,192l0.31-1.74-2.87.12a11.61,11.61,0,0,0-5,1.05A4,4,0,0,0,348.35,194.38Z"/><path class="cls-2" d="M365.78,199.7l3.4-19.3h2.6l-0.27,3.5h0.14a10.75,10.75,0,0,1,3.13-2.87,6.81,6.81,0,0,1,3.46-1,10.52,10.52,0,0,1,2.23.21l-0.9,2.88a8.84,8.84,0,0,0-2-.25,5.89,5.89,0,0,0-3,.85,7.44,7.44,0,0,0-2.46,2.33,8.5,8.5,0,0,0-1.32,3.3l-1.82,10.32h-3.16Z"/><path class="cls-2" d="M380.91,190.19a13.32,13.32,0,0,1,3.6-7.39,9.17,9.17,0,0,1,6.69-2.75,6.31,6.31,0,0,1,5.41,2.35q1.75,2.35,1,6.35l-0.34,1.92H384.06q-0.49,3.28.79,5a4.92,4.92,0,0,0,4.19,1.7,16.09,16.09,0,0,0,3-.27,19.73,19.73,0,0,0,3.45-1.06L395,198.8a17.66,17.66,0,0,1-3.19,1,18,18,0,0,1-3.38.28q-4.33,0-6.33-2.63T380.91,190.19Zm3.67-2.07h9.84a5.61,5.61,0,0,0-.52-4.11,3.59,3.59,0,0,0-3.19-1.41,5.46,5.46,0,0,0-3.85,1.46A8.35,8.35,0,0,0,384.58,188.12Z"/><path class="cls-2" d="M401,199.7l4.53-25.7h6.8q9.64,0,8.31,7.56a8.83,8.83,0,0,1-3.75,6,13.75,13.75,0,0,1-7.94,2.1H406l-1.77,10H401Zm5.49-12.78h2.58a10.85,10.85,0,0,0,5.77-1.24,5.6,5.6,0,0,0,2.42-4,3.77,3.77,0,0,0-.95-3.71q-1.38-1.23-4.77-1.23h-3.27Z"/><path class="cls-2" d="M423,190a12.69,12.69,0,0,1,3.64-7.33,9.94,9.94,0,0,1,7.05-2.62q4.07,0,6,2.68t1.11,7.27a12.8,12.8,0,0,1-3.69,7.4,10,10,0,0,1-7.06,2.66,7.67,7.67,0,0,1-4.41-1.22,6.23,6.23,0,0,1-2.48-3.51A11.52,11.52,0,0,1,423,190Zm3.23,0q-0.64,3.65.46,5.54a4.13,4.13,0,0,0,3.9,1.89,6,6,0,0,0,4.54-1.89,10.63,10.63,0,0,0,2.42-5.54q0.64-3.65-.48-5.49a4.23,4.23,0,0,0-3.93-1.84Q427.55,182.67,426.26,190Z"/><path class="cls-2" d="M442.64,208.35l4.93-28h2.6l0,2.6h0.14a8.22,8.22,0,0,1,6.53-3q3.75,0,5.36,2.61t0.78,7.34a13.87,13.87,0,0,1-3.39,7.4,8.4,8.4,0,0,1-6.31,2.66q-3.88,0-5.48-2.8h-0.21l-0.06.72q-0.1,1.37-.29,2.44l-1.4,7.93h-3.16ZM449,190q-0.69,3.93.3,5.68t3.91,1.75a5.29,5.29,0,0,0,4.14-2,11.22,11.22,0,0,0,2.33-5.5q0.62-3.54-.41-5.42a3.69,3.69,0,0,0-3.53-1.88,5.86,5.86,0,0,0-4.42,1.62,9.85,9.85,0,0,0-2.21,5.09Z"/><path class="cls-3" d="M152.31,263.07a80,80,0,1,0,80,80A80,80,0,0,0,152.31,263.07Zm0,154a74,74,0,1,1,74-74A74,74,0,0,1,152.31,417.07Z"/><path class="cls-3" d="M181.58,354.06l-26.42,25.44a2.66,2.66,0,0,1-3.73,0L125,354c-0.34-.3-9.67-8.82-9.67-19,0-12.42,7.59-19.84,20.27-19.84,7.42,0,14.38,5.85,17.72,9.16,3.35-3.31,10.3-9.16,17.73-9.16,12.68,0,20.27,7.42,20.27,19.84C191.29,345.16,182,353.68,181.58,354.06ZM171,320.56c-6.32,0-13.44,6.83-15.65,9.46a2.8,2.8,0,0,1-4.16,0c-2.21-2.63-9.33-9.46-15.65-9.46-6.79,0-14.84,2.5-14.84,14.42,0,7.76,7.85,15,7.93,15.05l24.64,23.75,24.59-23.7c0.13-.13,8-7.34,8-15.1C185.87,323.07,177.81,320.56,171,320.56Z"/></svg>