<svg id="Layer_1" data-name="Layer 1" xmlns="http://www.w3.org/2000/svg" viewBox="0 0 800 600"><defs><style>.cls-1{fill:#37515e;}.cls-2{fill:#fff;}</style></defs><title>perks</title><rect class="cls-1" width="800" height="600"/><path class="cls-2" d="M79.18,131.85v-3.09l3.11-1.44V110.69l-3.11-1.44v-3.09H90.85v3.09l-3.11,1.44v16.63l3.11,1.44v3.09H79.18Z"/><path class="cls-2" d="M94.82,131.85V112.2h4.1l0.72,2.49h0.3a5.65,5.65,0,0,1,2.47-2.14,8.47,8.47,0,0,1,3.58-.72,6.87,6.87,0,0,1,5.2,1.85A7.44,7.44,0,0,1,113,119v12.81H107.6v-11.5a5.54,5.54,0,0,0-.76-3.2,2.75,2.75,0,0,0-2.41-1.07,3.62,3.62,0,0,0-3.25,1.51,9.36,9.36,0,0,0-1,5v9.27H94.82Z"/><path class="cls-2" d="M117.29,122.14q0-5,2.49-7.66t7.14-2.65a13.64,13.64,0,0,1,6.12,1.34l-1.58,4.15q-1.27-.51-2.36-0.84a7.59,7.59,0,0,0-2.18-.33q-4.18,0-4.18,6,0,5.77,4.18,5.77a9.52,9.52,0,0,0,2.87-.41,10.34,10.34,0,0,0,2.64-1.29v4.58a8.65,8.65,0,0,1-2.63,1.14,14.84,14.84,0,0,1-3.35.31Q117.29,132.2,117.29,122.14Z"/><path class="cls-2" d="M135.8,122.17q0-4.94,2.47-7.64a8.81,8.81,0,0,1,6.84-2.7,8.61,8.61,0,0,1,6.47,2.37,9,9,0,0,1,2.31,6.56v2.6H141.25a5.2,5.2,0,0,0,1.35,3.58,4.73,4.73,0,0,0,3.54,1.29,14.6,14.6,0,0,0,3.35-.37,16.66,16.66,0,0,0,3.29-1.18v4.14a12.51,12.51,0,0,1-3,1,18.92,18.92,0,0,1-3.89.34,10.15,10.15,0,0,1-7.42-2.62Q135.8,127,135.8,122.17Zm5.57-2.37h7.51a4.47,4.47,0,0,0-1-3.07,3.5,3.5,0,0,0-2.7-1.08,3.39,3.39,0,0,0-2.67,1.08A5,5,0,0,0,141.37,119.79Z"/><path class="cls-2" d="M158.26,131.85V112.2h4.1l0.72,2.49h0.3a5.65,5.65,0,0,1,2.47-2.14,8.47,8.47,0,0,1,3.58-.72,6.87,6.87,0,0,1,5.2,1.85A7.44,7.44,0,0,1,176.4,119v12.81H171v-11.5a5.54,5.54,0,0,0-.76-3.2,2.75,2.75,0,0,0-2.41-1.07,3.62,3.62,0,0,0-3.25,1.51,9.36,9.36,0,0,0-1,5v9.27h-5.36Z"/><path class="cls-2" d="M179.94,116.17v-2.24l3-1.77,1.55-4.2h3.43v4.24h5.5v4h-5.5v9.53a2.11,2.11,0,0,0,.64,1.7,2.52,2.52,0,0,0,1.7.55,11.56,11.56,0,0,0,3.38-.62v4a12.08,12.08,0,0,1-4.92.89q-3.22,0-4.68-1.63a7.12,7.12,0,0,1-1.47-4.89v-9.51h-2.57Z"/><path class="cls-2" d="M197.32,107.12q0-2.62,2.92-2.62t2.92,2.62a2.55,2.55,0,0,1-.73,1.94,3.07,3.07,0,0,1-2.19.69Q197.32,109.76,197.32,107.12Zm0.23,24.73V112.2h5.36v19.65h-5.36Z"/><path class="cls-2" d="M205.72,112.2h5.61l3.8,11.2a18.06,18.06,0,0,1,.76,4H216a15.12,15.12,0,0,1,.79-4l3.78-11.2h5.61l-7.49,19.65h-5.5Z"/><path class="cls-2" d="M227.82,122.17q0-4.94,2.47-7.64a8.81,8.81,0,0,1,6.84-2.7,8.61,8.61,0,0,1,6.47,2.37,9,9,0,0,1,2.31,6.56v2.6H233.27a5.2,5.2,0,0,0,1.35,3.58,4.73,4.73,0,0,0,3.54,1.29,14.6,14.6,0,0,0,3.35-.37,16.66,16.66,0,0,0,3.29-1.18v4.14a12.51,12.51,0,0,1-3,1,18.92,18.92,0,0,1-3.89.34,10.15,10.15,0,0,1-7.42-2.62Q227.82,127,227.82,122.17Zm5.57-2.37h7.51a4.47,4.47,0,0,0-1-3.07,3.5,3.5,0,0,0-2.7-1.08,3.39,3.39,0,0,0-2.67,1.08A5,5,0,0,0,233.39,119.79Z"/><path class="cls-2" d="M249.09,117.31a4.66,4.66,0,0,1,2-4,10,10,0,0,1,5.78-1.43,16.16,16.16,0,0,1,6.87,1.55l-1.61,3.86q-1.47-.63-2.74-1a8.6,8.6,0,0,0-2.6-.4q-2.36,0-2.36,1.28a1.5,1.5,0,0,0,.76,1.24,20.66,20.66,0,0,0,3.33,1.56,15.42,15.42,0,0,1,3.35,1.73,5.11,5.11,0,0,1,1.57,1.86A5.71,5.71,0,0,1,264,126a5.48,5.48,0,0,1-2.09,4.64q-2.09,1.59-6.25,1.59a19.66,19.66,0,0,1-3.67-.29,13.77,13.77,0,0,1-2.84-.86v-4.46a18.87,18.87,0,0,0,3.38,1.17,13.79,13.79,0,0,0,3.31.47q2.91,0,2.91-1.68a1.4,1.4,0,0,0-.39-1,5.58,5.58,0,0,0-1.33-.89q-0.94-.5-2.52-1.16a16.1,16.1,0,0,1-3.35-1.75,4.94,4.94,0,0,1-1.56-1.85A6,6,0,0,1,249.09,117.31Z"/><path class="cls-2" d="M275.44,116.17v-2.55l3-1.42v-1.44q0-3.36,1.65-4.9t5.29-1.55a13.77,13.77,0,0,1,4.94.83l-1.37,3.94a10,10,0,0,0-3-.51,1.93,1.93,0,0,0-1.65.68,2.8,2.8,0,0,0-.51,1.73v1.23h4.64v4h-4.64v15.68h-5.36V116.17h-3Z"/><path class="cls-2" d="M290.27,122q0-4.81,2.51-7.48a9.22,9.22,0,0,1,7.06-2.67,9.87,9.87,0,0,1,5,1.23,8.19,8.19,0,0,1,3.31,3.53,11.86,11.86,0,0,1,1.16,5.39,10.6,10.6,0,0,1-2.52,7.51,9.14,9.14,0,0,1-7,2.71,9.84,9.84,0,0,1-5-1.24,8.24,8.24,0,0,1-3.32-3.56A12,12,0,0,1,290.27,122Zm5.45,0a8.21,8.21,0,0,0,1,4.41,3.44,3.44,0,0,0,3.13,1.49,3.38,3.38,0,0,0,3.09-1.48,8.33,8.33,0,0,0,.94-4.41,8.08,8.08,0,0,0-1-4.37,4.05,4.05,0,0,0-6.22,0A8.08,8.08,0,0,0,295.72,122Z"/><path class="cls-2" d="M313.76,131.85V112.2h4.06l0.79,3.3h0.26a7.39,7.39,0,0,1,2.47-2.66,6.09,6.09,0,0,1,3.38-1,8.65,8.65,0,0,1,1.81.16l-0.4,5a6.14,6.14,0,0,0-1.58-.18,5.69,5.69,0,0,0-4,1.32,4.77,4.77,0,0,0-1.43,3.69v10h-5.36Z"/><path class="cls-2" d="M338.16,126a5.19,5.19,0,0,1,2.18-4.61q2.18-1.49,6.58-1.64l3.4-.11v-0.86q0-3-3.07-3a13.89,13.89,0,0,0-5.53,1.42L340,113.57a15.88,15.88,0,0,1,7.5-1.78,9.46,9.46,0,0,1,6.1,1.72,6.35,6.35,0,0,1,2.12,5.24v13.1h-3.77l-1-2.67h-0.14a7.94,7.94,0,0,1-2.79,2.36,9.05,9.05,0,0,1-3.75.66,6,6,0,0,1-4.42-1.62A6.24,6.24,0,0,1,338.16,126Zm5.45,0q0,2.25,2.61,2.25a4.16,4.16,0,0,0,3-1.06,3.71,3.71,0,0,0,1.12-2.82v-1.6l-2.08.07a6.73,6.73,0,0,0-3.49.84A2.61,2.61,0,0,0,343.61,126Z"/><path class="cls-2" d="M359.21,116.17v-2.24l3-1.77,1.55-4.2h3.43v4.24h5.5v4h-5.5v9.53a2.11,2.11,0,0,0,.64,1.7,2.52,2.52,0,0,0,1.7.55,11.56,11.56,0,0,0,3.38-.62v4a12.08,12.08,0,0,1-4.92.89q-3.22,0-4.68-1.63a7.12,7.12,0,0,1-1.47-4.89v-9.51h-2.57Z"/><path class="cls-2" d="M374.84,116.17v-2.24l3-1.77,1.55-4.2h3.43v4.24h5.5v4h-5.5v9.53a2.11,2.11,0,0,0,.64,1.7,2.52,2.52,0,0,0,1.7.55,11.56,11.56,0,0,0,3.38-.62v4a12.08,12.08,0,0,1-4.92.89q-3.22,0-4.68-1.63a7.12,7.12,0,0,1-1.47-4.89v-9.51h-2.57Z"/><path class="cls-2" d="M391.26,122.17q0-4.94,2.47-7.64a8.81,8.81,0,0,1,6.84-2.7A8.61,8.61,0,0,1,407,114.2a9,9,0,0,1,2.31,6.56v2.6H396.71a5.2,5.2,0,0,0,1.35,3.58,4.73,4.73,0,0,0,3.54,1.29,14.6,14.6,0,0,0,3.35-.37,16.66,16.66,0,0,0,3.29-1.18v4.14a12.51,12.51,0,0,1-3,1,18.92,18.92,0,0,1-3.89.34,10.15,10.15,0,0,1-7.42-2.62Q391.26,127,391.26,122.17Zm5.57-2.37h7.51a4.47,4.47,0,0,0-1-3.07,3.5,3.5,0,0,0-2.7-1.08,3.39,3.39,0,0,0-2.67,1.08A5,5,0,0,0,396.83,119.79Z"/><path class="cls-2" d="M413.72,131.85V112.2h4.1l0.72,2.49h0.3a5.65,5.65,0,0,1,2.47-2.14,8.47,8.47,0,0,1,3.58-.72,6.87,6.87,0,0,1,5.2,1.85,7.44,7.44,0,0,1,1.78,5.35v12.81H426.5v-11.5a5.54,5.54,0,0,0-.76-3.2,2.75,2.75,0,0,0-2.41-1.07,3.62,3.62,0,0,0-3.25,1.51,9.36,9.36,0,0,0-1,5v9.27h-5.36Z"/><path class="cls-2" d="M436.19,122.06q0-4.83,2-7.53a6.55,6.55,0,0,1,5.56-2.7,6.38,6.38,0,0,1,5.64,2.88h0.17a22.88,22.88,0,0,1-.39-3.92V104.5h5.36v27.35h-4.11l-1-2.55h-0.22a6.12,6.12,0,0,1-5.56,2.9,6.4,6.4,0,0,1-5.45-2.69A12.35,12.35,0,0,1,436.19,122.06Zm5.45,0.07a7.71,7.71,0,0,0,1,4.35,3.27,3.27,0,0,0,2.86,1.45,3.6,3.6,0,0,0,3-1.2,7,7,0,0,0,1-4.06V122.1a8.07,8.07,0,0,0-1-4.54,3.59,3.59,0,0,0-3.15-1.37,3.14,3.14,0,0,0-2.78,1.52A8.13,8.13,0,0,0,441.64,122.13Z"/><path class="cls-2" d="M459.94,107.12q0-2.62,2.92-2.62t2.92,2.62a2.55,2.55,0,0,1-.73,1.94,3.07,3.07,0,0,1-2.19.69Q459.94,109.76,459.94,107.12Zm0.23,24.73V112.2h5.36v19.65h-5.36Z"/><path class="cls-2" d="M471.15,131.85V112.2h4.1l0.72,2.49h0.3a5.65,5.65,0,0,1,2.47-2.14,8.47,8.47,0,0,1,3.58-.72,6.87,6.87,0,0,1,5.2,1.85,7.44,7.44,0,0,1,1.78,5.35v12.81h-5.36v-11.5a5.54,5.54,0,0,0-.76-3.2,2.75,2.75,0,0,0-2.41-1.07,3.62,3.62,0,0,0-3.25,1.51,9.36,9.36,0,0,0-1,5v9.27h-5.36Z"/><path class="cls-2" d="M493.62,122q0-4.83,2-7.52a6.53,6.53,0,0,1,5.54-2.69,6.66,6.66,0,0,1,5.71,2.88H507l0.44-2.51H512v19.69q0,4.24-2.47,6.42t-7.36,2.19a20.5,20.5,0,0,1-7.35-1.17V135a19.47,19.47,0,0,0,7.67,1.51q4.15,0,4.15-4.46v-0.39l0.15-2.4h-0.15a6.25,6.25,0,0,1-5.6,2.9,6.32,6.32,0,0,1-5.47-2.72A12.54,12.54,0,0,1,493.62,122Zm5.45,0.07a8.2,8.2,0,0,0,.95,4.41A3.25,3.25,0,0,0,503,128a3.62,3.62,0,0,0,3.09-1.24,6.75,6.75,0,0,0,.93-4v-0.65a8,8,0,0,0-1-4.52,3.58,3.58,0,0,0-3.14-1.38Q499.07,116.18,499.07,122.12Z"/><path class="cls-2" d="M524.48,112.2h5.36l2.27,8.7q0.39,1.55,1.07,6.46h0.14a36.28,36.28,0,0,1,.61-4.24l0.28-1.49,2.42-9.42h5.9l2.09,9.46,0.63,2.82a17,17,0,0,1,.44,2.87h0.14q0.19-1.56.54-3.56t0.6-2.89l2.36-8.7h5.26l-5.66,19.65H543L541.47,125l-2-8.68H539.3l-3.54,15.53h-5.69Z"/><path class="cls-2" d="M556.56,122q0-4.81,2.51-7.48a9.22,9.22,0,0,1,7.06-2.67,9.87,9.87,0,0,1,5,1.23,8.19,8.19,0,0,1,3.31,3.53,11.86,11.86,0,0,1,1.16,5.39,10.6,10.6,0,0,1-2.52,7.51,9.14,9.14,0,0,1-7,2.71,9.84,9.84,0,0,1-5-1.24,8.24,8.24,0,0,1-3.32-3.56A12,12,0,0,1,556.56,122Zm5.45,0a8.21,8.21,0,0,0,1,4.41,3.44,3.44,0,0,0,3.13,1.49,3.38,3.38,0,0,0,3.09-1.48,8.33,8.33,0,0,0,.94-4.41,8.08,8.08,0,0,0-1-4.37,4.05,4.05,0,0,0-6.22,0A8.08,8.08,0,0,0,562,122Z"/><path class="cls-2" d="M580,131.85V112.2h4.06l0.79,3.3h0.26a7.39,7.39,0,0,1,2.47-2.66,6.09,6.09,0,0,1,3.38-1,8.65,8.65,0,0,1,1.81.16l-0.4,5a6.14,6.14,0,0,0-1.58-.18,5.69,5.69,0,0,0-4,1.32,4.77,4.77,0,0,0-1.43,3.69v10H580Z"/><path class="cls-2" d="M596.4,131.85V104.5h5.36v27.35H596.4Z"/><path class="cls-2" d="M606.19,122.06q0-4.83,2-7.53a6.55,6.55,0,0,1,5.56-2.7,6.38,6.38,0,0,1,5.64,2.88h0.17a22.88,22.88,0,0,1-.39-3.92V104.5h5.36v27.35h-4.11l-1-2.55h-0.22a6.12,6.12,0,0,1-5.56,2.9,6.4,6.4,0,0,1-5.45-2.69A12.35,12.35,0,0,1,606.19,122.06Zm5.45,0.07a7.71,7.71,0,0,0,1,4.35,3.27,3.27,0,0,0,2.86,1.45,3.6,3.6,0,0,0,3-1.2,7,7,0,0,0,1-4.06V122.1a8.07,8.07,0,0,0-1-4.54,3.59,3.59,0,0,0-3.15-1.37,3.14,3.14,0,0,0-2.78,1.52A8.13,8.13,0,0,0,611.64,122.13Z"/><path class="cls-2" d="M627.7,112.2h5.36l2.27,8.7q0.39,1.55,1.07,6.46h0.14a36.28,36.28,0,0,1,.61-4.24l0.28-1.49,2.42-9.42h5.9l2.09,9.46,0.63,2.82a17,17,0,0,1,.44,2.87h0.14q0.19-1.56.54-3.56t0.6-2.89l2.36-8.7h5.26l-5.66,19.65h-5.93L644.69,125l-2-8.68h-0.16L639,131.85H633.3Z"/><path class="cls-2" d="M660.75,107.12q0-2.62,2.92-2.62t2.92,2.62a2.55,2.55,0,0,1-.73,1.94,3.07,3.07,0,0,1-2.19.69Q660.75,109.76,660.75,107.12ZM661,131.85V112.2h5.36v19.65H661Z"/><path class="cls-2" d="M670.77,122.06q0-4.83,2-7.53a6.55,6.55,0,0,1,5.56-2.7,6.38,6.38,0,0,1,5.64,2.88h0.17a22.88,22.88,0,0,1-.39-3.92V104.5h5.36v27.35H685l-1-2.55h-0.22a6.12,6.12,0,0,1-5.56,2.9,6.4,6.4,0,0,1-5.45-2.69A12.35,12.35,0,0,1,670.77,122.06Zm5.45,0.07a7.71,7.71,0,0,0,1,4.35,3.27,3.27,0,0,0,2.86,1.45,3.6,3.6,0,0,0,3-1.2,7,7,0,0,0,1-4.06V122.1a8.07,8.07,0,0,0-1-4.54,3.59,3.59,0,0,0-3.15-1.37,3.14,3.14,0,0,0-2.78,1.52A8.13,8.13,0,0,0,676.22,122.13Z"/><path class="cls-2" d="M693.55,122.17q0-4.94,2.47-7.64a8.81,8.81,0,0,1,6.84-2.7,8.61,8.61,0,0,1,6.47,2.37,9,9,0,0,1,2.31,6.56v2.6H699a5.2,5.2,0,0,0,1.35,3.58,4.73,4.73,0,0,0,3.54,1.29,14.6,14.6,0,0,0,3.35-.37,16.66,16.66,0,0,0,3.29-1.18v4.14a12.51,12.51,0,0,1-3,1,18.92,18.92,0,0,1-3.89.34,10.15,10.15,0,0,1-7.42-2.62Q693.55,127,693.55,122.17Zm5.57-2.37h7.51a4.47,4.47,0,0,0-1-3.07,3.5,3.5,0,0,0-2.7-1.08,3.39,3.39,0,0,0-2.67,1.08A5,5,0,0,0,699.12,119.79Z"/><path class="cls-2" d="M78.83,164.17v-2.24l3-1.77,1.55-4.2h3.43v4.24h5.5v4h-5.5v9.53a2.11,2.11,0,0,0,.64,1.7,2.52,2.52,0,0,0,1.7.55,11.56,11.56,0,0,0,3.38-.62v4a12.08,12.08,0,0,1-4.92.89q-3.22,0-4.68-1.63a7.12,7.12,0,0,1-1.47-4.89v-9.51H78.83Z"/><path class="cls-2" d="M95.24,170.17q0-4.94,2.47-7.64a8.81,8.81,0,0,1,6.84-2.7A8.61,8.61,0,0,1,111,162.2a9,9,0,0,1,2.31,6.56v2.6H100.69a5.2,5.2,0,0,0,1.35,3.58,4.73,4.73,0,0,0,3.54,1.29,14.6,14.6,0,0,0,3.35-.37,16.66,16.66,0,0,0,3.29-1.18v4.14a12.51,12.51,0,0,1-3,1,18.92,18.92,0,0,1-3.89.34,10.15,10.15,0,0,1-7.42-2.62Q95.24,175,95.24,170.17Zm5.57-2.37h7.51a4.47,4.47,0,0,0-1-3.07,3.5,3.5,0,0,0-2.7-1.08,3.39,3.39,0,0,0-2.67,1.08A5,5,0,0,0,100.82,167.79Z"/><path class="cls-2" d="M116.51,170.14q0-5,2.49-7.66t7.14-2.65a13.64,13.64,0,0,1,6.12,1.34l-1.58,4.15q-1.27-.51-2.36-0.84a7.59,7.59,0,0,0-2.18-.33q-4.18,0-4.18,6,0,5.77,4.18,5.77a9.52,9.52,0,0,0,2.87-.41,10.34,10.34,0,0,0,2.64-1.29v4.58a8.65,8.65,0,0,1-2.63,1.14,14.84,14.84,0,0,1-3.35.31Q116.51,180.2,116.51,170.14Z"/><path class="cls-2" d="M136.22,179.85V152.5h5.36v5.57q0,0.65-.12,3.06l-0.12,1.58h0.28a6.21,6.21,0,0,1,5.7-2.88,7,7,0,0,1,5.26,1.86,7.4,7.4,0,0,1,1.79,5.34v12.81H149V168.37q0-4.25-3.16-4.25a3.6,3.6,0,0,0-3.25,1.53,9.34,9.34,0,0,0-1,5v9.25h-5.36Z"/><path class="cls-2" d="M168,170.14q0-5,2.49-7.66t7.14-2.65a13.64,13.64,0,0,1,6.12,1.34l-1.58,4.15q-1.27-.51-2.36-0.84a7.59,7.59,0,0,0-2.18-.33q-4.18,0-4.18,6,0,5.77,4.18,5.77a9.52,9.52,0,0,0,2.87-.41,10.34,10.34,0,0,0,2.64-1.29v4.58a8.65,8.65,0,0,1-2.63,1.14,14.84,14.84,0,0,1-3.35.31Q168,180.2,168,170.14Z"/><path class="cls-2" d="M186.54,170q0-4.81,2.51-7.48a9.22,9.22,0,0,1,7.06-2.67,9.87,9.87,0,0,1,5,1.23,8.19,8.19,0,0,1,3.31,3.53,11.86,11.86,0,0,1,1.16,5.39,10.6,10.6,0,0,1-2.52,7.51,9.14,9.14,0,0,1-7,2.71,9.84,9.84,0,0,1-5-1.24,8.24,8.24,0,0,1-3.32-3.56A12,12,0,0,1,186.54,170Zm5.45,0a8.21,8.21,0,0,0,1,4.41,3.44,3.44,0,0,0,3.13,1.49,3.38,3.38,0,0,0,3.09-1.48,8.33,8.33,0,0,0,.94-4.41,8.08,8.08,0,0,0-1-4.37,4.05,4.05,0,0,0-6.22,0A8.08,8.08,0,0,0,192,170Z"/><path class="cls-2" d="M210,179.85V160.2h4.1l0.72,2.49h0.3a5.65,5.65,0,0,1,2.47-2.14,8.47,8.47,0,0,1,3.58-.72,6.87,6.87,0,0,1,5.2,1.85,7.44,7.44,0,0,1,1.78,5.35v12.81h-5.36v-11.5a5.54,5.54,0,0,0-.76-3.2,2.75,2.75,0,0,0-2.41-1.07,3.62,3.62,0,0,0-3.25,1.51,9.36,9.36,0,0,0-1,5v9.27H210Z"/><path class="cls-2" d="M231.6,164.17v-2.55l3-1.42v-1.44q0-3.36,1.65-4.9t5.29-1.55a13.77,13.77,0,0,1,4.94.83l-1.37,3.94a10,10,0,0,0-3-.51,1.93,1.93,0,0,0-1.65.68,2.8,2.8,0,0,0-.51,1.73v1.23h4.64v4h-4.64v15.68h-5.36V164.17h-3Z"/><path class="cls-2" d="M246.43,170.17q0-4.94,2.47-7.64a8.81,8.81,0,0,1,6.84-2.7,8.61,8.61,0,0,1,6.47,2.37,9,9,0,0,1,2.31,6.56v2.6H251.88a5.2,5.2,0,0,0,1.35,3.58,4.73,4.73,0,0,0,3.54,1.29,14.6,14.6,0,0,0,3.35-.37,16.66,16.66,0,0,0,3.29-1.18v4.14a12.51,12.51,0,0,1-3,1,18.92,18.92,0,0,1-3.89.34,10.15,10.15,0,0,1-7.42-2.62Q246.43,175,246.43,170.17Zm5.57-2.37h7.51a4.47,4.47,0,0,0-1-3.07,3.5,3.5,0,0,0-2.7-1.08,3.39,3.39,0,0,0-2.67,1.08A5,5,0,0,0,252,167.79Z"/><path class="cls-2" d="M268.9,179.85V160.2H273l0.79,3.3H274a7.39,7.39,0,0,1,2.47-2.66,6.09,6.09,0,0,1,3.38-1,8.65,8.65,0,0,1,1.81.16l-0.4,5a6.14,6.14,0,0,0-1.58-.18,5.69,5.69,0,0,0-4,1.32,4.77,4.77,0,0,0-1.43,3.69v10H268.9Z"/><path class="cls-2" d="M283.7,170.17q0-4.94,2.47-7.64a8.81,8.81,0,0,1,6.84-2.7,8.61,8.61,0,0,1,6.47,2.37,9,9,0,0,1,2.31,6.56v2.6H289.15a5.2,5.2,0,0,0,1.35,3.58,4.73,4.73,0,0,0,3.54,1.29,14.6,14.6,0,0,0,3.35-.37,16.66,16.66,0,0,0,3.29-1.18v4.14a12.51,12.51,0,0,1-3,1,18.92,18.92,0,0,1-3.89.34,10.15,10.15,0,0,1-7.42-2.62Q283.7,175,283.7,170.17Zm5.57-2.37h7.51a4.47,4.47,0,0,0-1-3.07,3.5,3.5,0,0,0-2.7-1.08,3.39,3.39,0,0,0-2.67,1.08A5,5,0,0,0,289.27,167.79Z"/><path class="cls-2" d="M306.16,179.85V160.2h4.1l0.72,2.49h0.3a5.65,5.65,0,0,1,2.47-2.14,8.47,8.47,0,0,1,3.58-.72,6.87,6.87,0,0,1,5.2,1.85A7.44,7.44,0,0,1,324.3,167v12.81h-5.36v-11.5a5.54,5.54,0,0,0-.76-3.2,2.75,2.75,0,0,0-2.41-1.07,3.62,3.62,0,0,0-3.25,1.51,9.36,9.36,0,0,0-1,5v9.27h-5.36Z"/><path class="cls-2" d="M328.63,170.14q0-5,2.49-7.66t7.14-2.65a13.64,13.64,0,0,1,6.12,1.34l-1.58,4.15q-1.27-.51-2.36-0.84a7.59,7.59,0,0,0-2.18-.33q-4.18,0-4.18,6,0,5.77,4.18,5.77a9.52,9.52,0,0,0,2.87-.41,10.34,10.34,0,0,0,2.64-1.29v4.58a8.65,8.65,0,0,1-2.63,1.14,14.84,14.84,0,0,1-3.35.31Q328.63,180.2,328.63,170.14Z"/><path class="cls-2" d="M347.14,170.17q0-4.94,2.47-7.64a8.81,8.81,0,0,1,6.84-2.7,8.61,8.61,0,0,1,6.47,2.37,9,9,0,0,1,2.31,6.56v2.6H352.59a5.2,5.2,0,0,0,1.35,3.58,4.73,4.73,0,0,0,3.54,1.29,14.6,14.6,0,0,0,3.35-.37,16.66,16.66,0,0,0,3.29-1.18v4.14a12.51,12.51,0,0,1-3,1,18.92,18.92,0,0,1-3.89.34,10.15,10.15,0,0,1-7.42-2.62Q347.14,175,347.14,170.17Zm5.57-2.37h7.51a4.47,4.47,0,0,0-1-3.07,3.5,3.5,0,0,0-2.7-1.08,3.39,3.39,0,0,0-2.67,1.08A5,5,0,0,0,352.71,167.79Z"/><path class="cls-2" d="M368.41,165.31a4.66,4.66,0,0,1,2-4,10,10,0,0,1,5.78-1.43,16.16,16.16,0,0,1,6.87,1.55l-1.61,3.86q-1.47-.63-2.74-1a8.6,8.6,0,0,0-2.6-.4q-2.36,0-2.36,1.28a1.5,1.5,0,0,0,.76,1.24,20.66,20.66,0,0,0,3.33,1.56,15.42,15.42,0,0,1,3.35,1.73,5.11,5.11,0,0,1,1.57,1.86,5.71,5.71,0,0,1,.51,2.5,5.48,5.48,0,0,1-2.09,4.64q-2.09,1.59-6.25,1.59a19.66,19.66,0,0,1-3.67-.29,13.77,13.77,0,0,1-2.84-.86v-4.46a18.87,18.87,0,0,0,3.38,1.17,13.79,13.79,0,0,0,3.31.47q2.91,0,2.91-1.68a1.4,1.4,0,0,0-.39-1,5.58,5.58,0,0,0-1.33-.89q-0.94-.5-2.52-1.16a16.1,16.1,0,0,1-3.35-1.75,4.94,4.94,0,0,1-1.56-1.85A6,6,0,0,1,368.41,165.31Z"/><path class="cls-2" d="M395.55,174a5.19,5.19,0,0,1,2.18-4.61q2.18-1.49,6.58-1.64l3.4-.11v-0.86q0-3-3.07-3a13.89,13.89,0,0,0-5.53,1.42l-1.76-3.62a15.88,15.88,0,0,1,7.5-1.78,9.46,9.46,0,0,1,6.1,1.72,6.35,6.35,0,0,1,2.12,5.24v13.1h-3.77l-1-2.67h-0.14a7.94,7.94,0,0,1-2.79,2.36,9.05,9.05,0,0,1-3.75.66,6,6,0,0,1-4.42-1.62A6.24,6.24,0,0,1,395.55,174Zm5.45,0q0,2.25,2.61,2.25a4.16,4.16,0,0,0,3-1.06,3.71,3.71,0,0,0,1.12-2.82v-1.6l-2.08.07a6.73,6.73,0,0,0-3.49.84A2.61,2.61,0,0,0,401,174Z"/><path class="cls-2" d="M418.59,179.85V160.2h4.1l0.72,2.49h0.3a5.65,5.65,0,0,1,2.47-2.14,8.47,8.47,0,0,1,3.58-.72,6.87,6.87,0,0,1,5.2,1.85,7.44,7.44,0,0,1,1.78,5.35v12.81h-5.36v-11.5a5.54,5.54,0,0,0-.76-3.2,2.75,2.75,0,0,0-2.41-1.07,3.62,3.62,0,0,0-3.25,1.51,9.36,9.36,0,0,0-1,5v9.27h-5.36Z"/><path class="cls-2" d="M441.06,170.06q0-4.83,2-7.53a6.55,6.55,0,0,1,5.56-2.7,6.38,6.38,0,0,1,5.64,2.88h0.17a22.88,22.88,0,0,1-.39-3.92V152.5h5.36v27.35H455.3l-1-2.55H454a6.12,6.12,0,0,1-5.56,2.9,6.4,6.4,0,0,1-5.45-2.69A12.35,12.35,0,0,1,441.06,170.06Zm5.45,0.07a7.71,7.71,0,0,0,1,4.35,3.27,3.27,0,0,0,2.86,1.45,3.6,3.6,0,0,0,3-1.2,7,7,0,0,0,1-4.06V170.1a8.07,8.07,0,0,0-1-4.54,3.59,3.59,0,0,0-3.15-1.37,3.14,3.14,0,0,0-2.78,1.52A8.13,8.13,0,0,0,446.51,170.13Z"/><path class="cls-2" d="M473.19,170.17q0-4.94,2.47-7.64a8.81,8.81,0,0,1,6.84-2.7A8.61,8.61,0,0,1,489,162.2a9,9,0,0,1,2.31,6.56v2.6H478.64a5.2,5.2,0,0,0,1.35,3.58,4.73,4.73,0,0,0,3.54,1.29,14.6,14.6,0,0,0,3.35-.37,16.66,16.66,0,0,0,3.29-1.18v4.14a12.51,12.51,0,0,1-3,1,18.92,18.92,0,0,1-3.89.34,10.15,10.15,0,0,1-7.42-2.62Q473.19,175,473.19,170.17Zm5.57-2.37h7.51a4.47,4.47,0,0,0-1-3.07,3.5,3.5,0,0,0-2.7-1.08,3.39,3.39,0,0,0-2.67,1.08A5,5,0,0,0,478.76,167.79Z"/><path class="cls-2" d="M492.49,160.2h5.61l3.8,11.2a18.06,18.06,0,0,1,.76,4h0.14a15.12,15.12,0,0,1,.79-4l3.78-11.2H513l-7.49,19.65H500Z"/><path class="cls-2" d="M514.59,170.17q0-4.94,2.47-7.64a8.81,8.81,0,0,1,6.84-2.7,8.61,8.61,0,0,1,6.47,2.37,9,9,0,0,1,2.31,6.56v2.6H520a5.2,5.2,0,0,0,1.35,3.58,4.73,4.73,0,0,0,3.54,1.29,14.6,14.6,0,0,0,3.35-.37,16.66,16.66,0,0,0,3.29-1.18v4.14a12.51,12.51,0,0,1-3,1,18.92,18.92,0,0,1-3.89.34,10.15,10.15,0,0,1-7.42-2.62Q514.59,175,514.59,170.17Zm5.57-2.37h7.51a4.47,4.47,0,0,0-1-3.07,3.5,3.5,0,0,0-2.7-1.08,3.39,3.39,0,0,0-2.67,1.08A5,5,0,0,0,520.16,167.79Z"/><path class="cls-2" d="M537.05,179.85V160.2h4.1l0.72,2.49h0.3a5.65,5.65,0,0,1,2.47-2.14,8.47,8.47,0,0,1,3.58-.72,6.87,6.87,0,0,1,5.2,1.85,7.44,7.44,0,0,1,1.78,5.35v12.81h-5.36v-11.5a5.54,5.54,0,0,0-.76-3.2,2.75,2.75,0,0,0-2.41-1.07,3.62,3.62,0,0,0-3.25,1.51,9.36,9.36,0,0,0-1,5v9.27h-5.36Z"/><path class="cls-2" d="M558.73,164.17v-2.24l3-1.77,1.55-4.2h3.43v4.24h5.5v4h-5.5v9.53a2.11,2.11,0,0,0,.64,1.7,2.52,2.52,0,0,0,1.7.55,11.56,11.56,0,0,0,3.38-.62v4a12.08,12.08,0,0,1-4.92.89q-3.22,0-4.68-1.63a7.12,7.12,0,0,1-1.47-4.89v-9.51h-2.57Z"/><path class="cls-2" d="M575.14,165.31a4.66,4.66,0,0,1,2-4,10,10,0,0,1,5.78-1.43,16.16,16.16,0,0,1,6.87,1.55l-1.61,3.86q-1.47-.63-2.74-1a8.6,8.6,0,0,0-2.6-.4q-2.36,0-2.36,1.28a1.5,1.5,0,0,0,.76,1.24,20.66,20.66,0,0,0,3.33,1.56,15.42,15.42,0,0,1,3.35,1.73,5.11,5.11,0,0,1,1.57,1.86A5.71,5.71,0,0,1,590,174a5.48,5.48,0,0,1-2.09,4.64q-2.09,1.59-6.25,1.59a19.66,19.66,0,0,1-3.67-.29,13.77,13.77,0,0,1-2.84-.86v-4.46a18.87,18.87,0,0,0,3.38,1.17,13.79,13.79,0,0,0,3.31.47q2.91,0,2.91-1.68a1.4,1.4,0,0,0-.39-1,5.58,5.58,0,0,0-1.33-.89q-0.94-.5-2.52-1.16a16.1,16.1,0,0,1-3.35-1.75,4.94,4.94,0,0,1-1.56-1.85A6,6,0,0,1,575.14,165.31Z"/><path class="cls-2" d="M78,250.15h5.36l3.29,14q0.86,3.88,1.25,6.73,0.11-1,.53-3.1l0.67-3.27,3.77-14.4h5.19l3.77,14.38q0.25,1,.59,3L103,270.9q0.17-1.37.55-3.42t0.69-3.31l3.2-14h5.36l-6.54,25.7h-6.21l-3.49-13.5q-0.19-.72-0.62-3l-0.57-3a9.85,9.85,0,0,1-.29,3.12l-0.63,3-3.56,13.4H84.56Z"/><path class="cls-2" d="M114.07,266q0-4.81,2.51-7.48a9.22,9.22,0,0,1,7.06-2.67,9.87,9.87,0,0,1,5,1.23,8.19,8.19,0,0,1,3.31,3.53,11.86,11.86,0,0,1,1.16,5.39,10.6,10.6,0,0,1-2.52,7.51,9.14,9.14,0,0,1-7,2.71,9.84,9.84,0,0,1-5-1.24,8.24,8.24,0,0,1-3.32-3.56A12,12,0,0,1,114.07,266Zm5.45,0a8.21,8.21,0,0,0,1,4.41,3.44,3.44,0,0,0,3.13,1.49,3.38,3.38,0,0,0,3.09-1.48,8.33,8.33,0,0,0,.94-4.41,8.08,8.08,0,0,0-1-4.37,4.05,4.05,0,0,0-6.22,0A8.08,8.08,0,0,0,119.52,266Z"/><path class="cls-2" d="M137.55,275.85V256.2h4.06l0.79,3.3h0.26a7.39,7.39,0,0,1,2.47-2.66,6.09,6.09,0,0,1,3.38-1,8.65,8.65,0,0,1,1.81.16l-0.4,5a6.14,6.14,0,0,0-1.58-.18,5.69,5.69,0,0,0-4,1.32,4.77,4.77,0,0,0-1.43,3.69v10h-5.36Z"/><path class="cls-2" d="M153.9,275.85V248.5h5.36v12.2L159,265.16h0.07l2.34-3,5.5-6h6l-7.8,8.53,8.28,11.13h-6.19l-5.66-8-2.3,1.85v6.12H153.9Z"/><path class="cls-2" d="M176,251.12q0-2.62,2.92-2.62t2.92,2.62a2.55,2.55,0,0,1-.73,1.94,3.07,3.07,0,0,1-2.19.69Q176,253.76,176,251.12Zm0.23,24.73V256.2h5.36v19.65h-5.36Z"/><path class="cls-2" d="M187.21,275.85V256.2h4.1l0.72,2.49h0.3a5.65,5.65,0,0,1,2.47-2.14,8.47,8.47,0,0,1,3.58-.72,6.87,6.87,0,0,1,5.2,1.85,7.44,7.44,0,0,1,1.78,5.35v12.81H200v-11.5a5.54,5.54,0,0,0-.76-3.2,2.75,2.75,0,0,0-2.41-1.07,3.62,3.62,0,0,0-3.25,1.51,9.36,9.36,0,0,0-1,5v9.27h-5.36Z"/><path class="cls-2" d="M209.68,266q0-4.83,2-7.52a6.53,6.53,0,0,1,5.54-2.69,6.66,6.66,0,0,1,5.71,2.88h0.14l0.44-2.51H228v19.69q0,4.24-2.47,6.42t-7.36,2.19a20.5,20.5,0,0,1-7.35-1.17V279a19.47,19.47,0,0,0,7.67,1.51q4.15,0,4.15-4.46v-0.39l0.15-2.4h-0.15a6.25,6.25,0,0,1-5.6,2.9,6.32,6.32,0,0,1-5.47-2.72A12.54,12.54,0,0,1,209.68,266Zm5.45,0.07a8.2,8.2,0,0,0,.95,4.41A3.25,3.25,0,0,0,219,272a3.62,3.62,0,0,0,3.09-1.24,6.75,6.75,0,0,0,.93-4v-0.65a8,8,0,0,0-1-4.52,3.58,3.58,0,0,0-3.14-1.38Q215.13,260.18,215.13,266.12Z"/><path class="cls-2" d="M242.78,251.12q0-2.62,2.92-2.62t2.92,2.62a2.55,2.55,0,0,1-.73,1.94,3.07,3.07,0,0,1-2.19.69Q242.78,253.76,242.78,251.12ZM243,275.85V256.2h5.36v19.65H243Z"/><path class="cls-2" d="M254,275.85V256.2h4.1l0.72,2.49h0.3a5.65,5.65,0,0,1,2.47-2.14,8.47,8.47,0,0,1,3.58-.72,6.87,6.87,0,0,1,5.2,1.85,7.44,7.44,0,0,1,1.78,5.35v12.81h-5.36v-11.5a5.54,5.54,0,0,0-.76-3.2,2.75,2.75,0,0,0-2.41-1.07,3.62,3.62,0,0,0-3.25,1.51,9.36,9.36,0,0,0-1,5v9.27H254Z"/><path class="cls-2" d="M285.7,270a5.19,5.19,0,0,1,2.18-4.61q2.18-1.49,6.58-1.64l3.4-.11v-0.86q0-3-3.07-3a13.89,13.89,0,0,0-5.53,1.42l-1.76-3.62a15.88,15.88,0,0,1,7.5-1.78,9.46,9.46,0,0,1,6.1,1.72,6.35,6.35,0,0,1,2.12,5.24v13.1h-3.77l-1-2.67h-0.14a7.94,7.94,0,0,1-2.79,2.36,9.05,9.05,0,0,1-3.75.66,6,6,0,0,1-4.42-1.62A6.24,6.24,0,0,1,285.7,270Zm5.45,0q0,2.25,2.61,2.25a4.16,4.16,0,0,0,3-1.06,3.71,3.71,0,0,0,1.12-2.82v-1.6l-2.08.07a6.73,6.73,0,0,0-3.49.84A2.61,2.61,0,0,0,291.15,270Z"/><path class="cls-2" d="M316,260.17v-2.55l3-1.42v-1.44q0-3.36,1.65-4.9t5.29-1.55a13.77,13.77,0,0,1,4.94.83l-1.37,3.94a10,10,0,0,0-3-.51,1.93,1.93,0,0,0-1.65.68,2.8,2.8,0,0,0-.51,1.73v1.23H329v4h-4.64v15.68H319V260.17h-3Z"/><path class="cls-2" d="M331.93,269V256.2h5.36v11.49a5.53,5.53,0,0,0,.76,3.19,2.75,2.75,0,0,0,2.41,1.06,3.62,3.62,0,0,0,3.25-1.5,9.34,9.34,0,0,0,1-5V256.2h5.36v19.65H346l-0.72-2.5H345a5.65,5.65,0,0,1-2.44,2.11,8.37,8.37,0,0,1-3.6.74,6.86,6.86,0,0,1-5.22-1.85A7.46,7.46,0,0,1,331.93,269Z"/><path class="cls-2" d="M355.7,275.85V256.2h4.1l0.72,2.49h0.3a5.65,5.65,0,0,1,2.47-2.14,8.47,8.47,0,0,1,3.58-.72,6.87,6.87,0,0,1,5.2,1.85,7.44,7.44,0,0,1,1.78,5.35v12.81h-5.36v-11.5a5.54,5.54,0,0,0-.76-3.2,2.75,2.75,0,0,0-2.41-1.07,3.62,3.62,0,0,0-3.25,1.51,9.36,9.36,0,0,0-1,5v9.27H355.7Z"/><path class="cls-2" d="M387.52,266.17q0-4.94,2.47-7.64a8.81,8.81,0,0,1,6.84-2.7,8.61,8.61,0,0,1,6.47,2.37,9,9,0,0,1,2.31,6.56v2.6H393a5.2,5.2,0,0,0,1.35,3.58,4.73,4.73,0,0,0,3.54,1.29,14.6,14.6,0,0,0,3.35-.37,16.66,16.66,0,0,0,3.29-1.18v4.14a12.51,12.51,0,0,1-3,1,18.92,18.92,0,0,1-3.89.34,10.15,10.15,0,0,1-7.42-2.62Q387.51,271,387.52,266.17Zm5.57-2.37h7.51a4.47,4.47,0,0,0-1-3.07,3.5,3.5,0,0,0-2.7-1.08,3.39,3.39,0,0,0-2.67,1.08A5,5,0,0,0,393.09,263.79Z"/><path class="cls-2" d="M410,275.85V256.2h4.1l0.72,2.49h0.3a5.65,5.65,0,0,1,2.47-2.14,8.47,8.47,0,0,1,3.58-.72,6.87,6.87,0,0,1,5.2,1.85,7.44,7.44,0,0,1,1.78,5.35v12.81h-5.36v-11.5a5.54,5.54,0,0,0-.76-3.2,2.75,2.75,0,0,0-2.41-1.07,3.62,3.62,0,0,0-3.25,1.51,9.36,9.36,0,0,0-1,5v9.27H410Z"/><path class="cls-2" d="M430.83,256.2h5.61l3.8,11.2a18.06,18.06,0,0,1,.76,4h0.14a15.12,15.12,0,0,1,.79-4l3.78-11.2h5.61l-7.49,19.65h-5.5Z"/><path class="cls-2" d="M453.89,251.12q0-2.62,2.92-2.62t2.92,2.62a2.55,2.55,0,0,1-.73,1.94,3.07,3.07,0,0,1-2.19.69Q453.89,253.76,453.89,251.12Zm0.23,24.73V256.2h5.36v19.65h-5.36Z"/><path class="cls-2" d="M465.11,275.85V256.2h4.06l0.79,3.3h0.26a7.39,7.39,0,0,1,2.47-2.66,6.09,6.09,0,0,1,3.38-1,8.65,8.65,0,0,1,1.81.16l-0.4,5a6.14,6.14,0,0,0-1.58-.18,5.69,5.69,0,0,0-4,1.32,4.77,4.77,0,0,0-1.43,3.69v10h-5.36Z"/><path class="cls-2" d="M479.91,266q0-4.81,2.51-7.48a9.22,9.22,0,0,1,7.06-2.67,9.87,9.87,0,0,1,5,1.23,8.19,8.19,0,0,1,3.31,3.53,11.86,11.86,0,0,1,1.16,5.39,10.6,10.6,0,0,1-2.52,7.51,9.14,9.14,0,0,1-7,2.71,9.84,9.84,0,0,1-5-1.24,8.24,8.24,0,0,1-3.32-3.56A12,12,0,0,1,479.91,266Zm5.45,0a8.21,8.21,0,0,0,1,4.41,3.44,3.44,0,0,0,3.13,1.49,3.38,3.38,0,0,0,3.09-1.48,8.33,8.33,0,0,0,.94-4.41,8.08,8.08,0,0,0-1-4.37,4.05,4.05,0,0,0-6.22,0A8.08,8.08,0,0,0,485.36,266Z"/><path class="cls-2" d="M503.39,275.85V256.2h4.1l0.72,2.49h0.3a5.65,5.65,0,0,1,2.47-2.14,8.47,8.47,0,0,1,3.58-.72,6.87,6.87,0,0,1,5.2,1.85,7.44,7.44,0,0,1,1.78,5.35v12.81h-5.36v-11.5a5.54,5.54,0,0,0-.76-3.2,2.75,2.75,0,0,0-2.41-1.07,3.62,3.62,0,0,0-3.25,1.51,9.36,9.36,0,0,0-1,5v9.27h-5.36Z"/><path class="cls-2" d="M527.05,275.85V256.2h4.1l0.72,2.49h0.3a5.43,5.43,0,0,1,2.29-2.1,7.47,7.47,0,0,1,3.43-.76q4.41,0,6,2.86h0.47a5.29,5.29,0,0,1,2.33-2.11,7.82,7.82,0,0,1,3.47-.75,6.83,6.83,0,0,1,5,1.71q1.71,1.71,1.71,5.49v12.81h-5.36v-11.5a5.81,5.81,0,0,0-.71-3.2,2.5,2.5,0,0,0-2.24-1.07,3.34,3.34,0,0,0-2.94,1.41,8,8,0,0,0-1,4.47v9.88h-5.36v-11.5a5.81,5.81,0,0,0-.71-3.2,2.5,2.5,0,0,0-2.24-1.07,3.24,3.24,0,0,0-3,1.52,10,10,0,0,0-.93,5v9.27h-5.36Z"/><path class="cls-2" d="M561.21,266.17q0-4.94,2.47-7.64a8.81,8.81,0,0,1,6.84-2.7A8.61,8.61,0,0,1,577,258.2a9,9,0,0,1,2.31,6.56v2.6H566.65a5.2,5.2,0,0,0,1.35,3.58,4.73,4.73,0,0,0,3.54,1.29,14.6,14.6,0,0,0,3.35-.37,16.66,16.66,0,0,0,3.29-1.18v4.14a12.51,12.51,0,0,1-3,1,18.92,18.92,0,0,1-3.89.34,10.15,10.15,0,0,1-7.42-2.62Q561.2,271,561.21,266.17Zm5.57-2.37h7.51a4.47,4.47,0,0,0-1-3.07,3.5,3.5,0,0,0-2.7-1.08,3.39,3.39,0,0,0-2.67,1.08A5,5,0,0,0,566.78,263.79Z"/><path class="cls-2" d="M583.67,275.85V256.2h4.1l0.72,2.49h0.3a5.65,5.65,0,0,1,2.47-2.14,8.47,8.47,0,0,1,3.58-.72,6.87,6.87,0,0,1,5.2,1.85,7.44,7.44,0,0,1,1.78,5.35v12.81h-5.36v-11.5a5.54,5.54,0,0,0-.76-3.2,2.75,2.75,0,0,0-2.41-1.07,3.62,3.62,0,0,0-3.25,1.51,9.36,9.36,0,0,0-1,5v9.27h-5.36Z"/><path class="cls-2" d="M605.34,260.17v-2.24l3-1.77,1.55-4.2h3.43v4.24h5.5v4h-5.5v9.53a2.11,2.11,0,0,0,.64,1.7,2.52,2.52,0,0,0,1.7.55,11.56,11.56,0,0,0,3.38-.62v4a12.08,12.08,0,0,1-4.92.89q-3.22,0-4.68-1.63a7.12,7.12,0,0,1-1.47-4.89v-9.51h-2.57Z"/><path class="cls-2" d="M632.08,251.12q0-2.62,2.92-2.62t2.92,2.62a2.55,2.55,0,0,1-.73,1.94,3.07,3.07,0,0,1-2.19.69Q632.08,253.76,632.08,251.12Zm0.23,24.73V256.2h5.36v19.65h-5.36Z"/><path class="cls-2" d="M643.29,275.85V256.2h4.1l0.72,2.49h0.3a5.65,5.65,0,0,1,2.47-2.14,8.47,8.47,0,0,1,3.58-.72,6.87,6.87,0,0,1,5.2,1.85,7.44,7.44,0,0,1,1.78,5.35v12.81h-5.36v-11.5a5.54,5.54,0,0,0-.76-3.2,2.75,2.75,0,0,0-2.41-1.07,3.62,3.62,0,0,0-3.25,1.51,9.36,9.36,0,0,0-1,5v9.27h-5.36Z"/><path class="cls-2" d="M674.32,260.17v-2.24l3-1.77,1.55-4.2h3.43v4.24h5.5v4h-5.5v9.53a2.11,2.11,0,0,0,.64,1.7,2.52,2.52,0,0,0,1.7.55,11.56,11.56,0,0,0,3.38-.62v4a12.08,12.08,0,0,1-4.92.89q-3.22,0-4.68-1.63a7.12,7.12,0,0,1-1.47-4.89v-9.51h-2.57Z"/><path class="cls-2" d="M691.93,275.85V248.5h5.36v5.57q0,0.65-.12,3.06L697,258.71h0.28a6.21,6.21,0,0,1,5.7-2.88,7,7,0,0,1,5.26,1.86,7.4,7.4,0,0,1,1.79,5.34v12.81h-5.36V264.37q0-4.25-3.16-4.25a3.6,3.6,0,0,0-3.25,1.53,9.34,9.34,0,0,0-1,5v9.25h-5.36Z"/><path class="cls-2" d="M714.4,266.17q0-4.94,2.47-7.64a8.81,8.81,0,0,1,6.84-2.7,8.61,8.61,0,0,1,6.47,2.37,9,9,0,0,1,2.31,6.56v2.6H719.85a5.2,5.2,0,0,0,1.35,3.58,4.73,4.73,0,0,0,3.54,1.29,14.6,14.6,0,0,0,3.35-.37,16.66,16.66,0,0,0,3.29-1.18v4.14a12.51,12.51,0,0,1-3,1,18.92,18.92,0,0,1-3.89.34,10.15,10.15,0,0,1-7.42-2.62Q714.4,271,714.4,266.17Zm5.57-2.37h7.51a4.47,4.47,0,0,0-1-3.07,3.5,3.5,0,0,0-2.7-1.08,3.39,3.39,0,0,0-2.67,1.08A5,5,0,0,0,720,263.79Z"/><path class="cls-2" d="M80.81,323.85V296.5h5.36v5.57q0,0.65-.12,3.06l-0.12,1.58h0.28a6.21,6.21,0,0,1,5.7-2.88,7,7,0,0,1,5.26,1.86A7.4,7.4,0,0,1,99,311v12.81H93.59V312.37q0-4.25-3.16-4.25a3.6,3.6,0,0,0-3.25,1.53,9.34,9.34,0,0,0-1,5v9.25H80.81Z"/><path class="cls-2" d="M103.28,314.17q0-4.94,2.47-7.64a8.81,8.81,0,0,1,6.84-2.7,8.61,8.61,0,0,1,6.47,2.37,9,9,0,0,1,2.31,6.56v2.6H108.73a5.2,5.2,0,0,0,1.35,3.58,4.74,4.74,0,0,0,3.54,1.29,14.6,14.6,0,0,0,3.35-.37,16.69,16.69,0,0,0,3.29-1.18v4.14a12.56,12.56,0,0,1-3,1,19,19,0,0,1-3.89.34,10.15,10.15,0,0,1-7.42-2.62Q103.28,319,103.28,314.17Zm5.57-2.37h7.51a4.47,4.47,0,0,0-1-3.07,3.5,3.5,0,0,0-2.7-1.08,3.39,3.39,0,0,0-2.67,1.08A5,5,0,0,0,108.85,311.79Z"/><path class="cls-2" d="M124.44,318a5.19,5.19,0,0,1,2.18-4.61q2.18-1.49,6.58-1.64l3.4-.11v-0.86q0-3-3.07-3a13.89,13.89,0,0,0-5.53,1.42l-1.76-3.62a15.88,15.88,0,0,1,7.5-1.78,9.46,9.46,0,0,1,6.1,1.72,6.35,6.35,0,0,1,2.12,5.24v13.1H138.2l-1-2.67H137a7.94,7.94,0,0,1-2.79,2.36,9.05,9.05,0,0,1-3.75.66,6,6,0,0,1-4.42-1.62A6.24,6.24,0,0,1,124.44,318Zm5.45,0q0,2.25,2.61,2.25a4.16,4.16,0,0,0,3-1.06,3.71,3.71,0,0,0,1.12-2.82v-1.6l-2.08.07a6.73,6.73,0,0,0-3.49.84A2.61,2.61,0,0,0,129.89,318Z"/><path class="cls-2" d="M147.49,323.85V304.2h4.06l0.79,3.3h0.26a7.39,7.39,0,0,1,2.47-2.66,6.09,6.09,0,0,1,3.38-1,8.65,8.65,0,0,1,1.81.16l-0.4,5a6.14,6.14,0,0,0-1.58-.18,5.69,5.69,0,0,0-4,1.32,4.77,4.77,0,0,0-1.43,3.69v10h-5.36Z"/><path class="cls-2" d="M161.85,308.17v-2.24l3-1.77,1.55-4.2h3.43v4.24h5.5v4h-5.5v9.53a2.11,2.11,0,0,0,.64,1.7,2.52,2.52,0,0,0,1.7.55,11.55,11.55,0,0,0,3.38-.62v4a12.09,12.09,0,0,1-4.92.89q-3.22,0-4.68-1.63a7.12,7.12,0,0,1-1.47-4.89v-9.51h-2.57Z"/><path class="cls-2" d="M187.62,314q0-4.81,2.51-7.48a9.22,9.22,0,0,1,7.06-2.67,9.88,9.88,0,0,1,5,1.23,8.19,8.19,0,0,1,3.31,3.53,11.86,11.86,0,0,1,1.16,5.39,10.6,10.6,0,0,1-2.52,7.51,9.14,9.14,0,0,1-7,2.71,9.83,9.83,0,0,1-5-1.24,8.25,8.25,0,0,1-3.32-3.56A12,12,0,0,1,187.62,314Zm5.45,0a8.21,8.21,0,0,0,1,4.41,3.44,3.44,0,0,0,3.13,1.49,3.38,3.38,0,0,0,3.09-1.48,8.33,8.33,0,0,0,.94-4.41,8.08,8.08,0,0,0-1-4.37,4.05,4.05,0,0,0-6.22,0A8.08,8.08,0,0,0,193.07,314Z"/><path class="cls-2" d="M209,308.17v-2.55l3-1.42v-1.44q0-3.36,1.65-4.9t5.29-1.55a13.77,13.77,0,0,1,4.94.83l-1.37,3.94a10,10,0,0,0-3-.51,1.93,1.93,0,0,0-1.65.68,2.8,2.8,0,0,0-.51,1.73v1.23H222v4h-4.64v15.68H212V308.17h-3Z"/><path class="cls-2" d="M234.81,323.85v-25.7h8q5.47,0,7.94,1.56a5.41,5.41,0,0,1,2.47,4.95,6.22,6.22,0,0,1-1.08,3.78,4.34,4.34,0,0,1-2.88,1.78v0.18a5.58,5.58,0,0,1,3.48,2,6.65,6.65,0,0,1,1.07,4,6.58,6.58,0,0,1-2.53,5.5,10.92,10.92,0,0,1-6.88,2h-9.59Zm5.45-15.52h3.16a5.78,5.78,0,0,0,3.21-.69,2.56,2.56,0,0,0,1-2.27,2.27,2.27,0,0,0-1.08-2.12,7,7,0,0,0-3.42-.64h-2.87v5.71Zm0,11h3.55a5.29,5.29,0,0,0,3.32-.86,3.15,3.15,0,0,0,1.07-2.62q0-3.18-4.57-3.18h-3.37v6.66Z"/><path class="cls-2" d="M257.38,314.17q0-4.94,2.47-7.64a8.81,8.81,0,0,1,6.84-2.7,8.61,8.61,0,0,1,6.47,2.37,9,9,0,0,1,2.31,6.56v2.6H262.83a5.2,5.2,0,0,0,1.35,3.58,4.74,4.74,0,0,0,3.54,1.29,14.6,14.6,0,0,0,3.35-.37,16.69,16.69,0,0,0,3.29-1.18v4.14a12.56,12.56,0,0,1-3,1,19,19,0,0,1-3.89.34,10.15,10.15,0,0,1-7.42-2.62Q257.38,319,257.38,314.17Zm5.57-2.37h7.51a4.47,4.47,0,0,0-1-3.07,3.5,3.5,0,0,0-2.7-1.08,3.39,3.39,0,0,0-2.67,1.08A5,5,0,0,0,263,311.79Z"/><path class="cls-2" d="M279.85,323.85V304.2h4.06l0.79,3.3H285a7.39,7.39,0,0,1,2.47-2.66,6.09,6.09,0,0,1,3.38-1,8.65,8.65,0,0,1,1.81.16l-0.4,5a6.14,6.14,0,0,0-1.58-.18,5.69,5.69,0,0,0-4,1.32,4.77,4.77,0,0,0-1.43,3.69v10h-5.36Z"/><path class="cls-2" d="M296.2,323.85V296.5h5.36v27.35H296.2Z"/><path class="cls-2" d="M307,299.12q0-2.62,2.92-2.62t2.92,2.62a2.55,2.55,0,0,1-.73,1.94,3.07,3.07,0,0,1-2.19.69Q307,301.76,307,299.12Zm0.23,24.73V304.2h5.36v19.65h-5.36Z"/><path class="cls-2" d="M318.17,323.85V304.2h4.1l0.72,2.49h0.3a5.65,5.65,0,0,1,2.47-2.14,8.47,8.47,0,0,1,3.58-.72,6.87,6.87,0,0,1,5.2,1.85,7.44,7.44,0,0,1,1.78,5.35v12.81h-5.36v-11.5a5.53,5.53,0,0,0-.76-3.2,2.75,2.75,0,0,0-2.41-1.07,3.62,3.62,0,0,0-3.25,1.51,9.36,9.36,0,0,0-1,5v9.27h-5.36Z"/><path class="cls-2" d="M81.23,419.85v-25.7h5.45v11.76l2.14-3,7-8.74h6l-9,11.37,9,14.33H95.72L89,409l-2.3,1.65v9.18H81.23Z"/><path class="cls-2" d="M104.49,395.12q0-2.62,2.92-2.62t2.92,2.62a2.55,2.55,0,0,1-.73,1.94,3.07,3.07,0,0,1-2.19.69Q104.49,397.76,104.49,395.12Zm0.23,24.73V400.2h5.36v19.65h-5.36Z"/><path class="cls-2" d="M114.51,410.14q0-5,2.49-7.66t7.14-2.65a13.64,13.64,0,0,1,6.12,1.34l-1.58,4.15q-1.27-.51-2.36-0.84a7.56,7.56,0,0,0-2.18-.33q-4.18,0-4.18,6,0,5.77,4.18,5.77a9.51,9.51,0,0,0,2.87-.41,10.32,10.32,0,0,0,2.64-1.29v4.58a8.62,8.62,0,0,1-2.63,1.14,14.84,14.84,0,0,1-3.35.32Q114.51,420.2,114.51,410.14Z"/><path class="cls-2" d="M134.21,419.85V392.5h5.36v12.2l-0.28,4.46h0.07l2.34-3,5.5-6h6l-7.8,8.53,8.28,11.13h-6.19l-5.66-8-2.3,1.85v6.12h-5.36Z"/><path class="cls-2" d="M155,410.17q0-4.94,2.47-7.64a8.81,8.81,0,0,1,6.84-2.7,8.61,8.61,0,0,1,6.47,2.37,9,9,0,0,1,2.31,6.56v2.6H160.44a5.2,5.2,0,0,0,1.35,3.58,4.74,4.74,0,0,0,3.54,1.29,14.6,14.6,0,0,0,3.35-.37,16.69,16.69,0,0,0,3.29-1.18v4.14a12.56,12.56,0,0,1-3,1,19,19,0,0,1-3.89.34,10.15,10.15,0,0,1-7.42-2.62Q155,415,155,410.17Zm5.57-2.37h7.51a4.47,4.47,0,0,0-1-3.07,3.5,3.5,0,0,0-2.7-1.08,3.39,3.39,0,0,0-2.67,1.08A5,5,0,0,0,160.56,407.79Z"/><path class="cls-2" d="M177.46,419.85V400.2h4.06l0.79,3.3h0.26a7.39,7.39,0,0,1,2.47-2.66,6.09,6.09,0,0,1,3.38-1,8.65,8.65,0,0,1,1.81.16l-0.4,5a6.14,6.14,0,0,0-1.58-.18,5.69,5.69,0,0,0-4,1.32,4.77,4.77,0,0,0-1.43,3.69v10h-5.36Z"/><path class="cls-2" d="M201.17,404.17v-2.24l3-1.77,1.55-4.2h3.43v4.24h5.5v4h-5.5v9.53a2.11,2.11,0,0,0,.64,1.7,2.52,2.52,0,0,0,1.7.55,11.55,11.55,0,0,0,3.38-.62v4a12.09,12.09,0,0,1-4.92.89q-3.22,0-4.68-1.63a7.12,7.12,0,0,1-1.47-4.89v-9.51h-2.57Z"/><path class="cls-2" d="M217.48,414a5.19,5.19,0,0,1,2.18-4.61q2.18-1.49,6.58-1.64l3.4-.11v-0.86q0-3-3.07-3a13.89,13.89,0,0,0-5.53,1.42l-1.76-3.62a15.88,15.88,0,0,1,7.5-1.78,9.46,9.46,0,0,1,6.1,1.72,6.35,6.35,0,0,1,2.12,5.24v13.1h-3.77l-1-2.67h-0.14a7.94,7.94,0,0,1-2.79,2.36,9.05,9.05,0,0,1-3.75.66,6,6,0,0,1-4.42-1.62A6.24,6.24,0,0,1,217.48,414Zm5.45,0q0,2.25,2.61,2.25a4.16,4.16,0,0,0,3-1.06,3.71,3.71,0,0,0,1.12-2.82v-1.6l-2.08.07a6.73,6.73,0,0,0-3.49.84A2.61,2.61,0,0,0,222.93,414Z"/><path class="cls-2" d="M240.53,419.85V392.46h5.36v6.37q0,1.21-.21,3.89h0.21a6.22,6.22,0,0,1,5.57-2.89,6.34,6.34,0,0,1,5.44,2.71,12.46,12.46,0,0,1,2,7.44q0,4.87-2,7.55a7.08,7.08,0,0,1-10.95.17h-0.37l-0.9,2.15h-4.1Zm5.36-9.91a8.35,8.35,0,0,0,.94,4.56,3.35,3.35,0,0,0,3,1.38,3,3,0,0,0,2.63-1.53,8.3,8.3,0,0,0,1-4.44,7.86,7.86,0,0,0-1-4.37,3.08,3.08,0,0,0-2.69-1.46,3.38,3.38,0,0,0-2.9,1.23,7.07,7.07,0,0,0-.95,4.05v0.58Z"/><path class="cls-2" d="M263.31,419.85V392.5h5.36v27.35h-5.36Z"/><path class="cls-2" d="M273.1,410.17q0-4.94,2.47-7.64a8.81,8.81,0,0,1,6.84-2.7,8.61,8.61,0,0,1,6.47,2.37,9,9,0,0,1,2.31,6.56v2.6H278.55a5.2,5.2,0,0,0,1.35,3.58,4.74,4.74,0,0,0,3.54,1.29,14.6,14.6,0,0,0,3.35-.37,16.69,16.69,0,0,0,3.29-1.18v4.14a12.56,12.56,0,0,1-3,1,19,19,0,0,1-3.89.34,10.15,10.15,0,0,1-7.42-2.62Q273.1,415,273.1,410.17Zm5.57-2.37h7.51a4.47,4.47,0,0,0-1-3.07,3.5,3.5,0,0,0-2.7-1.08,3.39,3.39,0,0,0-2.67,1.08A5,5,0,0,0,278.67,407.79Z"/><path class="cls-2" d="M293.86,424.49q1.14-4.68,1.78-8.82h5l0.27,0.4a54.09,54.09,0,0,1-3.14,8.42h-3.9Z"/><path class="cls-2" d="M315.6,419.85v-25.7h8.18q4.66,0,7.09,2a7.35,7.35,0,0,1,2.43,6,7.87,7.87,0,0,1-2.58,6.35q-2.58,2.2-7.34,2.2h-2.33v9.14H315.6Zm5.45-13.61h1.79a6,6,0,0,0,3.76-1,3.48,3.48,0,0,0,1.25-2.89,3.56,3.56,0,0,0-1-2.83,4.9,4.9,0,0,0-3.28-.91h-2.48v7.63Z"/><path class="cls-2" d="M337.79,419.85V392.5h5.36v27.35h-5.36Z"/><path class="cls-2" d="M347.47,414a5.19,5.19,0,0,1,2.18-4.61q2.18-1.49,6.58-1.64l3.4-.11v-0.86q0-3-3.07-3a13.89,13.89,0,0,0-5.53,1.42l-1.76-3.62a15.88,15.88,0,0,1,7.5-1.78,9.46,9.46,0,0,1,6.1,1.72,6.35,6.35,0,0,1,2.12,5.24v13.1h-3.77l-1-2.67H360a7.94,7.94,0,0,1-2.79,2.36,9.05,9.05,0,0,1-3.75.66,6,6,0,0,1-4.42-1.62A6.24,6.24,0,0,1,347.47,414Zm5.45,0q0,2.25,2.61,2.25a4.16,4.16,0,0,0,3-1.06,3.71,3.71,0,0,0,1.12-2.82v-1.6l-2.08.07a6.73,6.73,0,0,0-3.49.84A2.61,2.61,0,0,0,352.92,414Z"/><path class="cls-2" d="M367.71,400.2h5.87l3.71,11.06a15.34,15.34,0,0,1,.65,3.41H378a15.07,15.07,0,0,1,.76-3.41l3.64-11.06h5.75l-8.31,22.17a9.6,9.6,0,0,1-3.26,4.61,8.23,8.23,0,0,1-4.95,1.53,12.44,12.44,0,0,1-2.72-.3v-4.25a9.16,9.16,0,0,0,2.11.23,3.81,3.81,0,0,0,2.49-.87,5.64,5.64,0,0,0,1.66-2.63l0.32-1Z"/><path class="cls-2" d="M389.8,405.31a4.66,4.66,0,0,1,2-4,10,10,0,0,1,5.78-1.43,16.16,16.16,0,0,1,6.87,1.55l-1.61,3.86q-1.47-.63-2.74-1a8.63,8.63,0,0,0-2.6-.4q-2.36,0-2.36,1.28a1.5,1.5,0,0,0,.76,1.24,20.62,20.62,0,0,0,3.33,1.56,15.44,15.44,0,0,1,3.35,1.73,5.12,5.12,0,0,1,1.57,1.86,5.71,5.71,0,0,1,.51,2.5,5.48,5.48,0,0,1-2.09,4.64q-2.09,1.59-6.25,1.59a19.62,19.62,0,0,1-3.67-.29,13.71,13.71,0,0,1-2.84-.86v-4.46a18.91,18.91,0,0,0,3.38,1.17,13.79,13.79,0,0,0,3.31.47q2.91,0,2.91-1.68a1.4,1.4,0,0,0-.39-1,5.57,5.57,0,0,0-1.33-.89q-0.94-.5-2.52-1.16a16,16,0,0,1-3.35-1.75,4.94,4.94,0,0,1-1.56-1.85A6,6,0,0,1,389.8,405.31Z"/><path class="cls-2" d="M406.9,404.17v-2.24l3-1.77,1.55-4.2h3.43v4.24h5.5v4h-5.5v9.53a2.11,2.11,0,0,0,.64,1.7,2.52,2.52,0,0,0,1.7.55,11.55,11.55,0,0,0,3.38-.62v4a12.09,12.09,0,0,1-4.92.89q-3.22,0-4.68-1.63a7.12,7.12,0,0,1-1.47-4.89v-9.51H406.9Z"/><path class="cls-2" d="M423.22,414a5.19,5.19,0,0,1,2.18-4.61q2.18-1.49,6.58-1.64l3.4-.11v-0.86q0-3-3.07-3a13.89,13.89,0,0,0-5.53,1.42L425,401.57a15.88,15.88,0,0,1,7.5-1.78,9.46,9.46,0,0,1,6.1,1.72,6.35,6.35,0,0,1,2.12,5.24v13.1H437l-1-2.67h-0.14a7.94,7.94,0,0,1-2.79,2.36,9.05,9.05,0,0,1-3.75.66,6,6,0,0,1-4.42-1.62A6.24,6.24,0,0,1,423.22,414Zm5.45,0q0,2.25,2.61,2.25a4.16,4.16,0,0,0,3-1.06,3.71,3.71,0,0,0,1.12-2.82v-1.6l-2.08.07a6.73,6.73,0,0,0-3.49.84A2.61,2.61,0,0,0,428.67,414Z"/><path class="cls-2" d="M444.28,404.17v-2.24l3-1.77,1.55-4.2h3.43v4.24h5.5v4h-5.5v9.53a2.11,2.11,0,0,0,.64,1.7,2.52,2.52,0,0,0,1.7.55,11.55,11.55,0,0,0,3.38-.62v4a12.09,12.09,0,0,1-4.92.89q-3.22,0-4.68-1.63a7.12,7.12,0,0,1-1.47-4.89v-9.51h-2.57Z"/><path class="cls-2" d="M461.66,395.12q0-2.62,2.92-2.62t2.92,2.62a2.55,2.55,0,0,1-.73,1.94,3.07,3.07,0,0,1-2.19.69Q461.66,397.76,461.66,395.12Zm0.23,24.73V400.2h5.36v19.65h-5.36Z"/><path class="cls-2" d="M471.68,410q0-4.81,2.51-7.48a9.22,9.22,0,0,1,7.06-2.67,9.88,9.88,0,0,1,5,1.23,8.19,8.19,0,0,1,3.31,3.53A11.86,11.86,0,0,1,490.7,410a10.6,10.6,0,0,1-2.52,7.51,9.14,9.14,0,0,1-7,2.71,9.83,9.83,0,0,1-5-1.24,8.25,8.25,0,0,1-3.32-3.56A12,12,0,0,1,471.68,410Zm5.45,0a8.21,8.21,0,0,0,1,4.41,3.44,3.44,0,0,0,3.13,1.49,3.38,3.38,0,0,0,3.09-1.48,8.33,8.33,0,0,0,.94-4.41,8.08,8.08,0,0,0-1-4.37,4.05,4.05,0,0,0-6.22,0A8.08,8.08,0,0,0,477.13,410Z"/><path class="cls-2" d="M495.16,419.85V400.2h4.1l0.72,2.49h0.3a5.65,5.65,0,0,1,2.47-2.14,8.47,8.47,0,0,1,3.58-.72,6.87,6.87,0,0,1,5.2,1.85A7.44,7.44,0,0,1,513.3,407v12.81h-5.36v-11.5a5.53,5.53,0,0,0-.76-3.2,2.75,2.75,0,0,0-2.41-1.07,3.62,3.62,0,0,0-3.25,1.51,9.36,9.36,0,0,0-1,5v9.27h-5.36Z"/><path class="cls-2" d="M526,414.56v-3.81l11.22-16.6h5.06v16.15h3v4.25h-3v5.29h-5.36v-5.29H526Zm4.73-4.25h6.19v-4.36q0-1.09.09-3.16t0.14-2.41H537a19.71,19.71,0,0,1-1.57,2.81Z"/><path class="cls-2" d="M547.05,424.49q1.14-4.68,1.78-8.82h5l0.27,0.4a54.09,54.09,0,0,1-3.14,8.42h-3.9Z"/><path class="cls-2" d="M78.72,452.17v-2.55l3-1.42v-1.44q0-3.36,1.65-4.9t5.29-1.55a13.77,13.77,0,0,1,4.94.83l-1.37,3.94a10,10,0,0,0-3-.51,1.93,1.93,0,0,0-1.65.68A2.8,2.8,0,0,0,87,447v1.23h4.64v4H87v15.68H81.67V452.17h-3Z"/><path class="cls-2" d="M94.75,467.85V448.2h4.06l0.79,3.3h0.26a7.39,7.39,0,0,1,2.47-2.66,6.09,6.09,0,0,1,3.38-1,8.65,8.65,0,0,1,1.81.16l-0.4,5a6.14,6.14,0,0,0-1.58-.18,5.69,5.69,0,0,0-4,1.32,4.77,4.77,0,0,0-1.43,3.69v10H94.75Z"/><path class="cls-2" d="M109.55,458.17q0-4.94,2.47-7.64a8.81,8.81,0,0,1,6.84-2.7,8.61,8.61,0,0,1,6.47,2.37,9,9,0,0,1,2.31,6.56v2.6H115a5.2,5.2,0,0,0,1.35,3.58,4.74,4.74,0,0,0,3.54,1.29,14.6,14.6,0,0,0,3.35-.37,16.69,16.69,0,0,0,3.29-1.18v4.14a12.56,12.56,0,0,1-3,1,19,19,0,0,1-3.89.34,10.15,10.15,0,0,1-7.42-2.62Q109.55,463,109.55,458.17Zm5.57-2.37h7.51a4.47,4.47,0,0,0-1-3.07,3.5,3.5,0,0,0-2.7-1.08,3.39,3.39,0,0,0-2.67,1.08A5,5,0,0,0,115.13,455.79Z"/><path class="cls-2" d="M130.82,458.17q0-4.94,2.47-7.64a8.81,8.81,0,0,1,6.84-2.7,8.61,8.61,0,0,1,6.47,2.37,9,9,0,0,1,2.31,6.56v2.6H136.27a5.2,5.2,0,0,0,1.35,3.58,4.74,4.74,0,0,0,3.54,1.29,14.6,14.6,0,0,0,3.35-.37,16.69,16.69,0,0,0,3.29-1.18v4.14a12.56,12.56,0,0,1-3,1,19,19,0,0,1-3.89.34,10.15,10.15,0,0,1-7.42-2.62Q130.82,463,130.82,458.17Zm5.57-2.37h7.51a4.47,4.47,0,0,0-1-3.07,3.5,3.5,0,0,0-2.7-1.08,3.39,3.39,0,0,0-2.67,1.08A5,5,0,0,0,136.39,455.79Z"/><path class="cls-2" d="M161.44,458.06q0-4.83,2-7.53a6.55,6.55,0,0,1,5.56-2.7,6.38,6.38,0,0,1,5.64,2.88h0.17a22.88,22.88,0,0,1-.39-3.92V440.5h5.36v27.35h-4.11l-1-2.55h-0.22a6.12,6.12,0,0,1-5.56,2.9,6.4,6.4,0,0,1-5.45-2.69A12.35,12.35,0,0,1,161.44,458.06Zm5.45,0.07a7.71,7.71,0,0,0,1,4.35,3.27,3.27,0,0,0,2.86,1.45,3.6,3.6,0,0,0,3-1.2,7,7,0,0,0,1-4.06V458.1a8.07,8.07,0,0,0-1-4.54,3.59,3.59,0,0,0-3.15-1.37,3.14,3.14,0,0,0-2.78,1.52A8.13,8.13,0,0,0,166.89,458.13Z"/><path class="cls-2" d="M185.42,467.85V448.2h4.06l0.79,3.3h0.26a7.39,7.39,0,0,1,2.47-2.66,6.09,6.09,0,0,1,3.38-1,8.65,8.65,0,0,1,1.81.16l-0.4,5a6.14,6.14,0,0,0-1.58-.18,5.69,5.69,0,0,0-4,1.32,4.77,4.77,0,0,0-1.43,3.69v10h-5.36Z"/><path class="cls-2" d="M201.54,443.12q0-2.62,2.92-2.62t2.92,2.62a2.55,2.55,0,0,1-.73,1.94,3.07,3.07,0,0,1-2.19.69Q201.54,445.76,201.54,443.12Zm0.23,24.73V448.2h5.36v19.65h-5.36Z"/><path class="cls-2" d="M212.75,467.85V448.2h4.1l0.72,2.49h0.3a5.65,5.65,0,0,1,2.47-2.14,8.47,8.47,0,0,1,3.58-.72,6.87,6.87,0,0,1,5.2,1.85,7.44,7.44,0,0,1,1.78,5.35v12.81h-5.36v-11.5a5.53,5.53,0,0,0-.76-3.2,2.75,2.75,0,0,0-2.41-1.07,3.62,3.62,0,0,0-3.25,1.51,9.36,9.36,0,0,0-1,5v9.27h-5.36Z"/><path class="cls-2" d="M236.41,467.85V440.5h5.36v12.2l-0.28,4.46h0.07l2.34-3,5.5-6h6l-7.8,8.53,8.28,11.13h-6.19l-5.66-8-2.3,1.85v6.12h-5.36Z"/><path class="cls-2" d="M257.54,453.31a4.66,4.66,0,0,1,2-4,10,10,0,0,1,5.78-1.43,16.16,16.16,0,0,1,6.87,1.55l-1.61,3.86q-1.47-.63-2.74-1a8.63,8.63,0,0,0-2.6-.4q-2.36,0-2.36,1.28a1.5,1.5,0,0,0,.76,1.24,20.62,20.62,0,0,0,3.33,1.56,15.44,15.44,0,0,1,3.35,1.73,5.12,5.12,0,0,1,1.57,1.86,5.71,5.71,0,0,1,.51,2.5,5.48,5.48,0,0,1-2.09,4.64q-2.09,1.59-6.25,1.59a19.62,19.62,0,0,1-3.67-.29,13.71,13.71,0,0,1-2.84-.86v-4.46a18.91,18.91,0,0,0,3.38,1.17,13.79,13.79,0,0,0,3.31.47q2.91,0,2.91-1.68a1.4,1.4,0,0,0-.39-1,5.57,5.57,0,0,0-1.33-.89q-0.94-.5-2.52-1.16a16,16,0,0,1-3.35-1.75,4.94,4.94,0,0,1-1.56-1.85A6,6,0,0,1,257.54,453.31Z"/><path class="cls-2" d="M274.93,472.49q1.14-4.68,1.78-8.82h5l0.27,0.4a54.09,54.09,0,0,1-3.14,8.42h-3.9Z"/><path class="cls-2" d="M294.16,452.17v-2.55l3-1.42v-1.44q0-3.36,1.65-4.9t5.29-1.55a13.77,13.77,0,0,1,4.94.83l-1.37,3.94a10,10,0,0,0-3-.51,1.93,1.93,0,0,0-1.65.68,2.8,2.8,0,0,0-.51,1.73v1.23h4.64v4h-4.64v15.68h-5.36V452.17h-3Z"/><path class="cls-2" d="M310.19,467.85V448.2h4.06l0.79,3.3h0.26a7.39,7.39,0,0,1,2.47-2.66,6.09,6.09,0,0,1,3.38-1A8.65,8.65,0,0,1,323,448l-0.4,5a6.14,6.14,0,0,0-1.58-.18,5.69,5.69,0,0,0-4,1.32,4.77,4.77,0,0,0-1.43,3.69v10h-5.36Z"/><path class="cls-2" d="M326.43,461V448.2h5.36v11.49a5.53,5.53,0,0,0,.76,3.19,2.75,2.75,0,0,0,2.41,1.06,3.62,3.62,0,0,0,3.25-1.5,9.34,9.34,0,0,0,1-5V448.2h5.36v19.65h-4.11l-0.72-2.5h-0.28a5.65,5.65,0,0,1-2.44,2.11,8.37,8.37,0,0,1-3.6.74,6.86,6.86,0,0,1-5.22-1.85A7.46,7.46,0,0,1,326.43,461Z"/><path class="cls-2" d="M350,443.12q0-2.62,2.92-2.62t2.92,2.62a2.55,2.55,0,0,1-.73,1.94,3.07,3.07,0,0,1-2.19.69Q350,445.76,350,443.12Zm0.23,24.73V448.2h5.36v19.65H350.2Z"/><path class="cls-2" d="M359.2,452.17v-2.24l3-1.77,1.55-4.2h3.43v4.24h5.5v4h-5.5v9.53a2.11,2.11,0,0,0,.64,1.7,2.52,2.52,0,0,0,1.7.55,11.55,11.55,0,0,0,3.38-.62v4a12.09,12.09,0,0,1-4.92.89q-3.22,0-4.68-1.63a7.12,7.12,0,0,1-1.47-4.89v-9.51H359.2Z"/><path class="cls-2" d="M375.62,453.31a4.66,4.66,0,0,1,2-4,10,10,0,0,1,5.78-1.43,16.16,16.16,0,0,1,6.87,1.55l-1.61,3.86q-1.47-.63-2.74-1a8.63,8.63,0,0,0-2.6-.4q-2.36,0-2.36,1.28a1.5,1.5,0,0,0,.76,1.24,20.62,20.62,0,0,0,3.33,1.56,15.44,15.44,0,0,1,3.35,1.73,5.12,5.12,0,0,1,1.57,1.86,5.71,5.71,0,0,1,.51,2.5,5.48,5.48,0,0,1-2.09,4.64q-2.09,1.59-6.25,1.59a19.62,19.62,0,0,1-3.67-.29,13.71,13.71,0,0,1-2.84-.86v-4.46a18.91,18.91,0,0,0,3.38,1.17,13.79,13.79,0,0,0,3.31.47q2.91,0,2.91-1.68a1.4,1.4,0,0,0-.39-1,5.57,5.57,0,0,0-1.33-.89q-0.94-.5-2.52-1.16a16,16,0,0,1-3.35-1.75,4.94,4.94,0,0,1-1.56-1.85A6,6,0,0,1,375.62,453.31Z"/><path class="cls-2" d="M393,472.49q1.14-4.68,1.78-8.82h5l0.27,0.4a54.09,54.09,0,0,1-3.14,8.42H393Z"/><path class="cls-2" d="M413.13,458.17q0-4.94,2.47-7.64a8.81,8.81,0,0,1,6.84-2.7,8.61,8.61,0,0,1,6.47,2.37,9,9,0,0,1,2.31,6.56v2.6H418.58a5.2,5.2,0,0,0,1.35,3.58,4.74,4.74,0,0,0,3.54,1.29,14.6,14.6,0,0,0,3.35-.37,16.69,16.69,0,0,0,3.29-1.18v4.14a12.56,12.56,0,0,1-3,1,19,19,0,0,1-3.89.34,10.15,10.15,0,0,1-7.42-2.62Q413.13,463,413.13,458.17Zm5.57-2.37h7.51a4.47,4.47,0,0,0-1-3.07,3.5,3.5,0,0,0-2.7-1.08,3.39,3.39,0,0,0-2.67,1.08A5,5,0,0,0,418.7,455.79Z"/><path class="cls-2" d="M432.6,467.85l6.66-10-6.33-9.62H439l3.81,6.26,3.85-6.26h6.08l-6.4,9.62,6.7,10H447l-4.13-6.73-4.15,6.73H432.6Z"/><path class="cls-2" d="M454.51,458.14q0-5,2.49-7.66t7.14-2.65a13.64,13.64,0,0,1,6.12,1.34l-1.58,4.15q-1.27-.51-2.36-0.84a7.56,7.56,0,0,0-2.18-.33q-4.18,0-4.18,6,0,5.77,4.18,5.77a9.51,9.51,0,0,0,2.87-.41,10.32,10.32,0,0,0,2.64-1.29v4.58a8.62,8.62,0,0,1-2.63,1.14,14.84,14.84,0,0,1-3.35.32Q454.51,468.2,454.51,458.14Z"/><path class="cls-2" d="M474,443.12q0-2.62,2.92-2.62t2.92,2.62a2.55,2.55,0,0,1-.73,1.94,3.07,3.07,0,0,1-2.19.69Q474,445.76,474,443.12Zm0.23,24.73V448.2h5.36v19.65h-5.36Z"/><path class="cls-2" d="M483.21,452.17v-2.24l3-1.77,1.55-4.2h3.43v4.24h5.5v4h-5.5v9.53a2.11,2.11,0,0,0,.64,1.7,2.52,2.52,0,0,0,1.7.55,11.55,11.55,0,0,0,3.38-.62v4a12.09,12.09,0,0,1-4.92.89q-3.22,0-4.68-1.63a7.12,7.12,0,0,1-1.47-4.89v-9.51h-2.57Z"/><path class="cls-2" d="M500.6,443.12q0-2.62,2.92-2.62t2.92,2.62a2.55,2.55,0,0,1-.73,1.94,3.07,3.07,0,0,1-2.19.69Q500.6,445.76,500.6,443.12Zm0.23,24.73V448.2h5.36v19.65h-5.36Z"/><path class="cls-2" d="M511.81,467.85V448.2h4.1l0.72,2.49h0.3a5.65,5.65,0,0,1,2.47-2.14,8.47,8.47,0,0,1,3.58-.72,6.87,6.87,0,0,1,5.2,1.85A7.44,7.44,0,0,1,530,455v12.81h-5.36v-11.5a5.53,5.53,0,0,0-.76-3.2,2.75,2.75,0,0,0-2.41-1.07,3.62,3.62,0,0,0-3.25,1.51,9.36,9.36,0,0,0-1,5v9.27h-5.36Z"/><path class="cls-2" d="M534.28,458q0-4.83,2-7.52a6.53,6.53,0,0,1,5.54-2.69,6.66,6.66,0,0,1,5.71,2.88h0.14l0.44-2.51h4.54v19.69q0,4.24-2.47,6.42t-7.36,2.19a20.5,20.5,0,0,1-7.35-1.17V471a19.47,19.47,0,0,0,7.67,1.51q4.15,0,4.15-4.46v-0.39l0.15-2.4h-0.15a6.25,6.25,0,0,1-5.6,2.9,6.32,6.32,0,0,1-5.47-2.72A12.54,12.54,0,0,1,534.28,458Zm5.45,0.07a8.2,8.2,0,0,0,.95,4.41,3.25,3.25,0,0,0,2.94,1.46,3.63,3.63,0,0,0,3.09-1.24,6.76,6.76,0,0,0,.93-4v-0.65a8,8,0,0,0-1-4.52,3.58,3.58,0,0,0-3.14-1.38Q539.72,452.18,539.72,458.12Z"/><path class="cls-2" d="M565.62,452.17v-2.24l3-1.77,1.55-4.2h3.43v4.24H579v4h-5.5v9.53a2.11,2.11,0,0,0,.64,1.7,2.52,2.52,0,0,0,1.7.55,11.55,11.55,0,0,0,3.38-.62v4a12.09,12.09,0,0,1-4.92.89q-3.22,0-4.68-1.63a7.12,7.12,0,0,1-1.47-4.89v-9.51h-2.57Z"/><path class="cls-2" d="M582,458.17q0-4.94,2.47-7.64a8.81,8.81,0,0,1,6.84-2.7,8.61,8.61,0,0,1,6.47,2.37,9,9,0,0,1,2.31,6.56v2.6H587.48a5.2,5.2,0,0,0,1.35,3.58,4.74,4.74,0,0,0,3.54,1.29,14.6,14.6,0,0,0,3.35-.37,16.69,16.69,0,0,0,3.29-1.18v4.14a12.56,12.56,0,0,1-3,1,19,19,0,0,1-3.89.34,10.15,10.15,0,0,1-7.42-2.62Q582,463,582,458.17Zm5.57-2.37h7.51a4.47,4.47,0,0,0-1-3.07,3.5,3.5,0,0,0-2.7-1.08,3.39,3.39,0,0,0-2.67,1.08A5,5,0,0,0,587.61,455.79Z"/><path class="cls-2" d="M603.2,462a5.19,5.19,0,0,1,2.18-4.61q2.18-1.49,6.58-1.64l3.4-.11v-0.86q0-3-3.07-3a13.89,13.89,0,0,0-5.53,1.42L605,449.57a15.88,15.88,0,0,1,7.5-1.78,9.46,9.46,0,0,1,6.1,1.72,6.35,6.35,0,0,1,2.12,5.24v13.1H617l-1-2.67h-0.14a7.94,7.94,0,0,1-2.79,2.36,9.05,9.05,0,0,1-3.75.66,6,6,0,0,1-4.42-1.62A6.24,6.24,0,0,1,603.2,462Zm5.45,0q0,2.25,2.61,2.25a4.16,4.16,0,0,0,3-1.06,3.71,3.71,0,0,0,1.12-2.82v-1.6l-2.08.07a6.73,6.73,0,0,0-3.49.84A2.61,2.61,0,0,0,608.65,462Z"/><path class="cls-2" d="M626.24,467.85V448.2h4.1l0.72,2.49h0.3a5.43,5.43,0,0,1,2.29-2.1,7.47,7.47,0,0,1,3.43-.76q4.41,0,6,2.86h0.47a5.29,5.29,0,0,1,2.33-2.11,7.82,7.82,0,0,1,3.47-.75,6.83,6.83,0,0,1,5,1.71q1.71,1.71,1.71,5.49v12.81h-5.36v-11.5a5.8,5.8,0,0,0-.71-3.2,2.5,2.5,0,0,0-2.24-1.07,3.34,3.34,0,0,0-2.94,1.41,8,8,0,0,0-1,4.48v9.88h-5.36v-11.5a5.8,5.8,0,0,0-.71-3.2,2.5,2.5,0,0,0-2.24-1.07,3.24,3.24,0,0,0-3,1.52,10,10,0,0,0-.93,5v9.27h-5.36Z"/><path class="cls-2" d="M79.51,510a5.19,5.19,0,0,1,2.18-4.61q2.18-1.49,6.58-1.64l3.4-.11v-0.86q0-3-3.07-3a13.89,13.89,0,0,0-5.53,1.42l-1.76-3.62a15.88,15.88,0,0,1,7.5-1.78,9.46,9.46,0,0,1,6.1,1.72A6.35,6.35,0,0,1,97,502.76v13.1H93.27l-1-2.67H92.08a7.94,7.94,0,0,1-2.79,2.36,9.05,9.05,0,0,1-3.75.66,6,6,0,0,1-4.42-1.62A6.24,6.24,0,0,1,79.51,510ZM85,510q0,2.25,2.61,2.25a4.16,4.16,0,0,0,3-1.06,3.71,3.71,0,0,0,1.12-2.82v-1.6l-2.08.07a6.73,6.73,0,0,0-3.49.84A2.61,2.61,0,0,0,85,510Z"/><path class="cls-2" d="M101.36,506.14q0-5,2.49-7.66t7.14-2.65a13.64,13.64,0,0,1,6.12,1.34l-1.58,4.15q-1.27-.51-2.36-0.84a7.56,7.56,0,0,0-2.18-.33q-4.18,0-4.18,6,0,5.77,4.18,5.77a9.51,9.51,0,0,0,2.87-.41,10.32,10.32,0,0,0,2.64-1.29v4.58a8.62,8.62,0,0,1-2.63,1.14,14.84,14.84,0,0,1-3.35.32Q101.36,516.2,101.36,506.14Z"/><path class="cls-2" d="M119.08,500.17v-2.24l3-1.77,1.55-4.2H127v4.24h5.5v4H127v9.53a2.11,2.11,0,0,0,.64,1.7,2.52,2.52,0,0,0,1.7.55,11.55,11.55,0,0,0,3.38-.62v4a12.09,12.09,0,0,1-4.92.89q-3.22,0-4.68-1.63a7.12,7.12,0,0,1-1.47-4.89v-9.51h-2.57Z"/><path class="cls-2" d="M136.46,491.12q0-2.62,2.92-2.62t2.92,2.62a2.55,2.55,0,0,1-.73,1.94,3.07,3.07,0,0,1-2.19.69Q136.46,493.76,136.46,491.12Zm0.23,24.73V496.2h5.36v19.65h-5.36Z"/><path class="cls-2" d="M144.87,496.2h5.61l3.8,11.2a18.06,18.06,0,0,1,.76,4h0.14a15.12,15.12,0,0,1,.79-4l3.78-11.2h5.61l-7.49,19.65h-5.5Z"/><path class="cls-2" d="M167.93,491.12q0-2.62,2.92-2.62t2.92,2.62a2.55,2.55,0,0,1-.73,1.94,3.07,3.07,0,0,1-2.19.69Q167.93,493.76,167.93,491.12Zm0.23,24.73V496.2h5.36v19.65h-5.36Z"/><path class="cls-2" d="M177.16,500.17v-2.24l3-1.77,1.55-4.2h3.43v4.24h5.5v4h-5.5v9.53a2.11,2.11,0,0,0,.64,1.7,2.52,2.52,0,0,0,1.7.55,11.55,11.55,0,0,0,3.38-.62v4a12.09,12.09,0,0,1-4.92.89q-3.22,0-4.68-1.63a7.12,7.12,0,0,1-1.47-4.89v-9.51h-2.57Z"/><path class="cls-2" d="M194.54,491.12q0-2.62,2.92-2.62t2.92,2.62a2.55,2.55,0,0,1-.73,1.94,3.07,3.07,0,0,1-2.19.69Q194.54,493.76,194.54,491.12Zm0.23,24.73V496.2h5.36v19.65h-5.36Z"/><path class="cls-2" d="M204.56,506.17q0-4.94,2.47-7.64a8.81,8.81,0,0,1,6.84-2.7,8.61,8.61,0,0,1,6.47,2.37,9,9,0,0,1,2.31,6.56v2.6H210a5.2,5.2,0,0,0,1.35,3.58,4.74,4.74,0,0,0,3.54,1.29,14.6,14.6,0,0,0,3.35-.37,16.69,16.69,0,0,0,3.29-1.18v4.14a12.56,12.56,0,0,1-3,1,19,19,0,0,1-3.89.34,10.15,10.15,0,0,1-7.42-2.62Q204.56,511,204.56,506.17Zm5.57-2.37h7.51a4.47,4.47,0,0,0-1-3.07,3.5,3.5,0,0,0-2.7-1.08,3.39,3.39,0,0,0-2.67,1.08A5,5,0,0,0,210.13,503.79Z"/><path class="cls-2" d="M225.83,501.31a4.66,4.66,0,0,1,2-4,10,10,0,0,1,5.78-1.43,16.16,16.16,0,0,1,6.87,1.55l-1.61,3.86q-1.47-.63-2.74-1a8.63,8.63,0,0,0-2.6-.4q-2.36,0-2.36,1.28a1.5,1.5,0,0,0,.76,1.24,20.62,20.62,0,0,0,3.33,1.56,15.44,15.44,0,0,1,3.35,1.73,5.12,5.12,0,0,1,1.57,1.86,5.71,5.71,0,0,1,.51,2.5,5.48,5.48,0,0,1-2.09,4.64q-2.09,1.59-6.25,1.59a19.62,19.62,0,0,1-3.67-.29,13.71,13.71,0,0,1-2.84-.86v-4.46a18.91,18.91,0,0,0,3.38,1.17,13.79,13.79,0,0,0,3.31.47q2.91,0,2.91-1.68a1.4,1.4,0,0,0-.39-1,5.57,5.57,0,0,0-1.33-.89q-0.94-.5-2.52-1.16a16,16,0,0,1-3.35-1.75,4.94,4.94,0,0,1-1.56-1.85A6,6,0,0,1,225.83,501.31Z"/></svg>