<?xml version="1.0" encoding="utf-8"?>
<!-- Generator: Adobe Illustrator 21.0.0, SVG Export Plug-In . SVG Version: 6.00 Build 0)  -->
<svg version="1.1" id="Layer_1" xmlns="http://www.w3.org/2000/svg" xmlns:xlink="http://www.w3.org/1999/xlink" x="0px" y="0px"
	 viewBox="0 0 180 50" style="enable-background:new 0 0 180 50;" xml:space="preserve">
	 <style type="text/css">
	.st0{}
</style>
<g>
	<path class="st0" d="M48.5,11.8c-0.7,0.4-1.3,0.7-2,1.1c-1.1,0.7-2.3,1.3-3.4,2c-0.3,0.2-0.6,0.3-0.9,0.1c-1.8-1-3.6-2-5.4-3.1
		c0,0-0.1-0.1-0.1-0.1c0.4-0.4,17-10,18-10.4c0,0.3,0.1,0.5,0.1,0.7c0,15.2,0,30.5,0,45.7c0,0.1,0,0.3,0,0.4c0,0.4-0.2,0.5-0.5,0.5
		c-0.2,0-0.4,0-0.6,0c-1.2,0-2.5,0-3.7,0c-1.3,0-1.2,0.1-1.2-1.3c0-1.2,0-2.4,0-3.6c0-10.3,0-20.6,0-30.9c0-0.4,0-0.8,0-1.2
		C48.7,11.8,48.6,11.8,48.5,11.8z"/>
	<path class="st0" d="M6.6,14.2c6.1,3.5,12.1,7,18.1,10.5c-0.3,0.2-0.5,0.4-0.7,0.5c-1.5,0.9-2.9,1.8-4.4,2.7c-0.5,0.3-0.8,0.3-1.3,0
		c-1.6-0.9-3.2-1.8-4.8-2.8c-0.2-0.1-0.5-0.3-0.9-0.5c0,0.4,0,0.8,0,1.1c0,7.2,0,14.5,0,21.7c0,1.5,0.1,1.3-1.3,1.3
		c-1.4,0-2.7,0-4.1,0c-0.6,0-0.6,0-0.6-0.6c0-0.2,0-0.3,0-0.5c0-10.8,0-21.6,0-32.4C6.6,15,6.6,14.7,6.6,14.2z"/>
	<path class="st0" d="M43,28.9c-0.4-0.2-0.6-0.3-0.8-0.4c-9.7-5.6-19.4-11.2-29.1-16.7c-1.9-1.1-3.9-2.2-5.8-3.3C6.9,8.2,6.6,8,6.6,7.5
		c0-1.9,0-3.8,0-5.7c0-0.1,0-0.3,0.1-0.5C7,1.4,7.2,1.4,7.4,1.6c6.5,3.7,13,7.5,19.5,11.2c5.1,2.9,10.1,5.8,15.2,8.7
		c0.7,0.4,0.9,0.8,0.9,1.6c-0.1,1.6,0,3.2,0,4.8C43,28.2,43,28.5,43,28.9z"/>
	<g>
		<path class="st0" d="M68.5,27.8l-4.8-13.1h-0.1c0,0.8,0.1,1.6,0.1,2.5v10.6h-0.9V13.6h1.4l4.5,12.5h0.1l4.5-12.5h1.3v14.2h-0.9V17
			c0-0.7,0-1.5,0.1-2.3h-0.1l-4.8,13.1H68.5z"/>
		<path class="st0" d="M85.9,22.5c0,1.7-0.4,3.1-1.1,4c-0.8,1-1.8,1.4-3.1,1.4c-0.8,0-1.6-0.2-2.2-0.7c-0.6-0.4-1.1-1.1-1.5-1.9
			c-0.3-0.8-0.5-1.8-0.5-2.9c0-1.7,0.4-3.1,1.1-4c0.7-1,1.8-1.4,3.1-1.4c1.3,0,2.3,0.5,3.1,1.5C85.6,19.5,85.9,20.8,85.9,22.5z
			 M78.5,22.5c0,1.4,0.3,2.6,0.9,3.4c0.6,0.8,1.4,1.2,2.4,1.2c1,0,1.9-0.4,2.4-1.2c0.6-0.8,0.9-1.9,0.9-3.4c0-1.5-0.3-2.6-0.9-3.4
			s-1.4-1.2-2.4-1.2s-1.9,0.4-2.4,1.2C78.7,19.9,78.5,21,78.5,22.5z"/>
		<path class="st0" d="M95.2,27.8v-6.8c0-1.1-0.2-1.8-0.6-2.3c-0.4-0.5-1-0.7-1.9-0.7c-1.1,0-2,0.3-2.5,1c-0.5,0.6-0.8,1.7-0.8,3.1v5.8h-0.9
			V17.2h0.7l0.2,1.4h0.1c0.6-1.1,1.7-1.6,3.3-1.6c2.2,0,3.2,1.3,3.2,3.8v6.9H95.2z"/>
		<path class="st0" d="M102.9,28c-1.4,0-2.5-0.5-3.2-1.4c-0.8-0.9-1.2-2.3-1.2-4c0-1.7,0.4-3,1.1-4c0.7-1,1.7-1.5,3-1.5c1.1,0,2,0.4,2.6,1.3
			c0.6,0.9,1,2,1,3.5v0.8h-6.8c0,1.4,0.3,2.6,0.9,3.3c0.6,0.8,1.4,1.1,2.6,1.1c0.5,0,1,0,1.4-0.1c0.4-0.1,0.9-0.3,1.6-0.5v0.9
			c-0.5,0.3-1,0.4-1.5,0.5C104,27.9,103.5,28,102.9,28z M102.7,17.9c-0.9,0-1.6,0.3-2.2,1c-0.6,0.7-0.9,1.6-1,2.9h5.9
			c0-1.2-0.2-2.2-0.7-2.9C104.2,18.2,103.5,17.9,102.7,17.9z"/>
		<path class="st0" d="M107.3,17.2h0.9l2,5.9c0.6,1.8,1,3,1.2,3.7h0.1c0.2-0.8,0.6-2.1,1.2-3.7l2-5.9h0.9l-4.2,12.2c-0.3,1-0.6,1.7-0.9,2
			c-0.2,0.3-0.5,0.6-0.8,0.8c-0.3,0.2-0.7,0.3-1.1,0.3c-0.3,0-0.7-0.1-1.1-0.2v-0.8c0.3,0.1,0.7,0.2,1.1,0.2c0.3,0,0.6-0.1,0.8-0.2
			c0.2-0.2,0.4-0.4,0.6-0.7c0.2-0.3,0.4-0.8,0.6-1.6c0.2-0.7,0.4-1.2,0.5-1.4L107.3,17.2z"/>
		<path class="st0" d="M128.9,27.8v-6.9c0-1-0.2-1.8-0.5-2.2c-0.4-0.5-0.9-0.7-1.7-0.7c-1,0-1.7,0.3-2.2,0.9c-0.5,0.6-0.7,1.5-0.7,2.8v6.2H123
			v-7.2c0-1.8-0.7-2.7-2.2-2.7c-1,0-1.7,0.3-2.2,1c-0.5,0.6-0.7,1.7-0.7,3.1v5.8h-0.9V17.2h0.7l0.2,1.4h0.1c0.3-0.5,0.6-0.9,1.1-1.2
			c0.5-0.3,1-0.4,1.6-0.4c1.5,0,2.5,0.6,2.9,1.9h0c0.3-0.6,0.7-1.1,1.2-1.4s1.1-0.5,1.8-0.5c1,0,1.8,0.3,2.3,0.9
			c0.5,0.6,0.8,1.6,0.8,2.9v6.9H128.9z"/>
		<path class="st0" d="M138.6,27.8l-0.2-1.7h-0.1c-0.5,0.7-1,1.2-1.5,1.4c-0.5,0.3-1.1,0.4-1.8,0.4c-0.9,0-1.7-0.3-2.2-0.8
			c-0.5-0.5-0.8-1.3-0.8-2.2c0-1,0.4-1.8,1.2-2.4c0.8-0.6,1.9-0.9,3.3-0.9l1.8-0.1v-0.7c0-1-0.2-1.8-0.5-2.3c-0.4-0.5-1-0.8-1.8-0.8
			c-0.9,0-1.8,0.3-2.7,0.8l-0.3-0.8c1-0.5,2.1-0.8,3.1-0.8c1,0,1.8,0.3,2.3,0.9c0.5,0.6,0.8,1.5,0.8,2.8v7H138.6z M135.1,27.1
			c1,0,1.8-0.3,2.4-1c0.6-0.6,0.9-1.5,0.9-2.7v-1l-1.7,0.1c-1.3,0.1-2.3,0.3-2.8,0.7c-0.6,0.4-0.9,1-0.9,1.8c0,0.7,0.2,1.2,0.5,1.5
			C134,26.9,134.5,27.1,135.1,27.1z"/>
		<path class="st0" d="M142.2,14.3c0-0.6,0.2-0.9,0.5-0.9c0.2,0,0.3,0.1,0.4,0.2c0.1,0.2,0.2,0.4,0.2,0.7c0,0.3-0.1,0.5-0.2,0.7
			c-0.1,0.2-0.2,0.3-0.4,0.3C142.4,15.3,142.2,14.9,142.2,14.3z M143.2,27.8h-0.9V17.2h0.9V27.8z"/>
		<path class="st0" d="M147.2,27.8h-0.9V12.7h0.9V27.8z"/>
		<path class="st0" d="M162.3,27.8v-6.9c0-1-0.2-1.8-0.5-2.2c-0.4-0.5-0.9-0.7-1.7-0.7c-1,0-1.7,0.3-2.2,0.9c-0.5,0.6-0.7,1.5-0.7,2.8v6.2h-0.9
			v-7.2c0-1.8-0.7-2.7-2.2-2.7c-1,0-1.7,0.3-2.2,1c-0.5,0.6-0.7,1.7-0.7,3.1v5.8h-0.9V17.2h0.7l0.2,1.4h0.1c0.3-0.5,0.6-0.9,1.1-1.2
			c0.5-0.3,1-0.4,1.6-0.4c1.5,0,2.5,0.6,2.9,1.9h0c0.3-0.6,0.7-1.1,1.2-1.4s1.1-0.5,1.8-0.5c1,0,1.8,0.3,2.3,0.9
			c0.5,0.6,0.8,1.6,0.8,2.9v6.9H162.3z"/>
		<path class="st0" d="M170,28c-1.4,0-2.5-0.5-3.2-1.4c-0.8-0.9-1.2-2.3-1.2-4c0-1.7,0.4-3,1.1-4c0.7-1,1.7-1.5,3-1.5c1.1,0,2,0.4,2.6,1.3
			c0.6,0.9,1,2,1,3.5v0.8h-6.8c0,1.4,0.3,2.6,0.9,3.3c0.6,0.8,1.4,1.1,2.6,1.1c0.5,0,1,0,1.4-0.1c0.4-0.1,0.9-0.3,1.6-0.5v0.9
			c-0.5,0.3-1,0.4-1.5,0.5C171.1,27.9,170.6,28,170,28z M169.8,17.9c-0.9,0-1.6,0.3-2.2,1c-0.6,0.7-0.9,1.6-1,2.9h5.9
			c0-1.2-0.2-2.2-0.7-2.9C171.3,18.2,170.6,17.9,169.8,17.9z"/>
	</g>
</g>
</svg>
