<?xml version="1.0" encoding="utf-8"?>
<!-- Generator: Adobe Illustrator 21.0.0, SVG Export Plug-In . SVG Version: 6.00 Build 0)  -->
<svg version="1.1" id="Layer_1" xmlns="http://www.w3.org/2000/svg" xmlns:xlink="http://www.w3.org/1999/xlink" x="0px" y="0px"
	 viewBox="0 0 180 50" style="enable-background:new 0 0 180 50;" xml:space="preserve">
	 <style type="text/css">
	.st0{}
</style>
<g>
	<path class="st0" d="M117.2,1.1c2.4-0.2,4.9,0.2,7,1.2c2.6,1.3,4.7,3.4,6,6c1.6,3.4,1.7,7.4,0.1,10.8c-1.3,3.1-3.9,5.5-7.1,6.7
		c-0.4,0.1-0.7,0.3-1.1,0.3c-0.4,0-0.6-0.7-0.2-0.9c0.4-0.2,0.9-0.3,1.3-0.5c2.8-1.2,5.1-3.6,6.2-6.4c1.3-3,1.2-6.6-0.3-9.6
		c-1.3-2.7-3.7-4.9-6.5-6c-2.3-0.9-4.8-1-7.1-0.4c-2.1,0.5-4.1,1.7-5.7,3.3c-2.1,2.2-3.3,5.1-3.3,8.1c-0.1,2.7,0.9,5.5,2.6,7.6
		c1.4,1.7,3.3,3,5.3,3.8c0.2,0.1,0.4,0.2,0.5,0.4c0.2,0.3-0.1,0.7-0.5,0.7c-0.4-0.1-0.7-0.2-1.1-0.4c-2.2-0.9-4.1-2.5-5.5-4.4
		c-1.6-2.2-2.4-4.9-2.4-7.6c0-3,1.2-6,3.2-8.3C111,3,114,1.4,117.2,1.1L117.2,1.1L117.2,1.1z"/>
	<path class="st0" d="M116.9,4c2.2-0.4,4.6,0,6.5,1.2c2.9,1.6,4.9,4.7,5.1,8c0.1,1.8-0.2,3.7-1.1,5.4c-1,2.1-2.8,3.7-4.9,4.6
		c-0.2,0.1-0.4,0.1-0.6,0c-0.3-0.2-0.3-0.8,0.1-0.9c1.4-0.6,2.7-1.6,3.6-2.8c0.9-1.2,1.6-2.7,1.8-4.2c0.3-2-0.1-4.1-1.1-5.8
		c-0.7-1.2-1.7-2.3-2.9-3.1c-2.3-1.5-5.2-1.9-7.8-1c-2.5,0.8-4.6,2.8-5.6,5.3c-1,2.5-0.8,5.5,0.6,7.8c0.9,1.6,2.3,2.9,4,3.7
		c0.2,0.1,0.4,0.2,0.5,0.4c0.1,0.3-0.3,0.8-0.6,0.6c-0.3-0.1-0.6-0.3-0.9-0.4c-2.2-1.2-3.9-3.3-4.7-5.7c-0.8-2.6-0.6-5.5,0.7-7.8
		C111.2,6.4,113.9,4.4,116.9,4L116.9,4L116.9,4z"/>
	<path class="st0" d="M118,6.9c2.1-0.2,4.3,0.7,5.7,2.3c1.4,1.5,2.1,3.7,1.7,5.8c-0.2,1.5-1,2.9-2.1,3.9c-0.3,0.3-0.6,0.6-1,0.7
		c-0.4,0.1-0.7-0.4-0.5-0.7c0.2-0.2,0.4-0.4,0.6-0.6c1.8-1.5,2.6-4.2,1.8-6.4c-0.4-1.2-1.2-2.3-2.3-3.1c-1.2-0.8-2.6-1.1-4.1-1
		c-1.4,0.2-2.8,0.9-3.8,2c-0.9,1.1-1.5,2.5-1.4,3.9c0,1.8,0.8,3.6,2.3,4.7c0.1,0.1,0.3,0.2,0.3,0.4c0.1,0.3-0.2,0.6-0.5,0.6
		c-0.2,0-0.4-0.1-0.5-0.2c-1.2-0.9-2-2.2-2.4-3.6c-0.4-1.6-0.3-3.3,0.4-4.8C113.3,8.7,115.6,7.1,118,6.9L118,6.9L118,6.9z"/>
	<path class="st0" d="M117.8,14.6c0.7-0.2,1.4,0,1.9,0.5c0.4,0.4,0.6,1,0.6,1.5c0,7.3,0,14.7,0,22c0,1.5,0.6,3,1.5,4.2c1.1,1.3,2.7,2.1,4.3,2.3
		c0.5,0.1,1,0,1.4,0.2c0.7,0.3,1.2,1,1.2,1.8c0,0.8-0.5,1.5-1.2,1.8c-0.6,0.2-1.3,0.1-2,0c-2.9-0.4-5.6-2-7.3-4.4
		c-0.7-1.1-1.3-2.3-1.6-3.5c-0.3-1.3-0.3-2.7-0.3-4.1c0-6.7,0-13.4,0-20.1c0-0.5,0.1-1,0.4-1.4C117.1,15,117.4,14.7,117.8,14.6
		L117.8,14.6L117.8,14.6z"/>
	<path class="st0" d="M59,30.2c2.7-2,6.4-2.6,9.5-1.6c2.1,0.7,3.9,2.1,5.2,3.8c1-1.3,2.2-2.4,3.6-3.1c3-1.6,6.8-1.6,9.7,0c2.9,1.5,5,4.5,5.5,7.7
		c0.2,1.1,0.1,2.3,0.1,3.4c0,1.9,0,3.8,0,5.7c0,0.5,0,1-0.1,1.5c-0.2,0.6-0.7,1.1-1.4,1.3c-0.7,0.2-1.5-0.1-2-0.7
		c-0.3-0.4-0.4-0.9-0.4-1.5c0-2.7,0-5.5,0-8.2c0-1.8-0.8-3.6-2.1-4.9c-1.2-1.1-2.9-1.8-4.5-1.7c-1.5,0-3,0.5-4.1,1.5
		c-1.5,1.2-2.4,3.1-2.4,4.9c0,2.5,0,5,0,7.5c0,0.5,0,1,0,1.5c-0.1,0.9-1,1.7-1.9,1.6c-1,0-1.9-0.9-1.9-1.9c0-2.7,0-5.3,0-8
		c0-0.7,0-1.3-0.2-2c-0.3-1.6-1.3-3-2.6-3.9C68,32.4,66.6,32,65.3,32c-1.4,0-2.9,0.5-4,1.4c-1.5,1.2-2.5,3.1-2.5,5
		c0,2.9,0,5.7,0,8.6c0,0.6-0.3,1.2-0.8,1.6c-0.6,0.4-1.5,0.5-2.1,0c-0.6-0.3-0.9-1-0.9-1.6c0-2.9,0-5.8,0-8.7
		C54.9,35.2,56.5,32.1,59,30.2L59,30.2L59,30.2z"/>
	<path class="st0" d="M95.6,28.1c0.8-0.2,1.6,0.2,2,0.9c0.3,0.5,0.3,1.1,0.3,1.7c0,2.4,0,4.8,0,7.2c0,0.5,0,1.1,0.1,1.6c0.2,1.3,0.9,2.6,1.9,3.6
		c1,1,2.3,1.6,3.7,1.8c1.4,0.2,2.9-0.1,4.2-0.8c2.1-1.1,3.4-3.4,3.4-5.8c0-2.8,0-5.6,0-8.4c0-0.7,0.4-1.3,0.9-1.7
		c0.7-0.4,1.6-0.3,2.2,0.1c0.5,0.4,0.8,1,0.7,1.6c0,2.4,0,4.8,0,7.2c0,0.8,0,1.6-0.1,2.4c-0.4,3.2-2.4,6.2-5.2,7.8
		c-2.1,1.2-4.7,1.6-7.1,1.2c-2.3-0.4-4.5-1.7-6-3.5c-1-1.2-1.8-2.7-2.2-4.2c-0.5-1.7-0.3-3.5-0.3-5.2c0-1.7,0-3.5,0-5.2
		c0-0.5,0-1,0.2-1.5C94.5,28.6,95.1,28.3,95.6,28.1L95.6,28.1L95.6,28.1z"/>
	<path class="st0" d="M37.5,28.2c0.4-0.1,0.7-0.1,1.1-0.1c3.9,0,7.8,0,11.8,0c0.5,0,1,0.1,1.4,0.5c0.5,0.4,0.8,1.2,0.6,1.8
		c-0.1,0.8-0.8,1.4-1.6,1.5c-0.4,0.1-0.9,0-1.3,0c-3.7,0-7.4,0-11.1,0c-1.1,0-2.1,0.9-2.2,2c-0.1,1,0.4,2,1.3,2.4
		c0.5,0.2,1,0.2,1.5,0.2c2.7,0,5.3,0,8,0c1.2,0,2.5,0.4,3.5,1.2c1.2,0.9,2.1,2.3,2.5,3.8c0.3,1.3,0.1,2.7-0.5,3.9
		c-0.7,1.5-2.1,2.7-3.7,3.2c-0.7,0.2-1.5,0.3-2.3,0.3c-3.9,0-7.8,0-11.7,0c-0.5,0-0.9-0.1-1.3-0.4c-0.5-0.4-0.8-1-0.7-1.6
		c0-0.7,0.5-1.4,1.2-1.7c0.5-0.2,1.2-0.2,1.7-0.2c3.8,0,7.6,0,11.3,0c1.2,0,2.3-1.1,2.2-2.4c0-1.2-1.1-2.3-2.3-2.3
		c-2.4,0-4.7,0-7.1,0c-1,0-2,0.1-3-0.2c-1.5-0.4-2.8-1.4-3.6-2.6c-0.6-1-1-2.2-1-3.3c0-1.6,0.7-3.2,1.8-4.3
		C35,29.1,36.2,28.4,37.5,28.2L37.5,28.2L37.5,28.2z"/>
	<path class="st0" d="M133.8,33c-1.3,0.8-2.3,2.1-2.8,3.6c4.2,0,8.4,0,12.6,0c-0.3-0.8-0.7-1.6-1.3-2.3c-1-1.2-2.5-2-4.1-2.2
		C136.6,31.8,135.1,32.2,133.8,33L133.8,33L133.8,33z M134,28.6c3.2-1.1,6.9-0.5,9.5,1.6c2.3,1.7,3.9,4.5,4.1,7.4
		c0.1,0.6,0.1,1.3-0.2,1.8c-0.3,0.6-1,1-1.7,1c-4.9,0-9.8,0-14.7,0c0.4,1.2,1.1,2.3,2.1,3.1c1.4,1.2,3.3,1.7,5.1,1.5
		c1.6-0.2,3.1-1,4.1-2.2c0.4-0.4,0.6-0.9,0.9-1.3c0.5-0.6,1.5-0.9,2.2-0.5c0.8,0.4,1.3,1.4,1.1,2.2c-0.2,0.6-0.6,1.1-0.9,1.6
		c-1.9,2.5-4.9,4.1-8.1,4.1c-2.9,0.1-5.9-1.2-7.9-3.3c-1.2-1.3-2.1-2.9-2.5-4.6c-0.2-0.8-0.3-1.6-0.3-2.4c0-1.5,0.3-3.1,1-4.4
		C129,31.6,131.3,29.5,134,28.6L134,28.6L134,28.6z"/>
</g>
</svg>
