<?xml version="1.0" encoding="utf-8"?>
<!-- Generator: Adobe Illustrator 21.0.0, SVG Export Plug-In . SVG Version: 6.00 Build 0)  -->
<svg version="1.1" id="Layer_1" xmlns="http://www.w3.org/2000/svg" xmlns:xlink="http://www.w3.org/1999/xlink" x="0px" y="0px"
	 viewBox="0 0 180 50" style="enable-background:new 0 0 180 50;" xml:space="preserve">
<style type="text/css">

</style>
<g>
	<path class="st0" d="M0,16.4c0.1-0.1,0.2-0.2,0.2-0.3c0.8-3.3,3.4-5.4,7.3-5.5c1.8-0.1,3.5,0.5,5,1.5c0.3,0.2,0.6,0.4,0.9,0.6
		c0.4-0.5,0.7-0.9,1-1.4c0.3,0,0.7,0,1.1,0c0,2.2,0,4.3,0,6.6c-0.6,0-1.1,0-1.6,0c-0.2-0.5-0.4-1-0.6-1.6c-1.4-3.6-4.3-4.5-7.5-3.8
		c-1.8,0.4-3,1.9-3,3.7c0,0.9,0.3,1.6,1.2,2c1,0.4,1.9,0.8,2.9,1.1c1.6,0.4,3.3,0.8,4.9,1.2c0.9,0.2,1.7,0.5,2.6,0.8
		c2.1,0.8,3.3,2.4,3.5,4.7c0.7,6.6-4.3,9.9-9.6,9.3c-1.9-0.2-3.6-1-5-2.3c-0.1-0.1-0.3-0.2-0.5-0.4c-0.4,0.7-0.8,1.2-1.2,1.9
		c-0.4,0-0.9,0-1.4-0.1c0-2.5,0-5.1,0-7.6c0.6,0,1.2,0,1.8,0c0.3,0.7,0.5,1.3,0.7,1.9c1.3,2.9,3.4,4.7,6.6,4.9
		c2.1,0.1,3.9-0.5,5.2-2.3c1.2-1.8,0.8-3.7-1.1-4.8c-0.5-0.3-1.1-0.6-1.7-0.8c-1.7-0.5-3.4-1-5.1-1.5C5.3,24,4.1,23.7,3,23.2
		c-1.4-0.6-2.4-1.7-2.8-3.2c0-0.2-0.2-0.3-0.2-0.5C0,18.5,0,17.5,0,16.4z"/>
	<path class="st0" d="M98.8,3.8c0,2.4,0,4.9,0,7.4c1.8,0,3.4,0,5.1,0c0,0.5,0,1,0,1.5c-1.7,0-3.3,0-5.1,0c0,0.5,0,0.8,0,1.2
		c0,5.5,0,10.9,0,16.4c0,0.8-0.1,1.7,0.9,2.1c1.1,0.5,2.1,0.4,3.1-0.4c0.5-0.4,0.9-0.8,1.4-1.3c0.3,0.2,0.7,0.4,1.2,0.8
		c-0.4,0.6-0.8,1.2-1.2,1.6c-2.1,1.8-4.5,2.5-7.2,1.8c-1.4-0.3-2.3-1.3-2.5-2.7c-0.1-0.8-0.2-1.6-0.2-2.5c0-5.2,0-10.5,0-15.7
		c0-0.4,0-0.8,0-1.4c-1.1,0-2.1,0-3.3,0c0-0.6,0-1-0.1-1.5c1.2,0,2.2,0,3.5,0c0-2.6,0-5,0.1-7.5C95.8,3.8,97.3,3.8,98.8,3.8z"/>
	<path class="st0" d="M132.8,3.8c0,2.4,0,4.9,0,7.4c1.7,0,3.4,0,5.1,0c0,0.5,0,1,0,1.5c-1.7,0-3.3,0-5,0c0,0.5-0.1,0.8-0.1,1.2
		c0,5.5,0,10.9,0,16.4c0,0.8-0.1,1.7,0.8,2.2c1,0.5,2.1,0.4,3-0.3c0.5-0.4,0.9-0.9,1.4-1.4c0.4,0.3,0.8,0.5,1.2,0.8
		c-0.4,0.9-1,1.6-1.8,2.1c-1.9,1.3-4,1.9-6.3,1.4c-1.7-0.3-2.6-1.3-2.9-3c-0.1-0.6-0.1-1.3-0.1-1.9c0-5.4,0-10.8,0-16.2
		c0-0.4,0-0.8,0-1.3c-1.1,0-2.1,0-3.3,0c0-0.5-0.1-0.9-0.1-1.5c1.2,0,2.2,0,3.4,0c0-2.6,0.1-5,0.1-7.5
		C129.8,3.8,131.2,3.8,132.8,3.8z"/>
	<path class="st0" d="M83.5,3.8c0,2.4,0,4.9,0,7.4c1.8,0,3.4,0,5.1,0c0,0.5,0,1,0,1.5c-1.7,0-3.3,0-5.1,0c0,0.5,0,0.9,0,1.2
		c0,5.4,0,10.7,0,16.1c0,0.1,0,0.2,0,0.3c0,0.8,0,1.7,0.9,2.1c1,0.4,2.1,0.4,3-0.3c0.5-0.4,0.9-0.9,1.4-1.4c0.4,0.3,0.8,0.5,1.2,0.8
		c-0.3,1-1,1.6-1.7,2.1c-1.9,1.4-4.1,1.9-6.5,1.4c-1.6-0.3-2.5-1.3-2.8-2.9c-0.1-0.7-0.2-1.5-0.2-2.2c0-5.2,0-10.5,0-15.7
		c0-0.4,0-0.9,0-1.5c-1.1,0-2.1,0-3.2,0c0-0.5,0-0.9,0-1.5c1.1,0,2.1,0,3.4,0c0-2.6,0-5,0-7.5C80.5,3.8,82,3.8,83.5,3.8z"/>
	<path class="st0" d="M180,14.6c-0.4,0.7-1,1.3-1.9,1.5c-1.9,0.5-3.5-0.9-3.2-2.9c0-0.2,0.1-0.4,0.1-0.8c-0.5,0.2-0.9,0.3-1.2,0.6
		c-0.7,0.7-1.5,1.4-1.9,2.3c-1.3,2.3-2.1,4.8-2,7.6c0.1,3.3,0,6.6,0,10c1.5,0,2.9,0,4.4,0c0,0.5,0,0.9,0.1,1.4c-4.4,0-8.7,0-13.1,0
		c0-0.2-0.1-0.4-0.1-0.7c0-0.2,0-0.4,0.1-0.7c1.3,0,2.5,0,3.8,0c0-6.8,0-13.5,0-20.3c-1.3,0-2.5,0-3.8,0c0-0.6,0-1,0-1.5
		c2.7,0,5.5,0,8.3,0c0,1.4,0,2.8,0,4.2c0.1,0,0.1,0,0.2,0.1c0.1-0.2,0.3-0.3,0.4-0.5c0.8-1.5,1.8-2.9,3.4-3.6
		c0.8-0.4,1.7-0.7,2.5-0.8c1.7-0.2,3,0.6,3.8,2.2C180,13.4,180,14,180,14.6z"/>
	<path class="st0" d="M47.7,46.1c-0.3-0.1-0.5-0.3-0.8-0.4c-1.3-0.8-2-2.2-1.6-3.7c0.4-1.5,1.6-2.5,3.2-2.6c1.6,0,2.9,0.9,3.3,2.3
		c0.5,1.5-0.1,3.1-1.4,3.9c-0.3,0.2-0.6,0.3-0.9,0.5C48.9,46.1,48.3,46.1,47.7,46.1z M51.1,42.8c0-1.5-1.1-2.6-2.6-2.6
		c-1.4,0-2.5,1.2-2.5,2.6c0,1.4,1.2,2.6,2.5,2.6C50,45.4,51.1,44.3,51.1,42.8z"/>
	<path class="st0" d="M136.6,46.1c-0.1-0.1-0.3-0.2-0.4-0.3c-2.1-1-2.2-3.6-1.4-4.9c1.1-1.6,3.5-2.1,5-0.9c0.2,0.2,0.4,0.4,0.7,0.7
		c-0.2,0.2-0.3,0.3-0.4,0.5c-1.9-1.3-3.3-1.3-4.3-0.1c-0.9,1-0.9,2.6,0.1,3.6c1.1,1.1,2.5,1.1,4.2-0.2c0.1,0.1,0.3,0.2,0.6,0.5
		c-0.7,0.5-1.2,0.8-1.8,1.2C138.1,46.1,137.3,46.1,136.6,46.1z"/>
	<path class="st0" d="M88.7,46.1c-1.1-0.6-1.4-1.6-1.3-2.7c0-1.2,0-2.5,0-3.7c0.3,0,0.4-0.1,0.6-0.1c0.1,0.2,0.2,0.2,0.2,0.3
		c0,1.3,0,2.6,0.1,3.9c0,0.4,0.2,1,0.5,1.3c0.9,0.8,2.1,0.2,2.2-1c0.1-0.8,0-1.6,0-2.5c0-0.6,0-1.3,0-1.9c0.3,0,0.4,0,0.7,0
		c0,1.6,0,3.2,0,4.8c0,0.8-0.7,1.3-1.3,1.7C89.7,46.1,89.2,46.1,88.7,46.1z"/>
	<path class="st0" d="M116.8,46.1c-1.1-0.6-1.4-1.5-1.4-2.7c0.1-1.2,0-2.5,0-3.8c0.3,0,0.4,0,0.8-0.1c0,1,0,2,0,2.9
		c0,0.5,0,1.1,0,1.6c0.1,0.8,0.6,1.3,1.3,1.3c0.7,0,1.3-0.4,1.4-1.2c0.1-0.5,0.1-1,0.1-1.6c0-1,0-1.9,0-3c0.2,0,0.4-0.1,0.6-0.1
		c0.1,0.1,0.1,0.2,0.1,0.3c0,1.3,0,2.6,0,3.9c0,1-0.5,1.8-1.3,2.3C117.8,46.1,117.3,46.1,116.8,46.1z"/>
	<path class="st0" d="M34,46.1c-0.3-0.2-0.6-0.5-0.8-0.7c-0.1-0.2-0.2-0.4-0.4-0.6c0.2-0.1,0.4-0.3,0.5-0.3c0.5,0.4,0.9,0.7,1.4,1.2
		c0.4-0.4,0.8-0.7,1.3-1.1c-0.5-0.6-0.9-1-1.3-1.4c-0.3-0.3-0.8-0.6-1.1-1c-0.6-0.7-0.6-1.6-0.1-2.1c0.5-0.6,1.5-0.7,2.2-0.2
		c0.3,0.2,0.5,0.4,0.9,0.8c-0.2,0.2-0.4,0.3-0.5,0.4c-1.3-0.9-1.3-0.9-2-0.3c-0.2,0.6,0.2,0.9,0.6,1.2c0.4,0.3,0.8,0.6,1.1,0.9
		c1.1,1,1.1,2,0,3c-0.1,0.1-0.1,0.2-0.2,0.3C35,46.1,34.5,46.1,34,46.1z"/>
	<path class="st0" d="M170.6,46.1c-0.3-0.3-0.6-0.6-0.9-0.9c-0.1-0.1-0.2-0.3-0.3-0.5c0.2-0.1,0.3-0.2,0.5-0.3
		c0.4,0.4,0.8,0.7,1.2,1c1.5-0.4,1.7-1.1,0.7-2c-0.4-0.4-0.8-0.7-1.2-1c-0.8-0.8-1-1.8-0.4-2.5c0.7-0.7,1.8-0.6,2.6,0.2
		c0.1,0.1,0.2,0.2,0.3,0.4c-0.2,0.2-0.3,0.3-0.5,0.4c-1.2-0.9-1.5-0.9-2.1,0.1c0.3,0.3,0.5,0.6,0.8,0.9c0.4,0.4,0.8,0.6,1.2,1
		c0.9,0.9,0.9,1.9-0.1,2.8c-0.1,0.1-0.2,0.2-0.3,0.3C171.6,46.1,171.1,46.1,170.6,46.1z"/>
	<path class="st0" d="M129.8,46.1c-0.4-0.4-0.8-0.8-1.2-1.3c0.2-0.2,0.3-0.3,0.5-0.5c0.5,0.4,0.9,0.7,1.2,1c1.5-0.4,1.6-1.1,0.6-2.1
		c-0.3-0.3-0.7-0.6-1-0.9c-0.7-0.5-1.1-1.2-0.8-2c0.2-0.6,0.6-0.9,1.2-1c0.8-0.2,1.3,0.1,2,1.1c-0.1,0.1-0.3,0.3-0.4,0.4
		c-1.2-0.9-1.4-0.9-2.1,0.1c0.3,0.3,0.6,0.7,0.9,1c0.4,0.4,0.8,0.6,1.2,1c0.9,1,0.9,1.9-0.1,2.8c-0.1,0.1-0.2,0.2-0.3,0.3
		C130.9,46.1,130.3,46.1,129.8,46.1z"/>
	<path class="st0" d="M21.2,44.5c0-10.8,0-21.3,0-32.1c-1.1,0-2.2,0-3.3,0c0-0.5,0-0.9-0.1-1.4c2.7,0,5.3,0,8,0c0,1.1,0,2.2,0,3.6
		c0.3-0.4,0.5-0.5,0.6-0.7c2.4-3.3,5.9-4.4,9.7-3.1c2.9,1,5.1,2.8,6.3,5.5c2,4.5,2.2,9-0.3,13.4c-2.3,4-6.9,6-11.4,5
		c-1.6-0.4-3-1.2-4-2.5c-0.2-0.3-0.5-0.6-0.8-1c0,4.5,0,8.7,0,13.1c1.3,0,2.6,0,3.9,0c0,0.6,0,0.9,0,1.4c-4,0-8,0-12,0
		c0-0.4,0-0.8,0-1.3C18.9,44.5,20,44.5,21.2,44.5z M38.6,23.7c-0.1,0-0.1,0-0.2,0c0-0.9,0-1.8,0-2.7c-0.1-2-0.2-4-1.1-5.9
		c-0.7-1.6-1.9-2.5-3.7-2.7c-3.3-0.4-6,1.3-6.9,4.7c-0.8,3.2-1.3,6.6-0.7,9.9c0.3,1.9,1.1,3.7,2.6,5c1.5,1.3,3.3,1.6,5.3,1.4
		c1.5-0.2,2.5-0.9,3.2-2.2c0.3-0.6,0.5-1.2,0.6-1.8C38.1,27.5,38.3,25.6,38.6,23.7z"/>
	<path class="st0" d="M68.6,33.5c-0.1-4.3-0.2-8.5-0.3-12.9c-1.1,0-2,0-3,0c-0.2-0.8-0.4-1.5-0.7-2.2c-0.5-1.5-1.1-2.9-2.2-4.2
		c-1.4-1.7-2.9-1.7-4.3,0c-1.3,1.6-2,3.4-2.6,5.3c-0.1,0.3-0.2,0.6-0.3,1c-1,0-2,0-3,0c-0.1,4.4-0.2,8.6-0.3,13.1
		c-1.5-1.3-2.6-2.8-3.2-4.4c-2.2-5.6-1.8-10.9,2-15.6c5-6.1,13.8-6.1,19-0.2c4.6,5.3,4.5,14.2-0.2,19.4c-0.2,0.2-0.4,0.5-0.7,0.7
		C68.7,33.6,68.7,33.5,68.6,33.5z"/>
	<path class="st0" d="M144.6,21.1c-0.1,2.7-0.1,5.2,0.5,7.6c0.8,3.4,3.1,5.1,6.8,4.8c3.4-0.2,5.8-2.1,7.1-5.2
		c0.2-0.4,0.3-0.8,0.4-1.2c0.3,0,0.6,0,0.9,0c0.2,0,0.4,0,0.7,0.1c-0.7,3.4-2.5,5.9-5.7,7.2c-6.5,2.6-13.5-0.8-15.7-6.7
		c-1.4-3.7-0.8-7.4,1-10.9c1.6-3,4-5.1,7.4-5.9c4.5-1.1,10.6,0.6,12.5,6.7c0.3,1.1,0.4,2.3,0.7,3.6
		C155.6,21.1,150.1,21.1,144.6,21.1z M155.6,19c0-0.5,0-0.9,0-1.3c0-3.9-1.7-5.5-5.5-5.4c-2.8,0.1-5.9,2.5-5.3,6.7
		C148.3,19,151.9,19,155.6,19z"/>
	<path class="st0" d="M109.3,32.5c-0.4,0.7-0.8,1.3-1.2,1.9c-0.4,0-0.9,0-1.4,0c0-2.6,0-5.1,0-7.6c0.2,0,0.3-0.1,0.5-0.1
		c0.4,0,0.7,0,1.2,0c0.3,0.7,0.5,1.3,0.7,1.9c1,2.4,2.6,4.2,5.3,4.8c1.6,0.4,3.1,0.4,4.6-0.4c1.4-0.7,2.4-1.8,2.6-3.4
		c0.2-1.1-0.1-2-1-2.6c-0.7-0.5-1.5-0.9-2.3-1.2c-2.1-0.7-4.2-1.2-6.3-1.8c-0.9-0.3-1.8-0.5-2.6-0.9c-1.4-0.7-2.2-1.8-2.6-3.3
		c-1.1-4.9,2.1-8.9,7.1-9.1c1.8-0.1,3.5,0.4,5,1.4c0.3,0.2,0.6,0.4,1,0.7c0.3-0.5,0.7-0.9,1.1-1.4c0.3,0,0.6,0,1-0.1
		c0,2.2,0,4.4,0,6.6c-0.5,0-1,0-1.6,0c-0.2-0.4-0.3-0.9-0.5-1.4c-1.2-3.2-3.9-4.7-7.2-4c-2,0.4-3.3,1.8-3.4,3.8c0,0.9,0.3,1.6,1.1,2
		c1,0.4,1.9,0.8,2.9,1.1c1.6,0.4,3.3,0.8,4.9,1.2c0.9,0.2,1.9,0.5,2.8,0.9c1.8,0.8,2.9,2.2,3.3,4.1c1,6.3-3.5,10.3-9.3,9.7
		C112.7,35,111.4,34.3,109.3,32.5z"/>
	<path class="st0" d="M64.2,20.5c-2.6,0-5.1,0-7.6,0c-0.1-0.1-0.1-0.1-0.1-0.2c0.4-2.1,1.1-4,2.4-5.7c0.9-1.1,1.9-1.1,2.7-0.1
		C63,16.3,63.6,18.3,64.2,20.5z"/>
	<path class="st0" d="M61.4,28c0.7-1.8,1.4-3.5,2.1-5.3c0.5-0.1,1-0.1,1.6-0.2c0.4,0.4,0.7,0.8,1.1,1.2c-0.7,1.8-1.4,3.5-2.2,5.3
		C63.1,28.7,62.3,28.4,61.4,28z"/>
	<path class="st0" d="M107.5,45.8c-0.6-2-1.2-4.1-1.8-6.2c0.3,0,0.5,0,0.8,0c0.4,1.3,0.8,2.6,1.3,4.2c0.7-1.6,1.2-2.9,1.9-4.5
		c0.6,1.6,1.2,2.9,1.7,4.2c0.1,0,0.1,0,0.2,0c0.4-1.3,0.8-2.6,1.2-3.9c0.2,0,0.4,0,0.8,0c-0.6,2.2-1.2,4.2-1.8,6.3
		c-0.1,0-0.2,0-0.3,0c-0.6-1.4-1.1-2.8-1.8-4.4c-0.7,1.6-1.3,3-1.8,4.4C107.7,45.9,107.6,45.9,107.5,45.8z"/>
	<path class="st0" d="M100.9,45.9c-0.3,0-0.5,0-0.7,0c-0.2-1.3-0.4-2.5-0.6-3.7c-0.1,0-0.1-0.1-0.2-0.1c-0.6,1.3-1.3,2.6-2.1,4.1
		c-0.8-1.5-1.5-2.8-2.1-4.2c-0.1,0-0.1,0-0.2,0c-0.2,1.3-0.4,2.5-0.6,3.8c-0.2,0-0.4,0.1-0.7,0.1c0.3-2.2,0.6-4.2,0.9-6.3
		c0.1,0,0.1-0.1,0.2-0.1c0.8,1.6,1.6,3.2,2.5,5c0.9-1.8,1.7-3.3,2.5-4.9c0.1,0,0.2,0,0.2,0C100.2,41.7,100.5,43.8,100.9,45.9z"/>
	<path class="st0" d="M126.3,43.9c0-1.4,0-2.8,0-4.2c0.3,0,0.4-0.1,0.7-0.1c0,2.1,0,4.2,0,6.5c-1.5-1.4-2.7-3-4.2-4.6
		c0,1.6,0,2.9,0,4.3c-0.3,0-0.5,0.1-0.8,0.1c0-2.1,0-4.2,0-6.4c0.8,0.7,1.4,1.5,2.1,2.3c0.7,0.7,1.3,1.5,2,2.2
		C126.2,43.9,126.2,43.9,126.3,43.9z"/>
	<path class="st0" d="M71.8,39.6c1.3,1.5,2.6,2.9,3.9,4.4c0.1,0,0.1,0,0.2-0.1c0-1.4,0-2.8,0-4.2c0.3,0,0.5,0,0.7-0.1
		c0,2.1,0,4.2,0,6.5c-1.5-1.5-2.7-3.1-4.2-4.7c0,1.6,0,3,0,4.4c-0.3,0-0.5,0-0.8,0.1c0-2.1,0-4.1,0-6.2
		C71.7,39.7,71.8,39.6,71.8,39.6z"/>
	<path class="st0" d="M146.3,39.6c0.4,0,0.5,0,0.7,0.1c0,2.1,0,4.1,0,6.2c-0.2,0-0.4,0-0.7,0.1c0-1,0-1.9,0-2.9c-1,0-2,0-3,0
		c0,1,0,1.9,0,2.8c-0.3,0-0.5,0-0.7,0.1c0-2.1,0-4.1,0-6.3c0.2,0,0.4,0,0.7-0.1c0,0.9,0,1.7,0,2.6c1,0,2,0,3,0
		C146.3,41.3,146.3,40.5,146.3,39.6z"/>
	<path class="st0" d="M155.8,46c-0.1-0.2-0.3-0.4-0.3-0.7c0-1.9,0-3.7,0-5.7c1,0,1.9-0.1,2.8,0c0.7,0.1,1.2,0.8,1.2,1.5
		c0,0.8-0.3,1.4-1,1.7c-0.3,0.1-0.5,0.2-1,0.3c0.7,0.9,1.4,1.8,2,2.6c-0.7,0.4-1,0-1.3-0.4c-0.6-0.8-1.2-1.5-1.8-2.3
		c-0.1,0-0.2,0-0.3,0.1c0,0.9,0,1.8,0,2.7C156.1,45.9,155.9,46,155.8,46z M156.3,42.2c0.8,0.1,1.6,0.3,2.2-0.3
		c0.4-0.4,0.3-0.9-0.2-1.5c-0.5,0-1.2-0.1-2-0.1C156.3,41,156.3,41.6,156.3,42.2z"/>
	<path class="st0" d="M162.4,40.3c0,0.7,0,1.2,0,1.9c1,0,1.9,0,2.8,0c0.2,0.6,0,0.7-0.4,0.8c-0.7,0-1.5,0-2.3,0c0,0.8,0,1.5,0,2.3
		c0.9,0,1.8,0,2.8,0c0,0.3,0,0.5,0,0.7c-1.2,0-2.4,0-3.6,0c0-2.1,0-4.1,0-6.3c1.2,0,2.3,0,3.6,0c0,0.1,0.1,0.3,0.1,0.6
		C164.4,40.3,163.5,40.3,162.4,40.3z"/>
	<path class="st0" d="M66.1,45.9c0-2.1,0-4.1,0-6.3c1.2,0,2.3,0,3.6,0c0,0.2,0,0.4,0,0.6c-0.9,0-1.8,0-2.8,0c0,0.6,0,1.2,0,1.8
		c0.9,0,1.7,0,2.7,0c0.1,0.3,0.1,0.4,0.2,0.7c-1,0-1.9,0.1-2.9,0.1c0,0.7,0,1.4,0,2.2c0.9,0,1.8,0,2.8,0c0,0.3,0,0.5,0,0.7
		C68.5,45.9,67.4,45.9,66.1,45.9z"/>
	<path class="st0" d="M38.7,39.6c0.2,0,0.4,0,0.6,0c0,0.8,0,1.6,0,2.5c1.1,0,2,0,3.1,0c0-0.9,0-1.7,0-2.5c0.3,0,0.5,0,0.7,0
		c0,2.1,0,4.1,0,6.3c-0.2,0-0.3,0-0.7,0.1c0-1,0-1.9,0-2.9c-1.1,0-2,0-3.1,0c0,0.9,0,1.8,0,2.8c-0.3,0-0.5,0-0.7,0
		C38.7,43.8,38.7,41.7,38.7,39.6z"/>
	<path class="st0" d="M149.4,39.6c0.9,0,1.8-0.1,2.6,0c0.9,0.1,1.4,0.8,1.4,1.6c0,0.8-0.5,1.5-1.4,1.7c-0.6,0.1-1.2,0.1-2,0.2
		c0,0.9,0,1.8,0,2.8c-0.3,0-0.4,0-0.7,0C149.4,43.8,149.4,41.7,149.4,39.6z M150.2,42.3c0.6,0,1.1,0,1.6,0c0.5-0.1,0.8-0.4,0.9-0.9
		c0-0.6-0.3-0.9-0.8-1c-0.5-0.1-1,0-1.6,0C150.2,41,150.2,41.6,150.2,42.3z"/>
	<path class="st0" d="M54,39.6c0.8,0,1.6,0,2.3,0c1,0.1,1.6,0.7,1.6,1.6c0,1-0.6,1.6-1.7,1.7c-0.5,0.1-1,0.1-1.6,0.1
		c0,1,0,1.8,0,2.8c-0.3,0-0.4,0-0.7,0C54,43.8,54,41.8,54,39.6z M54.8,40.3c0,0.7,0,1.3,0,1.9c0.5,0,1,0,1.5,0
		c0.5-0.1,0.9-0.4,0.9-0.9c0-0.6-0.3-0.9-0.9-1C55.8,40.3,55.4,40.3,54.8,40.3z"/>
	<path class="st0" d="M60.8,43c0,1,0,1.8,0,2.7c-0.2,0.1-0.4,0.1-0.7,0.2c0-2.1,0-4.2,0-6.3c0.9,0,1.8-0.1,2.7,0
		c0.8,0.1,1.3,0.8,1.3,1.7c0,0.8-0.5,1.4-1.3,1.6C62.4,43,62.1,43,61.8,43C61.5,43.1,61.2,43,60.8,43z M60.8,42.3c0.5,0,1,0,1.4,0
		c0.6,0,1-0.3,1-0.9c0-0.6-0.3-0.9-1.1-1c-0.4,0-0.9,0-1.4,0C60.8,41,60.8,41.5,60.8,42.3z"/>
	<path class="st0" d="M82,39.6c1.2,0,2.2,0,3.4,0c-0.9,1.9-1.7,3.7-2.5,5.6c0.8,0,1.6,0.1,2.3,0.1c0,0.2,0,0.4,0,0.6
		c-1.1,0-2.2,0-3.5,0c0.8-1.9,1.7-3.6,2.5-5.5c-0.8,0-1.5-0.1-2.2-0.1C82.1,40.1,82,39.9,82,39.6z"/>
	<path class="st0" d="M167.8,45.9c-0.2,0-0.3,0-0.6,0.1c0-2.1,0-4.2,0-6.3c0.2,0,0.4,0,0.6,0C167.8,41.7,167.8,43.7,167.8,45.9z"/>
</g>
</svg>
