<?xml version="1.0" encoding="utf-8"?>
<!-- Generator: Adobe Illustrator 21.0.0, SVG Export Plug-In . SVG Version: 6.00 Build 0)  -->
<svg version="1.1" id="Layer_1" xmlns="http://www.w3.org/2000/svg" xmlns:xlink="http://www.w3.org/1999/xlink" x="0px" y="0px"
	 viewBox="0 0 180 50" style="enable-background:new 0 0 180 50;" xml:space="preserve">
<style type="text/css">

</style>
<path class="st0" d="M170.8,30.7c0-3.7-1.5-7.1-3.9-9.5c2.3-2.1,3.6-5.2,3.9-8.5v0h-6.5v0c-0.4,3.4-2.7,5.3-5.9,5.3
	c-0.8,0-1.5-0.1-2.1-0.3V2.3h-6.5v35h6.5V24.7c0.6-0.2,1.4-0.3,2.1-0.3c3.6,0,6,2.3,6,6.4v6.4h6.5L170.8,30.7L170.8,30.7L170.8,30.7
	z"/>
<path class="st0" d="M125.8,2.3c-1.8,0-3.2,1.2-3.2,3.5c0,2.2,1.4,3.5,3.2,3.5c1.8,0,3.2-1.2,3.2-3.5C129.1,3.5,127.7,2.3,125.8,2.3
	"/>
<rect x="122.6" y="12.7" class="st0" width="6.5" height="24.6"/>
<path class="st0" d="M115.9,21.2c2.3-2.1,3.6-5.2,3.9-8.5v0h-6.5v0c-0.4,3.4-2.7,5.3-5.9,5.3c-0.8,0-1.5-0.1-2.1-0.3V2.3h-6.5v35
	h6.5V24.7c0.6-0.2,1.4-0.3,2.1-0.3c3.6,0,6,2.3,6,6.4v6.4h6.5v-6.6h0C119.8,26.9,118.4,23.5,115.9,21.2"/>
<path class="st0" d="M130.9,25c0,7.5,4.6,12.3,12.1,12.3h4.5v-6.5h-4.3c-3.6,0-5.9-2.4-5.9-5.8c0-3.4,2.3-5.8,5.9-5.8h4.3v-6.5h-4.5
	C135.5,12.7,130.9,17.4,130.9,25"/>
<path class="st0" d="M6.9,19.8c0-1,0.8-1.1,1.6-1.1H16v-6.1H8.2c-4.3,0-8,1.9-8,7.2c0,6.1,9.9,6.8,9.9,9.9c0,0.8-0.6,1.4-1.8,1.4H0
	v6.1h9.1c4.7,0,8.3-2.6,8.3-7.5C17.4,23.3,6.9,22,6.9,19.8"/>
<path class="st0" d="M58.3,12.1c-7.6,0-12.4,5.9-12.4,12.9c0,7,4.8,12.9,12.4,12.9c7.6,0,12.4-5.9,12.4-12.9
	C70.7,17.9,65.9,12.1,58.3,12.1 M58.3,31.4c-3.6,0-6-2.3-6-6.4c0-4.1,2.4-6.4,6-6.4c3.6,0,6,2.3,6,6.4
	C64.2,29.1,61.9,31.4,58.3,31.4"/>
<path class="st0" d="M31.6,12c-2.4,0-4.3,0.8-5.9,1.6V2.3h-6.5v35h6.5V24.2c0.1-3.5,2.5-5.7,5.9-5.7c3.4,0,5.8,2.3,5.8,5.9v12.9h6.5
	V24.1C43.9,16.5,39.1,12,31.6,12"/>
<path class="st0" d="M84.4,12.1c-3.2,0-5.1,1-7,2.5c-0.1,0.1-0.2,0.1-0.2,0.2c0,0,0,0,0,0c-2.4,2-4,4.9-4.4,8.3
	c-0.1,0.6-0.1,1.2-0.1,1.9c0,0,0,0,0,0.1c0,0,0,0,0,0v22.7h6.5V36.8c1.3,0.6,3.1,1.1,5.3,1.1C92,37.9,96.9,32,96.9,25
	C96.9,17.9,92.1,12.1,84.4,12.1 M90.1,26.9c-0.7,2.5-2.8,4.2-5.5,4.2c0,0-0.1,0-0.1,0c-3.1,0-5.4-2.6-5.4-6.1c0-0.7,0.1-1.3,0.2-1.9
	c0.7-2.5,2.8-4.2,5.5-4.2c0,0,0.1,0,0.1,0c3.1,0,5.4,2.6,5.4,6.1C90.4,25.6,90.3,26.3,90.1,26.9"/>
<polygon class="st0" points="174.8,34.7 173.9,34.7 173.9,34.3 176.2,34.3 176.2,34.7 175.2,34.7 175.2,37.3 174.8,37.3 "/>
<polygon class="st0" points="177,34.3 177.5,34.3 178.5,36.5 178.5,36.5 179.4,34.3 180,34.3 180,37.3 179.6,37.3 179.6,34.9
	179.6,34.9 178.6,37.3 178.3,37.3 177.4,34.9 177.4,34.9 177.4,37.3 177,37.3 "/>
</svg>
