<?xml version="1.0" encoding="utf-8"?>
<!-- Generator: Adobe Illustrator 21.0.0, SVG Export Plug-In . SVG Version: 6.00 Build 0)  -->
<svg version="1.1" id="Layer_1" xmlns="http://www.w3.org/2000/svg" xmlns:xlink="http://www.w3.org/1999/xlink" x="0px" y="0px"
	 viewBox="0 0 180 50" style="enable-background:new 0 0 180 50;" xml:space="preserve">
<style type="text/css">

</style>
<g>
	<path class="st0" d="M136.8,15c1.7,0,3.3,0,5.1,0c1.8,3.8,3.6,7.6,5.6,11.7c1.9-4,3.7-7.8,5.5-11.6c1.6,0,3.3,0,5.1,0
		c0,6.6,0,13.1,0,19.7c-1.3,0-2.5,0-4,0c0-4,0-8,0-12c-0.1,0-0.2-0.1-0.4-0.1c-1.6,3.3-3.1,6.7-4.7,10.1c-1.1,0-2,0-3.2,0
		c-1.5-3.2-3.1-6.5-4.6-9.9c-0.1,0-0.2,0-0.3,0.1c0,3.9,0,7.8,0,11.8c-1.4,0-2.8,0-4.2,0C136.8,28.2,136.8,21.7,136.8,15z"/>
	<path class="st0" d="M82,34.8c-1.6,0-3,0-4.5,0c0-6.6,0-13.1,0-19.8c1,0,1.9,0,2.9,0c2.6,0.1,5.2-0.1,7.7,0.2
		c6.2,0.7,7.1,6.8,5,10.8c-0.5,0.9-1.5,1.6-2.4,2.6c1.2,1.9,2.5,3.9,3.9,6.2c-1.9,0-3.5,0-5.3,0c-1-1.8-2.1-3.6-3.2-5.5
		c-1.4,0-2.7,0-4.2,0C82,31,82,32.8,82,34.8z M82,25.2c1.7,0,3.3,0.1,4.9,0c1.6-0.2,2.7-1.6,2.8-3c0-1.7-0.8-2.8-2.7-3.1
		c-1.6-0.2-3.3-0.2-5-0.3C82,21.1,82,23.1,82,25.2z"/>
	<path class="st0" d="M69.4,34.8c-0.6-1.3-1.1-2.5-1.7-3.8c-2.6,0-5.1,0-7.6,0c-0.4,0-0.7,0.1-1.1,0.1c-0.5,1.2-1,2.4-1.6,3.7
		c-1.6,0-3.1,0-4.9,0c2.9-6.6,5.7-13.2,8.6-19.7c1.5,0,3,0,4.8,0c2.8,6.4,5.6,13,8.5,19.7C72.6,34.8,71.1,34.8,69.4,34.8z
		 M60.6,27.2c2,0,3.8,0,5.7,0c-0.9-2.3-1.8-4.5-2.8-7.1C62.4,22.6,61.5,24.8,60.6,27.2z"/>
	<path class="st0" d="M13.8,11.9c0,1.1,0,2.2,0,3.2C6.9,16.7,3.6,20,3.7,25.3c0.1,4.6,3.8,8.6,8.8,9.4c2.9,0.4,5.4-0.5,7.8-2.3
		c2.3-1.8,3.3-4.3,3.7-7.2c1.2,0,2.2,0,3.2,0c0.9,2.8-1.6,7.8-4.6,10.1c-5.1,3.9-13.1,3.6-17.4,0.1c-5-4.1-6.5-10.2-3.8-16
		C3.6,14.6,8.7,11.6,13.8,11.9z"/>
	<path class="st0" d="M163.6,34.8c0-6.6,0-13.1,0-19.5c0.1-0.1,0.2-0.2,0.3-0.2c3.5,0,6.9-0.2,10.4,0.1c3.7,0.3,5.9,3.1,5.8,7
		c-0.2,4.1-2.9,6.9-6.7,7c-1.6,0-3.1,0-4.9,0c0,1.9,0,3.7,0,5.6C166.6,34.8,165.1,34.8,163.6,34.8z M168.4,25.2c1.5,0,2.9,0.1,4.3,0
		c1.7-0.2,2.7-1.3,2.7-2.9c0.1-1.9-0.6-2.9-2.4-3.2c-1.5-0.2-3-0.2-4.6-0.3C168.4,21,168.4,23,168.4,25.2z"/>
	<path class="st0" d="M127.4,15c1.5,0,2.9,0,4.4,0c0,0.6,0.1,1,0.1,1.5c0,3.2,0,6.5,0,9.7c0,4.1-1.6,6.8-5,8.1
		c-3.7,1.5-8.7,0.6-11-2.2c-0.9-1.1-1.7-2.5-1.7-3.8c-0.2-4.4-0.1-8.8-0.1-13.3c1.5,0,2.9,0,4.5,0c0,0.7,0,1.4,0,2.2
		c0,2.9,0,5.8,0,8.7c0,2.9,1.7,4.9,4.3,4.9c2.5,0.1,4.4-1.9,4.5-4.8c0.1-3.3,0-6.6,0-9.8C127.3,15.9,127.4,15.6,127.4,15z"/>
	<path class="st0" d="M51.5,18.3c-0.8,1-1.7,2-2.6,3.1c-1.9-1.7-4-3.2-6.7-2.3c-1.2,0.4-2.3,1.2-3.1,2.1c-1.8,2-1.5,5.4,0.3,7.5
		c2,2.4,4.5,2.3,9.5-0.3c0.9,0.9,1.7,1.8,2.6,2.7c-1.9,3-7.1,4.6-10.8,3.5c-4.6-1.4-7.6-5-7.6-9.4c0-5,2.6-8.7,7.2-10
		C44.4,14.2,49.3,15.3,51.5,18.3z"/>
	<path class="st0" d="M109.4,15.1c0,1.3,0,2.6,0,3.8c0,3.1-0.1,6.3,0,9.4c0.2,6.3-5.6,7.8-9.7,6.2c-1.3-0.5-2.4-1.5-3.8-2.4
		c0.9-1.4,1.6-2.4,2.3-3.4c1.2,0.7,2.2,1.4,3.3,1.8c1.6,0.6,3,0,3.2-1.7c0.2-3.2,0.1-6.3,0.1-9.7c-2.2,0-4.4,0-6.6,0
		c0-1.4,0-2.7,0-4C101.8,15.1,105.5,15.1,109.4,15.1z"/>
	<path class="st0" d="M19,25.1c1.1,0,2.2,0,3.3,0c0.6,2.4-1.5,5.8-3.8,7c-3.4,1.9-7.8,1.6-10.4-0.7c-2.9-2.6-3.8-6.4-2.3-9.8
		c1.3-3,4.8-5.1,8-4.8c0,1,0,2,0,3.1c-3.2,0.8-5.5,2.5-4.8,6.3c0.4,1.9,2.5,3.5,4.5,3.6C16.2,30,17.8,28.7,19,25.1z"/>
</g>
</svg>
