<?xml version="1.0" encoding="utf-8"?>
<!-- Generator: Adobe Illustrator 21.0.0, SVG Export Plug-In . SVG Version: 6.00 Build 0)  -->
<svg version="1.1" id="Layer_1" xmlns="http://www.w3.org/2000/svg" xmlns:xlink="http://www.w3.org/1999/xlink" x="0px" y="0px"
	 viewBox="0 0 180 50" style="enable-background:new 0 0 180 50;" xml:space="preserve">
	 <style type="text/css">
	.st0{}
</style>
<g>
	<path class="st0" d="M44.4,25.7c0.1,0.1,0.3,0.1,0.4,0.2c2.1,0.9,4.2,1.4,6.4,1.2c0.9-0.1,1.8-0.3,2.6-0.8c1.8-1.1,2.9-3.8,0.7-5.9
		c-0.7-0.6-1.5-1.1-2.4-1.5c-1.9-0.8-3.9-1-5.9-0.9c-1.8,0.1-3.5,0.4-5.1,1.3c-0.6,0.3-1.2,0.9-1.8,0.9c-0.6,0.1-1.3-0.4-2-0.6
		c-1.9-0.6-3.8-0.9-5.8-0.4c-1.5,0.4-2.6,1.1-3.1,2.6c-0.5,1.5,0.2,2.9,1.5,3.3c0.8,0.3,1.1,0,1.5-0.7c0.3-0.5,0.7-1,1.2-1.3
		c1.4-0.8,2.8-0.5,4.3-0.1c0,0.1,0,0.1,0,0.2c-0.1,0.2-0.1,0.4-0.2,0.6c-0.4,1.3-0.4,2.6,0.1,3.9c0.5,1.2,1.4,2.1,2.6,2.7
		c1.4,0.8,3,1.5,4.4,2.3c1,0.5,2,1,2.8,1.7c1.6,1.2,1.2,3.4-0.7,4.1c-1.8,0.7-3.7-0.3-3.8-2.1c0-0.6,0.1-1.2,0.3-1.8
		c0.1-0.3,0-0.5-0.3-0.7c-1.3-0.9-2.6-1.2-4.1-0.9c-1.6,0.3-2.7,1.3-3.1,2.8c-0.4,1.5-0.1,2.9,1,4c0.8,0.9,1.9,1.4,3,1.8
		c3.2,1.1,6.5,1.1,9.8,0.3c2-0.5,3.8-1.3,5.1-2.9c1.6-1.9,2.1-5.2,0-7.5c-1-1-2.2-1.7-3.6-2.3c-1.3-0.5-2.7-1-4-1.6
		c-0.6-0.3-1.2-0.8-1.8-1.2c-0.2-0.2-0.3-0.6-0.5-0.9C44.4,25.7,44.4,25.7,44.4,25.7z M45.3,22.1c1-0.5,2-0.6,3.1-0.2
		c0.3,0.1,0.6,0.4,0.6,0.7c0.1,0.4-0.3,0.6-0.7,0.7c-0.4,0-0.9,0.1-1.3,0c-0.7-0.1-1.4-0.4-2.2-0.6c0-0.1,0-0.1,0-0.2
		C45,22.3,45.2,22.1,45.3,22.1z"/>
	<path class="st0" d="M69.3,25.1c-1.4,0.4-2.5,1.3-3.5,2.4c-0.3,0.3-0.5,0.7-0.9,1.1c-0.1-0.4-0.1-0.7-0.2-0.9c-0.6-2.2-2.4-3.1-4.6-2.7
		c-1.3,0.2-2.3,0.8-3.1,1.9c-0.2,0.3-0.2,0.6,0.1,0.9c0.3,0.3,0.6,0.6,0.7,1c0.2,0.4,0.3,0.9,0.2,1.4c-0.2,2.1-0.4,4.2-0.7,6.4
		c-0.1,1.2-0.3,2.5-0.5,3.7c-0.2,1.8-0.4,3.6-0.6,5.5c-0.1,0.9-0.3,1.9-0.4,2.8c0,0.3,0,0.6,0.4,0.6c1.9,0,3.8,0,5.8,0
		c0.3,0,0.4-0.1,0.5-0.4c0.3-2.5,0.6-5,0.9-7.5c0.1-0.5,0.1-1,0.2-1.5c0.1,0,0.2,0,0.2,0.1c0.1,0.2,0.2,0.3,0.3,0.5
		c0.9,1.7,2.4,2.5,4.3,2.4c2.1-0.1,3.8-1.2,5-2.9c1.7-2.3,2.4-4.9,2.4-7.8c0-1.5-0.3-3.1-1.1-4.4C73.6,25.4,71.6,24.5,69.3,25.1z
		 M68.4,36.5c-0.3,0.6-0.7,1.1-1.4,1.4c-0.9,0.4-1.9,0.2-2.3-0.7c-0.3-0.6-0.5-1.3-0.5-1.9c-0.1-1.6,0.2-3.2,1-4.6
		c0.3-0.4,0.7-0.9,1.1-1.2c0.9-0.6,2.1-0.4,2.6,0.7c0.3,0.7,0.4,1.5,0.6,1.9C69.3,33.9,69.1,35.3,68.4,36.5z"/>
	<path class="st0" d="M127.2,35.3c2-1.1,4-2.3,5.5-4.1c0.8-0.9,1.2-1.9,1.1-3.1c0-0.7-0.1-1.5,0-2.2c0-0.4-0.1-0.5-0.5-0.4
		c-2.1,0.2-4.2,0-6.3-0.3c-1.5-0.2-2.9-0.4-4.4-0.4c-3,0-5,2.3-4.5,5.3c0,0.3,0.1,0.5,0.5,0.4c2.6-0.5,5.1-0.7,7.7-0.6
		c0.5,0,1,0.1,1.5,0.1c-0.1,0.2-0.3,0.2-0.4,0.3c-1.2,0.6-2.5,1.1-3.7,1.8c-1.9,1.1-3.6,2.3-5.1,3.9c-0.7,0.8-1.3,1.6-1.3,2.8
		c0,1,0,2,0,2.9c1.3-0.1,2.4-0.3,3.5-0.2c2,0.2,4,0.6,5.9,0.9c1.4,0.2,2.8,0.3,4.1-0.4c2.1-1.1,2.4-3.7,1.9-5
		c-0.2-0.6-0.3-0.5-0.9-0.3c-0.9,0.3-1.8,0.7-2.7,0.7c-1.7,0.1-3.5,0.1-5.2,0.1c-0.1,0-0.2,0-0.5-0.1c0.3-0.1,0.4-0.2,0.5-0.3
		C125.1,36.4,126.1,35.9,127.2,35.3z"/>
	<path class="st0" d="M116.5,25.4c-1,0-2,0-3,0c-0.3,0-0.5-0.1-0.4-0.5c0.1-0.6,0.2-1.2,0.2-1.9c0.1-1,0.2-1.9,0.3-3c-0.1,0-0.2,0.1-0.3,0.1
		c-2.8,1.7-5.5,3.4-8.3,5.1c-0.1,0.1-0.3,0.2-0.3,0.4c-0.1,0.8-0.2,1.6-0.3,2.4c0,0.3,0.1,0.4,0.4,0.4c0.4,0,0.8,0,1.3,0
		c0,0.3,0,0.6-0.1,0.8c-0.3,2.8-0.7,5.6-1.1,8.4c-0.3,2.3,0.9,4.1,3.1,4.6c2.2,0.4,4.3-0.1,6.1-1.5c0.4-0.3,0.8-0.8,1.2-1.3
		c0.1-0.2,0.2-0.5,0.1-0.6c0-0.1-0.4-0.2-0.6-0.2c-0.4,0-0.8,0.1-1.2,0.1c-1.2,0-1.9-0.6-2-1.7c0-0.5,0-0.9,0-1.4
		c0.3-2.2,0.6-4.5,0.9-6.7c0-0.4,0.2-0.5,0.5-0.5c1,0,2.1,0,3.1,0c0.2,0,0.4-0.1,0.5-0.2c0.1-0.9,0.2-1.8,0.3-2.8
		C116.9,25.4,116.7,25.4,116.5,25.4z"/>
	<path class="st0" d="M151.6,27.5c-0.1-1.1-0.6-2-1.7-2.4c-0.9-0.4-1.9-0.4-2.8,0.1c-0.9,0.4-1.6,1.1-2.2,1.8c-0.3,0.4-0.6,0.8-0.9,1.3
		c-0.1-0.4-0.2-0.7-0.3-0.9c-0.4-1.2-1.2-2.1-2.4-2.3c-0.8-0.2-1.6-0.2-2.3,0c-1.2,0.2-2.2,0.8-2.9,1.8c-0.3,0.3-0.2,0.6,0.2,0.8
		c0.6,0.3,0.9,0.9,1,1.5c0.1,0.8,0.2,1.6,0.1,2.4c-0.3,2.7-0.8,5.3-1.1,8c-0.1,0.7-0.2,1.5-0.3,2.3c0.1,0,0.2,0.1,0.3,0.1
		c2,0,4,0,6,0c0.3,0,0.4-0.1,0.4-0.4c0-0.4,0.1-0.8,0.1-1.2c0.2-1.6,0.4-3.1,0.6-4.7c0.2-1.4,0.4-2.9,0.6-4.3
		c0.1-0.5,0.4-1.1,0.7-1.5c0.1-0.2,0.6-0.3,0.8-0.2c0.2,0.1,0.5,0.4,0.5,0.7c0,0.4,0,0.9-0.1,1.3c-0.1,0.5,0,0.8,0.4,0.9
		c0.6,0.1,1.3,0.3,2,0.1C150.3,32,151.7,30,151.6,27.5z"/>
	<path class="st0" d="M89,25.1c-1,0.4-1.7,1.1-2.4,1.9c-0.3,0.4-0.6,0.8-0.9,1.2c0,0-0.1,0-0.1,0c0-0.2-0.1-0.5-0.1-0.7
		c-0.4-1.3-1.2-2.3-2.6-2.6c-0.5-0.1-1.1-0.2-1.7-0.1c-1.4,0.2-2.6,0.8-3.4,1.9c-0.2,0.2-0.3,0.5,0.1,0.8c0.7,0.4,1,1,1.1,1.7
		c0.1,0.7,0.1,1.5,0,2.2c-0.3,2.6-0.8,5.3-1.1,7.9c-0.1,0.7-0.2,1.5-0.3,2.2c0.1,0,0.1,0.1,0.2,0.1c2,0,4.1,0,6.1,0
		c0.1,0,0.3-0.2,0.3-0.3c0.1-0.5,0.1-1.1,0.2-1.6c0.3-2.7,0.7-5.4,1-8.1c0.1-0.7,0.2-1.5,0.9-2.1c0.2-0.2,0.6-0.3,0.8-0.2
		c0.2,0.1,0.4,0.4,0.5,0.6c0,0.4,0,0.8-0.1,1.2c-0.2,0.7-0.1,0.9,0.6,1.1c0.2,0.1,0.4,0.1,0.5,0.1c2.4,0.2,4.4-1.5,4.7-3.8
		c0.1-1,0.2-2-0.6-2.9C91.9,24.9,90.3,24.6,89,25.1z"/>
	<path class="st0" d="M101.9,28.9c0.2-1.1,0.3-2.2,0.5-3.4c-0.3,0-0.4,0-0.6,0c-1.6,0-3.1,0-4.7,0c-1.4,0-1.4,0-1.5,1.4
		c-0.4,3.2-0.8,6.4-1.2,9.6c-0.1,1-0.2,2-0.1,3c0.4,2.3,2.3,3.2,4.4,2.9c1.3-0.2,2.3-0.8,3.2-1.7c0.4-0.5,0.4-0.6-0.1-1.1
		c-0.3-0.3-0.7-0.8-0.8-1.2c-0.2-0.7-0.3-1.4-0.2-2.1C101.2,33.8,101.5,31.3,101.9,28.9z"/>
	<path class="st0" d="M84.8,12.4c0.7,0.4,1.4,0.7,2.1,1.1c0.8,0.4,1.6,0.9,2.1,1.2c1.2-1.1,2.4-2,3.4-3.1c1.4-1.5,1.5-3.5,0.4-5.1
		c-0.5-0.7-1.2-1.1-2.1-1.1c-1,0.1-1.9,0.4-2.7,1.1c-0.2,0.2-0.4,0.3-0.7,0.1c-0.7-0.4-1.5-0.5-2.3-0.4c-1.9,0.2-2.9,1.7-2.4,3.5
		C82.9,11,83.7,11.8,84.8,12.4z"/>
	<path class="st0" d="M102.2,16.2c-0.8-0.1-1.5,0-2.2,0.4c-0.3,0.2-0.4,0.1-0.6,0c-0.4-0.3-0.9-0.5-1.4-0.7c-1.5-0.4-2.8,0.5-2.9,1.8
		c-0.1,1.1,0.2,2,1,2.7c1.1,1.1,2.3,2,3.5,3.1c1.2-0.8,2.3-1.5,3.4-2.3c0.9-0.6,1.2-1.6,1.2-2.7C104,17.3,103.3,16.3,102.2,16.2z"/>
	<path class="st0" d="M99.7,7.1c0.4,0.9,0.4,0.9,1.4,0.8c0.9-0.1,1.8-0.3,2.7-0.5c1.2-0.3,1.9-1.3,2-2.6c0.1-1.1-0.9-2-2.2-2
		c-0.6,0-1-0.1-1.3-0.7c-0.6-0.9-1.7-1.3-2.6-1c-0.8,0.3-1.3,1.1-1.4,2.2c0.2,0.5,0.3,1.1,0.5,1.6C99,5.6,99.4,6.3,99.7,7.1z"/>
	<path class="st0" d="M96.2,7.9c0.7,0,1.3-0.6,1.3-1.4c0-0.8-0.5-1.3-1.4-1.3c-0.9,0-1.4,0.4-1.4,1.2C94.7,7.3,95.3,7.9,96.2,7.9z"/>
	<path class="st0" d="M93.3,13.6c-0.8,0-1.3,0.5-1.3,1.2c0,0.8,0.7,1.5,1.4,1.5c0.7,0,1.2-0.6,1.2-1.3C94.6,14.1,94.1,13.6,93.3,13.6z"/>
</g>
</svg>
