<?xml version="1.0" encoding="utf-8"?>
<!-- Generator: Adobe Illustrator 21.0.0, SVG Export Plug-In . SVG Version: 6.00 Build 0)  -->
<svg version="1.1" id="Layer_1" xmlns="http://www.w3.org/2000/svg" xmlns:xlink="http://www.w3.org/1999/xlink" x="0px" y="0px"
	 viewBox="0 0 180 50" style="enable-background:new 0 0 180 50;" xml:space="preserve">
<style type="text/css">
	.st0{}
</style>
<g>
	<path class="st0" d="M82.5,8.9c0.1-0.1,0.1-0.1,0.2-0.2c3.6-4.1,8-6.7,13.2-8c1.1-0.3,2.2-0.5,3.4-0.6C100.5,0,101.8,0,103,0
		c2.6,0.1,5.1,0.6,7.5,1.4c2.3,0.8,4.5,1.9,6.5,3.4c1.7,1.2,3.1,2.7,4.5,4.3c1.7,2.1,3.1,4.3,4.1,6.7c0.7,1.7,1.2,3.4,1.5,5.2
		c0.2,1.5,0.4,3.1,0.3,4.7c-0.1,3.8-1,7.4-2.9,10.8c-3.1,5.6-7.6,9.5-13.5,11.8c-1.6,0.6-3.3,1.1-5,1.3c-1.8,0.3-3.6,0.4-5.4,0.3
		c-6.3-0.4-11.8-2.7-16.4-7.1c-0.4-0.3-0.7-0.7-1.1-1.1c-0.1-0.1-0.1-0.1-0.1-0.2c-0.1,0.1-0.2,0.1-0.2,0.1
		c-2.1,1.4-4.4,2.4-6.9,2.9c-0.8,0.2-1.7,0.3-2.6,0.3c-0.8,0.1-1.6,0-2.5,0c-1.8-0.1-3.6-0.5-5.2-1.2c-4.9-1.9-8.6-5.2-11-10
		c-0.9-1.7-1.4-3.5-1.7-5.4c-0.2-1.2-0.3-2.4-0.2-3.7c0.2-4.2,1.6-7.9,4.1-11.2c2.2-2.9,5-5,8.4-6.4c1.4-0.6,2.9-1,4.4-1.2
		c0.9-0.1,1.9-0.2,2.8-0.2c3.6,0.1,6.9,1,9.9,3C82.4,8.8,82.4,8.9,82.5,8.9z M83.3,38.7c0.1,0.1,0.1,0.1,0.1,0.2
		c0.8,1,1.6,1.9,2.5,2.8c4.2,3.9,9.2,6.1,15,6.4c1.7,0.1,3.5,0,5.2-0.3c2-0.4,4-1,5.9-1.9c6-2.9,10.1-7.4,12.2-13.7
		c0.7-2.1,1.1-4.4,1.2-6.6c0-0.8,0-1.6-0.1-2.4c-0.1-1-0.2-2-0.5-3c-1-4.5-3.1-8.4-6.5-11.6c-4.4-4.3-9.8-6.5-15.9-6.7
		c-1.3,0-2.7,0.1-4,0.3c-1.8,0.3-3.6,0.8-5.3,1.5C89,5.4,85.6,8,83,11.7c0,0.1-0.1,0.1-0.1,0.2c-0.2-0.2-0.5-0.4-0.7-0.5
		c-2.7-2.1-5.8-3.2-9.3-3.4c-1.2-0.1-2.4,0-3.5,0.2c-1.7,0.3-3.4,0.8-5,1.6c-3.6,1.9-6.4,4.6-8.2,8.3c-0.9,1.9-1.5,3.9-1.7,6
		c-0.1,0.9-0.1,1.8,0,2.6c0.1,1.1,0.3,2.3,0.6,3.4c0.9,3.1,2.5,5.8,4.9,8.1c3.2,3.1,7.1,4.8,11.6,5c1.4,0.1,2.7-0.1,4-0.4
		c2.8-0.6,5.2-1.8,7.4-3.7C83.1,38.9,83.1,38.8,83.3,38.7z"/>
	<path class="st0" d="M83.2,14.1c0.1-0.1,0.1-0.2,0.1-0.2c2.8-4.6,6.8-7.8,11.9-9.5c1.3-0.4,2.7-0.7,4-0.9c1.1-0.1,2.3-0.2,3.4-0.2
		c3.5,0.1,6.7,1,9.7,2.7c4.1,2.3,7.2,5.5,9.4,9.7c0.9,1.8,1.6,3.8,1.9,5.8c0.2,0.9,0.3,1.9,0.3,2.9c0.1,3.7-0.7,7.2-2.5,10.4
		c-2.9,5.2-7.2,8.8-12.8,10.8c-1.2,0.4-2.4,0.7-3.7,0.9c-1.4,0.2-2.8,0.3-4.1,0.2C95.2,46.3,90.4,44,86.4,40c-1-1-1.9-2.2-2.7-3.4
		c0-0.1-0.1-0.1-0.1-0.2c0,0,0,0-0.1,0c-0.1,0-0.1,0.1-0.2,0.2c-1.6,1.7-3.4,3-5.5,3.9c-1.3,0.5-2.6,0.9-3.9,1
		c-1,0.1-2.1,0.2-3.1,0.1c-2.6-0.2-4.9-1-7.1-2.4c-3.3-2.1-5.7-5-7-8.7c-0.4-1.1-0.6-2.3-0.8-3.5c-0.1-0.9-0.1-1.8,0-2.6
		c0.2-1.9,0.7-3.8,1.5-5.5c1.8-3.6,4.5-6.3,8.2-8c1.4-0.6,2.8-1,4.3-1.2c1.1-0.2,2.3-0.2,3.4-0.1c3.7,0.4,6.9,1.9,9.5,4.6
		C83,14,83.1,14.1,83.2,14.1z M93.8,29.9c0-0.1,0-0.2,0-0.3c0-1.8,0-3.5,0-5.3c0-0.1,0-0.3,0-0.4c0.1-0.7,0.5-1.2,1.1-1.4
		c0.7-0.2,1.3-0.1,1.8,0.4c0.4,0.4,0.5,0.8,0.5,1.3c0,1.8,0,3.6,0,5.4c0,0.1,0,0.2,0,0.3c0.8,0,1.5,0,2.3,0c0-0.1,0-0.2,0-0.3
		c0-1.8,0-3.7,0-5.5c0-0.3,0-0.6-0.1-0.9c-0.3-1.5-1.8-3.2-3.9-3.2c-1.1,0-2,0.4-2.8,1.1c0,0-0.1,0.1-0.1,0.1c0,0-0.1-0.1-0.1-0.1
		c-1-1-2.2-1.3-3.6-1c-1.6,0.3-3.3,1.8-3.3,3.9c0,1.9,0,3.8,0,5.7c0,0.1,0,0.1,0,0.2c0.3,0,2.2,0,2.3,0c0-0.1,0-0.2,0-0.3
		c0-1.8,0-3.6,0-5.3c0-0.2,0-0.3,0-0.5c0.1-0.7,0.8-1.3,1.7-1.3c0.8,0,1.5,0.6,1.6,1.3c0,0.2,0,0.3,0,0.5c0,1.8,0,3.5,0,5.3
		c0,0.1,0,0.2,0,0.3C92.2,29.9,93,29.9,93.8,29.9z M59.4,29.9c0.1,0,0.2,0,0.2,0c0.6,0,1.2,0,1.8,0c0.3,0,0.3,0,0.3-0.3
		c0-1.8,0-3.7,0-5.5c0-0.7,0.3-1.2,0.9-1.5c0.6-0.3,1.2-0.3,1.7,0c0.5,0.3,0.8,0.8,0.8,1.5c0,1.8,0,3.6,0,5.5c0,0.1,0,0.2,0,0.3
		c0.1,0,0.2,0,0.3,0c0.6,0,1.2,0,1.8,0c0.3,0,0.3,0,0.3-0.3c0-1.8,0-3.6,0-5.4c0-0.1,0-0.3,0-0.4c0.2-1,1.2-1.6,2.2-1.3
		c0.7,0.2,1.2,0.9,1.2,1.6c0,1.8,0,3.7,0,5.5c0,0.1,0,0.2,0,0.3c0.2,0.1,2.1,0,2.3,0c0-0.1,0-0.1,0-0.2c0-1.9,0-3.8,0-5.6
		c0-0.3,0-0.6-0.1-0.9c-0.3-1.4-1.8-3.1-3.9-3.1c-1.1,0-2.1,0.4-2.9,1.1c0,0-0.1,0.1-0.1,0.1c0,0,0,0,0,0c0,0-0.1-0.1-0.1-0.1
		c-1.1-1-2.4-1.3-3.8-0.9c-1.8,0.4-3,2.1-3,3.9c0,1.8,0,3.7,0,5.5C59.4,29.7,59.4,29.8,59.4,29.9z M110.6,25c0.1-2.6-2.3-5-4.9-4.9
		c-2.6-0.1-5,2.2-5,4.9c0,2.7,2.3,4.9,4.9,4.9C108.4,29.9,110.7,27.6,110.6,25z M79.5,20.1c-2.5-0.1-5,2.2-5,4.9
		c0,2.7,2.3,4.9,4.9,4.9c2.7,0,5-2.2,5-4.9C84.4,22.2,82,20,79.5,20.1z M114,25c-0.3,0.4-0.6,0.8-0.9,1.2c-0.3,0.4-0.6,0.8-0.9,1.2
		c-0.3,0.4-0.6,0.8-0.9,1.2c-0.3,0.4-0.6,0.8-0.9,1.3c0.1,0,0.2,0,0.3,0c0.8,0,1.6,0,2.4,0c0.2,0,0.3-0.1,0.4-0.2
		c0.6-0.9,1.3-1.7,1.9-2.6c0-0.1,0.1-0.1,0.2-0.2c0.2,0.2,0.3,0.5,0.5,0.7c0.5,0.7,1.1,1.4,1.6,2.1c0.1,0.1,0.1,0.2,0.3,0.2
		c0.9,0,1.8,0,2.6,0c0,0,0.1,0,0.2,0c-1.2-1.7-2.5-3.3-3.7-4.9c0.3-0.4,0.6-0.8,0.9-1.2c0.3-0.4,0.6-0.8,0.9-1.2
		c0.3-0.4,0.6-0.8,0.9-1.2c0.3-0.4,0.6-0.8,0.9-1.3c-0.1,0-0.2,0-0.3,0c-0.8,0-1.6,0-2.5,0c-0.2,0-0.3,0.1-0.4,0.2
		c-0.6,0.9-1.3,1.7-1.9,2.6c0,0.1-0.1,0.1-0.2,0.2c-0.2-0.2-0.3-0.5-0.5-0.7c-0.5-0.7-1.1-1.4-1.6-2.1c-0.1-0.1-0.1-0.2-0.3-0.2
		c-0.9,0-1.7,0-2.6,0c0,0-0.1,0-0.2,0C111.5,21.8,112.7,23.4,114,25z"/>
	<path class="st0" d="M103.2,25c0-1.4,1.1-2.5,2.5-2.5c1.4,0,2.6,1.2,2.5,2.5c0,1.4-1.1,2.6-2.5,2.5C104.2,27.5,103.1,26.3,103.2,25
		z"/>
	<path class="st0" d="M82,25c0,1.3-1.1,2.5-2.5,2.5c-1.5,0-2.5-1.2-2.5-2.6c0-1.4,1.2-2.5,2.6-2.5C80.9,22.5,82,23.6,82,25z"/>
</g>
</svg>
