<?xml version="1.0" encoding="utf-8"?>
<!-- Generator: Adobe Illustrator 21.0.0, SVG Export Plug-In . SVG Version: 6.00 Build 0)  -->
<svg version="1.1" id="Layer_1" xmlns="http://www.w3.org/2000/svg" xmlns:xlink="http://www.w3.org/1999/xlink" x="0px" y="0px"
	 viewBox="0 0 180 50" style="enable-background:new 0 0 180 50;" xml:space="preserve">
<style type="text/css">

</style>
<g>
	<path class="st0" d="M114.3,29.8c0.2-0.6-0.4-1.2-1-1.2c-1.8-0.8-4.2-0.2-6.2-0.1c-2.6,0-4.1-0.3-5.9-1.8c0-0.1-0.1-0.2-0.1-0.3
		c-0.3-0.8-0.4-1.6-0.4-2.4c0.1-1.3,0.2-2.7,0.1-4.1c-0.1-1.7,0-5.7,2.5-5.9c0.6,0,1.4,0,2.2,0.2c-0.2,2.5-0.4,5.1-0.7,7.6
		c0,0.4,0.2,0.7,0.5,0.9c2.6,1.8,4,0.7,6.9,0.6c0.2,0,0.5-0.1,0.7-0.2c0.5,0,1-0.2,1.2-0.8c0.4-2.3,0.3-4.6,0.1-6.9
		c0.3-1.5,0.9-3.4,0.5-4.9c-0.4-1.5-2.1-2.9-3.6-4.1c-0.5-0.5-1-1.1-1.6-1.6c-0.3-0.3-0.7-0.4-1.1-0.4c-0.1,0-0.3-0.1-0.5-0.1
		c-1.8-0.2-3.6,0-5.5,0.2c-1.5,0.1-3.6,0.1-4.9,0.9c-1,0.6-1.9,2.2-2.8,3c-0.9,0.8-1.5,1.6-2,2.7c0,0,0,0.1,0,0.2
		c-0.1,0.1-0.1,0.2-0.2,0.3c0,0,0,0.1,0,0.2c0,0.2,0,0.4,0,0.5c0.1,0.7,0.1,1.5,0.2,2.3c0,0,0.6,0.2,1,0.4c-0.4,0.5-0.6,0.9-0.9,1.2
		c0,2.4,0,5-0.1,7.3c0,0,0,0.1-0.1,0.1c-0.7,3-0.9,6-0.6,9c0,0,0.1,0.1,0.2,0.2c0,0-0.1,0.1-0.2,0.1c0,0.4,0.1,0.8,0.1,1.2
		c0.3,2,0.3,5.7,1.8,7.3c1.9,2.1,5.4,3,8.1,3.3c1.7,0.2,3.4,0.3,5.1,0.2c0.4-0.5,0.7-0.9,1.1-1.4c0.1,0.3,0.3,0.6,0.6,1.2
		c1.6-0.4,3-1.2,4.5-1.5c0.4-0.1,0.6-0.4,0.7-0.7c0.3-0.2,0.5-0.6,0.4-1.1C114.2,37.7,115.1,33.7,114.3,29.8z M113.4,12.8
		c0.1,0,0.2,0.1,0.3,0.2c-0.1,0-0.3,0.1-0.4,0.1c0,0,0-0.2-0.1-0.3C113.3,12.8,113.4,12.8,113.4,12.8z M110.5,11.8l0,0.1h-0.1
		L110.5,11.8z M105,8.3l-0.1,0.1l0-0.1H105z M101.4,10.3c0,0,0.1,0.1,0.1,0.1l-0.1,0.1c0,0-0.1-0.1-0.1-0.1
		C101.3,10.4,101.4,10.3,101.4,10.3z M93.3,12.1c0,0-0.1-0.1-0.1-0.2c0,0,0.1-0.1,0.1-0.1c0,0,0.1,0.1,0.1,0.2
		C93.4,12,93.4,12,93.3,12.1z M92.9,30.2l-0.1-0.1l0.1,0V30.2z M98.9,16.9V17L98.8,17L98.9,16.9z M96.2,8.9c0.6,0.3,0.9,0.4,1.2,0.6
		c-0.6,0.3-1.2,0.6-1.8,0.9c-0.2,0-0.5-0.3-0.8-0.4C95.2,9.6,95.7,9.3,96.2,8.9z M94.8,36.3l-0.1-0.1c0,0,0.1-0.1,0.1-0.1
		c0,0,0.1,0.1,0.1,0.1C94.9,36.2,94.9,36.3,94.8,36.3z M95.7,31.2c-0.1,0-0.3-0.1-0.4-0.1c0,0,0.1-0.2,0.2-0.2
		c0.1,0,0.3,0.1,0.5,0.2C95.8,31.1,95.7,31.2,95.7,31.2z M96.3,37.3l0-0.1h0.1L96.3,37.3z M96.4,17c-0.1-0.1-0.2-0.3-0.2-0.5
		c0-0.1,0.1-0.2,0.2-0.3c0,0.1,0.1,0.3,0.2,0.4C96.5,16.7,96.5,16.8,96.4,17z M96.8,25.6c0.1-0.3,0.4-0.5,0.6-0.7
		c0.1,0.2,0.2,0.4,0.6,1c-0.2,0-0.5,0.2-0.7,0.1C97,26.1,96.7,25.7,96.8,25.6z M97.9,31.2c-0.3,0-0.6-0.1-1-0.1h0l0,0c0,0,0,0,0,0
		c0-0.4,0.1-0.8,0.2-1.2l0.1-0.1l0,0.1l0,0l0,0c0,0.4-0.1,0.8-0.2,1.2l0,0c0.3-0.2,0.7-0.3,1-0.5C97.9,30.8,97.9,31,97.9,31.2z
		 M98.9,40.7v-0.1l0.1,0.1L98.9,40.7z M98.9,21.1c0,0-0.2-0.1-0.2-0.1c0-0.1,0.1-0.3,0.1-0.4c0.1,0.1,0.2,0.2,0.2,0.3
		C99.1,21,98.9,21.1,98.9,21.1z M101.3,41.8l-1.1-1.4c0.1-0.1,0.2-0.2,0.4-0.3c0.4,0.5,0.7,1,1,1.4
		C101.6,41.6,101.3,41.8,101.3,41.8z M101.7,31.8c-0.1,0-0.3-0.1-0.4-0.2c0.1-0.1,0.3-0.2,0.4-0.2c0.1,0,0.3,0.1,0.4,0.2
		C102,31.7,101.9,31.8,101.7,31.8z M103.9,38.8c0,0-0.1-0.1-0.1-0.1c0-0.1,0.1-0.3,0.1-0.4c0.1,0.1,0.2,0.2,0.2,0.3
		C104.1,38.6,104,38.7,103.9,38.8z M105,42.9c0-0.1-0.1-0.2-0.1-0.4c0,0,0.1-0.1,0.1-0.1c0,0.1,0.1,0.3,0.1,0.4
		C105.2,42.7,105,42.8,105,42.9z M110.1,42.1c0,0-0.1,0-0.2,0c-0.3,0-0.6,0-0.8,0l0,0c0-0.1,0-0.2,0-0.3c0,0.1,0,0.2,0,0.3l0,0l0,0
		c0.3,0,0.5,0,0.8,0C109.9,42.1,110,42.1,110.1,42.1c-0.1-0.4-0.2-0.8-0.3-1.2c-0.3-0.3-0.7-0.6-1-0.9l0,0l0,0c0,0,0-0.1,0-0.1
		l-0.1-0.1c0,0,0.1,0,0.1,0v0l0.1,0.1l0,0c0.3,0.3,0.7,0.6,1,0.9l0,0l0,0C109.9,41.3,110,41.7,110.1,42.1L110.1,42.1z M111.2,42
		L111.2,42L111.2,42C111.2,42,111.2,42,111.2,42c-0.1-0.1-0.1-0.1-0.1-0.1c0,0,0-0.1,0-0.1C111.1,41.8,111.1,41.9,111.2,42
		C111.2,41.9,111.2,41.9,111.2,42c0.1,0,0.1,0,0.2,0C111.4,42,111.3,42,111.2,42z"/>
	<path class="st0" d="M127.7,5.6c-2.1-1.2-5.2-0.7-7.7-0.6c-0.4-0.1-0.8-0.1-1.2,0c-0.3,0.1-0.5,0.2-0.6,0.5c-0.2,0-0.4,0-0.6,0
		c-0.4,0-0.6,0.2-0.7,0.5c-0.5,0.2-0.8,0.6-1,1.2c-0.5,1.9,0.5,3.9,0.7,5.8c0,0,0,0,0,0c-0.2,1.1,0.6,1.9,1.8,1.7
		c1.8-0.3,3.1,0.3,4.9,0.4c1.8,0.1,3.3-0.2,4.9-0.7c0.5-0.1,1.1-0.7,1-1.3c-0.2-1.8-0.3-3.5-0.4-5.3C128.7,7,128.5,6,127.7,5.6z
		 M127.3,8.1c-0.2-0.1-0.4-0.2-0.6-0.3c0.1-0.1,0.3-0.3,0.4-0.2c0.2,0,0.4,0.2,0.6,0.3C127.6,8,127.5,8.1,127.3,8.1z"/>
	<path class="st0" d="M128.4,19.4c0.2-0.1,0.3-0.3,0.4-0.5c0.4-0.8-0.2-1.7-1.2-1.5c-0.4,0.1-0.8,0.1-1.3,0.2
		c-0.2,0-0.3,0.1-0.4,0.2c-1.3,0-3.3-0.2-4-0.2c-1.5-0.1-2.7,0-4.1,0.3c-0.3-0.4-0.9-0.5-1.2,0c-0.8,1.3-0.5,2.7-0.3,4.1
		c0,0.4,0.1,0.7,0.2,1.1c-0.1,3.1,0.2,4.2,0.3,7.3c0.1,3.3-0.3,6.7-0.4,10.1c-0.2,6,7.1,3.1,10.9,3.9c0.8,0.2,1.3-0.4,1.4-1.1
		c0.2-1.9,0.2-3.7,0-5.5C129.5,31.2,129.1,26.2,128.4,19.4z M116.8,21.4L116.8,21.4L116.8,21.4L116.8,21.4L116.8,21.4L116.8,21.4
		c-0.1-0.1-0.2-0.2-0.3-0.3C116.7,21.2,116.7,21.2,116.8,21.4L116.8,21.4C116.9,21.3,116.8,21.4,116.8,21.4z"/>
	<path class="st0" d="M154.9,10.6c0.1-1.6,0.2-3.2-0.1-4.8c-0.1-0.7-0.8-0.8-1.4-0.6c-0.2-0.1-0.5-0.3-0.8-0.3
		c-3.1-0.2-6.3-0.4-9.4-0.5c-2.3-0.1-4.6,0.3-6.8,0.7c-0.2,0-0.4,0-0.6-0.1c-1.5-0.2-2.9,0.2-4.3,0.5c-0.5-0.6-1.6-0.6-1.8,0.4
		c-0.4,2,0.4,4.1,0.5,6.1c0,3-0.1,5.8,0.6,8.8c0.1,0.4,0.5,0.6,0.8,0.5l0,0c0.1,0,0.2,0.1,0.3,0.1c2.5,0.1,5.1,0.2,7.6,0.3
		c0,0.3,0,0.6,0,0.9c-0.1,2.4-0.2,4.9-0.3,7.3c-0.1,1-0.2,2-0.1,3c0,0.2,0,0.4,0.2,0.6c0.1,3.5,0.5,6.9,0.3,10.4c0,0.5,0.5,1.1,1,1
		c0.1,0,0.2,0,0.3,0c0.3,0.2,0.6,0.3,1,0.1c0.5-0.1,0.9-0.3,1.3-0.4c1.1,0.3,2,0.2,3-0.3c0.6-0.3,0.6-1.3,0.1-1.7
		c0-0.1,0-0.3,0.1-0.4c0.1-1.2-0.1-2.5-0.1-3.7c0-1.7,0.3-3.9-0.3-5.5c0.2-3.7,0.5-7.4,0.3-11.1c2.4,0,4.9,0,7.2,0.4
		c0.4,0.1,0.9-0.1,1.1-0.6c0.5-2.2,0.6-4.2,0.6-6.5c0-1,0.3-2,0.2-3C155.2,11.8,155.1,11.2,154.9,10.6z M132.7,20.6l0-0.2h0.2
		L132.7,20.6z M136.6,12c-0.3,0.1-0.7,0.1-1,0.1l0,0c0,0-0.1-0.1-0.1-0.2c0-0.1,0.1-0.3,0.1-0.4l0,0l0,0l0,0l0,0
		c0.3-0.1,0.6-0.3,1-0.4C136.6,11.5,136.7,12,136.6,12z M137.7,13.3c-0.2-0.1-0.6-0.3-0.5-0.4c0-0.2,0.2-0.6,0.4-0.6
		c0.2,0,0.4,0.2,0.6,0.4C138,12.9,137.9,13,137.7,13.3z M142.8,16.9l0.1-0.2l0.1,0.2H142.8z M151.2,13.6L151.2,13.6
		c0-0.1,0.1-0.2,0.2-0.3C151.3,13.4,151.3,13.5,151.2,13.6L151.2,13.6C151.2,13.7,151.2,13.7,151.2,13.6L151.2,13.6
		c0,0.1,0,0.2,0,0.2c0,0-0.1,0-0.1,0C151.1,13.8,151.1,13.7,151.2,13.6C151.1,13.7,151.1,13.7,151.2,13.6z M151.2,15.1
		c-0.1,0-0.3-0.1-0.4-0.2c0,0,0.1-0.2,0.2-0.1c0.1,0,0.3,0.1,0.4,0.2C151.4,15,151.3,15.1,151.2,15.1z M153.4,18.6
		c0-0.1-0.1-0.1-0.1-0.2c0,0,0.1,0,0.2,0.1C153.5,18.5,153.4,18.5,153.4,18.6z M154.2,11.7c-0.1,0-0.2-0.2-0.4-0.3
		c0.1,0,0.2-0.1,0.3-0.2c0.1,0.1,0.2,0.2,0.4,0.3C154.4,11.6,154.2,11.7,154.2,11.7z"/>
	<path class="st0" d="M179.5,10.4c0-1.6,0.2-3.2,0.1-4.7c0-0.5-0.4-0.9-0.9-0.9c-0.3,0-0.6,0-0.8,0c-0.1,0-0.2-0.1-0.4-0.1
		c-1.2,0-2.3-0.1-3.4,0c-0.6,0-0.8,0.7-0.5,1.2c-0.5,1.5-0.2,3.2-0.1,4.8c0,0,0-0.1,0.1-0.2c0.1,0,0.2,0.1,0.3,0.2
		c-0.1,0.1-0.1,0.2-0.2,0.4c-0.1-0.1-0.2-0.2-0.2-0.3c0,0.2,0,0.5,0,0.6c0.1,2.5-0.1,5-0.1,7.6l0,0h0.1l-0.1,0l0,0l0,0
		c0,0.1,0,0.1,0,0.2c-0.5,0-1,0-1.4-0.1c-0.6,0-1.2-0.1-1.8-0.3c-0.8-1.5-0.5-3.9-0.5-5.3c0-2.4,0-4.9-0.2-7.3c0,0,0,0,0,0
		c0-0.1,0.1-0.3,0.1-0.5c0-0.4-0.1-0.8-0.5-0.9c-2.4-0.5-4.8-0.5-7.1,0.1c-0.2,0-0.3,0.1-0.4,0.2c-1.5-0.1-3-0.2-4.4,0
		c-0.4,0-0.6,0.4-0.5,0.8c-1.3,2.4-0.4,5.7-0.1,8.3c0.4,3.5-0.7,6.7,0.6,10.1c0.8,2.1,4.5,2.4,6.3,3.1c1.4,0.5,3.4,0.3,4.8,0.4
		c1.1,0.1,2.1,0.2,3.1,0.4c0,0.2,0,0.5,0,0.8c0,0.2,0,0.5,0,0.8c-3-0.1-6,0.7-9,0.7c-1.1,0-4.7-0.4-5.2,1.2
		c-0.3,1.1-0.4,2.3-0.5,3.5c-0.1,0-0.1,0.1-0.1,0.2c0,0.4,0.1,0.8,0.1,1.2c0,0.5,0,0.9,0,1.4c0.1,1.4,0,3,0.4,4.4
		c0,0.4,0,0.8,0.1,1.2c0,0.3,0.2,0.6,0.6,0.6c6.6,0.4,13.5,0.5,20.1,0.5c0.6,0,1-0.3,1.2-0.7c0.2-0.2,0.4-0.4,0.4-0.8
		C179.3,32.2,180.7,21.2,179.5,10.4z M157.6,11.4c-0.1,0.2-0.4,0.5-0.8,1c0-0.6,0-0.8,0.1-0.9c0.1-0.2,0.4-0.4,0.6-0.5
		C157.5,11.1,157.6,11.3,157.6,11.4z M158.6,18.7c-0.1,0-0.1-0.1-0.2-0.2c0,0,0.1-0.1,0.1-0.1c0,0,0.1,0.1,0.1,0.1L158.6,18.7z
		 M158.9,9.1c-0.1,0-0.4-0.4-0.4-0.5c0.1-0.3,0.4-0.5,0.6-0.7c0.2,0.2,0.4,0.5,0.8,0.9C159.4,9,159.2,9.1,158.9,9.1z M160.5,14.6
		c0-0.1-0.1-0.2-0.1-0.4c0,0,0.1-0.1,0.1-0.1c0,0,0.2,0.1,0.2,0.2C160.7,14.4,160.6,14.5,160.5,14.6z M161.1,13.1
		c0,0-0.2-0.1-0.2-0.2c0,0,0.1-0.1,0.1-0.1c0.1,0,0.3,0.1,0.4,0.1C161.4,12.9,161.3,13.1,161.1,13.1z M165.6,21.1
		c0,0-0.1-0.1-0.1-0.1c0-0.1,0.1-0.2,0.2-0.4c0,0,0.1,0.1,0.1,0.2C165.7,20.9,165.7,21,165.6,21.1z M170.5,20c0,0-0.1-0.1-0.1-0.1
		c0.1,0,0.2,0,0.3,0C170.6,20,170.6,20,170.5,20z M158,40.2l0.1-0.1l0,0.1H158z M159.3,42.5L159.3,42.5L159.3,42.5
		c0,0.4-0.1,0.8-0.1,1.2c-0.1,0-0.2-0.1-0.4-0.2C159,43.2,159.1,42.9,159.3,42.5C159.3,42.6,159.3,42.6,159.3,42.5
		c0,0-0.1-0.1-0.1-0.2c0,0,0-0.1,0.1-0.1C159.3,42.4,159.3,42.4,159.3,42.5L159.3,42.5z M163.1,31.5v0.1l-0.1-0.1L163.1,31.5z
		 M163,35.2l0.1-0.1l0,0.2L163,35.2z M172.3,21.1c-0.1,0-0.3-0.1-0.3-0.2s0.1-0.2,0.2-0.4c0.1,0.1,0.2,0.2,0.3,0.3
		C172.4,21,172.4,21.1,172.3,21.1z M172.7,29.2l-0.1-0.1l0.1,0V29.2z M178.6,14.1c-0.2,0-0.6-0.4-0.6-0.6c0-0.3,0.4-0.6,0.6-0.9
		c0.2,0.2,0.4,0.5,0.7,0.8C178.9,13.8,178.7,14.1,178.6,14.1z"/>
	<g>
		<path class="st0" d="M22.9,30.6c0.8-3.6,0-7.3-0.1-10.8C22.6,15.6,22.1,11,22.6,7c0.1-0.8-0.3-1.2-0.8-1.3c-1.8-1.6-6.7,0-8.5-0.1
			c-2-0.1-7.8-0.9-7,2.8v0c-0.2,3-0.1,5.9,0,8.9c-0.1,0.6-0.2,1.1-0.2,1.7c0,0.6,0.6,1.3,1.2,1.2c1.6-0.1,3.1-0.2,4.7-0.3
			c0-0.1,0.1-0.1,0.1-0.2c0.1,0,0.2,0.1,0.4,0.2c0.8-0.1,1.7-0.2,2.5-0.3c0,0,0,0,0.1,0c0,0,0,0,0,0c0.4,0.9,0.6,4.2,0.6,7.9
			c-0.2,1.6-0.2,3.2-0.1,4.9c-0.2,0.5-0.3,1-0.4,1.4c-0.6,2.1-3.2,2.7-3.8-0.1c0,0,0,0-0.1,0c0,0,0,0,0.1,0c0-0.2-0.1-0.5-0.1-0.7
			c-0.1-2.3,0.7-4.6,0.6-6.9c0-0.4-0.3-0.7-0.6-0.9c-0.7-0.2-1.5-0.5-2.2-0.8C8.7,24,8.1,24.4,8,24.9c-0.5-0.1-0.9-0.2-1.4-0.2
			c-0.3,0-0.6,0-0.9,0c0.1,0,0.2,0.1,0.2,0.1c-0.2,0.1-0.3,0.3-0.5,0.3c-0.2,0-0.4-0.2-0.6-0.4c0,0,0,0,0.1,0
			c-1.4,0.1-2.9,0.4-4.3,0.5c-0.4,0-0.8,0.3-0.7,0.7c0.2,3.2,0.2,6.3,0.2,9.5c0,1.3-0.2,2.9,0,4.2c-0.9,7.6,13,4.5,17.2,3.8
			C23.7,42.4,21.9,35,22.9,30.6z M20.1,41.1l0,0.2H20L20.1,41.1z M17.8,27.5c0.4,0.3,0.7,0.5,0.7,0.6c0,0.3-0.2,0.6-0.3,0.8
			c-0.2-0.1-0.5-0.2-0.5-0.4C17.6,28.2,17.8,27.9,17.8,27.5z M7.9,16.4c-0.3-0.1-0.5-0.5-0.7-0.8c0.3-0.2,0.6-0.5,0.8-0.5
			c0.2,0,0.5,0.4,0.8,0.6C8.4,16.1,8,16.4,7.9,16.4z M8.7,8.3C8.5,8.2,8.3,8.1,8.3,8c0,0,0.1-0.3,0.2-0.4C8.6,7.6,8.8,7.7,9,7.8
			C8.9,8,8.8,8.1,8.7,8.3z M9.4,11.7l0.1-0.1l0,0.1H9.4z M11.9,8.6v0.1l-0.1-0.1L11.9,8.6z M11.6,10c0,0.1,0,0.1,0,0.2
			c0,0-0.1,0-0.2,0s0-0.1-0.1-0.2C11.4,10,11.5,10,11.6,10z M11.6,18.2c0,0-0.2-0.1-0.3-0.1c0.1-0.2,0.2-0.4,0.3-0.6
			c0.1,0.2,0.3,0.3,0.3,0.3C11.9,18,11.7,18.2,11.6,18.2z M12.2,16.4c-0.1,0-0.2-0.1-0.3-0.2c0,0,0.1-0.1,0.1-0.1
			c0.1,0,0.2,0.1,0.3,0.2C12.3,16.3,12.2,16.4,12.2,16.4z M13.3,18.5L13.3,18.5c0,0-0.1,0.1-0.1,0.1C13.2,18.6,13.2,18.5,13.3,18.5
			c0-0.1,0-0.1,0-0.2c0.1-0.2,0.1-0.4,0.2-0.6c0,0,0.1,0.1,0.2,0.1c-0.1,0.1-0.3,0.3-0.4,0.5C13.3,18.4,13.3,18.5,13.3,18.5z
			 M6.7,40.3c-0.3,0.4-0.6,0.7-0.9,1.1c-0.1-0.1-0.3-0.3-0.2-0.4c0.3-0.3,0.6-0.6,0.9-0.9C6.8,40.1,7,40,7.2,40
			C7.1,40.1,6.9,40.2,6.7,40.3z M13,41.3c0,0-0.1,0-0.1,0c0,0,0-0.1,0-0.2c0,0,0.1,0,0.1,0C13.1,41.3,13,41.3,13,41.3z"/>
		<path class="st0" d="M88,7.6c0-0.1-0.1-0.2-0.1-0.3c0-0.5-0.2-0.9-0.6-1.1c-0.8-0.4-1.6-0.4-2.5-0.6c-1-0.1-1.9-0.3-2.9,0
			c0,0-0.1,0-0.2,0.1c-1.5-0.2-3.1,0.1-4.7,0c-1.2,0-2.2,0-3.3,0.2c-1,0.1-1.6,0.7-2.4,1.1c-0.5,0.2-0.6,0.9-0.6,1.3
			c0.4,1.2,0.5,3,0.4,4.7c0,0.6-0.1,1.2-0.2,1.8c-0.6,2-0.7,4.3-0.9,6.4c0,0.1,0,0.3,0,0.4c-0.3-0.9-0.6-1.7-0.9-2.5
			c-1.1-3.6-2.4-7-3.5-10.5c0-0.1,0-0.3,0-0.5c-0.1-0.5-0.1-1-0.2-1.5c-0.1-0.9-0.7-1.5-1.6-1.6c-2.5-0.2-5.1,0-7.6,0.2c0,0,0,0,0,0
			c0,0-0.1,0-0.2,0.1c0,0-0.1,0-0.2,0c0,0,0,0,0,0c-1.2,0.1-2.4,0.2-3.5,0.4c-0.1-0.1-0.3-0.1-0.4,0c-0.5,0.1-0.8,0.5-0.6,1
			c0.1,0.5,0.2,0.6,0.3,0.8c-1.4,9.5-0.3,19.7-0.2,29.2c0,1.9-1,6.4,0.5,7.9c0.9,0.9,2.4,1.4,3.6,1.2c0.4,0,0.7-0.1,1-0.3
			c0.3-0.1,0.6-0.4,0.8-0.6c0.4-0.4,0.3-1.1-0.1-1.4c0.6-3.4,0.1-7,0.4-10.4c0.4-4.5,0-8.9-0.4-13.4c-0.2,0.1-0.4,0.1-0.6,0.2
			c0-0.1-0.2-0.4-0.1-0.4c0.2-0.1,0.5-0.3,0.7-0.4c0-0.1,0-0.2,0-0.3c0,0.1,0,0.2,0.1,0.3l0,0c0,0.1,0.1,0.2,0.2,0.5c0,0,0,0-0.1,0
			c0.6,2.2,1.2,4.4,1.9,6.5c1.1,3.3,1.8,6.8,2.4,10.3c0.4,2,0.4,6.6,1.8,8.1l0,0c0.2-0.2,0.4-0.3,0.6-0.5c0,0,0-0.1,0.1-0.2l0,0l0,0
			v-0.1l0,0.2c0,0-0.1,0.1-0.1,0.1c-0.1,0.2-0.2,0.5-0.3,0.7c1.8,1.7,3.6,0.6,5.6,0c0.5-0.2,0.9-0.6,0.9-1.2c0-1.6,1.5-4.1,1.9-5.8
			c0.5-2.1,0.7-4.3,1.1-6.5c0.6-3.2,1-6.5,1.6-9.7c-0.1,2.7-0.2,5.3-0.4,8c-0.4,4.7-1.2,9.6,0.2,14.2c0.1,0.5,0.6,1,1.2,0.9
			c3.4-0.4,7.6-0.9,11-0.5c0.4,0,0.6-0.2,0.7-0.5c0.4-0.1,0.7-0.6,0.5-1c-0.4-1.1-0.4-2.2-0.3-3.4c0.2-0.2,0.4-0.5,0.4-0.8
			c0.1-1.2,0-2.3,0-3.5c0-4.7,0.3-9.5,0.1-14.2c-0.1-2.4-0.4-4.9-0.3-7.3C88.1,11.6,88.8,9.6,88,7.6z M55.2,12.9L55.2,12.9
			c-0.1,0.1-0.2,0.2-0.4,0.3c0,0,0.1-0.1,0.1-0.2C55.1,13,55.1,13,55.2,12.9C55.2,12.9,55.2,12.9,55.2,12.9
			C55.3,12.9,55.2,12.9,55.2,12.9z M56.2,11.5c-0.1,0.1-0.1,0.2-0.2,0.3C56,11.6,56.1,11.6,56.2,11.5c0-0.2,0.1-0.3,0.1-0.4
			C56.3,11.2,56.3,11.3,56.2,11.5z M56.9,8.1L56.9,8L57,8.2L56.9,8.1z M58.5,21.9c0,0-0.1-0.1-0.1-0.1c0,0,0.1-0.1,0.1-0.1
			s0.1,0.1,0.1,0.1C58.6,21.8,58.5,21.9,58.5,21.9z M59.7,26.9c0,0,0-0.1,0-0.1c0.1,0,0.2,0,0.3,0.1C59.8,26.9,59.7,26.9,59.7,26.9z
			 M59.9,19.5l-0.1-0.2H60L59.9,19.5z M61.8,22.4c0,0-0.1,0-0.2,0c0,0,0-0.1,0-0.1c0,0,0.1,0,0.2,0C61.8,22.3,61.8,22.4,61.8,22.4z
			 M61.9,36l0.1-0.1l0,0.2L61.9,36z M62.5,24.9l0-0.1h0.1L62.5,24.9z M63.3,36.1c-0.1,0-0.3-0.1-0.4-0.1c0.1-0.1,0.2-0.2,0.3-0.2
			c0.1,0,0.2,0.1,0.3,0.2C63.4,36,63.4,36.1,63.3,36.1z M63.5,27.6c0-0.1-0.1-0.2-0.2-0.4c0,0,0.1-0.1,0.1-0.2c0,0,0.2,0.1,0.2,0.1
			C63.6,27.3,63.6,27.4,63.5,27.6z M64.1,10.9c-0.3-0.3-0.6-0.6-0.9-1l0,0l-0.1,0l0.1,0l0,0l0,0l1.2,0.7
			C64.3,10.7,64.1,10.9,64.1,10.9z M67,16.8c-0.1-0.1-0.3-0.2-0.4-0.3c0-0.1,0-0.2,0-0.4c0.2,0.1,0.4,0.1,0.4,0.2
			C67.2,16.4,67,16.6,67,16.8z M68.5,27.4l0.1-0.1l0,0.2L68.5,27.4z M69.7,26.9l-0.2,0c0,0,0-0.1,0-0.2c0,0,0.1,0,0.1,0
			C69.7,26.7,69.7,26.8,69.7,26.9z M70,33.5l0-0.1h0.1L70,33.5z M71.6,33c0,0-0.1-0.1-0.1-0.2c0,0,0.1-0.1,0.1-0.1
			c0,0,0.1,0.1,0.1,0.2C71.7,32.9,71.6,33,71.6,33z M72,18.9c0,0-0.1-0.1-0.2-0.1c0.1,0,0.1-0.1,0.2-0.1c0,0,0.1,0.1,0.1,0.1
			C72.1,18.8,72.1,18.9,72,18.9z M73.2,12.1l0,0.1h-0.1L73.2,12.1z M73.1,18.4c0,0-0.1-0.1-0.1-0.1c0,0,0.1-0.1,0.1-0.1
			c0,0,0.1,0.1,0.1,0.1C73.2,18.3,73.1,18.4,73.1,18.4z M74.7,13.2c0.2-0.1,0.4-0.2,0.7-0.4c0.3,0.3,0.5,0.6,0.7,0.9
			c-0.2,0.1-0.5,0.3-0.6,0.3C75.3,13.7,75,13.4,74.7,13.2z M74.9,24.7l0.2,0c0,0,0,0.1,0,0.2c0,0-0.1,0-0.2,0
			C74.9,24.9,74.9,24.8,74.9,24.7z M75.3,34c-0.1-0.6-0.3-1.2-0.4-1.8c0,0,0,0,0,0h0c0-0.1,0.1-0.3,0.1-0.4c0.1,0.1,0.3,0.2,0.5,0.3
			l0,0c0.1,0.2,0.4,0.4,0.4,0.6c0,0.5-0.1,0.9-0.1,1.4C75.7,34.1,75.3,34.1,75.3,34z M75.8,35.7C75.8,35.8,75.8,35.8,75.8,35.7
			C75.7,35.8,75.7,35.8,75.8,35.7C75.7,35.7,75.7,35.7,75.8,35.7L75.8,35.7L75.8,35.7C75.7,35.8,75.7,35.7,75.8,35.7L75.8,35.7
			c0.1,0,0.1,0,0.2,0C75.9,35.7,75.8,35.7,75.8,35.7z M75.8,21.9c-0.1,0-0.1-0.2-0.2-0.4c0.1,0,0.3-0.1,0.4-0.1
			c0.1,0.1,0.2,0.2,0.3,0.4C76,21.8,75.9,21.9,75.8,21.9z M76.9,25.3c-0.1-0.2-0.3-0.4-0.4-0.6c0,0,0.1-0.2,0.3-0.4
			c0.2,0.2,0.4,0.3,0.5,0.5C77.3,25,77,25.2,76.9,25.3z M77.3,22.9c-0.1-0.2-0.2-0.4-0.3-0.5c0.1,0,0.3-0.2,0.4-0.1
			c0.1,0,0.1,0.3,0.2,0.4C77.6,22.7,77.4,22.8,77.3,22.9z M77.7,6.2l-0.1-0.1l0.1,0V6.2z M78.6,44c-0.3-0.1-0.6-0.5-0.8-0.7
			c0.3-0.3,0.6-0.8,0.8-0.7c0.4,0.1,0.6,0.5,1.2,1.1C79.2,43.8,78.8,44,78.6,44z M80.1,29c0,0-0.1-0.1-0.1-0.1s0.1-0.1,0.1-0.1
			c0,0,0.1,0.1,0.1,0.1C80.2,28.9,80.2,28.9,80.1,29z M81.2,41c0-0.1,0.1-0.2,0.1-0.3c0,0.1,0,0.1,0.1,0.2
			C81.2,40.9,81.2,40.9,81.2,41z M82.4,26.6L82.4,26.6c-0.2-0.2-0.4-0.5-0.6-0.7c0.1-0.1,0.2-0.1,0.3-0.2c0.1,0.3,0.3,0.5,0.4,0.8
			l0,0c0.1,0.1,0.2,0.3,0.3,0.4C82.7,26.9,82.5,26.8,82.4,26.6z M83.1,29.1c-0.1,0-0.1,0-0.2,0C83,29.1,83,29.1,83.1,29.1
			c0-0.1,0-0.1,0-0.1C83.1,29,83.1,29,83.1,29.1L83.1,29.1L83.1,29.1z M84.8,40.6c-0.1,0-0.2,0-0.3-0.1c0,0,0.1-0.1,0.2-0.1
			c0,0,0.1,0,0.2,0.1C84.8,40.5,84.8,40.5,84.8,40.6z M85,36.5c-0.1-0.1-0.3-0.2-0.3-0.2c0.2-0.4,0.4-0.7,0.6-1.1l0-0.2l0,0
			c0.1,0,0.1,0,0.2,0c0,0-0.1,0-0.2,0c0,0,0,0.1-0.1,0.1L85,36.5z M86.4,42.6c-0.1-0.3-0.2-0.5-0.3-0.8c0,0-0.1,0-0.1-0.1
			c0,0,0-0.1,0-0.2c-0.1-0.4-0.3-0.7-0.4-1.1c0.1,0,0.3-0.1,0.4-0.1c0,0.4,0,0.8,0,1.2c0,0,0,0.1,0,0.1l0,0c0,0,0,0.1,0,0.1
			c0.2,0.2,0.4,0.4,0.6,0.6C86.6,42.5,86.5,42.6,86.4,42.6z M86.5,39.2c0,0-0.2-0.2-0.3-0.4c0.2-0.1,0.4-0.3,0.6-0.4
			c0.1,0.1,0.1,0.2,0.3,0.4C86.9,38.9,86.7,39.1,86.5,39.2z M87.5,36.2L87.5,36.2L87.5,36.2L87.5,36.2c0,0,0,0.1,0,0.1
			C87.5,36.3,87.5,36.2,87.5,36.2z"/>
		<path class="st0" d="M49,36.7c-1.6-3.4-0.5-8.1-0.9-11.8c-0.4-3.7-0.3-7.1-0.2-10.9c0-2.8,0-5.9-1.1-8.4c-0.4-0.9-1.2-0.9-1.8-0.6
			c-2.8-1.8-5-0.2-8.1,0c-3.4,0.2-6.8-1.3-10,0c-0.4,0.2-0.8,0.5-0.7,1c0,0.2,0,0.4,0,0.5c-0.6,1.5-0.8,3.2-0.9,4.8c0,0,0,0,0,0l0,0
			c-0.2,2.9,0.1,5.9,0.1,8.7c0.1,5.9-0.9,12-1.3,17.9c-0.1,1.7-1.4,6.5,1.2,7c3.5,0.7,7-0.4,10.4-0.8c0.9,0.1,1.7,0,2.6,0
			c0.6,0.3,1.3-0.1,1.3-0.8c-0.1-1.8-0.3-3.5-0.3-5.3c0-1.2-0.3-3.1,1.3-3.2c0.6,0,1.2,0,1.8,0c-0.5,1.5-0.1,3.2,0.4,4.9
			c0,1.5,0.2,2.9,0.8,4.2l0,0c-0.1,1,1.1,1.2,1.7,0.6c1.2-0.4,2.4-0.5,3.7-0.6c0.5,0,1-0.4,1-1C49.9,41.3,49.8,38.6,49,36.7z
			 M28,26.2c0.1,0,0.2,0.1,0.3,0.2c0,0,0,0.2,0,0.2c-0.1,0-0.2,0-0.3,0C28,26.5,28,26.3,28,26.2z M26.1,42.9c0-0.2-0.2-0.5-0.1-0.6
			c0.7-1,1.4-2,2.2-2.9c0.1-0.1,0.8,0.1,0.9,0.3C29.5,40.5,27.3,43,26.1,42.9z M31.2,31.9v-0.1l0.1,0.1L31.2,31.9z M34.2,15.1
			c0-0.1-0.2-0.3-0.2-0.4c0-0.1,0.1-0.2,0.2-0.4c0.1,0.1,0.2,0.3,0.2,0.4C34.4,14.9,34.3,15,34.2,15.1z M36.2,38l-0.1-0.1l0.1,0
			L36.2,38z M36.7,37l0-0.1L36.7,37L36.7,37z M39,36.2L39,36.2C39,36.3,39.1,36.2,39,36.2C39.1,36.2,39,36.2,39,36.2z M46.3,35.9
			l0,0.1h-0.1L46.3,35.9z M39.3,16.9c0-0.2-0.1-0.4-0.1-0.5c0.1-0.1,0.4-0.2,0.6-0.3c0,0.1,0,0.3,0.1,0.5
			C39.7,16.7,39.5,16.8,39.3,16.9z M42.4,29.2v1.2l-0.8,0.8h-2v-4.8l0.1-2.2l1.8-0.1l0.7,0.4l0.1,1.4C42.4,26,42.4,29.2,42.4,29.2z
			 M42.5,23.8c-0.1-0.1-0.2-0.3-0.3-0.5c0.1,0,0.3-0.1,0.4-0.1c0.1,0,0.1,0.2,0.2,0.3C42.7,23.6,42.6,23.7,42.5,23.8z M44,7.1
			c-0.3-0.1-0.5-0.3-0.7-0.5c0.1-0.2,0.3-0.4,0.5-0.7c0.3,0.3,0.5,0.5,0.6,0.7C44.4,6.8,44,7.2,44,7.1z M45.4,43.4
			c0-0.1-0.1-0.2-0.2-0.3c0,0,0.1-0.2,0.1-0.1c0.1,0,0.2,0.1,0.4,0.2C45.6,43.2,45.6,43.3,45.4,43.4z M46.4,42.1
			c-0.6,0-1.3-0.1-2.1-0.2c0.3-0.3,0.6-0.7,0.8-0.6c0.6,0.1,1.2,0.4,1.7,0.6C46.7,41.9,46.5,42.2,46.4,42.1z"/>
	</g>
</g>
</svg>
