<?xml version="1.0" encoding="utf-8"?>
<!-- Generator: Adobe Illustrator 21.0.0, SVG Export Plug-In . SVG Version: 6.00 Build 0)  -->
<svg version="1.1" id="Layer_1" xmlns="http://www.w3.org/2000/svg" xmlns:xlink="http://www.w3.org/1999/xlink" x="0px" y="0px"
	 viewBox="0 0 180 50" style="enable-background:new 0 0 180 50;" xml:space="preserve">
<style type="text/css">
	.st0{}
</style>
<g>
	<path class="st0" d="M29.8,3.8c0.5,0.4,1.1,0.7,1.5,1.2c2.4,3.2,2.2,5.8-1.7,7.8c-1.8,0.9-3.5,2.2-5.5,2.9
		c-2.1,0.8-2.6,2.1-2.6,4.1c0.1,7.2,0,14.3,0.1,21.5c0,2.2-0.5,3.8-2.7,4.4c-0.1,0-0.2,0.4-0.3,0.6c-0.7,0-1.5,0-2.2,0
		c-3.5-2.7-3.7-3.1-3.7-7.7c0-4.7,0-9.4,0-14.1c0-2.4,0-2.4-2.3-1.3c-0.8,0.4-1.6,0.9-2.4,1.3c-0.8,0.4-1.7,0.8-2.6,0.9
		c-2.2,0.3-3.5-0.5-5.4-2.9c0-0.7,0-1.5,0-2.2c1.3-0.8,1.7-2.2,3.1-3.1c4.3-2.7,9.1-4.6,13.4-7.3c1.7-1,3.6-1.6,5.1-2.8
		c1.6-1.3,4-1.2,5.2-3.2C27.8,3.8,28.8,3.8,29.8,3.8z"/>
	<path class="st0" d="M180,41c-1.1,1-2.5,0.7-3.8,0.8c-1.1,0.1-1.5-0.3-1.5-1.4c0.1-5.3,0-10.7,0-16c0-0.4-0.3-0.8-0.4-1.1
		c-0.3,0.4-0.7,0.7-1,1.1c-0.1,0.2,0,0.5,0,0.7c0,1.4-0.5,2.8-0.6,4.2c-0.5,4-1.8,7.8-2.4,11.7c0,0.3-0.5,0.8-0.8,0.8
		c-0.7,0.1-1.5,0.1-2.2,0c-0.2,0-0.6-0.4-0.6-0.7c-0.3-1.4-0.5-2.8-0.8-4.1c-0.2-1.4-0.5-2.8-0.8-4.1c-0.2-0.9-0.5-1.8-0.7-2.7
		c-0.4-2-1-3.9-0.8-6c0-0.3-0.5-0.6-0.7-0.9c-0.2,0.3-0.7,0.7-0.7,1c-0.1,2.4,0,4.7,0,7.1c0,3.1,0,6.2,0,9.3c0,0.9-0.2,1.4-1.2,1.3
		c-0.6-0.1-1.2-0.1-1.9,0c-1.2,0.1-1.4-0.3-1.4-1.4c0-7.1,0-14.1,0-21.2c0-1.1,0.1-2.2,0-3.3c-0.1-1-0.3-2-0.5-2.9
		c1.1,0,2.2-0.1,3.3-0.1c1,0,2,0.2,3-0.1c1.7-0.5,1.9,1,2.2,1.7c0.6,1.5,0.9,3.2,1,4.8c0.1,2.5,1.3,4.7,1.6,7.2
		c0,0.2,0.6,0.5,0.8,0.4c0.2,0,0.6-0.5,0.6-0.7c-0.6-3.8,1.8-7.2,1.6-10.9c0-0.7,0.3-1.7,0.9-2.2c0.4-0.4,1.4-0.3,2.1-0.3
		c2,0,4,0,5.9,0c0,0.2,0,0.5,0,0.7c-0.2,0.2-0.7,0.4-0.7,0.6c0,8.5,0,17.1,0,25.6c0,0.2,0.5,0.4,0.7,0.6C180,40.5,180,40.7,180,41z"
		/>
	<path class="st0" d="M58.8,33.7c-0.1,1.6,0,2.9-0.7,4.4c-1.1,2.4-2.2,3.6-4.5,3.7c-1.6,0.1-3.2,0.2-4.8,0c-1.6-0.2-3.9-3.6-4.1-5.6
		c-0.1-0.7,0-1.5,0-2.2c-0.1-0.8,0.3-1.1,1.1-1c0.5,0,1,0,1.5,0c1.2-0.1,2.2-0.1,2,1.6c-0.2,1.2,0.4,2.4,1.5,2.8
		c1.3,0.4,2.4-0.2,3.1-1.3c0.8-1.1,0.7-2.1,0-3.3c-0.8-1.5-1.8-2.7-3.3-3.5c-0.9-0.5-1.9-1-2.6-1.7c-0.7-0.6-1.2-1.5-1.7-2.3
		c-1-1.5-1.3-1.5-2.2,0.3c-2,4.1-4.1,8.2-5.9,12.4c-0.6,1.5-1.3,2.8-2.6,3.8C33.7,42.9,31,42,29.7,40c-1.9-3-2.4-6.4-3.7-9.6
		c-1-2.6-1.7-5.3-2.5-7.9c-1-2.9-0.4-4.3,2.4-5.6c2.3-1,4-0.4,5.3,2.2c0.7,1.3,1.2,2.7,1.9,4.1c0.2,0.5,0.5,0.9,0.8,1.4
		c0.3-0.5,0.8-0.9,1-1.4C38,17.6,41.3,12.3,46,8c0.5-0.5,1.1-1.1,1.7-1.2c1.1-0.2,2.5-0.4,3.2,0.1c1.2,1,3,1.9,2.6,4.1
		c-0.2,1-0.1,1.7,1.4,1.8c2.3,0.2,2.1,2.8,3,4.4c0.1,0.2,0,0.5,0,0.7c-0.1,1,0.1,2.6-0.3,2.7c-1.1,0.4-2.4,0.2-3.6,0.2
		c-0.2,0-0.4-0.5-0.5-0.8c-0.1-0.5,0.1-1,0-1.5c-0.3-1.1-2-2.4-2.6-2.1c-1.3,0.6-1.9,2.3-1.6,3.6c0.5,2.1,1.7,3.5,3.6,4.4
		c2.3,1.1,4.4,2.3,5.3,5.1C58.8,31.1,58.5,32.4,58.8,33.7z"/>
	<path class="st0" d="M61.7,27c0-4.2,0-8.4,0-12.6c0-1.6,0-1.7,1.9-1.7c2.6,0,5.2,0,7.8,0c0.9,0,1.9-0.2,2.7,0.8
		c0.8,1,1.7,2,1.8,3.4c0.1,2.7,0.1,5.4,0,8.2c-0.1,2-2.1,3.9-4.1,4.1c-0.4,0-0.7,0-1.1,0c-1.2,0.1-2.7-0.2-3.5,0.4
		c-0.5,0.4-0.2,2.1-0.2,3.2c0,2.6,0,5.2,0,7.8c0,0.9-0.1,1.4-1.2,1.3c-0.9-0.1-1.7-0.1-2.6,0c-1.1,0.1-1.5-0.2-1.5-1.4
		C61.8,35.9,61.7,31.5,61.7,27z M66.9,20.5c0,1.1,0,2.2,0,3.3c0,0.3,0.3,0.7,0.5,0.8c1.7,0.6,3.1-0.4,3.2-2.2c0-1.1,0.1-2.2,0-3.3
		c-0.1-1.5-0.9-2-2.8-1.9c-1.6,0.1-0.8,1.2-0.9,1.9C66.9,19.5,66.9,20,66.9,20.5z"/>
	<path class="st0" d="M87.8,27.2c0-4.5,0-8.9,0-13.4c0-0.8,0.2-1.1,1-1.1c3.8,0,7.7,0,11.5,0c0.3,0,0.8,0.5,0.8,0.8
		c0.1,0.9,0,1.7,0.1,2.6c0,0.8-0.3,1.1-1,1.1c-2,0-4,0-5.9,0c-1,0-1.3,0.3-1.2,1.3c0.1,2,0.1,3.9,0.1,5.9c1.9,0.1,3.9,0.2,5.8,0.3
		c1,0,0.9,0,0.8,1.3c-0.1,0.7-0.1,1.6,0.2,2.1c0.4,0.7,0.7,1-0.3,1c-1.9,0-3.7,0-5.6,0c-0.8,0-1,0.3-1,1.1c0,1.7,0.1,3.5,0,5.2
		c-0.1,1.1,0.4,1.2,1.3,1.2c1.4,0,2.7,0,4.1,0c2.9,0,2.9,0,2.8,3c-0.1,1.6-0.6,2.2-2.1,2.2c-3.3,0-6.7,0-10,0
		c-0.9,0-1.3-0.2-1.3-1.2C87.8,36.1,87.8,31.6,87.8,27.2z"/>
	<path class="st0" d="M118.3,27.3c0-4.5,0-8.9,0-13.4c0-0.9,0.2-1.3,1.2-1.3c3.7,0.1,7.4,0,11.1,0c1.4,0,1,0.4,0.4,1.1
		c-0.2,0.2,0,0.7-0.1,1.1c-0.1,0.8,0,1.4,0.7,1.9c-0.8,0.1-1.6,0.2-2.4,0.4c-0.2,0-0.5,0-0.7,0c-1.6,0-3.2,0.1-4.8,0.2
		c-0.1,1.8-0.2,3.7-0.2,5.5c0,1.1,0.7,1.8,1.8,1.8c1.2,0,2.5,0.1,3.7,0c1.1-0.1,1.2,0.4,1.2,1.3c-0.1,0.7,0,1.5,0,2.2
		c0.1,0.9-0.4,1-1.1,1c-1.1,0-2.2,0-3.3,0c-1.6,0-2.2,0.6-2.2,2.1c0,3.1,0,6.2,0,9.3c0,0.9-0.2,1.3-1.2,1.3c-1-0.1-2-0.1-3,0
		c-0.8,0-1.1-0.3-1-1.1C118.3,36.2,118.3,31.8,118.3,27.3z"/>
	<path class="st0" d="M142.8,27.2c0-4.3,0-8.7,0-13c0-0.5,0.1-1.3,0.2-1.3c1.6-0.1,3.1-0.1,4.7,0c0.1,0,0.2,0.9,0.2,1.3
		c0,6.7,0,13.4,0,20c0,2.2,0,2.2,2.4,2.3c0.1,0,0.2,0,0.4,0c4.1,0,4.1,0,3.9,4.1c0,0.7-0.1,1.1-1,1.1c-3.3,0-6.7,0-10,0
		c-0.9,0-0.9-0.5-0.9-1.2C142.8,36.1,142.8,31.7,142.8,27.2z"/>
	<path class="st0" d="M109.6,41.7c-1.5,0-3,0.1-4.4-0.1c-0.8-0.1-2.6-0.1-1.1-1.9c0.3-0.4,0-1.2,0-1.8c0-7.4,0-14.9,0-22.3
		c0-0.7,0-1.5-0.3-2.1c-0.2-0.5-0.7-0.8,0.2-0.9c0.4,0,0.7,0,1.1,0c1.3,0.1,2.7,0.1,4,0.2c-0.2,1.1-0.5,2.2-0.5,3.3
		c-0.1,6.3,0,12.6-0.1,18.9c0,1.2,0.4,1.4,1.5,1.4c1.5-0.1,3,0.1,4.4-0.1c1.5-0.2,1.7,0.5,1.5,1.7c0,0.4,0,0.7,0,1.1
		c-0.1,1.9-0.5,2.4-2.3,2.4C112.4,41.8,111,41.7,109.6,41.7z"/>
	<path class="st0" d="M78.8,26.8c0-4.3,0-8.7,0-13c0-0.7,0.1-1.2,1-1.1c0.1,0,0.2,0,0.4,0c3.9-0.1,3.9-0.1,3.9,3.8
		c0,7.9,0,15.8,0,23.8c0,1-0.1,1.5-1.3,1.5c-3.9,0-3.9,0.1-3.9-3.8C78.8,34.3,78.8,30.5,78.8,26.8z"/>
	<path class="st0" d="M139.1,27.2c0,4.3,0,8.7,0,13c0,0.5-0.1,1.3-0.2,1.3c-1.6,0.1-3.1,0.1-4.7,0c-0.1,0-0.2-0.6-0.2-1
		c0-8.9,0-17.8,0-26.7c0-0.3,0.1-1,0.2-1c1.6-0.1,3.1-0.1,4.7,0c0.1,0,0.2,0.9,0.2,1.3C139.1,18.6,139.1,22.9,139.1,27.2z"/>
</g>
</svg>
