<?xml version="1.0" encoding="utf-8"?>
<!-- Generator: Adobe Illustrator 21.0.0, SVG Export Plug-In . SVG Version: 6.00 Build 0)  -->
<svg version="1.1" id="Layer_1" xmlns="http://www.w3.org/2000/svg" xmlns:xlink="http://www.w3.org/1999/xlink" x="0px" y="0px"
	 viewBox="0 0 180 50" style="enable-background:new 0 0 180 50;" xml:space="preserve">
	 <style type="text/css">
	.st0{}
</style>
<g>
	<path class="st0" d="M101.4,34.3c1.8,0.4,3.6,0.4,5.3-0.7c3.8-2.3,5.1-7,2.9-10.8c-0.6-1-0.6-1.8-0.3-2.9c2.4-8.6-5.3-17.9-15-15.4
		c-0.5,0.1-0.7,0-1.1-0.3c-1.6-1.8-3.5-3.1-6-3.1c-3.3-0.1-6.3,2.1-7.6,5.6c-0.2,0.6-0.4,0.7-1,0.5c-3.7-1.3-7.8,1.2-7.5,5.6
		c0,0.6-0.2,0.9-0.6,1.3c-3.3,2.5-4.7,6.8-3.5,10.7c0.8,2.6,2.5,4.4,4.7,5.8c0.7,0.4,0.8,0.8,0.7,1.5c-0.3,1.2-0.1,2.4,0.4,3.6
		c1.8,3.7,6.6,4.6,9.9,1.8c0.4-0.3,0.6-0.3,1,0c1.9,1.6,4,3,6.5,2.9c4.3,0.1,7.5-1.5,9.6-5.2C100,34.4,100.4,34.1,101.4,34.3z
		 M99,30.6c-0.4-0.1-0.6-0.1-0.8,0.4c-0.4,0.9-0.8,1.9-1.3,2.8c-1.5,2.8-4,3.9-7.1,3.6c-2.1-0.1-3.5-1.5-4.9-2.9
		c-0.7-0.7-1.3-1.5-1.9-2.3c-0.6,0.7-1.1,1.4-1.6,2.1c-1,1.2-2.2,1.9-3.8,1.7c-1.6-0.2-2.7-1.6-2.4-3.2c0.1-1,0.5-1.9,0.7-2.9
		c0.1-0.4,0-0.6-0.4-0.7c-1.9-0.6-3.5-1.7-4.7-3.2c-2.2-2.8-1.7-7,1.1-9.3c0.6-0.5,1.4-0.9,2-1.4c0.2-0.2,0.3-0.5,0.3-0.7
		c0-0.7-0.2-1.4-0.2-2.1c0-1.6,1.3-2.7,2.8-2.4c0.8,0.1,1.5,0.5,2.2,0.9c0.8,0.5,1.6,1,2.5,1.6c0.2-1.2,0.3-2.3,0.5-3.3
		c0.2-1.3,0.6-2.6,1.6-3.6c1.8-1.8,4.4-1.9,6.3-0.2c0.8,0.7,1.3,1.6,2,2.4C92.3,8,92.5,8.1,92.9,8c0.8-0.2,1.6-0.5,2.4-0.6
		c3.7-0.8,6.9,0.3,9.2,3.3c2.4,3.1,2.9,6.5,1.3,10.1c-0.5,1.2-0.6,1.2,0.3,2.2c1.3,1.5,1.9,3.2,1.3,5.2c-0.5,2-2.3,3.5-4.3,3.3
		C101.7,31.4,100.4,30.9,99,30.6z"/>
	<path class="st0" d="M104.4,36.2c-2.5,0-4.5,2.1-4.5,4.6c0,2.5,2,4.5,4.5,4.5c2.5,0,4.6-2,4.6-4.5C109,38.2,106.9,36.2,104.4,36.2z M104.4,43
		c-1.2,0-2.2-1-2.2-2.3c0-1.2,1-2.3,2.2-2.3c1.2,0,2.3,1,2.3,2.2C106.7,41.9,105.7,43,104.4,43z"/>
	<path class="st0" d="M111.3,44.5c-1.3,0-2.3,1-2.3,2.3c0,1.3,1,2.3,2.3,2.3c1.3,0,2.2-1,2.2-2.3C113.5,45.5,112.6,44.5,111.3,44.5z"/>
	<path class="st0" d="M78,18.4c-1.6,0-2.8,1.3-2.8,2.8c0,1.6,1.3,2.8,2.8,2.8c1.6,0,2.8-1.3,2.8-2.8C80.8,19.7,79.5,18.4,78,18.4z"/>
	<path class="st0" d="M88.4,18.4c-1.6,0-2.8,1.3-2.8,2.8c0,1.6,1.2,2.8,2.8,2.8c1.5,0,2.8-1.3,2.8-2.8C91.2,19.7,90,18.4,88.4,18.4z"/>
	<path class="st0" d="M98.8,18.4c-1.6,0-2.8,1.2-2.8,2.8c0,1.6,1.2,2.9,2.8,2.8c1.5,0,2.8-1.3,2.8-2.8C101.6,19.7,100.4,18.4,98.8,18.4z"/>
</g>
</svg>
