<?xml version="1.0" encoding="utf-8"?>
<!-- Generator: Adobe Illustrator 21.0.0, SVG Export Plug-In . SVG Version: 6.00 Build 0)  -->
<svg version="1.1" id="motiv" xmlns="http://www.w3.org/2000/svg" xmlns:xlink="http://www.w3.org/1999/xlink" x="0px" y="0px"
	 viewBox="0 0 113.4 113.4" style="enable-background:new 0 0 113.4 113.4;" xml:space="preserve">
<style type="text/css">
	.st0{fill:#31C5F4;}
	.st1{fill:#0099CD;}
	.st2{fill:#FFFFFF;}
</style>
<g>
	<g>
		<path class="st0" d="M18.7,1.6C9.7,1.6,2.4,8.9,2.4,18v76.4c0,9,7.3,16.4,16.4,16.4h38.2V1.6H18.7z"/>
		<path class="st1" d="M95.1,1.6H56.9v109.1h38.2c9,0,16.4-7.3,16.4-16.4V18C111.5,8.9,104.1,1.6,95.1,1.6z"/>
	</g>
	<path class="st2" d="M71.2,51.1L56.9,10.8L42.6,51.1L13.3,26l13.2,70.9h60.9l0,0L100.5,26L71.2,51.1z M52.3,76.7l-15.9,9.2
		l9.2-26.1l7.7,6.6l-7.6,6.5L52.3,76.7z M53.7,72.2l3.3-2.8l3.3,2.8L56.9,74L53.7,72.2z M60.4,66.4l7.7-6.6l9.2,26.1l-15.9-9.2
		l6.6-3.8L60.4,66.4z M56.9,28l9.6,27.1l-9.6,8.2l-9.6-8.2L56.9,28z M20.2,38L41,55.8L29.5,88.3L20.2,38z M36.4,91.2l20.5-11.9
		l20.5,11.9H36.4z M84.3,88.3L72.8,55.8L93.7,38L84.3,88.3z"/>
</g>
</svg>
