<svg class="icon_1" data-name="icon 1" xmlns="http://www.w3.org/2000/svg" viewBox="0 0 40 40"><defs><style>.cls-1{}</style></defs><title>insta-icon</title><path class="cls-1" d="M20,3.6c5.34,0,6,0,8.08.12a11.07,11.07,0,0,1,3.71.69,6.2,6.2,0,0,1,2.3,1.5,6.2,6.2,0,0,1,1.5,2.3,11.07,11.07,0,0,1,.69,3.71c.1,2.11.12,2.74.12,8.08s0,6-.12,8.08a11.07,11.07,0,0,1-.69,3.71,6.62,6.62,0,0,1-3.8,3.8,11.07,11.07,0,0,1-3.71.69c-2.11.1-2.74.12-8.08.12s-6,0-8.08-.12a11.07,11.07,0,0,1-3.71-.69,6.2,6.2,0,0,1-2.3-1.5,6.2,6.2,0,0,1-1.5-2.3,11.07,11.07,0,0,1-.69-3.71C3.62,26,3.6,25.34,3.6,20s0-6,.12-8.08A11.07,11.07,0,0,1,4.41,8.2,6.2,6.2,0,0,1,5.9,5.9a6.2,6.2,0,0,1,2.3-1.5,11.07,11.07,0,0,1,3.71-.69C14,3.62,14.66,3.6,20,3.6M20,0c-5.43,0-6.11,0-8.25.12A14.68,14.68,0,0,0,6.9,1,9.8,9.8,0,0,0,3.36,3.36,9.8,9.8,0,0,0,1,6.9a14.68,14.68,0,0,0-.93,4.85C0,13.89,0,14.57,0,20s0,6.11.12,8.25A14.68,14.68,0,0,0,1,33.1a9.8,9.8,0,0,0,2.31,3.54A9.8,9.8,0,0,0,6.9,39a14.68,14.68,0,0,0,4.85.93c2.13.1,2.81.12,8.25.12s6.11,0,8.25-.12A14.68,14.68,0,0,0,33.1,39,10.23,10.23,0,0,0,39,33.1a14.68,14.68,0,0,0,.93-4.85C40,26.11,40,25.43,40,20s0-6.11-.12-8.25A14.68,14.68,0,0,0,39,6.9a9.8,9.8,0,0,0-2.31-3.54A9.8,9.8,0,0,0,33.1,1,14.68,14.68,0,0,0,28.25.12C26.11,0,25.43,0,20,0Z"/><path class="cls-1" d="M20,9.73A10.27,10.27,0,1,0,30.27,20,10.27,10.27,0,0,0,20,9.73Zm0,16.94A6.67,6.67,0,1,1,26.67,20,6.67,6.67,0,0,1,20,26.67Z"/><circle class="cls-1" cx="30.68" cy="9.32" r="2.4"/></svg>
