<svg id="icon_1" data-name="icon 1" xmlns="http://www.w3.org/2000/svg" viewBox="0 0 40 40"><defs><style>.cls-1{}</style></defs><title>in-icon</title><path class="cls-1" d="M37,0H3A2.92,2.92,0,0,0,0,2.88V37.11A2.92,2.92,0,0,0,3,40H37a2.93,2.93,0,0,0,3-2.89V2.88A2.92,2.92,0,0,0,37,0ZM11.87,34.09H5.93V15h5.94Zm-3-21.7a3.44,3.44,0,1,1,3.44-3.44A3.44,3.44,0,0,1,8.9,12.39Zm25.19,21.7H28.15V24.8c0-2.21,0-5.06-3.08-5.06s-3.56,2.41-3.56,4.9v9.44H15.59V15h5.69v2.61h.08A6.23,6.23,0,0,1,27,14.52c6,0,7.12,4,7.12,9.09Z"/></svg>
