<?xml version="1.0" encoding="utf-8"?>
<svg version="1.1" class="icon_1" xmlns="http://www.w3.org/2000/svg" xmlns:xlink="http://www.w3.org/1999/xlink" x="0px" y="0px"
	 viewBox="0 0 40 40" style="enable-background:new 0 0 40 40;" xml:space="preserve">
<style type="text/css">
	.st-shadow{opacity:0.12;enable-background:new    ;}
</style>
<title>yt-icon</title>
<g id="Layer_2">
	<path id="The_Sharpness" class="st-shadow" d="M15.9,13.9l9.5,6.3l1.3-0.7L15.9,13.9z"/>
</g>
<g>
	<path class="cls-1" d="M39.6,12c0,0-0.4-2.8-1.6-4c-1.1-1.1-2.5-1.7-4-1.7c-5.6-0.4-14-0.4-14-0.4l0,0c0,0-8.4,0-14,0.4C4.5,6.3,3.1,6.9,2,8
		c-1.2,1.2-1.6,4-1.6,4C0.2,14.1,0,16.3,0,18.5v3c0,2.2,0.1,4.4,0.4,6.5c0,0,0.4,2.7,1.6,4c1.5,1.6,3.5,1.5,4.4,1.7
		C9.6,34,20,34.1,20,34.1s8.4,0,14-0.4c1.5,0,2.9-0.6,4-1.7c1.2-1.2,1.6-4,1.6-4c0.2-2.1,0.4-4.3,0.4-6.5v-3
		C40,16.3,39.8,14.2,39.6,12z M15.9,25.2V13.9l10.8,5.6L15.9,25.2z"/>
</g>
</svg>
