<?xml version="1.0" encoding="utf-8"?>
<svg version="1.1" xmlns="http://www.w3.org/2000/svg" xmlns:xlink="http://www.w3.org/1999/xlink" x="0px" y="0px"
	 viewBox="0 0 800 250" style="enable-background:new 0 0 800 250;" xml:space="preserve">
<style type="text/css">
</style>
<g class="motiv-even">
	<g>
		<path class="path-cog" d="M193.9,241.6h-16.1c-7.8,0-14.1-6.3-14.1-14.1v-9.9c0-2-2-4.6-4.3-5.4c-2.7-0.9-5.4-2.1-8-3.3
			c-0.8-0.4-1.8-0.6-2.8-0.6c-1.6,0-3.1,0.5-4,1.4l-7,7c-2.7,2.7-6.2,4.1-10,4.1c-3.8,0-7.3-1.5-10-4.1l-11.4-11.4
			c-5.5-5.5-5.5-14.5,0-20l7-7c1.4-1.4,1.8-4.7,0.8-6.8c-1.3-2.7-2.4-5.4-3.3-8c-0.8-2.2-3.4-4.3-5.4-4.3h-9.9
			c-7.8,0-14.1-6.3-14.1-14.1v-16.1c0-7.8,6.3-14.1,14.1-14.1h9.9c2,0,4.6-2,5.4-4.3c0.9-2.6,2.1-5.3,3.3-8c1-2.1,0.7-5.4-0.8-6.8
			l-7-7c-2.7-2.7-4.1-6.2-4.1-10c0-3.8,1.5-7.3,4.1-10l11.4-11.4c2.7-2.7,6.2-4.1,10-4.1c3.8,0,7.3,1.5,10,4.1l7,7
			c0.8,0.8,2.4,1.4,4,1.4c1,0,2-0.2,2.8-0.6c2.6-1.2,5.3-2.4,8-3.3c2.2-0.8,4.3-3.4,4.3-5.4v-9.9c0-7.8,6.3-14.1,14.1-14.1h16.1
			c7.8,0,14.1,6.3,14.1,14.1v9.9c0,2,2,4.6,4.3,5.4c2.7,1,5.4,2.1,8,3.4c0.8,0.4,1.8,0.6,2.8,0.6c1.6,0,3.1-0.5,4-1.4l7-7
			c2.7-2.7,6.2-4.1,10-4.1c3.8,0,7.3,1.5,10,4.1l11.4,11.4c2.7,2.7,4.1,6.2,4.1,10c0,3.8-1.5,7.3-4.1,10l-7,7
			c-1.4,1.4-1.8,4.7-0.8,6.8c1.3,2.6,2.4,5.3,3.3,8c0.8,2.2,3.4,4.3,5.4,4.3h9.9c7.8,0,14.1,6.3,14.1,14.1V145
			c0,7.8-6.3,14.1-14.1,14.1h-9.9c-2,0-4.6,2-5.4,4.3c-1,2.7-2.1,5.4-3.3,8c-1,2.1-0.7,5.4,0.8,6.8l7,7c5.5,5.5,5.5,14.5,0,20
			l-11.4,11.4c-2.7,2.7-6.2,4.1-10,4.1c-3.8,0-7.3-1.5-10-4.1l-7-7c-0.8-0.8-2.4-1.4-4-1.4c-1,0-2,0.2-2.8,0.6
			c-2.7,1.3-5.4,2.4-8,3.3c-2.2,0.8-4.3,3.4-4.3,5.4v9.9C208.1,235.3,201.7,241.6,193.9,241.6z M148.6,205.3c1.5,0,2.9,0.3,4.1,0.9
			c2.5,1.2,5.1,2.3,7.7,3.2c3.5,1.2,6.3,4.9,6.3,8.2v9.9c0,6.1,5,11.1,11.1,11.1h16.1c6.1,0,11.1-5,11.1-11.1v-9.9
			c0-3.3,2.8-7,6.3-8.2c2.6-0.9,5.1-2,7.7-3.2c1.2-0.6,2.6-0.9,4.1-0.9c2.4,0,4.7,0.8,6.1,2.2l7,7c2.1,2.1,4.9,3.3,7.9,3.3
			c3,0,5.8-1.2,7.9-3.3l11.4-11.4c4.3-4.3,4.3-11.4,0-15.7l-7-7c-2.3-2.3-2.9-6.9-1.4-10.2c1.2-2.5,2.3-5.1,3.2-7.7
			c1.2-3.5,4.9-6.3,8.2-6.3h9.9c6.1,0,11.1-5,11.1-11.1v-16.1c0-6.1-5-11.1-11.1-11.1h-9.9c-3.3,0-7-2.8-8.2-6.3
			c-0.9-2.6-2-5.2-3.2-7.7c-1.6-3.3-1-7.9,1.3-10.2l7-7c2.1-2.1,3.3-4.9,3.3-7.9s-1.2-5.8-3.3-7.9L252,59.4
			c-2.1-2.1-4.9-3.3-7.9-3.3s-5.8,1.2-7.9,3.3l-7,7c-1.4,1.4-3.7,2.2-6.1,2.2c-1.5,0-2.9-0.3-4.1-0.9c-2.5-1.2-5.1-2.3-7.7-3.2
			c-3.5-1.2-6.3-4.9-6.3-8.2v-9.9c0-6.1-5-11.1-11.1-11.1h-16.1c-6.1,0-11.1,5-11.1,11.1v9.9c0,3.3-2.8,7-6.3,8.2
			c-2.6,0.9-5.2,2-7.7,3.2c-1.2,0.6-2.7,0.9-4.1,0.9c-2.4,0-4.7-0.8-6.1-2.3l-7-7c-2.1-2.1-4.9-3.3-7.9-3.3c-3,0-5.8,1.2-7.9,3.3
			l-11.4,11.4c-2.1,2.1-3.3,4.9-3.3,7.9c0,3,1.2,5.8,3.3,7.9l7,7c2.3,2.3,2.9,6.9,1.4,10.2c-1.2,2.6-2.3,5.2-3.2,7.7
			c-1.2,3.5-4.9,6.3-8.2,6.3h-9.9c-6.1,0-11.1,5-11.1,11.1V145c0,6.1,5,11.1,11.1,11.1h9.9c3.3,0,7,2.8,8.2,6.3
			c0.9,2.5,2,5.1,3.2,7.7c1.6,3.3,1,7.9-1.4,10.2l-7,7c-4.3,4.3-4.3,11.4,0,15.7l11.4,11.4c2.1,2.1,4.9,3.3,7.9,3.3s5.8-1.2,7.9-3.3
			l7-7C143.9,206.1,146.2,205.3,148.6,205.3z M185.9,175.5c-21.2,0-38.5-17.3-38.5-38.5c0-21.2,17.3-38.5,38.5-38.5
			c21.2,0,38.5,17.3,38.5,38.5C224.4,158.2,207.1,175.5,185.9,175.5z M185.9,101.5c-19.6,0-35.5,15.9-35.5,35.5
			c0,19.6,15.9,35.5,35.5,35.5c19.6,0,35.5-15.9,35.5-35.5C221.4,117.4,205.5,101.5,185.9,101.5z"/>
	</g>
	<g>
		<path class="path-cog" d="M558.4,202.4c-0.2,0-0.4,0-0.6,0l-4.3-0.4c-1.6-0.1-3.1-0.9-4.1-2.1c-1-1.2-1.5-2.8-1.4-4.4l0.2-2.1
			c-0.6-0.3-1.1-0.6-1.6-0.9l-1.6,1.4c-1.2,1-2.8,1.5-4.4,1.4c-1.6-0.1-3.1-0.9-4.1-2.1l-2.8-3.3c-1-1.2-1.5-2.8-1.4-4.4
			c0.1-1.6,0.9-3.1,2.1-4.1l1.6-1.4c-0.2-0.6-0.4-1.2-0.6-1.8l-2.1-0.2c-1.6-0.1-3.1-0.9-4.1-2.1c-1-1.2-1.5-2.8-1.4-4.4l0.4-4.3
			c0.1-1.6,0.9-3.1,2.1-4.1s2.8-1.5,4.4-1.4l2.1,0.2c0.3-0.6,0.6-1.1,0.9-1.6l-1.4-1.6c-2.1-2.6-1.8-6.4,0.8-8.5l3.3-2.8
			c1.2-1,2.8-1.5,4.4-1.4c1.6,0.1,3.1,0.9,4.1,2.1l1.4,1.6c0.6-0.2,1.2-0.4,1.8-0.6l0.2-2.1c0.1-1.6,0.9-3.1,2.1-4.1
			c1.2-1,2.8-1.5,4.4-1.4l4.3,0.4c3.3,0.3,5.8,3.2,5.5,6.6l-0.2,2.1c0.6,0.3,1.1,0.5,1.6,0.9l1.6-1.4c1.2-1,2.8-1.5,4.4-1.4
			c1.6,0.1,3.1,0.9,4.1,2.1l2.8,3.3c1,1.2,1.5,2.8,1.4,4.4s-0.9,3.1-2.1,4.1l-1.6,1.4c0.2,0.6,0.4,1.2,0.5,1.8l2.1,0.2
			c1.6,0.1,3.1,0.9,4.1,2.1c1,1.2,1.5,2.8,1.4,4.4l-0.4,4.3c-0.1,1.6-0.9,3.1-2.1,4.1c-1.2,1-2.8,1.5-4.4,1.4l-2.1-0.2
			c-0.3,0.6-0.6,1.1-0.9,1.6l1.4,1.6c2.1,2.6,1.8,6.4-0.8,8.5l-3.3,2.8c-1.2,1-2.8,1.5-4.4,1.4c-1.6-0.1-3.1-0.9-4.1-2.1l-1.4-1.6
			c-0.6,0.2-1.2,0.4-1.8,0.6l-0.2,2.1c-0.1,1.6-0.9,3.1-2.1,4.1C561.2,201.9,559.8,202.4,558.4,202.4z M546.5,189.4
			c0.5,0,0.9,0.1,1.3,0.3c0.6,0.4,1.3,0.7,2,1c0.9,0.4,1.5,1.4,1.5,2.3l-0.2,2.7c-0.1,0.8,0.2,1.6,0.7,2.2c0.5,0.6,1.2,1,2.1,1.1
			l4.3,0.4c0.8,0.1,1.6-0.2,2.2-0.7c0.6-0.5,1-1.3,1.1-2.1l0.2-2.7c0-0.5,0.4-1.1,0.9-1.5c0.2-0.2,0.6-0.4,1-0.5
			c0.7-0.2,1.4-0.4,2.1-0.7c0.9-0.3,2.1-0.1,2.7,0.6l1.7,2c0.5,0.6,1.2,1,2.1,1.1c0.8,0.1,1.6-0.2,2.2-0.7l3.3-2.8
			c1.3-1.1,1.5-3,0.4-4.3l-1.7-2c-0.6-0.7-0.6-1.9-0.1-2.7c0.4-0.6,0.7-1.3,1-2c0.2-0.4,0.5-0.7,0.7-0.9c0.5-0.4,1.1-0.6,1.6-0.6
			l2.7,0.2c0.8,0.1,1.6-0.2,2.2-0.7c0.6-0.5,1-1.2,1.1-2.1l0.4-4.3c0.1-0.8-0.2-1.6-0.7-2.2c-0.5-0.6-1.3-1-2.1-1.1l-2.7-0.2
			c-0.9-0.1-1.8-0.9-2-1.8c-0.2-0.7-0.4-1.5-0.7-2.2c-0.3-0.9-0.1-2.1,0.6-2.7l2-1.7c0.6-0.5,1-1.2,1.1-2.1c0.1-0.8-0.2-1.6-0.7-2.2
			l-2.8-3.3c-0.5-0.6-1.2-1-2.1-1.1c-0.8-0.1-1.6,0.2-2.2,0.7l-2,1.7c-0.7,0.6-1.9,0.6-2.7,0.1c-0.7-0.4-1.3-0.7-2-1
			c-0.9-0.4-1.6-1.5-1.5-2.3l0.2-2.6c0.1-1.7-1.1-3.1-2.8-3.3l-4.3-0.4c-0.8-0.1-1.6,0.2-2.2,0.7c-0.6,0.5-1,1.3-1.1,2.1l-0.2,2.7
			c0,0.5-0.4,1.1-0.9,1.5c-0.3,0.2-0.6,0.4-1,0.5c-0.7,0.2-1.5,0.4-2.2,0.7c-0.9,0.3-2.1,0.1-2.7-0.6l-1.7-2c-0.5-0.6-1.3-1-2.1-1.1
			c-0.8-0.1-1.6,0.2-2.2,0.7l-3.3,2.8c-1.3,1.1-1.5,3-0.4,4.3l1.7,2c0.6,0.7,0.6,1.9,0.1,2.7c-0.4,0.6-0.7,1.3-1,2
			c-0.1,0.3-0.4,0.6-0.7,0.9c-0.5,0.4-1.1,0.6-1.6,0.6l-2.7-0.2c-0.8-0.1-1.6,0.2-2.2,0.7c-0.6,0.5-1,1.3-1.1,2.1l-0.4,4.3
			c-0.1,0.8,0.2,1.6,0.7,2.2c0.5,0.6,1.3,1,2.1,1.1l2.7,0.2c0.9,0.1,1.8,0.9,2,1.9c0.2,0.7,0.4,1.4,0.7,2.1c0.3,0.9,0.1,2.1-0.6,2.7
			l-2,1.7c-0.6,0.5-1,1.3-1.1,2.1c-0.1,0.8,0.2,1.6,0.7,2.2l2.8,3.3c0.5,0.6,1.3,1,2.1,1.1c0.8,0.1,1.6-0.2,2.2-0.7l2-1.7
			C545.4,189.5,546,189.4,546.5,189.4z M564.3,194.9C564.3,194.9,564.3,194.9,564.3,194.9C564.3,194.9,564.3,194.9,564.3,194.9z
			 M564.7,194.2L564.7,194.2C564.7,194.2,564.7,194.2,564.7,194.2z M566,193.8C566,193.8,566,193.8,566,193.8L566,193.8z
			 M548.6,193.5C548.6,193.5,548.6,193.5,548.6,193.5C548.6,193.5,548.6,193.5,548.6,193.5z M578.6,183.3L578.6,183.3
			C578.6,183.3,578.6,183.3,578.6,183.3z M580,181.7C580,181.7,580,181.7,580,181.7C580,181.7,580,181.7,580,181.7z M536.5,179.5
			C536.5,179.5,536.5,179.5,536.5,179.5L536.5,179.5z M536.1,178.1C536.1,178.1,536.1,178.1,536.1,178.1L536.1,178.1z M535.4,177.7
			C535.4,177.7,535.4,177.7,535.4,177.7C535.4,177.7,535.4,177.7,535.4,177.7z M580.4,164.3L580.4,164.3
			C580.4,164.3,580.4,164.3,580.4,164.3z M580.6,163.6L580.6,163.6C580.6,163.6,580.6,163.6,580.6,163.6
			C580.6,163.6,580.6,163.6,580.6,163.6z M538.2,160.5C538.2,160.5,538.2,160.5,538.2,160.5L538.2,160.5z M568.5,151L568.5,151
			C568.5,151,568.5,151,568.5,151z M550.8,150L550.8,150C550.8,150,550.8,150,550.8,150z M558.4,182.2c-3,0-5.9-1.3-7.9-3.7
			c-1.8-2.1-2.6-4.8-2.4-7.6c0.2-2.8,1.5-5.2,3.7-7c2.1-1.8,4.8-2.6,7.6-2.4c2.8,0.2,5.2,1.5,7,3.7l0,0c1.8,2.1,2.6,4.8,2.4,7.5
			s-1.5,5.2-3.7,7C563.1,181.4,560.8,182.2,558.4,182.2z M558.4,164.6c-1.7,0-3.4,0.6-4.7,1.7c-1.5,1.3-2.4,3-2.6,5
			c-0.2,2,0.4,3.9,1.7,5.4c2.6,3.1,7.2,3.5,10.3,0.9c1.5-1.3,2.4-3,2.6-5c0.2-2-0.4-3.9-1.7-5.4v0c-1.3-1.5-3-2.4-5-2.6
			C558.8,164.6,558.6,164.6,558.4,164.6z"/>
	</g>
	<g>
		<path class="path-cog" d="M374.5,152.1c-1.2,0-2.4-0.4-3.3-1.2c-1.1-0.9-1.8-2.2-2-3.6l-0.2-1.6c-0.4-0.1-0.8-0.2-1.2-0.4l-1,1.3
			c-0.9,1.1-2.2,1.8-3.6,2c-1.4,0.2-2.8-0.2-3.9-1.1l-2.9-2.3c-1.1-0.9-1.8-2.2-2-3.6c-0.2-1.4,0.2-2.8,1.1-3.9l1-1.3
			c-0.2-0.4-0.4-0.7-0.6-1.1l-1.6,0.2c-2.9,0.3-5.6-1.8-5.9-4.7l-0.4-3.7c-0.3-2.9,1.8-5.6,4.7-5.9l1.6-0.2c0.1-0.4,0.2-0.8,0.4-1.2
			l-1.3-1c-1.1-0.9-1.8-2.2-2-3.6c-0.2-1.4,0.2-2.8,1.1-3.9l2.3-2.9c0.9-1.1,2.2-1.8,3.6-2c1.4-0.2,2.8,0.2,3.9,1.1l1.3,1
			c0.4-0.2,0.7-0.4,1.1-0.6l-0.2-1.6c-0.3-2.9,1.8-5.6,4.7-5.9l3.7-0.4c2.9-0.3,5.6,1.8,5.9,4.7l0.2,1.6c0.4,0.1,0.8,0.2,1.2,0.4
			l1-1.3c0.9-1.1,2.2-1.8,3.6-2c1.4-0.2,2.8,0.2,3.9,1.1l2.9,2.3c2.3,1.8,2.7,5.2,0.9,7.5l-1,1.3c0.2,0.4,0.4,0.7,0.6,1.1l1.6-0.2
			c1.4-0.2,2.8,0.2,3.9,1.1c1.1,0.9,1.8,2.2,2,3.6l0.4,3.7c0.2,1.4-0.2,2.8-1.1,3.9c-0.9,1.1-2.2,1.8-3.6,2l-1.6,0.2
			c-0.1,0.4-0.2,0.8-0.4,1.2l1.3,1c1.1,0.9,1.8,2.2,2,3.6c0.2,1.4-0.2,2.8-1.1,3.9l-2.3,2.9c-0.9,1.1-2.2,1.8-3.6,2
			c-1.4,0.2-2.8-0.2-3.9-1.1l-1.3-1c-0.4,0.2-0.7,0.4-1.1,0.6l0.2,1.6c0.2,1.4-0.2,2.8-1.1,3.9c-0.9,1.1-2.2,1.8-3.6,2l-3.7,0.4
			C374.9,152.1,374.7,152.1,374.5,152.1z M367.6,142.3c0.3,0,0.5,0,0.8,0.1c0.6,0.2,1.2,0.4,1.8,0.5c0.9,0.2,1.7,1,1.8,1.9l0.3,2.2
			c0.1,0.6,0.4,1.2,0.9,1.6c0.5,0.4,1.1,0.6,1.7,0.5l3.7-0.4c0.6-0.1,1.2-0.4,1.6-0.9c0.4-0.5,0.6-1.1,0.5-1.7l-0.3-2.2
			c-0.1-0.8,0.5-1.8,1.3-2.2c0.6-0.3,1.1-0.6,1.6-0.9c0.4-0.2,0.7-0.3,1-0.3c0.6-0.1,1.1,0.1,1.5,0.4l1.8,1.4
			c0.5,0.4,1.1,0.6,1.7,0.5c0.6-0.1,1.2-0.4,1.6-0.9l2.3-2.9c0.4-0.5,0.6-1.1,0.5-1.7c-0.1-0.6-0.4-1.2-0.9-1.6l-1.8-1.4
			c-0.7-0.5-0.9-1.6-0.6-2.5c0.2-0.6,0.4-1.2,0.5-1.8c0.2-0.9,1-1.7,1.9-1.8l2.3-0.3c0.6-0.1,1.2-0.4,1.6-0.9
			c0.4-0.5,0.6-1.1,0.5-1.7l-0.4-3.7c-0.1-0.6-0.4-1.2-0.9-1.6c-0.5-0.4-1.1-0.6-1.7-0.5l-2.2,0.3c-0.8,0.1-1.8-0.5-2.2-1.3
			c-0.3-0.6-0.6-1.1-0.9-1.6c-0.5-0.8-0.5-1.9,0.1-2.6l1.4-1.8c0.8-1,0.6-2.5-0.4-3.3l-2.9-2.3c-0.5-0.4-1.1-0.6-1.7-0.5
			c-0.6,0.1-1.2,0.4-1.6,0.9l-1.4,1.8c-0.3,0.4-0.8,0.7-1.5,0.7c-0.4,0-0.7,0-1-0.1c-0.6-0.2-1.2-0.4-1.8-0.5
			c-0.9-0.2-1.7-1-1.8-1.9l-0.3-2.3c-0.2-1.3-1.3-2.2-2.6-2.1l-3.7,0.4c-1.3,0.2-2.2,1.3-2.1,2.6l0.3,2.2c0.1,0.8-0.5,1.8-1.3,2.2
			c-0.6,0.3-1.1,0.6-1.6,0.9c-0.4,0.2-0.7,0.3-1,0.3c-0.6,0.1-1.2-0.1-1.6-0.4l-1.8-1.4c-0.5-0.4-1.1-0.6-1.7-0.5
			c-0.6,0.1-1.2,0.4-1.6,0.9l-2.3,2.9c-0.4,0.5-0.6,1.1-0.5,1.7s0.4,1.2,0.9,1.6l1.8,1.4c0.7,0.5,0.9,1.6,0.6,2.5
			c-0.2,0.6-0.4,1.2-0.5,1.8c-0.2,0.9-1,1.7-1.9,1.8l-2.3,0.3c-1.3,0.2-2.2,1.3-2.1,2.6l0.4,3.7c0.2,1.3,1.3,2.2,2.6,2.1l2.2-0.3
			c0.8-0.1,1.8,0.5,2.2,1.3c0.3,0.6,0.6,1.1,0.9,1.6c0.5,0.8,0.5,1.9,0,2.6l-1.4,1.8c-0.4,0.5-0.6,1.1-0.5,1.7s0.4,1.2,0.9,1.6
			l2.9,2.3c0.5,0.4,1.1,0.6,1.7,0.5c0.6-0.1,1.2-0.4,1.6-0.9l1.4-1.8c0.3-0.4,0.8-0.7,1.5-0.7C367.4,142.3,367.5,142.3,367.6,142.3z
			 M367.3,145.2C367.3,145.2,367.4,145.2,367.3,145.2C367.4,145.2,367.3,145.2,367.3,145.2z M368.9,145.1
			C368.9,145.1,368.9,145.1,368.9,145.1L368.9,145.1z M368.2,144.9L368.2,144.9C368.2,144.9,368.2,144.9,368.2,144.9z M384.8,143.2
			C384.8,143.2,384.8,143.2,384.8,143.2C384.8,143.2,384.8,143.2,384.8,143.2z M356.7,136.9C356.7,136.9,356.7,136.9,356.7,136.9
			C356.7,136.9,356.7,136.9,356.7,136.9z M393.8,130.5L393.8,130.5C393.8,130.5,393.8,130.5,393.8,130.5
			C393.8,130.5,393.8,130.5,393.8,130.5z M354.7,119.4C354.7,119.4,354.7,119.4,354.7,119.4C354.7,119.4,354.7,119.4,354.7,119.4z
			 M392.2,117C392.2,117,392.2,117,392.2,117C392.2,117,392.2,117,392.2,117z M391,115.9L391,115.9C391,116,391,116,391,115.9z
			 M379.7,107C379.7,107,379.7,107.1,379.7,107L379.7,107z M373.9,135c-4.5,0-8.4-3.4-8.9-8c-0.3-2.4,0.4-4.7,1.9-6.6
			c1.5-1.9,3.6-3.1,6-3.4c2.4-0.3,4.7,0.4,6.6,1.9c1.9,1.5,3.1,3.6,3.4,6l0,0c0.6,4.9-3,9.4-7.9,10C374.6,135,374.3,135,373.9,135z
			 M374,120c-0.2,0-0.5,0-0.7,0c-1.6,0.2-3,1-4,2.2s-1.4,2.8-1.3,4.4c0.4,3.3,3.4,5.6,6.7,5.3c1.6-0.2,3-1,4-2.2
			c1-1.3,1.4-2.8,1.3-4.4l0,0c-0.2-1.6-1-3-2.2-4C376.6,120.4,375.3,120,374,120z"/>
	</g>
	<g>
		<path class="path-cog" d="M711.8,223c-2.7,0-5-2-5.3-4.7l-0.2-1.6c-0.4-0.1-0.8-0.2-1.2-0.4l-1,1.3c-0.9,1.1-2.2,1.8-3.6,2
			c-1.4,0.2-2.8-0.2-3.9-1.1l-2.9-2.3c-1.1-0.9-1.8-2.2-2-3.6c-0.2-1.4,0.2-2.8,1.1-3.9l1-1.3c-0.2-0.4-0.4-0.7-0.6-1.1l-1.6,0.2
			c-1.4,0.2-2.8-0.2-3.9-1.1c-1.1-0.9-1.8-2.2-2-3.6l-0.4-3.7c-0.2-1.4,0.2-2.8,1.1-3.9s2.2-1.8,3.6-2l1.6-0.2
			c0.1-0.4,0.2-0.8,0.4-1.2l-1.3-1c-1.1-0.9-1.8-2.2-2-3.6s0.2-2.8,1.1-3.9l2.3-2.9c0.9-1.1,2.2-1.8,3.6-2c1.4-0.2,2.8,0.2,3.9,1.1
			l1.3,1c0.4-0.2,0.7-0.4,1.1-0.6l-0.2-1.6c-0.3-2.9,1.8-5.6,4.7-5.9l3.7-0.4c1.4-0.2,2.8,0.2,3.9,1.1s1.8,2.2,2,3.6l0.2,1.6
			c0.4,0.1,0.8,0.2,1.2,0.4l1-1.3c0.9-1.1,2.2-1.8,3.6-2c1.4-0.2,2.8,0.2,3.9,1.1l2.9,2.3c2.3,1.8,2.7,5.2,0.9,7.5l-1,1.3
			c0.2,0.4,0.4,0.7,0.6,1.1l1.6-0.2c1.4-0.2,2.8,0.2,3.9,1.1c1.1,0.9,1.8,2.2,2,3.6l0.4,3.7c0.3,2.9-1.8,5.6-4.7,5.9l-1.6,0.2
			c-0.1,0.4-0.2,0.8-0.4,1.2l1.3,1c2.3,1.8,2.7,5.2,0.9,7.5l-2.3,2.9c-0.9,1.1-2.2,1.8-3.6,2c-1.4,0.2-2.8-0.2-3.9-1.1l-1.3-1
			c-0.4,0.2-0.7,0.4-1.1,0.6l0.2,1.6c0.3,2.9-1.8,5.6-4.7,5.9l-3.7,0.4C712.2,223,712,223,711.8,223z M704.8,213.2
			c0.2,0,0.5,0,0.8,0.1c0.6,0.2,1.2,0.4,1.8,0.5c0.9,0.2,1.7,1,1.8,1.9l0.3,2.3c0.2,1.3,1.3,2.2,2.6,2.1l3.7-0.4
			c1.3-0.2,2.2-1.3,2.1-2.6l-0.3-2.2c-0.1-0.8,0.5-1.8,1.3-2.2c0.6-0.3,1.1-0.6,1.6-0.9c0.3-0.2,0.6-0.3,1-0.3
			c0.6-0.1,1.1,0.1,1.5,0.4l1.8,1.4c0.5,0.4,1.1,0.6,1.7,0.5c0.6-0.1,1.2-0.4,1.6-0.9l2.3-2.9c0.8-1,0.6-2.5-0.4-3.3l-1.8-1.4
			c-0.7-0.5-0.9-1.6-0.6-2.5c0.2-0.6,0.4-1.2,0.5-1.8c0.2-0.9,1-1.7,1.9-1.8l2.2-0.3c1.3-0.2,2.2-1.3,2.1-2.6l-0.4-3.7
			c-0.1-0.6-0.4-1.2-0.9-1.6c-0.5-0.4-1.1-0.6-1.7-0.5l-2.2,0.3c-0.8,0.1-1.8-0.5-2.2-1.3c-0.3-0.6-0.6-1.1-0.9-1.6
			c-0.4-0.7-0.5-1.9,0.1-2.6l1.4-1.8c0.8-1,0.6-2.5-0.4-3.3l-2.9-2.3c-0.5-0.4-1.1-0.6-1.7-0.5c-0.6,0.1-1.2,0.4-1.6,0.9l-1.4,1.8
			c-0.3,0.4-0.9,0.7-1.5,0.7c-0.4,0-0.7,0-1-0.1c-0.6-0.2-1.2-0.4-1.8-0.5c-0.9-0.2-1.7-1-1.8-1.9l-0.3-2.2
			c-0.1-0.6-0.4-1.2-0.9-1.6c-0.5-0.4-1.1-0.6-1.7-0.5l-3.7,0.4c-1.3,0.2-2.2,1.3-2.1,2.6l0.3,2.2c0.1,0.8-0.5,1.8-1.3,2.2
			c-0.6,0.3-1.1,0.6-1.6,0.9c-0.4,0.2-0.7,0.3-1,0.3c-0.6,0.1-1.2-0.1-1.6-0.4l-1.8-1.4c-0.5-0.4-1.1-0.6-1.7-0.5
			c-0.6,0.1-1.2,0.4-1.6,0.9l-2.3,2.9c-0.4,0.5-0.6,1.1-0.5,1.7c0.1,0.6,0.4,1.2,0.9,1.6l1.8,1.4c0.7,0.5,0.9,1.6,0.6,2.5
			c-0.2,0.6-0.4,1.2-0.5,1.8c-0.2,0.9-1,1.7-1.9,1.8l-2.2,0.3c-0.6,0.1-1.2,0.4-1.6,0.9s-0.6,1.1-0.5,1.7l0.4,3.7
			c0.1,0.6,0.4,1.2,0.9,1.6s1.1,0.6,1.7,0.5l2.2-0.3c0.8-0.1,1.8,0.5,2.2,1.3c0.3,0.6,0.6,1.1,0.9,1.7c0.5,0.8,0.5,1.9,0,2.6
			l-1.4,1.8c-0.4,0.5-0.6,1.1-0.5,1.7c0.1,0.6,0.4,1.2,0.9,1.6l2.9,2.3c0.5,0.4,1.1,0.6,1.7,0.5c0.6-0.1,1.2-0.4,1.6-0.9l1.4-1.8
			c0.3-0.4,0.8-0.7,1.5-0.7C704.6,213.2,704.7,213.2,704.8,213.2z M704.6,216.1C704.6,216.1,704.6,216.2,704.6,216.1
			C704.6,216.2,704.6,216.1,704.6,216.1z M705.4,215.8L705.4,215.8C705.4,215.8,705.4,215.8,705.4,215.8z M694,207.8
			C694,207.8,694,207.8,694,207.8C694,207.8,694,207.8,694,207.8z M694.1,206.9C694.1,206.9,694.1,206.9,694.1,206.9L694.1,206.9z
			 M693.7,206.2L693.7,206.2C693.7,206.2,693.7,206.2,693.7,206.2z M730.3,201.9L730.3,201.9L730.3,201.9z M731.1,201.4L731.1,201.4
			C731.1,201.4,731,201.4,731.1,201.4C731,201.4,731.1,201.4,731.1,201.4z M692,191.9C692,191.9,692,191.9,692,191.9L692,191.9z
			 M691.9,190.3C691.9,190.3,691.9,190.3,691.9,190.3C691.9,190.3,691.9,190.3,691.9,190.3z M728.7,187.6
			C728.7,187.6,728.7,187.6,728.7,187.6L728.7,187.6z M728.3,186.8L728.3,186.8C728.3,186.9,728.3,186.9,728.3,186.8z M716.2,177.7
			L716.2,177.7C716.2,177.7,716.2,177.7,716.2,177.7z M711.2,205.9c-4.5,0-8.4-3.4-8.9-8c-0.3-2.4,0.4-4.7,1.9-6.6s3.6-3.1,6-3.4
			c2.4-0.3,4.7,0.4,6.6,1.9c1.9,1.5,3.1,3.6,3.4,6l0,0c0.3,2.4-0.4,4.7-1.9,6.6c-1.5,1.9-3.6,3.1-6,3.4
			C711.9,205.9,711.5,205.9,711.2,205.9z M711.2,190.9c-0.2,0-0.5,0-0.7,0c-1.6,0.2-3,1-4,2.2c-1,1.3-1.4,2.8-1.3,4.4
			c0.4,3.3,3.4,5.6,6.7,5.3c1.6-0.2,3-1,4-2.2c1-1.3,1.4-2.8,1.3-4.4l0,0c-0.2-1.6-1-3-2.2-4C713.8,191.3,712.5,190.9,711.2,190.9z"
			/>
	</g>
</g>
<g class="motiv-odd">
	<g>
		<path class="path-cog" d="M31.7,118.2c-4.6,0-8.7-3.2-9.7-7.8l-1-4.6c-0.1-0.1-0.2-0.2-0.3-0.2c-1.5-0.2-3-0.5-4.6-0.8c0,0-0.1,0-0.2,0
			c-0.1,0-0.1,0-0.1,0l-2.6,4c-1.4,2.2-3.7,3.8-6.2,4.3c-2.6,0.6-5.2,0.1-7.5-1.4l-6.8-4.4c-2.2-1.4-3.8-3.7-4.3-6.2
			c-0.6-2.6-0.1-5.2,1.4-7.5l2.6-4c0-0.1,0-0.2-0.1-0.3c-0.9-1.2-1.8-2.5-2.7-3.8c0-0.1-0.2-0.1-0.3-0.2l-4.6,1
			c-2.6,0.6-5.2,0.1-7.5-1.4c-2.2-1.4-3.8-3.7-4.3-6.2l-1.7-7.9c-1.2-5.3,2.3-10.6,7.6-11.8l4.6-1c0.1-0.1,0.2-0.2,0.2-0.3
			c0.2-1.5,0.5-3.1,0.8-4.6c0-0.1,0-0.2-0.1-0.3l-4-2.6c-2.2-1.4-3.8-3.7-4.3-6.2c-0.6-2.6-0.1-5.2,1.4-7.5l4.4-6.8
			c1.4-2.2,3.7-3.8,6.2-4.3s5.2-0.1,7.5,1.4l4,2.6c0,0,0.1,0,0.1,0c0.1,0,0.2-0.1,0.2-0.1c1.2-1,2.5-1.8,3.8-2.6
			c0,0,0.1-0.2,0.2-0.3l-1-4.6c-0.6-2.6-0.1-5.2,1.4-7.5c1.4-2.2,3.7-3.8,6.2-4.3l7.9-1.7c5.3-1.2,10.6,2.3,11.8,7.6l1,4.6
			c0.1,0.1,0.2,0.2,0.3,0.2c1.5,0.2,3.1,0.5,4.6,0.8c0,0,0.1,0,0.2,0c0.1,0,0.1,0,0.1,0l2.6-4c1.4-2.2,3.7-3.8,6.2-4.3
			c2.6-0.6,5.2-0.1,7.5,1.4l6.8,4.4c4.6,3,5.9,9.1,3,13.7l-2.6,4c0,0.1,0,0.2,0.1,0.3c0.9,1.2,1.8,2.5,2.6,3.8
			c0,0.1,0.2,0.1,0.3,0.2l4.6-1c5.3-1.2,10.6,2.3,11.8,7.6l1.7,7.9c0.6,2.6,0.1,5.2-1.4,7.5c-1.4,2.2-3.7,3.8-6.2,4.3l-4.6,1
			c-0.1,0.1-0.2,0.2-0.2,0.3l0,0l0,0c-0.2,1.5-0.5,3.1-0.9,4.6c0,0.1,0,0.2,0.1,0.3l4,2.6c4.6,3,5.9,9.1,3,13.7l-4.4,6.8
			c-1.4,2.2-3.6,3.8-6.2,4.3c-2.6,0.6-5.3,0.1-7.5-1.4l-4-2.6c0,0-0.1,0-0.1,0c-0.1,0-0.2,0.1-0.2,0.1c-1.2,0.9-2.5,1.8-3.8,2.6
			c-0.1,0-0.1,0.2-0.2,0.3l1,4.6c1.2,5.3-2.3,10.6-7.6,11.8l-7.9,1.7C33.1,118.1,32.4,118.2,31.7,118.2z M16.2,101.7
			c0.2,0,0.5,0,0.7,0.1c1.4,0.3,2.8,0.6,4.2,0.8c1.3,0.2,2.6,1.2,2.8,2.3l1,4.8c0.8,3.7,4.5,6.1,8.2,5.3l7.9-1.7
			c3.7-0.8,6.1-4.5,5.3-8.2l-1-4.8c-0.2-1.1,0.5-2.6,1.6-3.2c1.2-0.8,2.4-1.6,3.5-2.5c0.4-0.3,0.9-0.5,1.4-0.6
			c0.8-0.2,1.6-0.1,2.2,0.2l4.2,2.7c1.5,1,3.4,1.3,5.2,0.9c1.8-0.4,3.4-1.5,4.3-3l4.4-6.8c2.1-3.2,1.1-7.5-2.1-9.6l-4.2-2.7
			c-0.9-0.6-1.4-2.2-1.2-3.4c0.3-1.4,0.6-2.8,0.8-4.3c0.2-1.3,1.2-2.6,2.3-2.8l4.8-1c1.8-0.4,3.3-1.5,4.3-3s1.3-3.4,1-5.2l-1.7-7.9
			c-0.8-3.7-4.5-6.1-8.2-5.3l-4.8,1c-1.1,0.2-2.6-0.5-3.2-1.6c-0.8-1.2-1.6-2.4-2.5-3.5c-0.8-1-0.9-2.7-0.3-3.6l2.7-4.2
			c2.1-3.2,1.1-7.5-2.1-9.6L51,17.2c-1.5-1-3.4-1.3-5.2-0.9c-1.8,0.4-3.4,1.5-4.4,3l-2.7,4.2c-0.3,0.5-1.1,1-1.9,1.2
			c-0.5,0.1-1,0.1-1.5,0c-1.4-0.3-2.8-0.6-4.3-0.8c-1.3-0.2-2.6-1.2-2.8-2.3l-1-4.8c-0.8-3.7-4.5-6.1-8.2-5.3l-7.9,1.7
			c-1.8,0.4-3.3,1.5-4.4,3c-1,1.6-1.3,3.4-1,5.2l1,4.8c0.2,1.1-0.5,2.6-1.6,3.2c-1.2,0.7-2.4,1.6-3.5,2.5c-0.4,0.3-0.9,0.5-1.4,0.6
			c-0.8,0.2-1.7,0.1-2.2-0.3l-4.2-2.7c-1.6-1-3.4-1.3-5.2-1c-1.8,0.4-3.4,1.5-4.4,3l-4.4,6.8c-1,1.5-1.3,3.4-0.9,5.2
			c0.4,1.8,1.5,3.4,3,4.4l4.2,2.7c0.9,0.6,1.4,2.2,1.1,3.4c-0.3,1.4-0.6,2.8-0.8,4.2c-0.2,1.3-1.2,2.6-2.3,2.8l-4.8,1
			c-3.7,0.8-6.1,4.5-5.3,8.2l1.7,7.9c0.4,1.8,1.5,3.4,3,4.4c1.6,1,3.4,1.3,5.2,1l4.8-1c1.1-0.2,2.6,0.5,3.2,1.6
			c0.8,1.2,1.6,2.4,2.5,3.5c0.8,1,0.9,2.6,0.4,3.6l-2.7,4.2c-1,1.6-1.3,3.4-0.9,5.2c0.4,1.8,1.5,3.4,3,4.4l6.8,4.4
			c1.6,1,3.4,1.3,5.2,1c1.8-0.4,3.4-1.5,4.4-3l2.7-4.2c0.3-0.5,1.1-1,1.9-1.1C15.6,101.8,15.9,101.7,16.2,101.7z M16,104.6L16,104.6
			C16,104.6,16,104.6,16,104.6z M52.7,96.9L52.7,96.9L52.7,96.9z M59.7,36.9L59.7,36.9C59.7,36.9,59.7,36.9,59.7,36.9z M-0.4,29.5
			L-0.4,29.5L-0.4,29.5z M26.1,81.1c-3.4,0-6.7-1-9.7-2.9c-4-2.6-6.8-6.6-7.8-11.3c-2.1-9.6,4.1-19.2,13.7-21.3
			c4.7-1,9.5-0.1,13.5,2.5c4,2.6,6.8,6.6,7.8,11.3c1,4.7,0.1,9.5-2.5,13.5c-2.6,4-6.6,6.8-11.3,7.8C28.7,81,27.4,81.1,26.1,81.1z
			 M26.2,48.3c-1,0-2.1,0.1-3.2,0.3c-8,1.7-13.2,9.7-11.4,17.7c0.8,3.9,3.1,7.2,6.5,9.4c3.3,2.2,7.3,2.9,11.2,2.1
			c3.9-0.8,7.2-3.1,9.4-6.5c2.2-3.3,2.9-7.3,2-11.2l0,0c-0.8-3.9-3.1-7.2-6.5-9.4C31.8,49.1,29,48.3,26.2,48.3z"/>
	</g>
	<g>
		<path class="path-cog" d="M327.6,114.4c-0.8,0-1.6-0.2-2.4-0.5c-1.5-0.6-2.6-1.8-3.2-3.3l-0.8-2c-0.6,0-1.2,0-1.9,0l-0.9,2
			c-0.6,1.5-1.8,2.6-3.3,3.2c-1.5,0.6-3.1,0.6-4.6-0.1l-4-1.7c-1.5-0.6-2.6-1.8-3.2-3.3c-0.6-1.5-0.6-3.1,0.1-4.6l0.9-2
			c-0.4-0.4-0.9-0.9-1.3-1.3l-2,0.8c-3.1,1.2-6.6-0.3-7.8-3.4l-1.6-4c-0.6-1.5-0.6-3.1,0.1-4.6s1.8-2.6,3.3-3.2l2-0.8
			c0-0.6,0-1.2,0-1.9l-2-0.9c-1.5-0.6-2.6-1.8-3.2-3.3c-0.6-1.5-0.6-3.1,0.1-4.6l1.7-4c0.6-1.5,1.8-2.6,3.3-3.2s3.1-0.6,4.6,0.1
			l2,0.9c0.4-0.5,0.9-0.9,1.3-1.3l-0.8-2c-0.6-1.5-0.6-3.1,0.1-4.6c0.6-1.5,1.8-2.6,3.3-3.2l4-1.6c1.5-0.6,3.1-0.6,4.6,0.1
			c1.5,0.6,2.6,1.8,3.2,3.3l0.8,2c0.6,0,1.2,0,1.9,0l0.9-2c0.6-1.5,1.8-2.6,3.3-3.2c1.5-0.6,3.1-0.6,4.6,0.1l4,1.7
			c3,1.3,4.4,4.9,3.1,7.9l-0.9,2c0.4,0.4,0.9,0.9,1.3,1.3l2-0.8c3.1-1.2,6.6,0.3,7.8,3.4l1.6,4c0.6,1.5,0.6,3.1-0.1,4.6
			c-0.6,1.5-1.8,2.6-3.3,3.2l-2,0.8c0,0.6,0,1.2,0,1.9l2,0.9c1.5,0.6,2.6,1.8,3.2,3.3c0.6,1.5,0.6,3.1-0.1,4.6l-1.7,4
			c-0.6,1.5-1.8,2.6-3.3,3.2c-1.5,0.6-3.1,0.6-4.6-0.1l-2-0.9c-0.4,0.4-0.9,0.9-1.3,1.3l0.8,2c0.6,1.5,0.6,3.1-0.1,4.6
			c-0.6,1.5-1.8,2.6-3.3,3.2l-4,1.6C329.1,114.3,328.4,114.4,327.6,114.4z M321.5,105.6c1,0,2,0.6,2.3,1.4l1,2.5
			c0.3,0.8,0.9,1.3,1.6,1.7c0.7,0.3,1.6,0.3,2.3,0l4-1.6c0.8-0.3,1.3-0.9,1.7-1.6s0.3-1.6,0-2.3l-1-2.5c-0.3-0.8,0-2,0.8-2.6
			c0.6-0.5,1.1-1,1.6-1.6c0.3-0.3,0.7-0.5,0.9-0.6c0.6-0.2,1.2-0.2,1.7-0.1l2.5,1.1c0.7,0.3,1.6,0.3,2.3,0c0.8-0.3,1.3-0.9,1.7-1.6
			l1.7-4c0.3-0.7,0.3-1.6,0-2.3c-0.3-0.8-0.9-1.4-1.6-1.7l-2.5-1.1c-0.8-0.4-1.4-1.4-1.3-2.4c0.1-0.7,0.1-1.5,0.1-2.3
			c0-1,0.6-2,1.4-2.3l2.5-1c0.8-0.3,1.3-0.9,1.7-1.6s0.3-1.6,0-2.3l-1.6-4c-0.3-0.8-0.9-1.3-1.6-1.7c-0.7-0.3-1.6-0.3-2.3,0l-2.5,1
			c-0.8,0.3-2,0-2.6-0.8c-0.5-0.6-1-1.1-1.6-1.6c-0.7-0.7-1-1.9-0.6-2.7l1.1-2.4c0.7-1.5,0-3.3-1.6-4l-4-1.7c-0.7-0.3-1.6-0.3-2.3,0
			c-0.8,0.3-1.4,0.9-1.7,1.6l-1.1,2.4c-0.2,0.5-0.7,0.9-1.3,1.1c-0.4,0.1-0.7,0.2-1.1,0.2c-0.8-0.1-1.5-0.1-2.3-0.1
			c-1,0-2-0.6-2.3-1.4l-1-2.5c-0.3-0.8-0.9-1.3-1.6-1.7c-0.7-0.3-1.6-0.3-2.3,0l-4,1.6c-0.8,0.3-1.3,0.9-1.7,1.6
			c-0.3,0.7-0.3,1.6,0,2.3l1,2.5c0.3,0.8,0,2-0.8,2.6c-0.6,0.5-1.1,1-1.6,1.6c-0.2,0.3-0.6,0.5-0.9,0.6c-0.6,0.2-1.2,0.2-1.7,0
			l-2.5-1.1c-0.7-0.3-1.6-0.3-2.3,0c-0.8,0.3-1.4,0.9-1.7,1.6l-1.7,4c-0.3,0.7-0.3,1.6,0,2.3c0.3,0.8,0.9,1.4,1.6,1.7l2.5,1.1
			c0.8,0.4,1.4,1.4,1.3,2.4c-0.1,0.7-0.1,1.5,0,2.2c0,1-0.6,2-1.4,2.3l-2.5,1c-0.8,0.3-1.3,0.9-1.7,1.6c-0.3,0.7-0.3,1.6,0,2.3
			l1.6,4c0.3,0.8,0.9,1.3,1.6,1.7c0.7,0.3,1.6,0.3,2.3,0l2.5-1c0.8-0.3,2,0,2.6,0.8c0.5,0.6,1,1.1,1.6,1.6c0.7,0.7,1,1.8,0.7,2.6
			l-1.1,2.5c-0.3,0.7-0.3,1.6,0,2.3c0.3,0.8,0.9,1.4,1.6,1.7l4,1.7c0.7,0.3,1.6,0.3,2.3,0c0.8-0.3,1.3-0.9,1.7-1.6l1.1-2.5
			c0.2-0.5,0.7-0.9,1.3-1.1c0.4-0.1,0.8-0.2,1.1-0.2C320,105.6,320.7,105.6,321.5,105.6C321.5,105.6,321.5,105.6,321.5,105.6z
			 M319,108.5C319,108.5,319,108.5,319,108.5C319,108.5,319,108.5,319,108.5z M319.6,108.1L319.6,108.1
			C319.6,108.1,319.6,108.1,319.6,108.1z M304.6,102.2C304.6,102.2,304.6,102.2,304.6,102.2C304.6,102.2,304.6,102.2,304.6,102.2z
			 M338.1,101.1C338.1,101.1,338.1,101.1,338.1,101.1C338.1,101.1,338.1,101.1,338.1,101.1z M344,84.6L344,84.6
			C344,84.6,344,84.6,344,84.6z M344.5,84.1L344.5,84.1C344.5,84.1,344.5,84.1,344.5,84.1C344.5,84.1,344.5,84.1,344.5,84.1z
			 M344.5,84.1L344.5,84.1C344.5,84.1,344.5,84.1,344.5,84.1z M297.1,83.1C297.1,83.1,297.1,83.1,297.1,83.1
			C297.1,83.1,297.1,83.1,297.1,83.1z M337,68.3L337,68.3C337,68.3,337,68.3,337,68.3z M320.8,95.2c-1.4,0-2.8-0.3-4.1-0.9
			c-2.5-1.1-4.5-3.1-5.5-5.7c-1-2.6-0.9-5.4,0.2-7.9c1.1-2.5,3.1-4.5,5.7-5.5c5.3-2.1,11.3,0.6,13.4,5.9l0,0c1,2.6,0.9,5.4-0.2,7.9
			c-1.1,2.5-3.1,4.5-5.7,5.5C323.3,95,322,95.2,320.8,95.2z M320.7,77.6c-0.9,0-1.8,0.2-2.7,0.5c-1.8,0.7-3.3,2.1-4,3.9
			s-0.8,3.8-0.1,5.6c0.7,1.8,2.1,3.3,3.9,4c1.8,0.8,3.8,0.8,5.6,0.1c1.8-0.7,3.3-2.1,4-3.9s0.8-3.8,0.1-5.6v0
			C326.4,79.3,323.7,77.6,320.7,77.6z"/>
	</g>
	<g>
		<path class="path-cog" d="M493.5,160.8c-1.5,0-3-0.3-4.5-0.9c-2.7-1.2-4.9-3.4-5.9-6.2l-2-5.1c-0.1-0.1-0.5-0.2-0.5-0.2
			c-1.7,0.1-3.5,0-5.3-0.1c0,0-0.1,0-0.3,0.1c-0.1,0-0.2,0.1-0.2,0.1l-2.2,5.1c-1.2,2.7-3.4,4.8-6.2,5.9c-2.8,1.1-5.8,1-8.6-0.2
			l-8.5-3.7c-2.7-1.2-4.8-3.4-5.9-6.2c-1.1-2.8-1-5.8,0.2-8.6l2.2-5.1c0-0.2-0.1-0.4-0.2-0.5c-1.3-1.2-2.5-2.5-3.7-3.8
			c-0.1-0.1-0.4-0.2-0.5-0.2l-5.1,2c-5.7,2.2-12.2-0.6-14.5-6.3l-3.4-8.6c-1.1-2.8-1-5.8,0.2-8.6s3.4-4.8,6.2-5.9l5.1-2
			c0.1-0.1,0.2-0.4,0.2-0.6c-0.1-1.8,0-3.5,0.1-5.3c0-0.1-0.1-0.4-0.2-0.5l-5.1-2.2c-2.7-1.2-4.8-3.4-5.9-6.2
			c-1.1-2.8-1-5.8,0.2-8.6l3.7-8.5c1.2-2.7,3.4-4.8,6.2-5.9c2.8-1.1,5.8-1,8.6,0.2l5.1,2.2c0.1,0,0.1,0,0.3-0.1
			c0.1-0.1,0.2-0.1,0.3-0.1c1.2-1.3,2.5-2.6,3.8-3.7c0.1-0.1,0.2-0.4,0.2-0.5l-2-5.1c-2.2-5.7,0.6-12.2,6.3-14.5l8.6-3.4
			c2.8-1.1,5.8-1,8.6,0.2c2.7,1.2,4.8,3.4,5.9,6.2l2,5.1c0.1,0.1,0.4,0.2,0.5,0.2c1.8-0.1,3.6,0,5.3,0.1l0,0c0,0,0.1,0,0.3-0.1
			c0.1,0,0.2-0.1,0.2-0.1l2.2-5.1c1.2-2.7,3.4-4.8,6.2-5.9c2.8-1.1,5.8-1,8.6,0.2l8.5,3.7c5.6,2.5,8.2,9.1,5.8,14.7l-2.2,5.1
			c0,0.2,0.1,0.4,0.2,0.5c1.3,1.2,2.5,2.5,3.7,3.8c0.1,0.1,0.4,0.2,0.5,0.3l5.1-2c2.8-1.1,5.8-1,8.6,0.2c2.7,1.2,4.8,3.4,5.9,6.2
			l3.4,8.6c1.1,2.8,1,5.8-0.2,8.6c-1.2,2.7-3.4,4.8-6.2,5.9l-5.1,2c-0.1,0.1-0.2,0.4-0.2,0.5v0c0.1,1.8,0,3.5-0.1,5.3
			c0,0.1,0.1,0.4,0.2,0.5l5.1,2.2c5.7,2.5,8.2,9.1,5.8,14.7l-3.7,8.5c-1.2,2.7-3.4,4.8-6.2,5.9c-2.8,1.1-5.8,1-8.6-0.2l-5.1-2.2
			c-0.1,0-0.1,0-0.3,0.1c-0.1,0.1-0.2,0.1-0.3,0.1c-1.2,1.3-2.5,2.5-3.8,3.7c-0.1,0.1-0.2,0.4-0.2,0.5l2,5.1
			c2.2,5.7-0.6,12.2-6.3,14.5l-8.6,3.4C496.3,160.5,494.9,160.8,493.5,160.8z M480.5,145.3c1.4,0,2.9,0.9,3.3,1.9l2.1,5.3
			c0.8,2,2.3,3.6,4.3,4.5c2,0.9,4.2,0.9,6.3,0.1l8.6-3.4c4.2-1.6,6.3-6.4,4.6-10.6l-2.1-5.3c-0.4-1.1,0.1-2.8,1.1-3.7
			c1.3-1.1,2.5-2.3,3.6-3.5c0.3-0.4,0.8-0.7,1.4-0.9c0.8-0.3,1.7-0.4,2.3-0.1l5.3,2.3c2,0.9,4.2,0.9,6.3,0.1c2-0.8,3.6-2.3,4.5-4.3
			l3.7-8.5c1.8-4.1-0.1-9-4.2-10.8l-5.2-2.3c-1.1-0.5-1.9-2.1-1.8-3.4c0.1-1.7,0.2-3.4,0.1-5c0-1.4,0.9-2.9,1.9-3.4l5.3-2.1
			c2-0.8,3.6-2.3,4.5-4.3s0.9-4.2,0.1-6.3l-3.4-8.6c-0.8-2-2.3-3.6-4.3-4.5c-2-0.9-4.2-0.9-6.3-0.1l-5.3,2.1
			c-1.1,0.4-2.8-0.1-3.7-1.1c-1.1-1.3-2.3-2.5-3.5-3.6c-1-0.9-1.5-2.7-1-3.7l2.3-5.2c1.8-4.1-0.1-9-4.2-10.8l-8.5-3.7
			c-2-0.9-4.2-0.9-6.3-0.1c-2,0.8-3.6,2.3-4.5,4.3l-2.3,5.2c-0.3,0.6-1,1.2-1.8,1.5c-0.5,0.2-1.1,0.3-1.6,0.3
			c-1.7-0.1-3.3-0.2-5-0.1c-1.3,0-2.9-0.9-3.4-1.9l-2.1-5.3c-0.8-2-2.3-3.6-4.3-4.5c-2-0.9-4.2-0.9-6.3-0.1l-8.6,3.4
			c-4.2,1.6-6.3,6.4-4.6,10.6l2.1,5.3c0.4,1.1-0.1,2.8-1.1,3.7c-1.2,1.1-2.5,2.2-3.6,3.5c-0.3,0.4-0.8,0.7-1.4,0.9
			c-0.8,0.3-1.8,0.4-2.4,0.1l-5.2-2.3c-2-0.9-4.2-0.9-6.3-0.1c-2,0.8-3.6,2.3-4.5,4.3l-3.7,8.5c-0.9,2-0.9,4.2-0.1,6.3
			c0.8,2,2.3,3.6,4.3,4.5l5.2,2.3c1.1,0.5,1.9,2.1,1.8,3.4c-0.1,1.7-0.2,3.3-0.1,5c0,1.4-0.9,2.9-1.9,3.4l-5.3,2.1
			c-2,0.8-3.6,2.3-4.5,4.3c-0.9,2-0.9,4.2-0.1,6.3l3.4,8.6c1.6,4.2,6.4,6.3,10.6,4.6l5.3-2.1c1.1-0.4,2.8,0.1,3.7,1.1
			c1.1,1.3,2.3,2.5,3.5,3.6c1,0.9,1.5,2.7,1,3.7l-2.3,5.2c-0.9,2-0.9,4.2-0.1,6.3c0.8,2,2.3,3.6,4.3,4.5l8.5,3.7
			c2,0.9,4.2,0.9,6.3,0.1c2-0.8,3.6-2.3,4.5-4.3l2.3-5.2c0.3-0.6,1-1.2,1.8-1.5c0.4-0.2,1-0.3,1.6-0.3
			C477.1,145.4,478.8,145.4,480.5,145.3C480.5,145.3,480.5,145.3,480.5,145.3z M481,148.4C481,148.4,481,148.4,481,148.4L481,148.4z
			 M474.8,148.2L474.8,148.2C474.8,148.2,474.8,148.2,474.8,148.2z M527.9,103.6L527.9,103.6L527.9,103.6z M527.8,97.3L527.8,97.3
			C527.8,97.3,527.8,97.3,527.8,97.3z M511.9,63.3L511.9,63.3C511.9,63.3,511.9,63.3,511.9,63.3z M478.9,119.8
			c-8.1,0-15.9-4.9-19-12.9c-4.1-10.5,1.1-22.3,11.5-26.4c10.5-4.1,22.3,1.1,26.4,11.5l0,0c4.1,10.5-1.1,22.3-11.5,26.4
			C483.8,119.4,481.3,119.8,478.9,119.8z M478.8,82.1c-2.1,0-4.2,0.4-6.3,1.2c-8.9,3.5-13.3,13.6-9.8,22.5
			c3.5,8.9,13.6,13.3,22.5,9.8c8.9-3.5,13.3-13.6,9.8-22.5l0,0C492.3,86.3,485.8,82.1,478.8,82.1z"/>
	</g>
	<g>
		<path class="path-cog" d="M654,187.5c-1.1,0-2.3-0.2-3.3-0.7c-2-0.9-3.6-2.5-4.4-4.6l-1.4-3.5c0,0-0.1,0-0.1,0c-1.2,0-2.5,0-3.8-0.1
			l-1.5,3.4c-0.9,2-2.5,3.6-4.6,4.4c-2.1,0.8-4.4,0.8-6.4-0.1l-6-2.6c-2-0.9-3.6-2.5-4.4-4.6c-0.8-2.1-0.8-4.3,0.1-6.4l1.5-3.4
			c0,0,0,0,0,0c-0.9-0.8-1.8-1.7-2.6-2.7c0,0,0,0,0,0l-3.5,1.4c-4.3,1.7-9.1-0.4-10.8-4.7l-2.4-6.1c-1.7-4.3,0.4-9.1,4.7-10.8
			l3.5-1.4c0,0,0-0.1,0-0.1c0-1.2,0-2.5,0.1-3.8l-3.4-1.5c-2-0.9-3.6-2.5-4.4-4.6c-0.8-2.1-0.8-4.4,0.1-6.4l2.6-6
			c0.9-2,2.5-3.6,4.6-4.4c2.1-0.8,4.3-0.8,6.4,0.1l3.4,1.5l0.1,0c0.8-0.9,1.8-1.8,2.7-2.6h0c0,0,0,0,0,0l-1.4-3.5
			c-0.8-2.1-0.8-4.3,0.1-6.4c0.9-2,2.5-3.6,4.6-4.4l6.1-2.4c4.3-1.7,9.1,0.4,10.8,4.7l1.4,3.5c0,0,0.1,0,0.1,0c1.2,0,2.5,0,3.8,0.1
			l1.5-3.4c0.9-2,2.5-3.6,4.6-4.4c2.1-0.8,4.3-0.8,6.4,0.1l6,2.6c4.2,1.8,6.1,6.8,4.3,11l-1.5,3.4c0,0,0,0,0,0
			c0.9,0.8,1.8,1.7,2.6,2.7h0c0,0,0,0,0,0l3.5-1.4c2.1-0.8,4.3-0.8,6.4,0.1c2,0.9,3.6,2.5,4.4,4.6l2.4,6.1c0.8,2.1,0.8,4.3-0.1,6.4
			c-0.9,2-2.5,3.6-4.6,4.4l-3.5,1.4c0,0,0,0,0,0c0,1.2,0,2.5-0.1,3.8l3.4,1.5c2,0.9,3.6,2.5,4.4,4.6c0.8,2.1,0.8,4.4-0.1,6.4l-2.6,6
			c-0.9,2-2.5,3.6-4.6,4.4c-2.1,0.8-4.4,0.8-6.4-0.1l-3.4-1.5l-0.1,0c-0.8,0.9-1.7,1.8-2.7,2.6l0,0c0,0,0,0,0,0l1.4,3.5
			c0.8,2.1,0.8,4.3-0.1,6.4c-0.9,2-2.5,3.6-4.6,4.4l-6.1,2.4C656.1,187.3,655.1,187.5,654,187.5z M644.8,175.7
			c1.1,0,2.4,0.7,2.7,1.7l1.5,3.8c0.5,1.3,1.5,2.4,2.8,3c1.3,0.6,2.8,0.6,4.1,0.1l6.1-2.4c1.3-0.5,2.4-1.5,2.9-2.8
			c0.6-1.3,0.6-2.8,0.1-4.1l-1.5-3.8c-0.4-0.9,0.1-2.4,0.9-3.1c0.9-0.8,1.7-1.6,2.5-2.4c0.3-0.3,0.7-0.6,1.1-0.7
			c0.7-0.3,1.4-0.3,2-0.1l3.8,1.6c1.3,0.6,2.8,0.6,4.1,0.1c1.3-0.5,2.4-1.5,2.9-2.8l2.6-6c0.6-1.3,0.6-2.8,0.1-4.1
			c-0.5-1.3-1.5-2.4-2.8-3l-3.7-1.6c-0.9-0.4-1.6-1.7-1.5-2.9c0.1-1.2,0.1-2.3,0.1-3.5c0-1.2,0.7-2.4,1.7-2.8l3.7-1.5
			c1.3-0.5,2.4-1.5,2.9-2.8c0.6-1.3,0.6-2.8,0.1-4.1l-2.4-6.1c-0.5-1.3-1.5-2.4-2.8-2.9c-1.3-0.6-2.8-0.6-4.1-0.1l-3.7,1.5
			c-0.9,0.4-2.4-0.1-3.1-0.9c-0.8-0.9-1.6-1.7-2.4-2.5c-0.9-0.8-1.2-2.2-0.8-3.2l1.6-3.7c1.2-2.7-0.1-5.9-2.8-7.1l-6-2.6
			c-1.3-0.6-2.8-0.6-4.1-0.1c-1.3,0.5-2.4,1.5-3,2.8l-1.6,3.7c-0.2,0.5-0.8,1-1.5,1.3c-0.4,0.2-0.9,0.2-1.3,0.2
			c-1.2-0.1-2.3-0.1-3.5-0.1c-1.2,0-2.4-0.7-2.8-1.7l-1.5-3.7c-1.1-2.7-4.2-4.1-6.9-3l-6.1,2.4c-1.3,0.5-2.4,1.5-3,2.8
			c-0.6,1.3-0.6,2.8-0.1,4.1l1.5,3.7c0.4,0.9-0.1,2.4-0.9,3.1c-0.9,0.7-1.7,1.6-2.5,2.4c-0.3,0.3-0.7,0.6-1.1,0.7
			c-0.7,0.3-1.5,0.3-2,0.1l-3.7-1.6c-1.3-0.6-2.8-0.6-4.1-0.1c-1.3,0.5-2.4,1.5-3,2.8l-2.6,6c-0.6,1.3-0.6,2.8-0.1,4.1
			c0.5,1.3,1.5,2.4,2.8,3l3.7,1.6c0.9,0.4,1.6,1.7,1.5,2.9c-0.1,1.2-0.1,2.3-0.1,3.5c0,1.2-0.7,2.4-1.7,2.8l-3.7,1.5
			c-2.8,1.1-4.1,4.2-3,6.9l2.4,6.1c1.1,2.7,4.2,4.1,6.9,3l3.7-1.5c0.9-0.4,2.4,0.1,3.1,0.9c0.8,0.9,1.6,1.7,2.4,2.5
			c0.8,0.8,1.2,2.2,0.8,3.1l-1.6,3.7c-0.6,1.3-0.6,2.8-0.1,4.1c0.5,1.3,1.5,2.4,2.8,3l6,2.6c1.3,0.6,2.8,0.6,4.1,0.1
			c1.3-0.5,2.4-1.5,3-2.8l1.6-3.7c0.2-0.5,0.8-1,1.5-1.3c0.3-0.1,0.8-0.3,1.4-0.2C642.5,175.7,643.6,175.7,644.8,175.7
			C644.8,175.7,644.8,175.7,644.8,175.7z M666.4,169.9L666.4,169.9C666.4,170,666.4,170,666.4,169.9z M678.7,142.5
			C678.7,142.5,678.7,142.5,678.7,142.5L678.7,142.5L678.7,142.5z M608.9,141.2C608.9,141.2,609,141.2,608.9,141.2L608.9,141.2z
			 M667.5,118.2L667.5,118.2C667.5,118.3,667.5,118.2,667.5,118.2z M646.1,108.9C646.1,108.9,646.1,108.9,646.1,108.9L646.1,108.9z
			 M643.7,158.5c-5.9,0-11.6-3.6-13.8-9.4c-1.4-3.7-1.4-7.7,0.2-11.4c1.6-3.6,4.5-6.4,8.2-7.9c3.7-1.4,7.7-1.4,11.4,0.2
			c3.6,1.6,6.4,4.5,7.9,8.2c1.4,3.7,1.4,7.7-0.2,11.4c-1.6,3.6-4.5,6.4-8.2,7.9C647.3,158.2,645.5,158.5,643.7,158.5z M643.6,131.8
			c-1.5,0-2.9,0.3-4.3,0.8c-2.9,1.2-5.3,3.4-6.5,6.3c-1.3,2.9-1.3,6.1-0.2,9.1c2.4,6.1,9.3,9.1,15.4,6.7c2.9-1.2,5.3-3.4,6.5-6.3
			c1.3-2.9,1.3-6.1,0.2-9.1l0,0c-1.2-2.9-3.4-5.3-6.3-6.5C646.9,132.1,645.3,131.8,643.6,131.8z"/>
	</g>
</g>
</svg>
