<?xml version="1.0" encoding="utf-8"?>
<!-- Generator: Adobe Illustrator 21.0.0, SVG Export Plug-In . SVG Version: 6.00 Build 0)  -->
<svg version="1.1" id="Layer_1" xmlns="http://www.w3.org/2000/svg" xmlns:xlink="http://www.w3.org/1999/xlink" x="0px" y="0px"
	 viewBox="0 0 90 90" style="enable-background:new 0 0 90 90;" xml:space="preserve">
<style type="text/css">
	.st0{fill:#FFFFFF;stroke:#EDF3F4;stroke-width:0.5;stroke-miterlimit:10;}
</style>
<path class="st0" d="M81.9,66.9l-7.8-22.1l-7.8,22.1L50.2,53.2L57.4,92h33.4l0,0L98,53.2L81.9,66.9z M71.6,80.9l-8.7,5l5-14.3
	l4.2,3.6L68,78.8L71.6,80.9z M72.3,78.4l1.8-1.5l1.8,1.5l-1.8,1L72.3,78.4z M76.1,75.3l4.2-3.6l5,14.3l-8.7-5l3.6-2.1L76.1,75.3z
	 M74.1,54.3l5.3,14.8l-5.3,4.5l-5.3-4.5L74.1,54.3z M54,59.7l11.4,9.7l-6.3,17.8L54,59.7z M62.9,88.9l11.2-6.5l11.2,6.5H62.9z
	 M89.1,87.3l-6.3-17.8l11.4-9.7L89.1,87.3z"/>
</svg>
