<?xml version="1.0" encoding="utf-8"?>
<svg version="1.1" xmlns="http://www.w3.org/2000/svg" xmlns:xlink="http://www.w3.org/1999/xlink" x="0px" y="0px"
	 viewBox="0 0 800 250" style="enable-background:new 0 0 800 250;" xml:space="preserve">
<style type="text/css">
</style>
<g class="motiv-even">
	<g>
		<path class="pt-motiv1" d="M318.4,220c-24.2,0-44-19.7-44-44s19.7-44,44-44s44,19.7,44,44S342.7,220,318.4,220z M318.4,135
			c-22.6,0-41,18.4-41,41s18.4,41,41,41s41-18.4,41-41S341,135,318.4,135z"/>
	</g>
	<g>
		<path class="pt-motiv" d="M649,120.5c-24.2,0-44-19.7-44-44s19.7-44,44-44s44,19.7,44,44S673.3,120.5,649,120.5z M649,35.6
			c-22.6,0-41,18.4-41,41s18.4,41,41,41s41-18.4,41-41S671.6,35.6,649,35.6z"/>
	</g>
	<g>
		<path class="pt-motiv" d="M88.7,220C76.2,220,66,209.8,66,197.2s10.2-22.7,22.7-22.7s22.7,10.2,22.7,22.7S101.3,220,88.7,220z
			 M88.7,177.5c-10.9,0-19.7,8.9-19.7,19.7S77.8,217,88.7,217s19.7-8.9,19.7-19.7S99.6,177.5,88.7,177.5z"/>
	</g>
	<g>
		<path class="pt-motiv" d="M414.4,120.5c-16.9,0-30.6-13.7-30.6-30.6s13.7-30.6,30.6-30.6c16.9,0,30.6,13.7,30.6,30.6
			S431.2,120.5,414.4,120.5z M414.4,62.3c-15.2,0-27.6,12.4-27.6,27.6s12.4,27.6,27.6,27.6c15.2,0,27.6-12.4,27.6-27.6
			S429.6,62.3,414.4,62.3z"/>
	</g>
</g>
<g class="motiv-odd">
	<g>
		<path class="pt-motiv" d="M2.6,163c-24.2,0-44-19.7-44-44s19.7-44,44-44s44,19.7,44,44S26.9,163,2.6,163z M2.6,78.1
			c-22.6,0-41,18.4-41,41s18.4,41,41,41s41-18.4,41-41S25.2,78.1,2.6,78.1z"/>
	</g>
	<g>
		<path class="pt-motiv" d="M183.1,177.5c-43.9,0-79.7-35.7-79.7-79.7c0-43.9,35.7-79.7,79.7-79.7s79.7,35.7,79.7,79.7
			C262.8,141.7,227.1,177.5,183.1,177.5z M183.1,21.1c-42.3,0-76.7,34.4-76.7,76.7c0,42.3,34.4,76.7,76.7,76.7s76.7-34.4,76.7-76.7
			C259.8,55.5,225.4,21.1,183.1,21.1z"/>
	</g>
	<g>
		<path class="pt-motiv" d="M527.6,225.7c-34.4,0-62.4-28-62.4-62.4s28-62.4,62.4-62.4s62.4,28,62.4,62.4S562,225.7,527.6,225.7z
			 M527.6,103.9c-32.7,0-59.4,26.6-59.4,59.4s26.6,59.4,59.4,59.4S587,196,587,163.3S560.4,103.9,527.6,103.9z"/>
	</g>
	<g>
		<path class="pt-motiv" d="M705.9,184.2c-12.5,0-22.7-10.2-22.7-22.7s10.2-22.7,22.7-22.7s22.7,10.2,22.7,22.7S718.5,184.2,705.9,184.2z
			 M705.9,141.8c-10.9,0-19.7,8.9-19.7,19.7s8.9,19.7,19.7,19.7s19.7-8.9,19.7-19.7S716.8,141.8,705.9,141.8z"/>
	</g>
	<g>
		<path class="pt-motiv" d="M318.4,69.3c-12.5,0-22.7-10.2-22.7-22.7c0-12.5,10.2-22.7,22.7-22.7c12.5,0,22.7,10.2,22.7,22.7
			C341.2,59.1,331,69.3,318.4,69.3z M318.4,26.8c-10.9,0-19.7,8.9-19.7,19.7s8.9,19.7,19.7,19.7s19.7-8.9,19.7-19.7
			S329.3,26.8,318.4,26.8z"/>
	</g>
</g>
</svg>
