<?xml version="1.0" encoding="utf-8"?>
<!-- Generator: Adobe Illustrator 21.0.0, SVG Export Plug-In . SVG Version: 6.00 Build 0)  -->
<svg version="1.1" xmlns="http://www.w3.org/2000/svg" xmlns:xlink="http://www.w3.org/1999/xlink" x="0px" y="0px"
	 viewBox="0 0 160 160" style="enable-background:new 0 0 160 160;" xml:space="preserve">
<style type="text/css">
	.st2{fill:url(#SVGID_1_);}
</style>
<g class="lay-oval">
	<circle class="st0" cx="80" cy="80" r="74"/>
</g>
<g class="lay-ring">
	<path class="st1" d="M80,0C35.8,0,0,35.8,0,80c0,44.2,35.8,80,80,80s80-35.8,80-80C160,35.8,124.2,0,80,0z M80,154
		c-40.9,0-74-33.1-74-74S39.1,6,80,6s74,33.1,74,74S120.9,154,80,154z"/>
</g>
<g class="lay-undershadow">
	<linearGradient id="SVGID_1_" gradientUnits="userSpaceOnUse" x1="98.0932" y1="93.9068" x2="136.9287" y2="132.7423">
		<stop  offset="0" style="stop-color:#000000"/>
		<stop  offset="1" style="stop-color:#000000;stop-opacity:0"/>
	</linearGradient>
	<path class="st2" d="M97.3,44.3l1.3,2l3.1,9.8l-3.1,9.5l-4.3,3.6L89,71.3l0,8.7h2.7l8.3-3.7l3.6-1l7.6,6.2l3.3,7.3l2.7,11.2
		l-3.8,7.3l-7.7,6.4L96,118h-8l-12.7-2.9l-10.9-5.6l-1.1,0.6l40,40c24.2-8.1,42.8-28.2,48.7-53.4L98.6,43.4L97.3,44.3z"/>
</g>
<g class="lay-motiv">
	<g>
		<g>
			<path class="st3" d="M50.5,60.5c0.5,3.7,3.3,6.4,6.7,6.4c3.4,0,6.2-2.8,6.7-6.6l0.4-3.1c0.3-2.2-0.3-4.3-1.7-5.9
				c-1.3-1.4-3.1-2.3-5-2.3h-0.9c-2,0-3.8,0.9-5,2.3c-1.4,1.5-2,3.7-1.7,5.9L50.5,60.5z"/>
		</g>
		<g>
			<path class="st3" d="M67.9,70.8c-1-0.6-2-1.1-3.2-1.5c-2.1,1.8-4.7,2.7-7.5,2.7c-2.7,0-5.4-1-7.5-2.9c-4.4,1.6-7.5,4.4-8.2,7.6
				l-1,5.2c-0.5,2.7,0.7,4.9,1.8,6.3c2.5,3.1,6.9,5.1,11.7,5.6l1.3-7.4l0-0.1l0-0.1C56.7,80.1,61.2,74.6,67.9,70.8z"/>
		</g>
		<g>
			<path class="st3" d="M75.3,61c0.9,7.5,6.8,12.8,13.7,12.8s12.8-5.7,13.7-13.2l0.8-4.8c1.1-9.1-5.3-15.8-13.7-15.8h-1.5
				c-8.4,0-14.8,6.7-13.7,15.8L75.3,61z M81.7,47.4c1.7-1.9,4-2.4,6.6-2.4h1.5c2.6,0,4.9,0.5,6.5,2.4c1.8,2,2.6,4.5,2.2,7.5L97.8,60
				c0,0,0,0,0,0c-0.6,5-4.4,8.7-8.7,8.7c-4.5,0-8.1-3.6-8.8-8.5l-0.7-5.5C79.1,51.8,79.9,49.4,81.7,47.4z"/>
		</g>
		<g>
			<path class="st3" d="M119.2,96.5l-1.6-8.5c-1.4-6.8-7.9-12.7-16.7-15.4c-3.2,3.1-7.4,4.9-11.9,4.9c-4.6,0-8.8-2-11.9-5.2
				c-8.8,2.7-15.3,8.2-16.7,15l-1.6,9.2C56.4,108.2,69.9,120,87.4,120h3.2C108.1,120,121.6,108.2,119.2,96.5z M111.8,105.9
				c-4.3,5.3-12.4,9.1-21.2,9.1h-3.2c-8.8,0-16.9-3.8-21.2-9.1c-1.5-1.9-3.2-5.1-2.5-8.7c0,0,0-0.2,0-0.2l1.6-8.7
				c0.9-4.1,4.9-8,10.7-10.4c3.8,2.9,8.3,4.4,13,4.4c4.7,0,9.2-1.5,13-4.3c5.8,2.4,9.9,6.4,10.8,10.6l1.6,8.2c0,0,0,0.2,0,0.2
				C115.1,100.7,113.4,104,111.8,105.9z"/>
		</g>
	</g>
</g>
<g class="lay-overshadow">
	<g class="st4">
		<path class="st1" d="M102.7,60.6l0.8-4.8c1.1-9.1-5.3-15.8-13.7-15.8H89v5h0.8c2.6,0,4.9,0.5,6.5,2.4c1.8,2,2.6,4.5,2.2,7.5
			L97.8,60c0,0,0,0,0,0c-0.6,5-4.4,8.7-8.7,8.7v5C95.9,73.8,101.8,68.1,102.7,60.6z"/>
	</g>
	<g class="st4">
		<path class="st1" d="M119.2,96.5l-1.6-8.5c-1.4-6.8-7.9-12.7-16.7-15.4c-3.2,3.1-7.4,4.9-11.9,4.9v4.9c4.7,0,9.2-1.5,13-4.3
			c5.8,2.4,9.9,6.4,10.8,10.6l1.6,8.2c0,0,0,0.2,0,0.2c0.7,3.5-1,6.9-2.5,8.8c-4.3,5.3-12.4,9.1-21.2,9.1H89v5h1.6
			C108.1,120,121.6,108.2,119.2,96.5z"/>
	</g>
</g>
</svg>
