<?xml version="1.0" encoding="utf-8"?>
<!-- Generator: Adobe Illustrator 21.0.0, SVG Export Plug-In . SVG Version: 6.00 Build 0)  -->
<svg version="1.1" xmlns="http://www.w3.org/2000/svg" xmlns:xlink="http://www.w3.org/1999/xlink" x="0px" y="0px"
	 viewBox="0 0 160 160" style="enable-background:new 0 0 160 160;" xml:space="preserve">
<style type="text/css">
	.st2{fill:url(#SVGID_1_);}
</style>
<g class="lay-oval">
	<circle class="st0" cx="80" cy="80" r="74"/>
</g>
<g class="lay-ring">
	<path class="st1" d="M80,0C35.8,0,0,35.8,0,80c0,44.2,35.8,80,80,80s80-35.8,80-80C160,35.8,124.2,0,80,0z M80,154
		c-40.9,0-74-33.1-74-74S39.1,6,80,6s74,33.1,74,74S120.9,154,80,154z"/>
</g>
<g class="lay-undershadow">
	<linearGradient id="SVGID_1_" gradientUnits="userSpaceOnUse" x1="90.9375" y1="87.7292" x2="134.9489" y2="131.7405">
		<stop  offset="0" style="stop-color:#000000"/>
		<stop  offset="1" style="stop-color:#000000;stop-opacity:0"/>
	</linearGradient>
	<path class="st2" d="M151.3,99.9l-49.6-49.6l-1.7,1.4l1.7,3.3l-1.5,16l-8.7,11.8L88,97l-14,11l-6.5,4.5l37.3,37.3
		C127.3,141.7,144.8,123.1,151.3,99.9z"/>
</g>
<g class="lay-motiv">
	<g>
		<path class="st3" d="M101.3,77.3c-3.6,4-8.3,9.5-8.8,15.1c1.5,0.9,2.4,2.6,2.4,4.3c0,1.2-0.5,2.4-1.3,3.3c0.8,0.9,1.3,2.1,1.3,3.3
			c0,1.7-0.9,3.3-2.3,4.2c0.4,0.7,0.7,1.6,0.7,2.4c0,3.4-2.7,5-5.7,5c-1.4,3-4.4,5-7.7,5s-6.3-2-7.7-5c-3,0-5.7-1.6-5.7-5
			c0-0.8,0.3-1.7,0.7-2.4c-1.5-0.9-2.3-2.5-2.3-4.2c0-1.2,0.5-2.4,1.3-3.3c-0.8-0.9-1.3-2.1-1.3-3.3c0-1.7,0.9-3.4,2.4-4.3
			c-0.4-5.6-5.2-11.1-8.8-15.1c-3.6-4-5.4-8.6-5.4-14C53.3,49.2,66.8,40,80,40s26.7,9.2,26.7,23.3C106.7,68.7,104.9,73.3,101.3,77.3
			z M80,46.7c-9.4,0-20,6.3-20,16.7c0,3.3,1.4,6.8,3.5,9.4c1,1.1,2.1,2.2,3.2,3.4c3.7,4.4,6.8,9.6,7.3,15.5h11.9
			c0.5-5.9,3.6-11.1,7.3-15.5c1-1.2,2.2-2.3,3.2-3.4c2.2-2.6,3.5-6,3.5-9.4C100,52.9,89.4,46.7,80,46.7z M90,65
			c-0.9,0-1.7-0.8-1.7-1.7c0-3.6-5.6-5-8.3-5c-0.9,0-1.7-0.8-1.7-1.7S79.1,55,80,55c4.8,0,11.7,2.6,11.7,8.3
			C91.7,64.2,90.9,65,90,65z"/>
	</g>
</g>
<g class="lay-overshadow">
	<path class="st4" d="M88.3,63.3c0,0.9,0.8,1.7,1.7,1.7c0.9,0,1.7-0.8,1.7-1.7c0-5.8-6.8-8.3-11.7-8.3v3.3
		C82.8,58.3,88.3,59.7,88.3,63.3z"/>
	<path class="st4" d="M106.7,63.3C106.7,49.2,93.2,40,80,40v6.7c9.4,0,20,6.3,20,16.7c0,3.3-1.4,6.8-3.5,9.4c-1,1.1-2.1,2.4-3.2,3.6
		c-3.7,4.4-6.8,9.4-7.3,15.4H80V120c3.3,0,6.3-2,7.7-5c3,0,5.7-1.6,5.7-5c0-0.8-0.3-1.7-0.7-2.4c1.5-0.9,2.3-2.5,2.3-4.2
		c0-1.2-0.5-2.4-1.3-3.3c0.8-0.9,1.3-2.1,1.3-3.3c0-1.7-0.9-3.4-2.4-4.3c0.4-5.6,5.2-11.1,8.8-15.1S106.7,68.7,106.7,63.3z"/>
</g>
</svg>
