<?xml version="1.0" encoding="utf-8"?>
<!-- Generator: Adobe Illustrator 21.0.0, SVG Export Plug-In . SVG Version: 6.00 Build 0)  -->
<svg version="1.1" xmlns="http://www.w3.org/2000/svg" xmlns:xlink="http://www.w3.org/1999/xlink" x="0px" y="0px"
	 viewBox="0 0 160 160" style="enable-background:new 0 0 160 160;" xml:space="preserve">
<style type="text/css">
	.st2{fill:url(#SVGID_1_);}
</style>
<g class="lay-oval">
	<circle class="st0" cx="80" cy="80" r="74"/>
</g>
<g class="lay-ring">
	<path class="st1" d="M80,0C35.8,0,0,35.8,0,80c0,44.2,35.8,80,80,80s80-35.8,80-80C160,35.8,124.2,0,80,0z M80,154
		c-40.9,0-74-33.1-74-74S39.1,6,80,6s74,33.1,74,74S120.9,154,80,154z"/>
</g>
<g class="lay-undershadow">
	<linearGradient id="SVGID_1_" gradientUnits="userSpaceOnUse" x1="80.2419" y1="75.3669" x2="136.1059" y2="131.2309">
		<stop  offset="0" style="stop-color:#000000"/>
		<stop  offset="1" style="stop-color:#000000;stop-opacity:0"/>
	</linearGradient>
	<path class="st2" d="M153.5,88.6L113,48.1l-2,1.9v21v21.8l-1.8,5l-2.9-1L89,87.3l-12-3.5l-4.7-0.5l-8,8L62,108.1l-5.3,3.7L96.9,152
		C126.9,145,149.9,119.8,153.5,88.6z"/>
</g>
<g class="lay-motiv">
	<g>
		<path class="st3" d="M120,74.3c0,3.2-2.5,5.7-5.7,5.7v17.1c0,3.1-2.6,5.7-5.7,5.7c-7.9-6.6-20.8-15.7-36.2-17
			c-5.3,1.8-7.1,8-3.7,11.6c-3.1,5.1,0.9,8.7,5.6,12.5c-2.8,5.4-14.3,5.5-18.4,1.7c-2.6-7.9-6.4-15.9-3.3-25.9h-5.4
			c-3.9,0-7.1-3.2-7.1-7.1V70c0-3.9,3.2-7.1,7.1-7.1h21.4c17.1,0,31.4-10,40-17.1c3.1,0,5.7,2.6,5.7,5.7v17.1
			C117.5,68.6,120,71.1,120,74.3z M108.6,52.9C96.9,61.9,85.6,67,74.3,68.3v12.1c11.3,1.3,22.6,6.3,34.3,15.2V52.9z"/>
	</g>
</g>
<g class="lay-overshadow">
	<g class="st4">
		<path class="st1" d="M108.6,95.5c-11.7-8.9-22.9-14-34.3-15.2v-6H40v4.3c0,3.9,3.2,7.1,7.1,7.1h5.4c-3.1,10,0.7,18,3.3,25.9
			c4.1,3.8,15.6,3.7,18.4-1.7c-4.7-3.7-8.7-7.3-5.6-12.5c-3.5-3.6-1.7-9.8,3.7-11.6c15.5,1.3,28.3,10.4,36.2,17
			c3.1,0,5.7-2.6,5.7-5.7V80c3.2,0,5.7-2.5,5.7-5.7v0h-11.4V95.5z"/>
	</g>
</g>
</svg>
