<?xml version="1.0" encoding="utf-8"?>
<svg version="1.1" xmlns="http://www.w3.org/2000/svg" xmlns:xlink="http://www.w3.org/1999/xlink" x="0px" y="0px"
	 viewBox="0 0 160 160" style="enable-background:new 0 0 160 160;" xml:space="preserve">
<style type="text/css">
	.st2{fill:url(#SVGID_1_);}
</style>
<g class="lay-oval">
	<circle class="st0" cx="80" cy="80" r="74"/>
</g>
<g class="lay-ring">
	<path class="st1" d="M80,0C35.8,0,0,35.8,0,80c0,44.2,35.8,80,80,80s80-35.8,80-80C160,35.8,124.2,0,80,0z M80,154
		c-40.9,0-74-33.1-74-74S39.1,6,80,6s74,33.1,74,74S120.9,154,80,154z"/>
</g>
<g class="lay-undershadow">
	<linearGradient id="SVGID_1_" gradientUnits="userSpaceOnUse" x1="90.3471" y1="89.3196" x2="136.6912" y2="135.6637">
		<stop  offset="0" style="stop-color:#000000"/>
		<stop  offset="1" style="stop-color:#000000;stop-opacity:0"/>
	</linearGradient>
	<path class="st2" d="M153.8,85.3l-32.1-32.1c0.7,0.9,1.1,1.9,1.1,3.1c0,2.6-2,4.9-4.5,5.1L108,118h0H51.7h0l35.7,35.6
		C123,150.2,151.2,121.3,153.8,85.3z"/>
</g>
<g class="lay-motiv">
	<g>
		<path class="st3" d="M122.8,56.4c0-2.8-2.2-5-5-5c-2.8,0-5,2.2-5,5c0,0.6,0.1,1.1,0.3,1.6l-20,17.4l-9.3-26.7
			c1.4-1.1,2.3-2.8,2.3-4.7c0-3.3-2.7-6-6-6l0,0l0,0h0c-3.3,0-6,2.7-6,6c0,1.9,0.9,3.6,2.3,4.7l-9.4,26.8L46.8,58.2
			c0.2-0.6,0.3-1.2,0.3-1.8c0-2.8-2.2-5-5-5c-2.8,0-5,2.2-5,5c0,2.5,1.9,4.7,4.3,5L51.6,118h0.1h56.3h0l10.3-56.4
			C120.8,61.3,122.8,59,122.8,56.4z M106.5,98H53.5l-6-32.7l16.2,14l5.6,4.8l2.4-6.9L80,53.2l8.4,23.9l2.4,6.9l5.6-4.8l16.2-14
			L106.5,98z"/>
	</g>
</g>
<g class="lay-overshadow">
	<g class="st4">
		<path class="st1" d="M108,118l10.3-56.5c2.5-0.2,4.5-2.5,4.5-5.1c0-2.8-2.2-5-5-5c-2.8,0-5,2.2-5,5c0,0.6,0.1,1.1,0.3,1.6
			l-20,17.4l-9.3-26.7c1.4-1.1,2.3-2.8,2.3-4.7c0-3.3-2.7-6-6-6l0,0c0,0,0,0,0,0v15.2l0,0l8.4,23.9l2.4,6.9l5.6-4.8l16.2-14l-6,32.7
			H80v20H108L108,118z"/>
	</g>
</g>
</svg>
