<?xml version="1.0" encoding="utf-8"?>
<svg version="1.1" xmlns="http://www.w3.org/2000/svg" xmlns:xlink="http://www.w3.org/1999/xlink" x="0px" y="0px"
	 viewBox="0 0 160 160" style="enable-background:new 0 0 160 160;" xml:space="preserve">
<style type="text/css">
	.st2{fill:url(#SVGID_1_);}
</style>
<g class="lay-oval">
	<circle class="st0" cx="80" cy="80" r="74"/>
</g>
<g class="lay-ring">
	<path class="st1" d="M80,0C35.8,0,0,35.8,0,80c0,44.2,35.8,80,80,80s80-35.8,80-80C160,35.8,124.2,0,80,0z M80,154
		c-40.9,0-74-33.1-74-74S39.1,6,80,6s74,33.1,74,74S120.9,154,80,154z"/>
</g>
<g class="lay-undershadow">
	<linearGradient id="SVGID_1_" gradientUnits="userSpaceOnUse" x1="87.7698" y1="83.4189" x2="135.8854" y2="131.5345">
		<stop  offset="0" style="stop-color:#000000"/>
		<stop  offset="1" style="stop-color:#000000;stop-opacity:0"/>
	</linearGradient>
	<path class="st2" d="M154,80c0-1.6-0.1-3.3-0.2-4.9L119.7,41c0.2,0.3,0.3,0.7,0.3,1v16c0,1.1-0.9,2-2,2H72c-0.4,0-0.8-0.1-1.1-0.3
		L88.2,77H72c-0.5,0-0.9-0.2-1.2-0.4L84.2,90H72c-0.5,0-0.9-0.2-1.3-0.5L88.2,107H72c-0.5,0-0.9-0.2-1.3-0.5L84.2,120H74l-14-14
		l-8.5,8.5L48,118l35.9,35.9C122.9,151.9,154,119.6,154,80z"/>
</g>
<g class="lay-motiv">
	<g>
		<path class="st3" d="M58,60H42c-1.1,0-2-0.9-2-2V42c0-1.1,0.9-2,2-2h16c1.1,0,2,0.9,2,2v16C60,59.1,59.1,60,58,60z"/>
		<path class="st3" d="M118,60c1.1,0,2-0.9,2-2V42c0-0.4-0.1-0.7-0.3-1c-0.2-0.3-0.4-0.5-0.7-0.7c-0.3-0.2-0.7-0.3-1-0.3H87.7H72
			c-1.1,0-2,0.9-2,2v15.7V58c0,0.4,0.1,0.8,0.3,1.1c0.2,0.2,0.4,0.4,0.6,0.6c0.3,0.2,0.7,0.3,1.1,0.3H118z"/>
		<path class="st3" d="M58,90H42c-1.1,0-2-0.9-2-2V72c0-1.1,0.9-2,2-2h16c1.1,0,2,0.9,2,2v16C60,89.1,59.1,90,58,90z"/>
		<path class="st3" d="M88.9,77H118c1.1,0,2-0.9,2-2v-3c0-1.1-0.9-2-2-2H81.9H72c-1.1,0-2,0.9-2,2v3c0,0.5,0.2,0.9,0.4,1.2
			c0.1,0.1,0.2,0.3,0.4,0.4c0.3,0.3,0.7,0.4,1.2,0.4H88.9z"/>
		<path class="st3" d="M88.9,90H98c1.1,0,2-0.9,2-2v-3c0-1.1-0.9-2-2-2H81.9H72c-1.1,0-2,0.9-2,2v3c0,0.5,0.2,0.9,0.5,1.3
			c0.1,0.1,0.1,0.2,0.2,0.2c0.3,0.3,0.8,0.5,1.3,0.5H88.9z"/>
		<path class="st3" d="M88.9,107H118c1.1,0,2-0.9,2-2v-3c0-1.1-0.9-2-2-2H81.9H72c-1.1,0-2,0.9-2,2v3c0,0.5,0.2,0.9,0.5,1.3
			c0.1,0.1,0.1,0.2,0.2,0.2c0.3,0.3,0.8,0.5,1.3,0.5H88.9z"/>
		<path class="st3" d="M88.9,120H98c1.1,0,2-0.9,2-2v-3c0-1.1-0.9-2-2-2H81.9h-8.8H72c-1.1,0-2,0.9-2,2v1.1v1.9
			c0,0.5,0.2,0.9,0.5,1.3c0.1,0.1,0.1,0.2,0.2,0.2c0.3,0.3,0.8,0.5,1.3,0.5H88.9z"/>
		<polygon class="st3" points="60,106 60,106 56.5,102.5 56.5,102.5 48,111 46.7,109.7 43.5,106.5 40,110 44.5,114.5 48,118 48,118
			51.5,114.5 		"/>
	</g>
</g>
<g class="lay-overshadow">
	<g>
		<g class="st4">
			<path class="st1" d="M120,58v-9.4c-6.2,3.1-12.5,6.9-18.9,11.4H118C119.1,60,120,59.1,120,58z"/>
		</g>
		<g class="st4">
			<path class="st1" d="M120,75v-3c0-1.1-0.9-2-2-2H88.3c-2.6,2.2-5.2,4.6-7.8,7H118C119.1,77,120,76.1,120,75z"/>
		</g>
		<g class="st4">
			<path class="st1" d="M72,90h26c1.1,0,2-0.9,2-2v-3c0-1.1-0.9-2-2-2H74.5c-1.5,1.6-3.1,3.2-4.5,4.8V88C70,89.1,70.9,90,72,90z"/>
		</g>
		<g class="st4">
			<path class="st1" d="M118,100H72c-1.1,0-2,0.9-2,2v3c0,1.1,0.9,2,2,2h46c1.1,0,2-0.9,2-2v-3C120,100.9,119.1,100,118,100z"/>
		</g>
		<g class="st4">
			<path class="st1" d="M98,113H72c-1.1,0-2,0.9-2,2v3c0,1.1,0.9,2,2,2h26c1.1,0,2-0.9,2-2v-3C100,113.9,99.1,113,98,113z"/>
		</g>
		<g class="st4">
			<path class="st1" d="M60,106l-2.6-2.6c-3.5,4.9-6.6,9.7-9.3,14.5l3.4-3.4L60,106z"/>
		</g>
	</g>
</g>
</svg>
