<?xml version="1.0" encoding="utf-8"?>
<svg version="1.1" xmlns="http://www.w3.org/2000/svg" xmlns:xlink="http://www.w3.org/1999/xlink" x="0px" y="0px"
	 viewBox="0 0 160 160" style="enable-background:new 0 0 160 160;" xml:space="preserve">
<style type="text/css">
	.st2{fill:url(#SVGID_1_);}
</style>
<g class="lay-oval">
	<circle class="st0" cx="80" cy="80" r="74"/>
</g>
<g class="lay-ring">
	<path class="st1" d="M80,0C35.8,0,0,35.8,0,80c0,44.2,35.8,80,80,80s80-35.8,80-80C160,35.8,124.2,0,80,0z M80,154
		c-40.9,0-74-33.1-74-74S39.1,6,80,6s74,33.1,74,74S120.9,154,80,154z"/>
</g>
<g class="lay-undershadow">
	<linearGradient id="SVGID_1_" gradientUnits="userSpaceOnUse" x1="80.3094" y1="86.7126" x2="133.06" y2="139.4632">
		<stop  offset="0" style="stop-color:#000000"/>
		<stop  offset="1" style="stop-color:#000000;stop-opacity:0"/>
	</linearGradient>
	<path class="st2" d="M153.7,86.6L113,45.9v48L89.5,70.4V110H86L66,90v20H50l8,8H42.1v2h-2l33.7,33.7c2,0.2,4.1,0.3,6.2,0.3
		C118.7,154,150.4,124.4,153.7,86.6z"/>
</g>
<g class="lay-motiv">
	<g>
		<polygon class="st3" points="66,90 66,90 66,90 63.7,90 50,90 50,103.7 50,110 50,110 50,110 66,110 		"/>
		<polygon class="st3" points="113,45.9 113,45.8 112.9,45.8 107.9,45.8 97,45.8 97,110 105.5,110 113,110 		"/>
		<path class="st3" d="M89.5,70.4L89.5,70.4L89.5,70.4l-5.1,0C83,76.9,79,82.5,73.5,86V110v0h0h16V70.4z"/>
		<path class="st3" d="M60,50c8.3,0,15,6.7,15,15s-6.7,15-15,15c-8.3,0-15-6.7-15-15S51.7,50,60,50 M60,45c-11,0-20,9-20,20
			s9,20,20,20c11,0,20-9,20-20S71,45,60,45L60,45z"/>
		<path class="st3" d="M43,46.7V40h-3v10C40.9,48.8,41.9,47.7,43,46.7z"/>
		<path class="st3" d="M43,117V83.3c-1.1-1-2.1-2.1-3-3.3v37v3h3h77v-3H43z"/>
		<polygon class="st3" points="58,53 58,64.2 51.6,70.6 54.4,73.5 58,69.8 62,65.8 62,60.2 62,53 		"/>
	</g>
</g>
<g class="lay-overshadow">
	<g>
		<g class="st4">
			<path class="st1" d="M66,101.5c-2.2,2.8-4.2,5.7-6.1,8.5H66V101.5z"/>
		</g>
		<g class="st4">
			<path class="st1" d="M113,110V57.7c-5.3,3.4-10.7,7.3-16,11.7V110H113z"/>
		</g>
		<g class="st4">
			<path class="st1" d="M120,117H55.5c-0.6,1-1.2,2-1.7,3H120V117z"/>
		</g>
		<g class="st4">
			<path class="st1" d="M89.5,110V75.9c-2.2,2-4.5,4.2-6.6,6.3c-3.3,3.3-6.4,6.6-9.4,10V110H89.5z"/>
		</g>
	</g>
</g>
</svg>
