<?xml version="1.0" encoding="utf-8"?>
<svg version="1.1" xmlns="http://www.w3.org/2000/svg" xmlns:xlink="http://www.w3.org/1999/xlink" x="0px" y="0px"
	 viewBox="0 0 160 160" style="enable-background:new 0 0 160 160;" xml:space="preserve">
<style type="text/css">
	.st2{fill:url(#SVGID_1_);}
</style>
<g class="lay-oval">
	<circle class="st0" cx="80" cy="80" r="74"/>
</g>
<g class="lay-ring">
	<path class="st1" d="M80,0C35.8,0,0,35.8,0,80c0,44.2,35.8,80,80,80s80-35.8,80-80C160,35.8,124.2,0,80,0z M80,154
		c-40.9,0-74-33.1-74-74S39.1,6,80,6s74,33.1,74,74S120.9,154,80,154z"/>
</g>
<g class="lay-undershadow">
	<linearGradient id="SVGID_1_" gradientUnits="userSpaceOnUse" x1="87.8819" y1="85.1181" x2="136.8864" y2="134.1226">
		<stop  offset="0" style="stop-color:#000000"/>
		<stop  offset="1" style="stop-color:#000000;stop-opacity:0"/>
	</linearGradient>
	<path class="st2" d="M152.1,96.6L96.7,41.1c0.3,0.5,0.4,1.2,0.2,1.8l-2.7,8.9c-2.4-0.6-4.8-1-7.2-1h0c-2.5,0-5,0.4-7.5,1l4.2,4.2
		c1.1-0.2,2.2-0.3,3.3-0.3c8.9,0,17.4,5.2,23.8,13.6c9.6,12.5,14.6,33.3-0.3,43.8c-6.4,4.5-14.9,6.8-23.5,6.8c0,0,0,0,0,0
		c0,0,0,0,0,0c-8.6,0-17.1-2.3-23.5-6.8c-0.5-0.4-1.1-0.8-1.5-1.2l38.9,38.9C126.4,143.5,146.2,122.6,152.1,96.6z"/>
</g>
<g class="lay-motiv">
	<path class="st3" d="M87,85.6L87,85.6c-1.4,0-2.5-1.1-2.5-2.4c0-1.3,1.1-2.3,2.5-2.3s2.5,1,2.5,2.3h5c0-3.2-2.2-5.9-5.4-6.7V74
		h-4.3v2.5c-3.1,0.9-5.4,3.6-5.4,6.7c0,3.9,3.4,7,7.5,7v0c1.4,0,2.5,1,2.5,2.3c0,1.3-1.1,2.4-2.5,2.4v0c-1.4,0-2.5-1.1-2.5-2.4h-5
		c0,3.2,2.3,5.9,5.4,6.7v2.6h4.3v-2.6c3.1-0.9,5.3-3.5,5.3-6.8C94.5,88.8,91.2,85.6,87,85.6z"/>
	<path class="st3" d="M87,120C87,120,87.1,120,87,120C87.1,120,87.1,120,87,120c8.6,0,17.1-2.3,23.5-6.8
		c14.9-10.4,9.9-31.3,0.3-43.8c-6.4-8.3-14.9-13.6-23.8-13.6c-1.1,0-2.2,0.1-3.3,0.3c-4.7,0.7-9.1,2.7-13.2,5.8
		c-2.7,2.1-5.1,4.6-7.4,7.5c-3.7,4.8-6.7,10.9-8.2,17.1c-0.3,1.3-0.5,2.6-0.7,3.9c-0.8,6.8,0.4,13.4,4.7,18.7c0.8,1,1.8,2,2.9,2.9
		c0.5,0.4,1,0.8,1.5,1.2C69.9,117.7,78.5,120,87,120z M67.2,72.5c1.9-2.5,4-4.6,6.2-6.4c1.7-1.4,3.5-2.5,5.4-3.3
		c2.7-1.3,5.5-1.9,8.3-1.9c7,0,14.2,4.2,19.9,11.6c5.9,7.7,9,17.7,7.8,25.3c-0.7,4.8-3.1,8.6-7,11.4c-5.4,3.7-12.9,5.9-20.7,5.9
		c-7.8,0-15.3-2.1-20.6-5.9c-3.9-2.7-6.3-6.6-7-11.4c-0.3-2.2-0.3-4.6,0-7.1c0.6-4.2,2.1-8.6,4.3-12.8C64.7,76,65.9,74.2,67.2,72.5z
		"/>
	<g>
		<path class="st3" d="M87.1,50.9c2.4,0,4.8,0.3,7.2,1l2.7-8.9c0.2-0.7,0.1-1.3-0.2-1.8c-0.2-0.3-0.5-0.6-0.8-0.8
			c-0.3-0.2-0.7-0.3-1.2-0.3h-4H79c-1.6,0-2.7,1.5-2.2,3l2.5,8.4l0.2,0.5l0,0.1c0,0,0,0,0,0C82,51.3,84.5,50.9,87.1,50.9L87.1,50.9z
			"/>
	</g>
	<g>
		<path class="st3" d="M58.2,52.7c1.3,0,2.7,0.2,4,0.5l1.5-4.9c0.2-0.8-0.4-1.6-1.2-1.6h-8.7c-0.9,0-1.5,0.8-1.2,1.6l1.5,5
			C55.4,52.9,56.8,52.7,58.2,52.7L58.2,52.7z"/>
	</g>
	<g>
		<path class="st4" d="M66.9,58.5c-2.7-2-5.7-3.1-8.8-3.1c-4.9,0-9.6,2.9-13.1,7.5C39.7,69.8,37,81.3,45.2,87
			c1.3,0.9,2.7,1.6,4.3,2.2c1.1-7.8,4.6-16.1,9.8-22.8C61.6,63.4,64.2,60.8,66.9,58.5z"/>
	</g>
</g>
<g class="lay-overshadow">
	<g class="st5">
		<path class="st1" d="M94.3,51.9l2.7-8.9c0.4-1.5-0.7-3-2.2-3h-7.7v10.9C89.5,50.9,91.9,51.2,94.3,51.9z"/>
	</g>
	<g class="st5">
		<path class="st1" d="M106.9,72.5c5.9,7.7,9,17.7,7.8,25.3c-0.7,4.8-3.1,8.6-7,11.4c-5.3,3.7-12.9,5.9-20.7,5.9v5c0,0,0,0,0,0
			c8.6,0,17.1-2.3,23.5-6.8c14.9-10.4,9.9-31.3,0.3-43.8c-6.4-8.3-14.9-13.6-23.8-13.6v5C94,60.9,101.3,65.1,106.9,72.5z"/>
	</g>
	<g class="st5">
		<path class="st1" d="M89.5,83.3h5c0-3.2-2.2-5.9-5.4-6.7V74h-2.1v6.9C88.4,81,89.5,82,89.5,83.3z"/>
	</g>
	<g class="st5">
		<path class="st1" d="M89.2,102v-2.6c3.1-0.9,5.3-3.5,5.3-6.8c0-3.9-3.4-7-7.5-7v4.7c1.4,0,2.5,1,2.5,2.3c0,1.3-1.1,2.4-2.5,2.4v7
			H89.2z"/>
	</g>
</g>
</svg>
