<svg id="white" xmlns="http://www.w3.org/2000/svg" viewBox="0 0 42 20"><defs><style>.cls-1{fill:#fff;}.cls-2{fill:#fefefe;}.cls-3{fill:#8d729a;}.cls-4{fill:#816092;}.cls-5{fill:#a38ab1;}.cls-6{fill:#343434;}.cls-7{fill:#353535;}.cls-8{fill:#745a7f;}.cls-9{fill:#b6a9bc;}.cls-10{fill:#a88fb4;}.cls-11{fill:#373737;}.cls-12{fill:#3a3a3a;}.cls-13{fill:#a9a1ad;}.cls-14{fill:#684976;}.cls-15{fill:#7c5c8c;}.cls-16{fill:#af9cb8;}.cls-17{fill:#d8d3da;}.cls-18{fill:#3f3f3f;}.cls-19{fill:#e1e0e2;}.cls-20{fill:#513061;}.cls-21{fill:#461c5c;}.cls-22{fill:#cac2ce;}.cls-23{fill:#9984a3;}.cls-24{fill:#a99ab0;}.cls-25{fill:#745682;}.cls-26{fill:#fdfdfd;}.cls-27{fill:#7c6685;}.cls-28{fill:#60476b;}.cls-29{fill:#887d8c;}.cls-30{fill:#8e7f95;}.cls-31{fill:#90799b;}.cls-32{fill:#efebf1;}.cls-33{fill:#6f567b;}.cls-34{fill:#5a356c;}.cls-35{fill:#644573;}.cls-36{fill:#4b235e;}.cls-37{fill:#654a71;}</style></defs><title>logos</title><rect class="cls-1" x="0.02" width="41.98" height="20"/><path class="cls-2" d="M8.91,2.5q14.73,0,29.45,0c0.53,0,.64.1,0.63,0.63q0,6.82,0,13.65c0,0.46-.09.55-0.55,0.55q-17,0-34.08,0c-0.46,0-.57-0.09-0.55-0.55,0-1.21,0-2.42,0-3.62a0.16,0.16,0,0,1,.2,0,1.56,1.56,0,0,1,.28.62,4.41,4.41,0,0,0,2.86,3,5,5,0,0,0,2.25-.13,1.94,1.94,0,0,0,1.9-.48A4,4,0,0,0,13,13a1.68,1.68,0,0,1,0-.22c0.33-1-.26-1.82-0.72-2.64A16.46,16.46,0,0,0,10.46,7.5,4.61,4.61,0,0,1,9.21,5.36a7.84,7.84,0,0,1-.36-1.77A3.33,3.33,0,0,1,8.91,2.5Z"/><path class="cls-2" d="M3.82,10.67c0-2.57,0-5.14,0-7.71,0-.39.09-0.48,0.47-0.47,1.49,0,3,0,4.47,0,0,0.45-.49.43-0.67,0.71A7,7,0,0,0,6.85,4.71l-0.21.23A11.7,11.7,0,0,0,5.2,7.51a13,13,0,0,0-.71,1.85c-0.14.39-.24,0.79-0.39,1.17A0.23,0.23,0,0,1,3.82,10.67Z"/><path class="cls-3" d="M3.82,10.67L4,10.52a2.49,2.49,0,0,1,1.46.22,2,2,0,0,1-.17,1.46,0.44,0.44,0,0,1-.4.16,0.62,0.62,0,0,0-.83.52,0.17,0.17,0,0,1-.24.11V10.67Z"/><path class="cls-4" d="M3.82,13C3.9,12,4.5,12,5.2,12.21a1.58,1.58,0,0,1,.12,1.44c-0.7.48-1-.12-1.38-0.5H3.88l-0.06,0V13Z"/><path class="cls-5" d="M8,3.08L8.75,2.5H8.91A2.35,2.35,0,0,1,9,3.6C8.81,4,8.57,4.29,8.07,4A1.56,1.56,0,0,1,8,3.08Z"/><path class="cls-6" d="M20,12.24c-0.33,0-.67,0-1,0-0.56-.05-0.67.16-0.48,0.66a1.53,1.53,0,0,0,2,.84,2.79,2.79,0,0,0,.57-0.23,0.33,0.33,0,0,1,.51.15,0.39,0.39,0,0,1-.17.57,2.55,2.55,0,0,1-4-1.75,5.39,5.39,0,0,1,0-1.3,2.2,2.2,0,1,1,4.35.58,0.48,0.48,0,0,1-.55.49H20Z"/><path class="cls-6" d="M30.43,11c0.33-.47.64-0.9,0.93-1.34A0.68,0.68,0,0,1,32,9.23a0.8,0.8,0,0,1,.5.11c0.15,0.16-.05.33-0.15,0.47-0.36.53-.7,1.07-1.09,1.58a0.56,0.56,0,0,0,0,.8,17.43,17.43,0,0,1,1.08,1.59c0.12,0.2.57,0.44,0.21,0.67a0.71,0.71,0,0,1-1-.22c-0.34-.51-0.69-1-1.07-1.57a8.15,8.15,0,0,0-1.1,1.44,0.68,0.68,0,0,1-.59.42,0.63,0.63,0,0,1-.51-0.09c-0.13-.18,0-0.33.14-0.48l0.57-.82c0.92-1.35.92-1.35,0-2.71a3.36,3.36,0,0,1-.3-0.45c-0.1-.22-0.53-0.44-0.19-0.69a0.67,0.67,0,0,1,1,.18Z"/><path class="cls-7" d="M23.12,10.35c0-.92,0-1.85,0-2.77,0-.33,0-0.62.46-0.63S24,7.25,24,7.57c0,1.72,0,3.44,0,5.16,0,0.59,0,1.2.86,1.05,0.25,0,.28.2,0.31,0.36s-0.12.35-.35,0.4a1.29,1.29,0,0,1-1.7-1.26c-0.06-1,0-2,0-2.93h0Z"/><path class="cls-8" d="M13.22,12.83V13c-0.5.9-1.48,1-2.3,1.39a1.33,1.33,0,0,1-.9.05c-0.18-.08.23-0.3-0.14-0.43a2.78,2.78,0,0,1-1.12-1,0.51,0.51,0,0,1-.13-0.68c0.5-.2,1.05-0.15,1.54-0.38a4.77,4.77,0,0,0,1.48-.83C12.3,11.56,12.63,12.31,13.22,12.83Z"/><path class="cls-7" d="M36.29,12.13c0-.77,0-1.53,0-2.3,0-.21-0.08-0.42.18-0.51A0.4,0.4,0,0,1,37,9.5c0.11,0.3.22,0.26,0.4,0.07a1.23,1.23,0,0,1,.82-0.38,0.45,0.45,0,0,1,.57.52c0,0.4-.13.43-0.5,0.39a0.91,0.91,0,0,0-1.08,1q0,1.42,0,2.84c0,0.35,0,.59-0.49.58s-0.42-.27-0.42-0.57c0-.61,0-1.23,0-1.84H36.29Z"/><path class="cls-9" d="M9.52,16.66a2.89,2.89,0,0,1-2.46.17,0.48,0.48,0,0,1,.35-0.23H7.64c0-.08-0.08,0-0.12-0.06a1.65,1.65,0,0,1-.66,0,1.73,1.73,0,0,1-.15-2.23,1.66,1.66,0,0,1,1-.11,1.06,1.06,0,0,1,.44.19C8.68,15,9.55,15.33,10,16A0.58,0.58,0,0,1,9.52,16.66Z"/><path class="cls-10" d="M6.75,14.38a2,2,0,0,0,.3,2.15c0.19-.08.26,0,0.3,0.19l-0.29.12a4.44,4.44,0,0,1-3.11-3.68,4.65,4.65,0,0,0,1.25.61,2.76,2.76,0,0,1,1.37.34A0.4,0.4,0,0,1,6.75,14.38Z"/><path class="cls-11" d="M27.1,11.91c0,0.72,0,1.43,0,2.15a0.38,0.38,0,0,1-.44.47,0.39,0.39,0,0,1-.47-0.45c0-1.46,0-2.92,0-4.38a0.4,0.4,0,0,1,.44-0.48,0.42,0.42,0,0,1,.47.53C27.09,10.48,27.1,11.19,27.1,11.91Z"/><path class="cls-12" d="M33.73,11.83c0-.69,0-1.38,0-2.07,0-.33.05-0.55,0.44-0.54a0.39,0.39,0,0,1,.43.48c0,1.46,0,2.92,0,4.37a0.38,0.38,0,0,1-.45.46c-0.36,0-.42-0.18-0.42-0.48C33.74,13.31,33.73,12.57,33.73,11.83Z"/><path class="cls-13" d="M10.91,14.22A9.06,9.06,0,0,0,13.23,13a3.92,3.92,0,0,1-1.85,3.25,1,1,0,0,1-1.21-.07C10.15,15.41,10.73,14.89,10.91,14.22Z"/><path class="cls-14" d="M13.22,12.83a3.58,3.58,0,0,1-1.54-1.7A2.63,2.63,0,0,1,11.4,10c0-.31-0.43-0.6-0.07-0.94,0.63,0,.77.63,1.14,1A3.13,3.13,0,0,1,13.22,12.83Z"/><path class="cls-15" d="M8.16,4A1.8,1.8,0,0,0,9,3.6L9.38,5.42a1.11,1.11,0,0,1-.33,1.12A2.57,2.57,0,0,1,8.16,4Z"/><path class="cls-16" d="M9,6.52l0.35-1.1a5.66,5.66,0,0,0,1.22,2,0.94,0.94,0,0,1,.1.68c-0.27.31-.45,0-0.62-0.12A4.14,4.14,0,0,1,9,6.74,0.3,0.3,0,0,1,9,6.52Z"/><path class="cls-17" d="M10.59,8.22V7.43A13.38,13.38,0,0,1,12.47,10l-1.08-.91a2.34,2.34,0,0,1-.58-0.33,0.69,0.69,0,0,1-.27-0.29A0.27,0.27,0,0,1,10.59,8.22Z"/><path class="cls-18" d="M34.63,7.5a0.42,0.42,0,0,1-.46.54c-0.44,0-.48-0.23-0.48-0.58s0.08-.52.45-0.52A0.42,0.42,0,0,1,34.63,7.5Z"/><path class="cls-19" d="M10.14,16a3.08,3.08,0,0,0,1.24.18,2.85,2.85,0,0,1-1.6.73c-0.17.06-.24-0.13-0.25-0.3L10,16.09A0.08,0.08,0,0,1,10.14,16Z"/><path class="cls-12" d="M26.18,7.53c-0.07-.4.06-0.6,0.48-0.59a0.42,0.42,0,0,1,.48.52c0,0.36-.08.59-0.5,0.57S26.12,7.87,26.18,7.53Z"/><path class="cls-20" d="M6.59,4.81l0.15-.16a0.89,0.89,0,0,1,.64.84,6.21,6.21,0,0,0,.56,1.32C8.11,7.25,8.52,7,8.79,7.12a1,1,0,0,1,0,.66C8.76,8.49,8.1,8.93,8,9.62c-0.07.28-.15,0.57-0.21,0.85a3.08,3.08,0,0,0,.07,1.13c-0.1.23-.63,0.44,0,0.69,0.28,0.11.18,0.39,0,.59a1,1,0,0,1-.74.5A4.08,4.08,0,0,1,5.47,10.5,2.7,2.7,0,0,1,6.78,10,1.27,1.27,0,0,0,6.73,8.9,5.09,5.09,0,0,0,6,6.2,3,3,0,0,1,6.59,4.81Z"/><path class="cls-21" d="M8.75,7.13C8.28,7.43,8,7.48,7.7,6.81a7.3,7.3,0,0,0-1-2.16A4.56,4.56,0,0,1,8,3.08a1.46,1.46,0,0,1,.2.95A5.89,5.89,0,0,0,9,6.52a0.65,0.65,0,0,1,0,.14A0.35,0.35,0,0,1,8.75,7.13Z"/><path class="cls-22" d="M6.59,4.81A8.53,8.53,0,0,0,6.13,6.2c-0.14.33,0,.69-0.12,1A8.92,8.92,0,0,1,5.6,8.73C5.37,9.06,5.18,9.1,5,8.66a5.46,5.46,0,0,1,0-1.22A7.8,7.8,0,0,1,6.59,4.81Z"/><path class="cls-23" d="M5.35,10.67c-0.5.4-.9-0.09-1.36-0.15a3.5,3.5,0,0,1,.32-1.23,0.89,0.89,0,0,1,1.12.29,1,1,0,0,1,0,.86A0.51,0.51,0,0,1,5.35,10.67Z"/><path class="cls-24" d="M5.33,9.59a4.13,4.13,0,0,0-1-.3,8.09,8.09,0,0,1,.75-1.85,1.94,1.94,0,0,1,.14,1.17c0,0.45.18,0.08,0.28,0A0.6,0.6,0,0,1,5.33,9.59Z"/><path class="cls-25" d="M5.35,10.67l0-.16a0.08,0.08,0,0,1,.13,0,7.26,7.26,0,0,0,1.7,2.78,0.25,0.25,0,0,1,.18.33,1.14,1.14,0,0,1-.79.59,5.07,5.07,0,0,1-1.39-.47V12.21Z"/><path class="cls-26" d="M19.67,11.47a1.82,1.82,0,0,1-.38,0c-0.27-.06-0.68.19-0.8-0.18a1,1,0,0,1,.36-1,1.22,1.22,0,0,1,1.61-.18,1,1,0,0,1,.46,1.14c-0.1.38-.52,0.13-0.8,0.18A2.36,2.36,0,0,1,19.67,11.47Z"/><path class="cls-27" d="M7.84,11.59c-0.13-.35-0.53-0.66-0.17-1.08A2.17,2.17,0,0,0,8.9,9.89c0.13-.2.42,0,0.63,0.1a4.43,4.43,0,0,0,1,.61,2.41,2.41,0,0,0,.14-0.73,0.44,0.44,0,0,1,.14-0.19,0.62,0.62,0,0,1,.76.22,2.15,2.15,0,0,1,.15,1.23,2.12,2.12,0,0,1-1.39.92,2.32,2.32,0,0,1-.76-0.5c-0.41-.34-0.71-0.35-0.91.21a0.59,0.59,0,0,1-.3.33A0.49,0.49,0,0,1,7.84,11.59Z"/><path class="cls-28" d="M7.84,11.59a1.61,1.61,0,0,1,.44.47,0.32,0.32,0,0,1,.31.33A4.24,4.24,0,0,0,10,13.88c0.32,0.22.2,0.32,0,.48a1.93,1.93,0,0,1-1.84.16l-0.3-.16a0.84,0.84,0,0,1-.48-0.75L7.21,13.3c0.21-.18.42-0.36,0.61-0.55s0.19-.3,0-0.35C6.36,12,7.49,11.84,7.84,11.59Z"/><path class="cls-29" d="M8.14,14.52L10,14.36l0.93-.14A2.32,2.32,0,0,1,10.14,16l-0.13,0A8.76,8.76,0,0,1,8.14,14.52Z"/><path class="cls-30" d="M8.59,12.39l-0.31-.33c0.66-1.31.78-1.33,1.84-.26a1.79,1.79,0,0,1,.17.25A3.46,3.46,0,0,1,8.59,12.39Z"/><path class="cls-31" d="M7.36,13.61a2.06,2.06,0,0,1,.48.75l-1.09,0-0.16-.15C6.92,14.12,6.91,13.57,7.36,13.61Z"/><path class="cls-32" d="M7.36,16.72l-0.3-.19c0.39-.39.74,0,1.18,0C8,17,7.64,16.76,7.36,16.72Z"/><path class="cls-33" d="M11.53,9.9l-0.77-.15c-0.52-.43-0.39-0.77.15-1a0.81,0.81,0,0,1,.48.42C11.19,9.42,11.59,9.62,11.53,9.9Z"/><path class="cls-34" d="M8.75,7.13l0.31-.46,1.53,1.55,0,0.28c0.1,0.6-.29.51-0.58,0.35A4.15,4.15,0,0,1,8.6,7.74Z"/><path class="cls-35" d="M8.6,7.74A6.69,6.69,0,0,1,10,8.63c0.26,0.17.5,0.34,0.6-.14L10.9,8.7a0.78,0.78,0,0,0-.15,1V9.9a0.64,0.64,0,0,1-.88-0.17,1.08,1.08,0,0,0-1.54-.16,0.45,0.45,0,0,1-.5,0C7.82,8.86,8.64,8.48,8.6,7.74Z"/><path class="cls-33" d="M7.83,9.59a1.6,1.6,0,0,1,2.42.18,0.61,0.61,0,0,0,.5.13,4.36,4.36,0,0,1,0,1,1.52,1.52,0,0,1-1.08-.55c-0.34-.21-0.73-0.81-1,0.15-0.13.44-.67-0.12-1,0A2.84,2.84,0,0,1,7.83,9.59Z"/><path class="cls-36" d="M5.5,10.52l-0.13,0,0-.92,0.15-.93L5.84,7.13a0.2,0.2,0,0,1,.24.12,17.38,17.38,0,0,1,.82,2.8Z"/><path class="cls-37" d="M6.89,10.05A17.83,17.83,0,0,1,5.84,7.13,1.91,1.91,0,0,1,6.13,6.2c1,1.11.54,2.63,1.06,3.88,0,0.1,0,.22-0.15.14A0.59,0.59,0,0,1,6.89,10.05Z"/></svg>