<svg id="white" xmlns="http://www.w3.org/2000/svg" viewBox="0 0 39 20"><defs><style>.cls-1{fill:#fff;}.cls-2{fill:#fefefe;}.cls-3{fill:#fcfcfc;}</style></defs><title>logos</title><rect class="cls-1" x="0.02" width="38.98" height="20"/><path d="M31.72,12.55H28.8c-0.19,0-.24-0.05-0.23-0.24,0-1.55,0-3.09,0-4.64a0.46,0.46,0,0,1,.54-0.54h4.24a1.51,1.51,0,0,1,1.37.76,1.77,1.77,0,0,1,.14,1,0.25,0.25,0,0,0,.24.31A1.21,1.21,0,0,1,36,10.43c0,0.27,0,.54,0,0.81a1.41,1.41,0,0,1-1.45,1.31H31.72Z"/><path d="M8.77,8.5H3.27C3.09,8.5,3,8.45,3.05,8.27s0-.45,0-0.67a0.42,0.42,0,0,1,.47-0.47H9a1.49,1.49,0,0,1,1.49,1.05,1.33,1.33,0,0,1-1,1.58C8.77,10,8,10.2,7.28,10.41l-2.52.72a0.41,0.41,0,0,0,.28,0h5.21c0.22,0,.28.06,0.26,0.27s0,0.45,0,.67a0.39,0.39,0,0,1-.43.44c-1.87,0-3.75,0-5.62,0a1.35,1.35,0,0,1-1.22-2,1.49,1.49,0,0,1,.89-0.66L8.61,8.59A0.16,0.16,0,0,0,8.77,8.5Z"/><path d="M23.31,7.13H25.9a1.64,1.64,0,0,1,1.17.4,1.22,1.22,0,0,1,.44.95c0,0.22,0,.43,0,0.65a1.16,1.16,0,0,1-.38.94c-0.1.09-.09,0.14,0,0.23a1.21,1.21,0,0,1,.38,1c0,0.29,0,.58,0,0.86a0.38,0.38,0,0,1-.39.42H26.17C26,12.56,26,12.48,26,12.37c0-.44,0-0.88,0-1.32a0.43,0.43,0,0,0-.52-0.52H21.8c-0.19,0-.24,0-0.24.24,0,0.43,0,.86,0,1.3a0.41,0.41,0,0,1-.48.5H20.22a0.14,0.14,0,0,1-.17-0.17c0-1.59,0-3.19,0-4.78a0.45,0.45,0,0,1,.53-0.47h2.73Z"/><path d="M15.24,12.55c-0.73,0-1.46,0-2.19,0a1.46,1.46,0,0,1-1.51-1.5c0-1.13,0-2.27,0-3.4a0.44,0.44,0,0,1,.52-0.52c0.25,0,.5,0,0.76,0s0.22,0.06.22,0.23c0,1.05,0,2.11,0,3.16,0,0.57.1,0.67,0.68,0.67h3.21a0.46,0.46,0,0,0,.56-0.57q0-1.47,0-2.94A0.46,0.46,0,0,1,18,7.13h0.81A0.14,0.14,0,0,1,19,7.3c0,1.31,0,2.63,0,3.94a1.39,1.39,0,0,1-1.47,1.31H15.24Z"/><path class="cls-2" d="M32.26,11.17c-0.65,0-1.29,0-1.94,0-0.18,0-.27,0-0.24-0.23a0.5,0.5,0,0,0,0-.16c0-.2,0-0.27.25-0.27h3.88a0.39,0.39,0,0,1,.3.47c0,0.23-.18.18-0.32,0.18H32.26Z"/><path class="cls-3" d="M31.71,9.16h-1.4c-0.17,0-.23,0-0.23-0.22,0-.45,0-0.45.45-0.45h2.4a0.38,0.38,0,0,1,.46.41,0.21,0.21,0,0,1-.25.26H31.71Z"/><path class="cls-3" d="M23.76,9.16c-0.65,0-1.29,0-1.94,0-0.2,0-.28,0-0.25-0.25a0.72,0.72,0,0,0,0-.22c0-.17.05-0.21,0.21-0.21h3.77a0.44,0.44,0,0,1,.37.13,0.44,0.44,0,0,1,.08.43c0,0.15-.19.11-0.3,0.11H23.76Z"/></svg>