<?xml version="1.0" encoding="utf-8"?>
<!-- Generator: Adobe Illustrator 21.0.0, SVG Export Plug-In . SVG Version: 6.00 Build 0)  -->
<svg version="1.1" id="white" xmlns="http://www.w3.org/2000/svg" xmlns:xlink="http://www.w3.org/1999/xlink" x="0px" y="0px"
	 viewBox="0 0 23 20" style="enable-background:new 0 0 23 20;" xml:space="preserve">
<style type="text/css">
	.st0{fill:#FFFFFF;}
	.st1{fill:#53C1DE;}
</style>
<title>logos</title>
<rect class="st0" width="23" height="20"/>
<g>
	<path class="st0" d="M1.5,10c0,1.5,1.5,2.9,3.8,3.7c-0.5,2.3-0.1,4.2,1.2,4.9c1.3,0.8,3.2,0.2,5.1-1.4c1.8,1.5,3.6,2.2,4.9,1.4
		c1.3-0.8,1.7-2.8,1.2-5.2c2.4-0.8,3.8-2,3.8-3.5c0-1.5-1.5-2.7-3.8-3.5c0.5-2.5,0.1-4.3-1.2-5.1c-1.3-0.7-3.1-0.1-4.9,1.5
		c-1.9-1.7-3.7-2.2-5-1.4C5.2,2.1,4.9,4,5.3,6.4C3.1,7.2,1.5,8.5,1.5,10z"/>
	<path class="st1" d="M17.2,7.2C17,7.2,16.8,7.1,16.7,7c0-0.1,0.1-0.3,0.1-0.4c0.4-2.1,0.1-3.8-0.8-4.3c-0.9-0.5-2.4,0-4,1.4
		c-0.2,0.1-0.3,0.3-0.4,0.4c-0.1-0.1-0.2-0.2-0.3-0.3C9.6,2.4,8,1.8,7.1,2.3C6.1,2.9,5.9,4.5,6.3,6.4c0,0.2,0.1,0.4,0.1,0.6
		C6.2,7.1,5.9,7.2,5.7,7.2C3.9,7.9,2.7,8.9,2.7,10c0,1.1,1.3,2.2,3.2,2.9c0.2,0.1,0.3,0.1,0.5,0.1c-0.1,0.2-0.1,0.4-0.1,0.6
		c-0.4,2-0.1,3.5,0.8,4c1,0.5,2.5,0,4.1-1.4c0.1-0.1,0.2-0.2,0.4-0.3c0.2,0.2,0.3,0.3,0.5,0.4c1.5,1.3,3,1.8,3.9,1.3
		c1-0.6,1.3-2.2,0.9-4.2c0-0.2-0.1-0.3-0.1-0.5c0.1,0,0.2-0.1,0.3-0.1c2-0.7,3.4-1.8,3.4-2.9C20.4,8.9,19.1,7.9,17.2,7.2L17.2,7.2z"
		/>
	<path class="st0" d="M16.8,12.1c-0.1,0-0.2,0.1-0.3,0.1c-0.2-0.7-0.5-1.5-0.9-2.2c0.4-0.8,0.6-1.5,0.9-2.2c0.2,0.1,0.4,0.1,0.5,0.2
		c1.6,0.6,2.6,1.4,2.6,2C19.6,10.7,18.5,11.5,16.8,12.1L16.8,12.1z M16.1,13.6c0.2,0.9,0.2,1.7,0.1,2.3c-0.1,0.6-0.3,0.9-0.6,1.1
		c-0.6,0.3-1.8-0.1-3-1.2c-0.1-0.1-0.3-0.3-0.4-0.4c0.5-0.5,1-1.2,1.5-1.9c0.9-0.1,1.7-0.2,2.4-0.4C16,13.3,16,13.4,16.1,13.6
		L16.1,13.6z M8.7,17c-0.5,0.2-1,0.2-1.2,0c-0.6-0.3-0.8-1.6-0.5-3.2c0-0.2,0.1-0.4,0.1-0.6c0.7,0.2,1.5,0.3,2.4,0.3
		c0.5,0.7,1,1.3,1.5,1.9c-0.1,0.1-0.2,0.2-0.3,0.3C10,16.3,9.3,16.7,8.7,17L8.7,17z M6.1,12.1c-0.9-0.3-1.6-0.7-2.1-1.1
		c-0.4-0.4-0.7-0.7-0.7-1.1c0-0.6,1-1.5,2.6-2c0.2-0.1,0.4-0.1,0.6-0.2C6.8,8.5,7.1,9.2,7.5,10c-0.4,0.8-0.7,1.5-0.9,2.3
		C6.4,12.2,6.3,12.2,6.1,12.1z M7,6.3C6.7,4.6,6.9,3.3,7.4,3C8,2.6,9.4,3.1,10.7,4.4c0.1,0.1,0.2,0.2,0.3,0.2
		c-0.5,0.6-1,1.2-1.5,1.9C8.7,6.6,7.9,6.7,7.1,6.8C7.1,6.7,7,6.5,7,6.3L7,6.3z M14.6,8.2c-0.2-0.3-0.4-0.6-0.5-0.9
		c0.6,0.1,1.1,0.2,1.6,0.3c-0.2,0.5-0.3,1-0.6,1.5C15,8.8,14.8,8.5,14.6,8.2L14.6,8.2z M11.5,5.1c0.3,0.4,0.7,0.8,1,1.3
		c-0.7,0-1.4,0-2.1,0C10.8,6,11.2,5.5,11.5,5.1L11.5,5.1z M8.4,8.2C8.2,8.5,8.1,8.8,7.9,9.1c-0.2-0.5-0.4-1-0.6-1.5
		c0.5-0.1,1-0.2,1.6-0.3C8.7,7.6,8.6,7.9,8.4,8.2z M9,12.7c-0.6-0.1-1.1-0.2-1.6-0.3c0.2-0.5,0.3-1,0.6-1.6c0.2,0.3,0.3,0.6,0.5,0.9
		C8.6,12.1,8.8,12.4,9,12.7z M11.5,14.9c-0.4-0.4-0.7-0.8-1.1-1.3c0.3,0,0.7,0,1,0c0.4,0,0.7,0,1.1,0C12.2,14,11.9,14.5,11.5,14.9z
		 M15.2,10.9c0.2,0.5,0.4,1.1,0.6,1.6c-0.5,0.1-1.1,0.2-1.7,0.3c0.2-0.3,0.4-0.6,0.5-0.9C14.8,11.5,15,11.2,15.2,10.9L15.2,10.9z
		 M14,11.4c-0.3,0.5-0.6,0.9-0.8,1.4c-0.5,0-1.1,0.1-1.6,0.1c-0.6,0-1.1,0-1.6-0.1c-0.3-0.4-0.6-0.9-0.9-1.4C8.8,11,8.5,10.5,8.3,10
		C8.5,9.5,8.8,9,9,8.6v0c0.3-0.5,0.6-0.9,0.9-1.4c0.5,0,1.1-0.1,1.6-0.1c0.5,0,1.1,0,1.6,0.1c0.3,0.4,0.6,0.9,0.9,1.4
		c0.3,0.5,0.5,0.9,0.8,1.4C14.5,10.5,14.3,10.9,14,11.4L14,11.4z M15.6,3c0.6,0.3,0.8,1.7,0.5,3.5c0,0.1-0.1,0.2-0.1,0.4
		c-0.7-0.2-1.5-0.3-2.4-0.4c-0.5-0.7-1-1.3-1.5-1.9c0.1-0.1,0.3-0.3,0.4-0.4C13.8,3.1,15,2.6,15.6,3L15.6,3z"/>
	<path class="st1" d="M11.5,8.4c0.9,0,1.6,0.7,1.6,1.6c0,0.9-0.7,1.6-1.6,1.6c-0.9,0-1.6-0.7-1.6-1.6C9.9,9.1,10.6,8.4,11.5,8.4"/>
</g>
</svg>
