<svg id="white" xmlns="http://www.w3.org/2000/svg" viewBox="0 0 67.67 20"><defs><style>.cls-1{fill:#fff;}.cls-2{fill:#e3ded6;}.cls-3{fill:#120101;}.cls-4{fill:#110101;}.cls-5{fill:#f9f9f9;}.cls-6{fill:#e9e2d8;}.cls-7{fill:#120102;}.cls-8{fill:#120202;}.cls-9{fill:#c6bdaa;}.cls-10{fill:#d1ccbe;}.cls-11{fill:#dbdada;}.cls-12{fill:#343334;}.cls-13{fill:#282424;}.cls-14{fill:#d7cfc0;}.cls-15{fill:#b7b4b4;}.cls-16{fill:#bebcbb;}.cls-17{fill:#252323;}.cls-18{fill:#f8f8f8;}.cls-19{fill:#f8f7f8;}.cls-20{fill:#dad2c4;}.cls-21{fill:#ccc6b8;}.cls-22{fill:#c6beac;}.cls-23{fill:#171414;}.cls-24{fill:#0c0a09;}.cls-25{fill:#d2c9b8;}.cls-26{fill:#dfdad0;}</style></defs><title>logos</title><rect class="cls-1" x="0.01" width="67.68" height="20"/><path class="cls-2" d="M6.85,16.39a6.1,6.1,0,0,1-3.14-1.45,2.53,2.53,0,0,1,.12-3.78,4.53,4.53,0,0,1,1.68-.9,0.22,0.22,0,0,1,.05.24c-0.25.46-.19,0.74,0.38,0.82a0.54,0.54,0,0,1,.41.6,1.22,1.22,0,0,0,1,.93,9.19,9.19,0,0,0,3.54.54c0.89,0,1.79,0,2.68,0,0.27,0.09.76-.12,0.68,0.51,0,0.14.27,0.18,0.44,0.23a3.3,3.3,0,0,1,1,.41c0.25,0.18.53,0.37,0.28,0.75a3.65,3.65,0,0,1-1.36.49,22.29,22.29,0,0,1-4.1.67c-0.31,0-.61,0-0.91,0A25.89,25.89,0,0,1,6.85,16.39Z"/><path class="cls-3" d="M23.92,13.82c0-.42,0-0.85,0-1.27,0-.18-0.11-0.41.23-0.44a0.39,0.39,0,0,1,.46.36,4.15,4.15,0,0,0,.57,1.27,2.84,2.84,0,0,0,2,1.37,1.83,1.83,0,0,0,2.05-1,2,2,0,0,0-.83-2.38,11.64,11.64,0,0,0-1.34-.58L26,10.7a2.71,2.71,0,0,1-1.77-3.2,3,3,0,0,1,2.85-2.19,4.06,4.06,0,0,1,1.56.28c0.38,0.14.73,0.57,1.16,0,0.11-.14.55-0.15,0.54,0.35,0,0.87,0,1.74,0,2.6,0,0.16.07,0.37-.23,0.37a0.36,0.36,0,0,1-.44-0.29,5.17,5.17,0,0,0-.55-1.42A2.19,2.19,0,0,0,27.08,6a1.49,1.49,0,0,0-1.42.92,1.56,1.56,0,0,0,.27,1.68,4,4,0,0,0,1.64,1c0.52,0.23,1.08.41,1.59,0.67a2.56,2.56,0,0,1,1.62,2.91,3,3,0,0,1-2.14,2.47,4.69,4.69,0,0,1-3.31-.28c-0.25-.12-0.47-0.28-0.63.11a0.41,0.41,0,0,1-.53.16c-0.27,0-.16-0.28-0.17-0.43,0-.44,0-0.89,0-1.33H23.92Z"/><path class="cls-4" d="M37.29,9.45a4.41,4.41,0,0,1,1.63-1,1.94,1.94,0,0,1,2.62,2c0,1.11,0,2.23,0,3.34,0,0.6,0,1.13.8,1.22,0.22,0,.22.17,0.22,0.33a0.21,0.21,0,0,1-.26.21H39.42c-0.18,0-.29,0-0.28-0.26s0-.29.26-0.29c0.69,0,.84-0.42.82-1,0-1,0-2,0-3.07S39.75,9.3,39,9.29A1.67,1.67,0,0,0,37.22,11c0,1,0,2,0,2.94A0.9,0.9,0,0,0,38,15a0.28,0.28,0,0,1,.29.34c0,0.29-.22.22-0.39,0.22H35.23c-0.17,0-.36,0-0.37-0.24s0.1-.29.32-0.3a0.7,0.7,0,0,0,.71-0.85c0-1.29,0-2.58,0-3.87A1,1,0,0,0,35,9.2a0.25,0.25,0,0,1-.26-0.29c0-.29.18-0.25,0.35-0.26,0.33,0,.67,0,1-0.06C37.16,8.48,37.16,8.48,37.29,9.45Z"/><path class="cls-4" d="M63.26,14.75a2.91,2.91,0,0,1-2.23,1,1.7,1.7,0,0,1-1.77-1.22,2,2,0,0,1,.89-2.24,16.44,16.44,0,0,1,2.54-.94,0.74,0.74,0,0,0,.55-0.88A1.44,1.44,0,0,0,62.32,9a1.32,1.32,0,0,0-1.26.23c-0.21.14,0,.37,0,0.56a0.76,0.76,0,0,1-.34,1,0.74,0.74,0,0,1-1-.13,1,1,0,0,1,0-1.23,3,3,0,0,1,2.76-1c1.48,0.12,2,.74,2.06,2.23,0,0.82,0,1.64,0,2.47,0,0.24,0,.49,0,0.73,0,0.91,0,1,.93,1.11,0.13,0,.27,0,0.27.2a0.32,0.32,0,0,1-.18.37A1.57,1.57,0,0,1,63.26,14.75Z"/><path class="cls-4" d="M46.86,14.8a3,3,0,0,1-2.18.95,1.71,1.71,0,0,1-1.77-1.21,1.92,1.92,0,0,1,.87-2.24,9.56,9.56,0,0,1,1.29-.52c0.33-.12.67-0.22,1-0.34a1,1,0,0,0,.72-1.61A1.29,1.29,0,0,0,45.13,9a0.53,0.53,0,0,0-.47.71,0.78,0.78,0,0,1-.38,1.07,0.73,0.73,0,0,1-.92-0.16,1,1,0,0,1,0-1.19,2.49,2.49,0,0,1,1.36-.91,4,4,0,0,1,2.24,0,1.77,1.77,0,0,1,1.26,1.83c0,1.13,0,2.26,0,3.4,0,0.91.08,1,.94,1.18,0.15,0,.24,0,0.26.21a0.36,0.36,0,0,1-.26.4A1.59,1.59,0,0,1,46.86,14.8Z"/><path class="cls-5" d="M53.88,15.6c-0.1,0-.21-0.11-0.26.06-0.25.71-.28,0.72-0.82,0.22a1.23,1.23,0,0,0-.28-0.15c0.08-.41.56-0.3,0.78-0.61A1.15,1.15,0,0,0,52.67,15a1.13,1.13,0,0,1-1.16-1,7.72,7.72,0,0,1-.1-1.92c0-.69,0-1.38,0-2.06a0.77,0.77,0,0,1,.9-0.9A10.66,10.66,0,0,0,53.76,9,1.09,1.09,0,0,1,55,10.3c0,1.25,0,2.49,0,3.74a1.18,1.18,0,0,1-.73,1.23A1.26,1.26,0,0,0,53.88,15.6Z"/><path class="cls-6" d="M7.53,6.93a2.09,2.09,0,0,1,2.4-1.66,23.54,23.54,0,0,1,5.06,1,4,4,0,0,1,.82.27c0.52,0.26,1.08.47,0.82,1.3A0.81,0.81,0,0,0,17.13,9a9.68,9.68,0,0,1-.22,1.28,1.59,1.59,0,0,1-1.25.89,3.3,3.3,0,0,1-1.05.15A0.8,0.8,0,0,1,14,10.17a15.48,15.48,0,0,1,.77-1.48A1.1,1.1,0,0,0,14.22,7,6.09,6.09,0,0,0,9.55,7a4,4,0,0,1-1.13.18A3.74,3.74,0,0,1,7.53,6.93Z"/><path class="cls-7" d="M53.74,9.16a2.64,2.64,0,0,1-1.61.16,0.41,0.41,0,0,0-.49.5c0,1.22,0,2.45,0,3.67s0.35,1.38,1.42,1.32a3.47,3.47,0,0,0,.4,0,0.22,0.22,0,0,1,.3.23,0.25,0.25,0,0,1-.2.34c-0.36.11-.71,0.24-1.06,0.36h-0.6a1.38,1.38,0,0,1-1.6-1.58c0-1.33,0-2.67,0-4,0-.64-0.1-1-0.81-0.84-0.15,0-.43.14-0.46-0.19s-0.05-.5.38-0.5c0.88,0,.88,0,0.88-0.94a3.27,3.27,0,0,0,0-.53c-0.09-.57.15-0.68,0.69-0.69s0.64,0.2.63,0.68c0,1.49,0,1.49,1.51,1.5,0.2,0,.4,0,0.6,0A0.32,0.32,0,0,1,53.74,9.16Z"/><path class="cls-7" d="M53.74,9.16V8.68c0.49,0,1-.06,1.46-0.11,1-.1,1-0.11,1,0.89a3.44,3.44,0,0,1,1.62-1,1,1,0,0,1,1.32,1.24,0.7,0.7,0,0,1-.78.72,0.69,0.69,0,0,1-.76-0.79c0-.1,0-0.21,0-0.32a1.5,1.5,0,0,0-1.43,1.61c0,1,0,2,0,3.07a0.89,0.89,0,0,0,.91,1c0.21,0,.48,0,0.43.32s-0.33.22-.51,0.22c-1,0-2.09,0-3.14,0-0.11-.35-0.09-0.57.39-0.56a0.59,0.59,0,0,0,.59-0.67c0-1.42,0-2.83,0-4.25A1,1,0,0,0,53.74,9.16Z"/><path class="cls-8" d="M33.61,11.55c0,0.8,0,1.6,0,2.4A0.9,0.9,0,0,0,34.35,15a0.29,0.29,0,0,1,.31.33c0,0.29-.2.24-0.36,0.24H31.62c-0.18,0-.35,0-0.35-0.26s0.12-.28.33-0.29a0.7,0.7,0,0,0,.68-0.86c0-1.29,0-2.58,0-3.87a1,1,0,0,0-.9-1.11C31.16,9.17,31,9.14,31,8.86s0.24-.2.39-0.21C32,8.6,32.58,8.57,33.16,8.51c0.35,0,.47.07,0.46,0.43C33.6,9.81,33.61,10.68,33.61,11.55Z"/><path class="cls-9" d="M16.76,10.3c0-.27.08-0.55,0.1-0.82s0-.4.27-0.43a6,6,0,0,1,1.59.63,2.22,2.22,0,0,1,.63,3.54,1,1,0,0,0-.1.24l-0.14.12a0.84,0.84,0,0,1-.46.09c-0.24,0-.48,0-0.72-0.06a0.46,0.46,0,0,1-.46-0.47,1.1,1.1,0,0,0-.73-1.1A4.22,4.22,0,0,1,16.76,10.3Z"/><path class="cls-10" d="M7.53,6.93a1,1,0,0,1,.79.13,12.71,12.71,0,0,1-.13,2.1,5.16,5.16,0,0,0-.12,1.64c0,0.15-.11.22-0.24,0.27a1,1,0,0,1-.44,0,1.52,1.52,0,0,1-.92-0.75s-0.09.09,0,0,0,0,.05,0A1.73,1.73,0,0,1,6.2,12c-0.06-.23,0-0.52-0.37-0.58C5,11.33,5,11.16,5.43,10.5a0.91,0.91,0,0,0,.08-0.25C7.21,9.77,7.22,8.26,7.53,6.93Z"/><path class="cls-11" d="M19.13,13.46h0.13c0.52,1.2.25,1.74-1,2.29A14.93,14.93,0,0,1,13,16.83a26.63,26.63,0,0,1-6.19-.43,0.51,0.51,0,0,1,.55-0.12,10.31,10.31,0,0,0,2.26,0,0.16,0.16,0,0,1-.21.18,0.13,0.13,0,0,0,.11,0c1.06,0,2.13.05,3.19,0a12,12,0,0,0,5.14-1.13,1.44,1.44,0,0,0,1-1.59A0.61,0.61,0,0,1,19.13,13.46Z"/><path class="cls-8" d="M33.74,5.88a0.87,0.87,0,0,1-1,.91,0.91,0.91,0,0,1-.81-1,0.89,0.89,0,0,1,1-.9A0.84,0.84,0,0,1,33.74,5.88Z"/><path class="cls-12" d="M7.38,10.94H7.74A9.28,9.28,0,0,1,8.91,11c0.71,0.15,1.45.14,2.16,0.33,1,0.8.92,1.78-.22,2.25A7.87,7.87,0,0,1,7.2,13,2.49,2.49,0,0,1,7.38,10.94Z"/><path class="cls-13" d="M10.85,13.59c0.83-.67.87-1.06,0.27-2.13a0.48,0.48,0,0,1,.31-0.17,18.74,18.74,0,0,1,3.06,0,0.62,0.62,0,0,1,.44.71,3.46,3.46,0,0,1-.21,1.53c-0.31.19-.66-0.1-1,0.08Z"/><path class="cls-14" d="M13.75,13.58l1-.19a3.17,3.17,0,0,1,1-.44,2.15,2.15,0,0,0,1.13-.83,0.51,0.51,0,0,1,.76.57c-0.12.76,0.25,0.81,0.81,0.78a0.75,0.75,0,0,1,.29.12,2.17,2.17,0,0,1-.68.9,8.5,8.5,0,0,1-1.27.65,0.64,0.64,0,0,1-.73,0,1.17,1.17,0,0,0-1-.78c-0.31-.12-0.63-0.2-0.94-0.32-0.11,0-.3-0.09-0.25-0.25a0.83,0.83,0,0,1,.35-0.21Z"/><path class="cls-15" d="M16.06,15.19a16,16,0,0,0,2-.8c0.3,0.32.29,0.51-.06,0.82a4.43,4.43,0,0,1-1.91.9,19.9,19.9,0,0,1-5.2.49c-0.2,0-.44,0-0.3-0.32A25.78,25.78,0,0,0,16.06,15.19Z"/><path class="cls-16" d="M10.59,16.28a0.24,0.24,0,0,0,.26.25A21,21,0,0,0,16.17,16a4.14,4.14,0,0,0,1.75-.91c0.2-.17.41-0.37,0.14-0.66a1.78,1.78,0,0,1,.67-0.8l0.39-.13L19,13.73a2,2,0,0,1-.93,1.74,10.73,10.73,0,0,1-4.72,1.18A17.41,17.41,0,0,1,9,16.48a2.36,2.36,0,0,0,.68-0.2h0.93Z"/><path class="cls-17" d="M7.38,10.94L7.2,13a1.2,1.2,0,0,1-1-.93l0.29-1.76A5.45,5.45,0,0,0,7.38,10.94Z"/><path class="cls-18" d="M63.22,13.07a1.36,1.36,0,0,1-.93,1.76,1.19,1.19,0,0,1-1.36-.21,1.17,1.17,0,0,1-.13-1.42,3.3,3.3,0,0,1,2.25-1.38c0.25-.08.22,0.15,0.21,0.29S63.24,12.68,63.22,13.07Z"/><path class="cls-19" d="M46.89,11.76c0,0.69,0,1.29,0,1.89a1.26,1.26,0,0,1-1.09,1.22,1,1,0,0,1-1.35-.4,1.27,1.27,0,0,1,.19-1.59A4.33,4.33,0,0,1,46.89,11.76Z"/><path class="cls-20" d="M14.57,11.29a19.07,19.07,0,0,1-3.18.14,0.13,0.13,0,0,1,0-.17,0.48,0.48,0,0,0,0-.86c-0.07-.06,0-0.16.06-0.22,0.49-.18,1-0.05,1.5-0.22,0.18-.06.45,0,0.44-0.31S13.14,9.42,13,9.39A13.07,13.07,0,0,1,11,9a3.48,3.48,0,0,0-1.93,0A0.45,0.45,0,0,1,9,8.77a1,1,0,0,1,1.23-1.21c0.94,0.17,1.88.33,2.8,0.56a5.67,5.67,0,0,0,.78.17c0.74,0.08.93-.2,0.64-0.88a0.62,0.62,0,0,1-.11-0.5A1.2,1.2,0,0,1,15,8.64c-0.25.54-.59,1-0.83,1.58s-0.22.89,0.44,1C14.64,11.24,14.63,11.27,14.57,11.29Z"/><path class="cls-21" d="M14.33,6.92c0.2,0.43.82,0.79,0.42,1.34s-1,.24-1.47.13c-1-.21-2.06-0.44-3.1-0.64-0.8-.16-1,0.08-1.06,1a1.13,1.13,0,0,1,0-1.47,3.47,3.47,0,0,1,.41-0.41A5.59,5.59,0,0,1,14.33,6.92Z"/><path class="cls-22" d="M9.51,6.91A6.19,6.19,0,0,0,9,8a0.87,0.87,0,0,0,.09.75V8.92a1,1,0,0,1,.24.19c0.09,0.2.22,0.38,0.3,0.59a1,1,0,0,1-.81,1.49,2.45,2.45,0,0,1-1.11-.24,0.64,0.64,0,0,0,.21-0.12,10.43,10.43,0,0,1,.37-3.77Z"/><path class="cls-23" d="M14.57,11.29a0.34,0.34,0,0,1,0-.09l1.06-.13c0.5,0.32.26,0.82,0.31,1.25a2.72,2.72,0,0,1-.15.76,2.88,2.88,0,0,1-1.11.31,3.1,3.1,0,0,1,0-1.15A2,2,0,0,0,14.57,11.29Z"/><path class="cls-24" d="M15.83,13.08c-0.08,0-.19,0-0.13-0.2a2.91,2.91,0,0,0,0-1.82c0.38-.23.95-0.19,1.1-0.76,0.31,0.59,0,1.22.11,1.82A1.1,1.1,0,0,1,15.83,13.08Z"/><path class="cls-14" d="M18.07,15.46c0.33-.48,1-0.82.74-1.57A0.63,0.63,0,0,1,19,13.73,1.45,1.45,0,0,1,18.07,15.46Z"/><path class="cls-25" d="M8.85,11.19c0.88-.48,1-0.78.51-1.69a0.94,0.94,0,0,1-.11-0.44,0.26,0.26,0,0,1,.29.1A2.61,2.61,0,0,0,11,10a0.48,0.48,0,0,1,.37.26l0.2,0.16c0.37,0.29.72,0.58-.06,0.8a0.48,0.48,0,0,0-.14.21l-0.27,0A17,17,0,0,1,8.85,11.19Z"/><path class="cls-26" d="M11.38,10.26a2.9,2.9,0,0,1-2.14-1.2L9.12,8.92c0.63-.69,1.35-0.23,2-0.11s1.37,0.33,2.07.44c0.21,0,.56,0,0.53.39a0.6,0.6,0,0,1-.57.48A7.13,7.13,0,0,1,11.38,10.26Z"/></svg>