<svg id="white" xmlns="http://www.w3.org/2000/svg" xmlns:xlink="http://www.w3.org/1999/xlink" viewBox="0 0 20 20"><defs><style>.cls-1,.cls-10{fill:#fff;}.cls-10,.cls-11,.cls-12,.cls-13,.cls-14,.cls-15,.cls-16,.cls-17,.cls-18,.cls-19,.cls-2,.cls-3,.cls-4,.cls-5,.cls-6,.cls-7,.cls-8,.cls-9{fill-rule:evenodd;}.cls-2{fill:url(#Linear_Gradient_1);}.cls-3{fill:url(#Linear_Gradient_2);}.cls-4{fill:url(#Linear_Gradient_2-2);}.cls-5{fill:url(#Linear_Gradient_3);}.cls-6{fill:url(#Linear_Gradient_4);}.cls-7{fill:url(#Linear_Gradient_5);}.cls-8{fill:url(#Linear_Gradient_6);}.cls-9{fill:url(#Linear_Gradient_7);}.cls-11{fill:url(#Linear_Gradient_8);}.cls-12{fill:url(#Linear_Gradient_9);}.cls-13{fill:url(#Linear_Gradient_10);}.cls-14{fill:url(#Linear_Gradient_11);}.cls-15{fill:#aa3e35;}.cls-16{fill:url(#Radial_Gradient_1);}.cls-17{fill:url(#Radial_Gradient_2);}.cls-18{fill:url(#Linear_Gradient_12);}.cls-19{fill:url(#Linear_Gradient_13);}</style><linearGradient id="Linear_Gradient_1" x1="14.86" y1="17.37" x2="12.04" y2="12.39" gradientUnits="userSpaceOnUse"><stop offset="0" stop-color="#f58e71"/><stop offset="0.41" stop-color="#db5242"/><stop offset="0.99" stop-color="#a62c32"/><stop offset="1" stop-color="#a62c32"/></linearGradient><linearGradient id="Linear_Gradient_2" x1="16.26" y1="13.19" x2="12.63" y2="10.75" gradientUnits="userSpaceOnUse"><stop offset="0" stop-color="#9a3f34"/><stop offset="0.99" stop-color="#a13e36"/><stop offset="1" stop-color="#a13e36"/></linearGradient><linearGradient id="Linear_Gradient_2-2" x1="13.36" y1="17.52" x2="9.73" y2="15.08" xlink:href="#Linear_Gradient_2"/><linearGradient id="Linear_Gradient_3" x1="5.74" y1="11.43" x2="6.3" y2="15.08" gradientUnits="userSpaceOnUse"><stop offset="0" stop-color="#fff"/><stop offset="0.23" stop-color="#e18a6f"/><stop offset="0.46" stop-color="#d96144"/><stop offset="0.99" stop-color="#a50003"/><stop offset="1" stop-color="#a50003"/></linearGradient><linearGradient id="Linear_Gradient_4" x1="9.61" y1="8.01" x2="9.81" y2="11.74" gradientUnits="userSpaceOnUse"><stop offset="0" stop-color="#fff"/><stop offset="0.23" stop-color="#df896d"/><stop offset="0.56" stop-color="#c04435"/><stop offset="0.99" stop-color="#b03430"/><stop offset="1" stop-color="#b03430"/></linearGradient><linearGradient id="Linear_Gradient_5" x1="13.04" y1="4.56" x2="13.66" y2="7.24" gradientUnits="userSpaceOnUse"><stop offset="0" stop-color="#fff"/><stop offset="0.18" stop-color="#de8063"/><stop offset="0.4" stop-color="#c84d37"/><stop offset="0.99" stop-color="#b03430"/><stop offset="1" stop-color="#b03430"/></linearGradient><linearGradient id="Linear_Gradient_6" x1="11.15" y1="3.62" x2="13.82" y2="2.28" gradientUnits="userSpaceOnUse"><stop offset="0" stop-color="#fff"/><stop offset="0.54" stop-color="#c84838"/><stop offset="0.99" stop-color="#c02d2f"/><stop offset="1" stop-color="#c02d2f"/></linearGradient><linearGradient id="Linear_Gradient_7" x1="3.39" y1="10.5" x2="3.61" y2="12.7" gradientUnits="userSpaceOnUse"><stop offset="0" stop-color="#fff"/><stop offset="0.31" stop-color="#d96548"/><stop offset="0.99" stop-color="#c04433"/><stop offset="1" stop-color="#c04433"/></linearGradient><linearGradient id="Linear_Gradient_8" x1="1.88" y1="13.3" x2="12.23" y2="2.65" gradientUnits="userSpaceOnUse"><stop offset="0" stop-color="#bc0012"/><stop offset="0.07" stop-color="#fff"/><stop offset="0.17" stop-color="#fff"/><stop offset="0.27" stop-color="#c85841"/><stop offset="0.33" stop-color="#973734"/><stop offset="0.46" stop-color="#ad4231"/><stop offset="0.72" stop-color="#b83e2f"/><stop offset="0.99" stop-color="#dd4e2b"/><stop offset="1" stop-color="#dd4e2b"/></linearGradient><linearGradient id="Linear_Gradient_9" x1="9.8" y1="14.37" x2="6.69" y2="13.6" gradientUnits="userSpaceOnUse"><stop offset="0" stop-color="#9e3633"/><stop offset="0.54" stop-color="#a63532"/><stop offset="0.99" stop-color="#b03439"/><stop offset="1" stop-color="#b03439"/></linearGradient><linearGradient id="Linear_Gradient_10" x1="15.16" y1="10.63" x2="12.39" y2="8.15" gradientUnits="userSpaceOnUse"><stop offset="0" stop-color="#913c36"/><stop offset="0.99" stop-color="#a93531"/><stop offset="1" stop-color="#a93531"/></linearGradient><linearGradient id="Linear_Gradient_11" x1="16.17" y1="6.07" x2="14.8" y2="4.6" gradientUnits="userSpaceOnUse"><stop offset="0" stop-color="#8c3e36"/><stop offset="0.99" stop-color="#a93e37"/><stop offset="1" stop-color="#a93e37"/></linearGradient><radialGradient id="Radial_Gradient_1" cx="12.82" cy="8.19" r="3.39" gradientUnits="userSpaceOnUse"><stop offset="0" stop-color="#b03430"/><stop offset="0.99" stop-color="#913934"/><stop offset="1" stop-color="#913934"/></radialGradient><radialGradient id="Radial_Gradient_2" cx="8.12" cy="12.66" r="4.51" gradientUnits="userSpaceOnUse"><stop offset="0" stop-color="#ad3531"/><stop offset="0.99" stop-color="#943a36"/><stop offset="1" stop-color="#943a36"/></radialGradient><linearGradient id="Linear_Gradient_12" x1="4.93" y1="16.14" x2="3.8" y2="12.33" gradientUnits="userSpaceOnUse"><stop offset="0" stop-color="#984939"/><stop offset="0.43" stop-color="#a93a36"/><stop offset="0.99" stop-color="#b73936"/><stop offset="1" stop-color="#b73936"/></linearGradient><linearGradient id="Linear_Gradient_13" x1="13.55" y1="3.5" x2="16.07" y2="4.62" gradientUnits="userSpaceOnUse"><stop offset="0" stop-color="#b8392f"/><stop offset="0.44" stop-color="#a13a36"/><stop offset="0.99" stop-color="#8c463a"/><stop offset="1" stop-color="#8c463a"/></linearGradient></defs><title>logos</title><rect class="cls-1" width="20" height="20"/><polygon class="cls-2" points="5.85 16.16 15.72 15.49 16.48 5.54 13.47 11.63 5.85 16.16"/><polygon class="cls-3" points="12.58 12.68 15.73 15.48 14.89 9.63 12.58 12.68"/><polygon class="cls-4" points="5.88 16.14 15.75 15.48 9.53 14.99 5.88 16.14"/><polygon class="cls-5" points="4.03 11.79 5.89 16.14 7.44 11.06 4.03 11.79"/><polygon class="cls-6" points="7.06 10.93 12.57 12.69 11.15 7.1 7.06 10.93"/><polygon class="cls-7" points="11.21 7.5 16.16 7.18 12.29 4.02 11.21 7.5"/><polygon class="cls-8" points="10.64 2.88 14.35 2.9 12.07 4.15 10.64 2.88"/><polygon class="cls-9" points="3.31 9.69 3.13 13.5 4.08 11.76 3.31 9.69"/><path class="cls-10" d="M3.26,9.63L4,11.82l3.37-.76L11.25,7.5l1.08-3.45L10.62,2.84,7.72,3.93C6.8,4.78,5,6.47,5,6.5S3.79,8.63,3.26,9.63Z"/><path class="cls-11" d="M6,5.68c2-2,4.54-3.13,5.52-2.14s-0.06,3.4-2,5.36S5,12.09,4,11.1,4,7.64,6,5.68Z"/><path class="cls-12" d="M5.89,16.14L7.43,11l5.12,1.64A11.2,11.2,0,0,1,5.89,16.14Z"/><path class="cls-13" d="M11.25,7.49l1.31,5.2a14.48,14.48,0,0,0,3.61-5.53Z"/><path class="cls-14" d="M16.16,7.18c0.53-1.59.65-3.86-1.83-4.28L12.3,4Z"/><path class="cls-15" d="M3.13,13.47a2.45,2.45,0,0,0,2.77,2.68L4,11.81Z"/><path class="cls-16" d="M11.26,7.49l3.63,2.22a8.37,8.37,0,0,0,1.25-2.55Z"/><path class="cls-17" d="M7.43,11l2.06,4a13.31,13.31,0,0,0,3-2.33Z"/><path class="cls-18" d="M4,11.82L3.74,15.29a2.13,2.13,0,0,0,2.1.76C5.26,14.62,4.12,11.76,4,11.82Z"/><path class="cls-19" d="M12.29,4L16.38,4.6a2.24,2.24,0,0,0-2-1.71Z"/></svg>