<svg id="white" xmlns="http://www.w3.org/2000/svg" viewBox="0 0 39 20"><defs><style>.cls-1{fill:#fff;}.cls-2{fill:#f90;}.cls-2,.cls-3{fill-rule:evenodd;}</style></defs><title>logos</title><rect class="cls-1" x="0.02" width="38.98" height="20"/><polygon class="cls-2" points="6.12 16.31 4.04 15.57 4.04 12.51 6.12 13.22 6.12 16.31"/><polygon class="cls-2" points="6.51 16.31 8.59 15.57 8.59 12.51 6.51 13.22 6.51 16.31"/><polygon class="cls-2" points="4.25 12.28 6.36 11.69 8.32 12.32 6.36 12.98 4.25 12.28"/><polygon class="cls-2" points="3.64 12.04 1.56 11.3 1.56 8.24 3.64 8.95 3.64 12.04"/><polygon class="cls-2" points="4.02 12.04 6.11 11.3 6.11 8.24 4.02 8.95 4.02 12.04"/><polygon class="cls-2" points="1.77 8.01 3.88 7.42 5.84 8.05 3.88 8.71 1.77 8.01"/><polygon class="cls-2" points="8.51 12.04 6.42 11.3 6.42 8.24 8.51 8.95 8.51 12.04"/><polygon class="cls-2" points="8.89 12.04 10.97 11.3 10.97 8.24 8.89 8.95 8.89 12.04"/><polygon class="cls-2" points="6.64 8.01 8.75 7.42 10.7 8.05 8.75 8.71 6.64 8.01"/><polygon class="cls-2" points="10.99 7.77 8.9 7.03 8.9 3.97 10.99 4.68 10.99 7.77"/><polygon class="cls-2" points="11.37 7.77 13.46 7.03 13.46 3.97 11.37 4.68 11.37 7.77"/><polygon class="cls-2" points="9.12 3.74 11.23 3.15 13.19 3.78 11.23 4.44 9.12 3.74"/><polygon class="cls-2" points="15.86 7.77 13.77 7.03 13.77 3.97 15.86 4.68 15.86 7.77"/><polygon class="cls-2" points="16.24 7.77 18.32 7.03 18.32 3.97 16.24 4.68 16.24 7.77"/><polygon class="cls-2" points="13.98 3.74 16.1 3.15 18.05 3.78 16.1 4.44 13.98 3.74"/><polygon points="13.94 15.98 13.43 14.28 13.08 14.28 12.61 15.97 12.12 14.28 11.65 14.28 12.4 16.8 12.78 16.8 13.25 15.11 13.76 16.8 14.13 16.8 14.86 14.28 14.46 14.28 13.94 15.98"/><path d="M17.17,15.57a1.53,1.53,0,0,0-.31-1,1,1,0,0,0-.8-0.35,1.08,1.08,0,0,0-.84.37,1.58,1.58,0,0,0,0,1.92,1.07,1.07,0,0,0,.84.37,1.13,1.13,0,0,0,.68-0.21,1,1,0,0,0,.39-0.54v0L16.71,16v0a0.62,0.62,0,0,1-.61.45,0.71,0.71,0,0,1-.46-0.18,0.87,0.87,0,0,1-.21-0.66h1.77v0Zm-1.74-.33a0.78,0.78,0,0,1,.2-0.47,0.59,0.59,0,0,1,.44-0.19,0.54,0.54,0,0,1,.33.1,0.58,0.58,0,0,1,.2.25,1,1,0,0,1,.06.3H15.43Z"/><path d="M18.72,14.21a0.8,0.8,0,0,0-.67.36V13.43H17.58V16.8h0.26L18,16.46a0.86,0.86,0,0,0,.75.41,0.91,0.91,0,0,0,.76-0.39,1.52,1.52,0,0,0,.29-0.94,1.49,1.49,0,0,0-.29-1A0.93,0.93,0,0,0,18.72,14.21Zm0.54,1.37a1.14,1.14,0,0,1-.17.66,0.5,0.5,0,0,1-.43.23,0.62,0.62,0,0,1-.4-0.16A0.7,0.7,0,0,1,18,15.8V15.26a0.77,0.77,0,0,1,.21-0.47,0.55,0.55,0,0,1,.4-0.18,0.49,0.49,0,0,1,.44.25A1.33,1.33,0,0,1,19.26,15.58Z"/><path d="M22,15.31l-0.47-.09a0.33,0.33,0,0,1-.34-0.29,0.25,0.25,0,0,1,.13-0.23,0.65,0.65,0,0,1,.35-0.09,0.55,0.55,0,0,1,.57.35v0l0.43-.09v0a0.94,0.94,0,0,0-1-.65,1,1,0,0,0-.68.22,0.69,0.69,0,0,0-.26.55,0.63,0.63,0,0,0,.19.48,1,1,0,0,0,.5.24l0.51,0.1a0.36,0.36,0,0,1,.38.32,0.29,0.29,0,0,1-.14.26,0.68,0.68,0,0,1-.38.1A0.63,0.63,0,0,1,21.07,16v0l-0.45.09v0a1,1,0,0,0,1.11.73,1.25,1.25,0,0,0,.76-0.22,0.69,0.69,0,0,0,.3-0.58A0.78,0.78,0,0,0,22,15.31Z"/><path d="M25.21,15.57a1.53,1.53,0,0,0-.31-1,1,1,0,0,0-.8-0.35,1.08,1.08,0,0,0-.84.37,1.58,1.58,0,0,0,0,1.92,1.07,1.07,0,0,0,.84.37,1.13,1.13,0,0,0,.68-0.21,1,1,0,0,0,.39-0.54v0L24.74,16v0a0.62,0.62,0,0,1-.61.45,0.71,0.71,0,0,1-.46-0.18,0.87,0.87,0,0,1-.21-0.66h1.77v0Zm-1.74-.33a0.78,0.78,0,0,1,.2-0.47,0.59,0.59,0,0,1,.44-0.19,0.54,0.54,0,0,1,.33.1,0.58,0.58,0,0,1,.2.25,1,1,0,0,1,.06.3H23.46Z"/><path d="M26.62,14.21a0.69,0.69,0,0,0-.39.13,1,1,0,0,0-.28.36V14.28H25.53V16.8H26V15.47a0.9,0.9,0,0,1,.21-0.58,0.62,0.62,0,0,1,.49-0.22h0.12V14.22H26.62Z"/><polygon points="28.11 16.16 27.47 14.28 26.96 14.28 27.86 16.8 28.31 16.8 29.18 14.28 28.75 14.28 28.11 16.16"/><rect x="29.4" y="14.28" width="0.47" height="2.52"/><rect x="29.38" y="13.43" width="0.5" height="0.51"/><path d="M31.76,15.89a0.57,0.57,0,0,1-.55.57,0.48,0.48,0,0,1-.43-0.24,1.3,1.3,0,0,1-.16-0.7,1.23,1.23,0,0,1,.16-0.67,0.49,0.49,0,0,1,.44-0.24,0.54,0.54,0,0,1,.54.56v0l0.43-.08v0a1.11,1.11,0,0,0-.31-0.64,0.91,0.91,0,0,0-.67-0.25,0.94,0.94,0,0,0-.79.39,1.54,1.54,0,0,0-.29.95,1.58,1.58,0,0,0,.27.93,1,1,0,0,0,1.45.15A1.14,1.14,0,0,0,32.19,16v0l-0.43-.08v0Z"/><path d="M34.72,15.57a1.53,1.53,0,0,0-.31-1,1,1,0,0,0-.8-0.35,1.08,1.08,0,0,0-.84.37,1.58,1.58,0,0,0,0,1.92,1.07,1.07,0,0,0,.84.37,1.13,1.13,0,0,0,.68-0.21,1,1,0,0,0,.39-0.54v0L34.25,16v0a0.62,0.62,0,0,1-.61.45,0.71,0.71,0,0,1-.46-0.18A0.87,0.87,0,0,1,33,15.62h1.77v0ZM33,15.24a0.77,0.77,0,0,1,.2-0.47,0.59,0.59,0,0,1,.44-0.19,0.54,0.54,0,0,1,.33.1,0.58,0.58,0,0,1,.2.25,1,1,0,0,1,.06.3H33Z"/><path d="M36.24,15.31l-0.47-.09a0.33,0.33,0,0,1-.34-0.29,0.25,0.25,0,0,1,.13-0.23,0.65,0.65,0,0,1,.35-0.09,0.55,0.55,0,0,1,.57.35v0l0.43-.09v0a0.94,0.94,0,0,0-1-.65,1,1,0,0,0-.68.22,0.69,0.69,0,0,0-.26.55,0.63,0.63,0,0,0,.19.48,1,1,0,0,0,.5.24l0.51,0.1a0.36,0.36,0,0,1,.38.32,0.29,0.29,0,0,1-.14.26,0.68,0.68,0,0,1-.38.1A0.63,0.63,0,0,1,35.29,16v0l-0.45.09v0a1,1,0,0,0,1.11.73,1.25,1.25,0,0,0,.76-0.22,0.69,0.69,0,0,0,.3-0.58A0.78,0.78,0,0,0,36.24,15.31Z"/><path class="cls-3" d="M26.34,9.12V8.54a0.14,0.14,0,0,1,.15-0.15h2.62a0.15,0.15,0,0,1,.15.15V9a0.82,0.82,0,0,1-.2.37l-1.36,1.94a2.91,2.91,0,0,1,1.49.32,0.27,0.27,0,0,1,.14.23v0.62a0.14,0.14,0,0,1-.19.13,3,3,0,0,0-2.77,0,0.14,0.14,0,0,1-.19-0.14V11.93a0.71,0.71,0,0,1,.1-0.4l1.57-2.26H26.49A0.15,0.15,0,0,1,26.34,9.12Z"/><path class="cls-3" d="M17,12.77h-0.8A0.15,0.15,0,0,1,16,12.64V8.55a0.15,0.15,0,0,1,.15-0.15h0.74a0.15,0.15,0,0,1,.14.14V9.07h0a1.09,1.09,0,0,1,2.08,0,1.18,1.18,0,0,1,2-.31,2.17,2.17,0,0,1,.2,1.28v2.58a0.15,0.15,0,0,1-.15.15h-0.8a0.15,0.15,0,0,1-.14-0.15V10.46a5.23,5.23,0,0,0,0-.77,0.42,0.42,0,0,0-.47-0.35,0.53,0.53,0,0,0-.48.34,2.47,2.47,0,0,0-.07.78v2.17a0.15,0.15,0,0,1-.15.15h-0.8a0.15,0.15,0,0,1-.14-0.15V10.46c0-.46.07-1.13-0.49-1.13s-0.55.65-.55,1.13v2.17A0.15,0.15,0,0,1,17,12.77Z"/><path class="cls-3" d="M31.19,8.31c1.17,0,1.81,1,1.81,2.31a2,2,0,0,1-1.81,2.24c-1.15,0-1.78-1-1.78-2.28S30,8.31,31.19,8.31Zm0,0.94c-0.58,0-.62.8-0.62,1.3s0,1.46.61,1.46,0.64-.76.64-1.28a3.81,3.81,0,0,0-.12-1.08A0.5,0.5,0,0,0,31.2,9.25Z"/><path class="cls-3" d="M34.69,12.77H33.9a0.15,0.15,0,0,1-.14-0.15V8.53a0.15,0.15,0,0,1,.15-0.13h0.74a0.15,0.15,0,0,1,.14.11V9.14h0a1.08,1.08,0,0,1,1.09-.83,1,1,0,0,1,.93.48A2.6,2.6,0,0,1,37,10.07v2.57a0.15,0.15,0,0,1-.15.13h-0.8a0.15,0.15,0,0,1-.14-0.13V10.42c0-.45.05-1.1-0.5-1.1a0.52,0.52,0,0,0-.46.33,1.82,1.82,0,0,0-.13.77v2.2A0.15,0.15,0,0,1,34.69,12.77Z"/><path class="cls-3" d="M24.35,10.82a1.56,1.56,0,0,1-.15.85,0.65,0.65,0,0,1-.55.36,0.5,0.5,0,0,1-.48-0.58c0-.68.61-0.8,1.19-0.8v0.17Zm0.8,1.94a0.16,0.16,0,0,1-.19,0,2,2,0,0,1-.46-0.53,1.58,1.58,0,0,1-1.31.58A1.13,1.13,0,0,1,22,11.59a1.35,1.35,0,0,1,.85-1.3,5.51,5.51,0,0,1,1.5-.28V9.9a1,1,0,0,0-.1-0.58,0.53,0.53,0,0,0-.45-0.21,0.61,0.61,0,0,0-.64.48,0.17,0.17,0,0,1-.14.15l-0.77-.08a0.14,0.14,0,0,1-.12-0.17,1.62,1.62,0,0,1,1.78-1.22,1.81,1.81,0,0,1,1.2.4A1.68,1.68,0,0,1,25.46,10v1.24a1.09,1.09,0,0,0,.3.74,0.15,0.15,0,0,1,0,.21l-0.61.53h0Z"/><path class="cls-3" d="M14,10.82a1.56,1.56,0,0,1-.15.85,0.65,0.65,0,0,1-.55.36,0.5,0.5,0,0,1-.48-0.58c0-.68.61-0.8,1.19-0.8v0.17Zm0.8,1.94a0.16,0.16,0,0,1-.19,0,1.94,1.94,0,0,1-.46-0.53,1.58,1.58,0,0,1-1.31.58,1.13,1.13,0,0,1-1.19-1.24,1.35,1.35,0,0,1,.85-1.3A5.51,5.51,0,0,1,14,10V9.9a1,1,0,0,0-.1-0.58,0.53,0.53,0,0,0-.45-0.21,0.61,0.61,0,0,0-.64.48,0.17,0.17,0,0,1-.14.15l-0.77-.08a0.14,0.14,0,0,1-.12-0.17,1.62,1.62,0,0,1,1.78-1.22,1.81,1.81,0,0,1,1.2.4A1.68,1.68,0,0,1,15.11,10v1.24a1.09,1.09,0,0,0,.3.74,0.15,0.15,0,0,1,0,.21l-0.61.53h0Z"/></svg>