<svg id="white" xmlns="http://www.w3.org/2000/svg" viewBox="0 0 63.38 20"><defs><style>.cls-1{fill:#fff;}.cls-2{fill:#991b21;}</style></defs><title>logos</title><rect class="cls-1" width="63.38" height="20"/><path id="Shape" d="M6.69,10.23a0,0,0,0,1,0,0,0.69,0.69,0,0,0-.19,0,0.78,0.78,0,0,1-.39-0.11A2.43,2.43,0,0,0,5.76,10,0.78,0.78,0,0,0,5.4,9.95a0.39,0.39,0,0,0-.3.07c-0.05.07-.25,0.28-0.32,0.36a2.49,2.49,0,0,1-.48.44,0.1,0.1,0,0,1,0,.08,0.55,0.55,0,0,0,0,.17,0.19,0.19,0,0,1,0,.12,0.21,0.21,0,0,0,0,.11,0.37,0.37,0,0,0,0,.2c0,0.1.06,0.22-.08,0.17a1.59,1.59,0,0,0-.23-0.18,0.27,0.27,0,0,1-.31-0.16c0-.16-0.12-0.43-0.14-0.47a0.48,0.48,0,0,1,0-.41,1.27,1.27,0,0,0,.15-0.33,1.05,1.05,0,0,1,.16-0.32,0.48,0.48,0,0,0,.07-0.19,0.87,0.87,0,0,0,0-.17S4,9.29,4,9.19a1.32,1.32,0,0,1,.19-0.32,0.5,0.5,0,0,0,.09-0.23,0.18,0.18,0,0,1,.08-0.19,1.66,1.66,0,0,0,.29-0.33s0-.17,0-0.22,0-.11,0-0.13L4.8,7.71a0.52,0.52,0,0,0-.17-0.13,1.41,1.41,0,0,1-.49-0.68,0.62,0.62,0,0,1,.27-0.73A3.76,3.76,0,0,1,5.12,6a0.54,0.54,0,0,1,.3,0,0.3,0.3,0,0,0-.11,0,0.84,0.84,0,0,1,.2.06,0.48,0.48,0,0,0-.14,0,0.29,0.29,0,0,0,.12.11,0.25,0.25,0,0,1,.11.15,0.61,0.61,0,0,0,0,.21,0.51,0.51,0,0,1,.05.18,1,1,0,0,0,.06.27,0.74,0.74,0,0,1,.06.37s0,0.06.15-.08A0.44,0.44,0,0,1,6.23,7a0.68,0.68,0,0,1,.22,0,2.06,2.06,0,0,0,.21,0,1.62,1.62,0,0,0,.47,0A2,2,0,0,1,7.5,6.94c0.05,0-.06-0.08,0-0.15a0.78,0.78,0,0,1,0-.28c0.15-.19,0-0.24,0-0.28a0.61,0.61,0,0,1,0-.23c0-.07,0-0.25,0-0.25l0,0a0.17,0.17,0,0,0,0,0,0.38,0.38,0,0,1-.06-0.13,1.8,1.8,0,0,0-.25-0.35A0.16,0.16,0,0,1,7.14,5a0.59,0.59,0,0,0,0-.17c0-.06,0-0.14,0-0.17a0.39,0.39,0,0,1,0-.21s0,0,0,0,0-.14,0-0.14a0.06,0.06,0,0,1,.07.06c0,0.07,0,.11,0,0.13l0,0.05a0.11,0.11,0,0,1,.08,0,0.08,0.08,0,0,1,.06.05s0,0,0,0,0.08,0,.1,0a0.65,0.65,0,0,1,0,.12,0.31,0.31,0,0,0,0,.11,0.36,0.36,0,0,1,0,.17,2,2,0,0,0,0,.28A2.38,2.38,0,0,0,8,5.67a1.12,1.12,0,0,0,.31,0c0.1,0,.27,0,0.25.11a5,5,0,0,0,0,.56,6.22,6.22,0,0,1-.07.75,1.74,1.74,0,0,1-.31.57,2.31,2.31,0,0,1-.39.21L7.24,8.1a1.38,1.38,0,0,0,.17.21,0.3,0.3,0,0,1,.07,0l0,0L7.76,8.38s0,0,0,0a0.18,0.18,0,0,1,.07-0.15,0.31,0.31,0,0,0,0,.11,5.14,5.14,0,0,0,.55-0.09s0,0,.06,0a0.57,0.57,0,0,1,.27-0.12,2.14,2.14,0,0,0,.38,0c0.06,0,.33-0.19.42-0.23a3,3,0,0,0,.54-0.13l0.55-.38a8.78,8.78,0,0,1,1.23-.67,3.2,3.2,0,0,0,.74-0.27c0.08-.06.33-0.2,0.38-0.24a0.53,0.53,0,0,1,.43.25,2.22,2.22,0,0,1,.31-0.13A0.68,0.68,0,0,0,14,6.2a3.81,3.81,0,0,1,.42-0.27,0.12,0.12,0,0,0,.06-0.06s0.05-.11.09-0.09,0.08-.11.12-0.07,0.07-.07.11,0a0.09,0.09,0,0,1,.05,0s0.05,0,.08,0a0.07,0.07,0,0,1,.1,0,0.12,0.12,0,0,1,0,.15,0.22,0.22,0,0,0-.08.1,0.63,0.63,0,0,1-.23.26,0.35,0.35,0,0,0-.22.33c0,0.19-.08.41-0.27,0.36a0.73,0.73,0,0,0-.54.11,0.52,0.52,0,0,1,0,.12s-0.09,0-.2.08-0.17.09-.25,0.15a1.07,1.07,0,0,1-.17.14,0.81,0.81,0,0,0-.2.17,1.87,1.87,0,0,1-.42.27,10.7,10.7,0,0,0-1.23.56,5.53,5.53,0,0,1-1.09.7L10,9.23s-0.5.46-.66,0.57a0.47,0.47,0,0,0-.28.4,4.65,4.65,0,0,1-.26.68c0,0.22,0,.43,0,0.56s-0.22,1.83-.27,2a1,1,0,0,0,0,.46,0.74,0.74,0,0,1-.12.45,1.52,1.52,0,0,0-.19.67c0,0.19,0,.26,0,0.29a0.58,0.58,0,0,0-.27.08,0.14,0.14,0,0,1-.12.06,0.81,0.81,0,0,0,0,.34,0.26,0.26,0,0,1,0,.42,2,2,0,0,0-.5.41,0.63,0.63,0,0,1-.22.21,0.72,0.72,0,0,0-.13.11,0.13,0.13,0,0,1-.13,0,0.1,0.1,0,0,1-.11,0,0.11,0.11,0,0,1-.11-0.05,0.08,0.08,0,0,1-.09-0.05,0.09,0.09,0,0,1,.08-0.12,0.81,0.81,0,0,0,.3-0.34A2,2,0,0,1,7,16a1.64,1.64,0,0,0,.16-0.64,0.06,0.06,0,0,1,0,0,1.14,1.14,0,0,1,0-.2,1.19,1.19,0,0,0,0-.38c0-.2,0-0.53,0-0.76a14.2,14.2,0,0,1,.09-2,1,1,0,0,0,.09-0.33,1.11,1.11,0,0,1,0-.34,1.23,1.23,0,0,0,0-.36,1.55,1.55,0,0,1-.22-0.25,1.26,1.26,0,0,1,0,.13s0,0-.08-0.08a0.74,0.74,0,0,1-.2-0.34l-0.2-.12h0Z"/><path id="Shape-2" data-name="Shape" class="cls-2" d="M7.52,8.31a12.15,12.15,0,0,1-.83,1.93,1,1,0,0,0,0,.35,0.87,0.87,0,0,1-.14.47l0.19,0.1a0.59,0.59,0,0,0,.14-0.59,0.55,0.55,0,0,1,0-.23h0a15.61,15.61,0,0,0,.88-2,1,1,0,0,1-.22-0.06h0Z"/><path id="Sidekiq_Pro" data-name="Sidekiq Pro" class="cls-2" d="M23.19,7.92h0.9v6.62H23.2V7.92ZM20.81,6.34l-0.29.86a5.79,5.79,0,0,0-2-.48H18.44c-1.45,0-1.73.53-1.73,1.51v0a1.14,1.14,0,0,0,.88,1.34,10.93,10.93,0,0,0,1.08.22l0.11,0c1.42,0.22,2.32.36,2.32,2.29v0.07c0,1.95-1.13,2.52-2.7,2.52A5.91,5.91,0,0,1,15.54,14l0.37-.78a5.33,5.33,0,0,0,2.48.67c1.37,0,1.73-.55,1.73-1.58V12.12c0-1-.21-1.21-1.67-1.44s-2.69-.51-2.69-2.37V8.24c0-1.77,1-2.32,2.63-2.32h0.07a6.16,6.16,0,0,1,2.35.41h0Zm2.86,0C23.18,6.31,23,6.18,23,5.63A0.54,0.54,0,0,1,23.67,5c0.49,0,.64.13,0.64,0.66s-0.15.68-.64,0.68h0ZM31.93,5v6.53c0,1.38,0,2.25.11,3l-0.83.07-0.13-.76a4.12,4.12,0,0,1-2.39.85c-2,0-2.1-1.57-2.1-3.19,0-2.14,0-3.66,2.2-3.66A5.64,5.64,0,0,1,31,8.2V5.05ZM31,11.44V9a6.28,6.28,0,0,0-1.94-.33c-1.22,0-1.54.13-1.54,2.81v0.12c0,1.62.28,2.24,1.37,2.24H29A3.88,3.88,0,0,0,31.07,13h0c0-.41,0-0.92,0-1.6h0Zm3.18-.24V10.92c0-2.45,1-3.11,2.95-3.11,2.16,0,2.5,1.06,2.5,2.78,0,0.4,0,.69,0,1-0.7,0-1.6,0-2.31,0a19,19,0,0,1-2.16-.12c0,1.56.24,2.4,1.86,2.4a5.87,5.87,0,0,0,2.3-.46l0.27,0.8a7.31,7.31,0,0,1-2.55.46,2.8,2.8,0,0,1-2.3-.75,4.56,4.56,0,0,1-.54-2.7h0Zm0.93-.41h3.56V10.26a1.4,1.4,0,0,0-1.65-1.68c-1.5,0-1.91.56-1.91,2.22h0ZM42,14.54V5.06L42.93,5v5.76a0.49,0.49,0,0,0,.28-0.06A13.71,13.71,0,0,0,45.76,7.9h1.1a12.93,12.93,0,0,1-2.76,3v0.06a2.64,2.64,0,0,1,1.11,1l2.07,2.62H46.12l-1.41-1.86a3.34,3.34,0,0,0-1.38-1.31,1.39,1.39,0,0,0-.4,0v3.2H42Zm6.87-6.62h0.9v6.62H48.89V7.92Zm0.46-1.62c-0.49,0-.65-0.13-0.65-0.68A0.54,0.54,0,0,1,49.33,5C49.82,5,50,5.09,50,5.63s-0.15.68-.64,0.68h0Zm7.41,10.78V13.92a4,4,0,0,1-2.25.75c-2,0-2.17-1.57-2.17-3.19,0-2.13,0-3.66,2.2-3.66a5.29,5.29,0,0,1,2.25.57l0.09-.46h0.8v9.17H56.75ZM54.7,13.81h0.08a3.8,3.8,0,0,0,2-.66v-4a4.89,4.89,0,0,0-2-.5c-1.23,0-1.55.13-1.55,2.81v0.12c0,1.62.34,2.24,1.44,2.24h0Z"/></svg>