<svg id="white" xmlns="http://www.w3.org/2000/svg" viewBox="0 0 28.23 20"><defs><style>.cls-1{fill:#fff;}.cls-2{fill:#cd6799;}</style></defs><title>logos</title><rect class="cls-1" width="28.25" height="20"/><path class="cls-2" d="M22,10.62A4.2,4.2,0,0,0,20.2,11a3.87,3.87,0,0,1-.41-1,2.55,2.55,0,0,1,0-.8A7.1,7.1,0,0,1,20,8.43s0-.21-0.45-0.21a1.11,1.11,0,0,0-.8.19,4.47,4.47,0,0,0-.17.6,14.25,14.25,0,0,1-1.24,2.38A2.31,2.31,0,0,1,17,9.89,7.1,7.1,0,0,1,17.26,9s0-.21-0.45-0.21A1.11,1.11,0,0,0,16,9c0,0.11-.09.36-0.17,0.6s-1.07,2.45-1.33,3c-0.13.29-.25,0.53-0.33,0.68h0v0L14,13.55h0a0.46,0.46,0,0,1-.14.19,1.24,1.24,0,0,1,0-.63c0.15-.77.5-2,0.5-2a0.28,0.28,0,0,0-.23-0.34,0.37,0.37,0,0,0-.42.07,0.1,0.1,0,0,0,0,.06S14,9.57,13.1,9.57a2.79,2.79,0,0,0-1.79,1.22l-1.36.74-0.66.36,0,0C8.11,10.63,6,9.78,6.11,8.15c0-.59.24-2.15,4-4,3.12-1.54,5.6-1.11,6-.17,0.61,1.35-1.33,3.85-4.55,4.21a2.43,2.43,0,0,1-2-.51c-0.17-.19-0.2-0.2-0.26-0.16s0,0.22,0,.32a1.9,1.9,0,0,0,1.16.91,6.19,6.19,0,0,0,3.78-.37c2-.76,3.48-2.85,3-4.61s-3.41-2.37-6.21-1.38A14.12,14.12,0,0,0,6.3,5.1C4.75,6.54,4.51,7.8,4.61,8.32c0.36,1.87,2.93,3.08,4,4l-0.14.08c-0.51.26-2.48,1.28-3,2.37A1.59,1.59,0,0,0,6,17,3.17,3.17,0,0,0,9.39,15.6a3.42,3.42,0,0,0,.3-3.15v0l0.4-.24,0.74-.42a4.88,4.88,0,0,0-.26,1.35,2.81,2.81,0,0,0,.6,2,0.67,0.67,0,0,0,.49.16,1.05,1.05,0,0,0,.85-0.79c0.27-.53.51-1.14,0.51-1.14S12.71,15,13.53,15a1.18,1.18,0,0,0,.73-0.58h0l0,0,0-.08h0c0.12-.21.38-0.68,0.78-1.46,0.51-1,1-2.27,1-2.27a6.43,6.43,0,0,0,.2.82,7.7,7.7,0,0,0,.42.95l-0.19.26h0c-0.1.13-.2,0.26-0.31,0.4a11.8,11.8,0,0,0-1,1.19,0.32,0.32,0,0,0,.09.44,0.81,0.81,0,0,0,.5.08,2.28,2.28,0,0,0,.74-0.17,2.5,2.5,0,0,0,.64-0.34,1.43,1.43,0,0,0,.61-1.26A2.55,2.55,0,0,0,17.62,12l0.11-.16a17,17,0,0,0,1.11-1.92,6.43,6.43,0,0,0,.2.82,5.48,5.48,0,0,0,.36.81A3.52,3.52,0,0,0,18.32,13c-0.23.67-.05,1,0.29,1a1,1,0,0,0,.54-0.11,2.46,2.46,0,0,0,.68-0.35,1.54,1.54,0,0,0,.76-1.25,2.37,2.37,0,0,0-.17-0.74,3.88,3.88,0,0,1,2-.23c1.76,0.21,2.11,1.31,2,1.77a1.17,1.17,0,0,1-.56.79C23.75,14,23.71,14,23.72,14s0.07,0.08.18,0.06a1.38,1.38,0,0,0,1-1.23C24.91,11.79,23.87,10.6,22,10.62ZM8.45,15.2a1.74,1.74,0,0,1-1.75.67c-0.38-.22-0.23-1.16.49-1.83a9.33,9.33,0,0,1,1.37-1l0.36-.22,0,0H9l0.09-.06A2.53,2.53,0,0,1,8.45,15.2ZM12.7,12.3c-0.2.5-.63,1.77-0.89,1.7a2.2,2.2,0,0,1,0-2,4.48,4.48,0,0,1,.69-1.27c0.32-.36.67-0.47,0.76-0.33A6.56,6.56,0,0,1,12.7,12.3ZM16.22,14A0.28,0.28,0,0,1,16,14s0-.07,0-0.07,0.44-.47.61-0.69L17,12.83v0A1.47,1.47,0,0,1,16.22,14Zm2.71-.62c-0.06,0-.05-0.19.16-0.66a2.47,2.47,0,0,1,.6-0.78,1,1,0,0,1,.06.34A1.12,1.12,0,0,1,18.93,13.37Z"/></svg>