<svg id="white" xmlns="http://www.w3.org/2000/svg" viewBox="0 0 43.5 20"><defs><style>.cls-1{fill:#fff;}.cls-2{fill:#cb0000;}</style></defs><title>logos</title><rect class="cls-1" width="43.56" height="20"/><path class="cls-2" d="M35.43,14.09v1.73h3.13A1.79,1.79,0,0,0,40.33,14V13.37a1.77,1.77,0,0,0-1.78-1.78H37v-0.8h3.09V9h-3a1.82,1.82,0,0,0-1.79,1.81v0.6a1.79,1.79,0,0,0,1.79,1.78h1.47v0.84"/><path class="cls-2" d="M18.68,13.66a2,2,0,0,0,1.67-2.3,2.28,2.28,0,0,0-2-2.36H14.67v6.82h1.84V14.17l1.59,1.64h2.72ZM18,12.27H16.51V10.71H18a0.77,0.77,0,0,1,.41.77A0.79,0.79,0,0,1,18,12.27Z"/><path class="cls-2" d="M24.88,9H23a1.79,1.79,0,0,0-1.78,1.78v5H23.1v-1.2h1.75v1.2h1.81v-5A1.76,1.76,0,0,0,24.88,9Zm0,3.64H23.09V11s0-.37.58-0.37h0.64a0.44,0.44,0,0,1,.53.37v1.65h0Z"/><rect class="cls-2" x="27.51" y="9.05" width="1.94" height="6.77"/><polygon class="cls-2" points="32.18 14.07 32.18 9.05 30.25 9.05 30.25 14.07 30.25 15.82 32.18 15.82 34.79 15.82 34.79 14.07 32.18 14.07"/><path class="cls-2" d="M3.15,15.82H10.7S9.26,9.23,14,6.56c1-.51,4.36-2.4,9.79,1.62C24,8,24.16,7.92,24.16,7.92s-5-5-10.51-4.41c-2.78.25-6.21,2.78-8.21,6.13A16.54,16.54,0,0,0,3.15,15.82Z"/><path class="cls-2" d="M3.15,15.82H10.7S9.26,9.23,14,6.56c1-.51,4.36-2.4,9.79,1.62C24,8,24.16,7.92,24.16,7.92s-5-5-10.51-4.41c-2.78.25-6.21,2.78-8.21,6.13A16.54,16.54,0,0,0,3.15,15.82Z"/><path class="cls-2" d="M3.15,15.82H10.7S9.26,9.23,14,6.56c1-.51,4.36-2.4,9.79,1.62C24,8,24.16,7.92,24.16,7.92s-5-5-10.51-4.41c-2.79.25-6.22,2.78-8.22,6.13A16.4,16.4,0,0,0,3.15,15.82Z"/><path class="cls-2" d="M18.89,4l0-.64A4.68,4.68,0,0,0,18,3.07L18,3.7C18.27,3.81,18.58,3.92,18.89,4Z"/><path class="cls-2" d="M18,6.07l0,0.6a5.33,5.33,0,0,1,.95.11l0-.59A6.77,6.77,0,0,0,18,6.07Z"/><path class="cls-2" d="M14.44,3.09h0.1l-0.19-.58a7.63,7.63,0,0,0-.92.06l0.18,0.56A8.07,8.07,0,0,1,14.44,3.09Z"/><path class="cls-2" d="M14.9,6.61l0.22,0.66A6,6,0,0,1,16,6.93L15.74,6.3A6.94,6.94,0,0,0,14.9,6.61Z"/><path class="cls-2" d="M10.56,4.09l-0.43-.66c-0.24.12-.49,0.26-0.75,0.41L9.82,4.51C10.07,4.36,10.31,4.22,10.56,4.09Z"/><path class="cls-2" d="M12.52,8.4L13,9.08a5.31,5.31,0,0,1,.56-0.68l-0.43-.65A5.29,5.29,0,0,0,12.52,8.4Z"/><path class="cls-2" d="M11.13,11.48l0.77,0.61a7.64,7.64,0,0,1,.2-1.12l-0.69-.55A9.09,9.09,0,0,0,11.13,11.48Z"/><path class="cls-2" d="M6.94,6.93L6.27,6.34C6,6.58,5.78,6.82,5.56,7.06L6.29,7.69A9.68,9.68,0,0,1,6.94,6.93Z"/><path class="cls-2" d="M4.06,11.21L3,10.81c-0.18.41-.38,0.89-0.48,1.15l1.1,0.4C3.7,12,3.9,11.56,4.06,11.21Z"/><path class="cls-2" d="M11,13.9a9.71,9.71,0,0,0,.11,1.2l1.15,0.41A12.64,12.64,0,0,1,12,14.28Z"/></svg>