<svg id="white" xmlns="http://www.w3.org/2000/svg" viewBox="0 0 64.38 20"><defs><style>.cls-1{fill:#fff;}</style></defs><title>logos</title><rect class="cls-1" width="64.38" height="20"/><path d="M10.35,5.92a3.44,3.44,0,0,0-.72.28L9,6.59a1.63,1.63,0,0,1-1.42.14c-0.18-.18-0.17-0.26,0-0.37a1.36,1.36,0,0,1,.65,0c0.39,0,.48,0,0.48-0.06A0.69,0.69,0,0,0,8,6a1.3,1.3,0,0,0-.83.23,0.46,0.46,0,0,0,.07.7c0.54,0.5,1.47.5,2.55,0a3.85,3.85,0,0,1,1.92-.55c0.53,0,.8.11,0.8,0.33s-1,.47-1.37.16C11,6.68,11,6.68,10.77,6.8s-0.25.23-.06,0.39a1.29,1.29,0,0,0,.94.24c0.87,0,1.51-.29,1.51-0.74C13.16,6,11.7,5.57,10.35,5.92Z"/><path d="M20.83,6.43c-1.27.6-2.1,2.36-2.1,4.47a2.68,2.68,0,0,0,.17,1.31,1.54,1.54,0,0,0,1.28.91,3,3,0,0,0,2.46-.71C23,12.12,23,12.12,23,12.3a1.1,1.1,0,0,0,.57.62,2.29,2.29,0,0,0,1.53,0,3,3,0,0,0,1.4-2.26,0.36,0.36,0,0,1,.35-0.39l0.35-.08a4.75,4.75,0,0,1-.29,1.68L26.7,12.92l-0.5.19a1.48,1.48,0,0,0-1,.9,1,1,0,0,0,.44,1.12,1.63,1.63,0,0,0,1.69-.21c0.11-.11.15-0.11,0.24,0a1.48,1.48,0,0,0,1.57.25,2.25,2.25,0,0,0,1.08-1.81l0.12-.59c0-.2.24-1.14,0.45-2.09s0.37-1.76.4-1.79a0.77,0.77,0,0,1,.42,0A0.74,0.74,0,0,0,32,8.76c0.15-.21.06-0.28-0.37-0.31l-0.44,0,0.15-.56A0.92,0.92,0,0,1,32,7a0.4,0.4,0,0,1,.34.41c0,0.12,0,.15.19,0.15s0.25,0,.26-0.35a1.08,1.08,0,0,0-1.08-1,2,2,0,0,0-1.06.37c-0.15.14-.17,0.13-0.41-0.06a1.47,1.47,0,0,0-2.2.61,8.77,8.77,0,0,0-.37,1.41c-0.23,1.1-.23,1.11-0.49,1.23s-0.6.14-.58,0a2.05,2.05,0,0,0-.26-1,1.1,1.1,0,0,0-1.13-.38A1.79,1.79,0,0,0,23.88,9,3.65,3.65,0,0,0,23,10.93a1.32,1.32,0,0,1-.33.85,2.06,2.06,0,0,1-1.22.46,1,1,0,0,1-.75-0.15c-0.39-.27-0.5-0.66-0.45-1.6,0.11-1.87.93-3.65,1.77-3.84a0.51,0.51,0,0,1,.6.41,1.22,1.22,0,0,1-.28.87c-0.17.11,0.1,0.28,0.41,0.28,0.47,0,.67-0.3.63-0.92a0.92,0.92,0,0,0-.26-0.7A2.13,2.13,0,0,0,20.83,6.43Zm9.08,0.63c0.15,0.06.16,0.32,0,.95l-0.1.46H29L29,8.24a2.52,2.52,0,0,0,.11-0.61A1.22,1.22,0,0,1,29.71,7,0.85,0.85,0,0,1,29.92,7.06ZM29.7,8.93a3.35,3.35,0,0,1-.1.73c-0.07.35-.15,0.71-0.17,0.8-0.14.71-.42,2-0.45,2a1.5,1.5,0,0,1-.4.09,2.32,2.32,0,0,0-.43.1s0,0,0-.15,0.14-.64.25-1.2,0.27-1.24.33-1.52a5.9,5.9,0,0,0,.11-0.67A0.29,0.29,0,0,1,29,8.89,0.89,0.89,0,0,1,29.7,8.93Zm-3.95.24a0.3,0.3,0,0,1,0,.35,0.58,0.58,0,0,0-.08.75c0.13,0.15.13,0.19,0,.58A2.58,2.58,0,0,1,25.1,12a0.47,0.47,0,0,1-.71,0,3.6,3.6,0,0,1,.37-2.35C25.1,9,25.58,8.74,25.75,9.17Zm3.16,3.7c0,0.06-.06.34-0.11,0.63-0.18.8-.51,1.13-0.93,0.91-0.15-.09-0.15-0.11,0-0.41a3.13,3.13,0,0,0,.11-0.37,2,2,0,0,1,0-.37,0.35,0.35,0,0,1,.23-0.37l0.34-.06C28.85,12.77,28.91,12.77,28.91,12.87Z"/><path d="M41,6.33A2.19,2.19,0,0,0,40,7.19a1.66,1.66,0,0,0,0,1.33,6.89,6.89,0,0,0,.76,1,5.66,5.66,0,0,1,.75,1,1.69,1.69,0,0,1,0,1.49,1,1,0,0,1-1.6,0,0.85,0.85,0,0,1,.72-1.24c0.2,0,.24-0.11.14-0.29a0.86,0.86,0,0,0-.91-0.32,1.45,1.45,0,0,0-1.08,1.9,1.69,1.69,0,0,0,1.92,1.11,2.24,2.24,0,0,0,2.48-2.45,2.65,2.65,0,0,0-1.12-1.9A6.46,6.46,0,0,1,41.28,8a1,1,0,0,1,.22-1.21,1,1,0,0,1,1,0,0.78,0.78,0,0,1,0,1c-0.2.24-.2,0.24,0,0.32a0.79,0.79,0,0,0,1.06-.86,1,1,0,0,0-.62-0.91A2.82,2.82,0,0,0,41,6.33Z"/><path d="M5,6.66C4.41,7,4.32,7.27,4.72,7.6a4.55,4.55,0,0,0,1.95.7,15.5,15.5,0,0,0,3.69.28,12.09,12.09,0,0,0,5-.77C16,7.49,16,7,15.5,6.72c-0.24-.14-0.24-0.14-0.19,0a0.49,0.49,0,0,1-.32.59,6.78,6.78,0,0,1-1.88.53L12.51,8a34.54,34.54,0,0,1-4.67,0,4.59,4.59,0,0,1-2.56-.83c-0.15-.19-0.15-0.22,0-0.4S5.34,6.48,5,6.66Z"/><path d="M51.76,6.6a0.82,0.82,0,0,0-.31.36,0.52,0.52,0,0,0,0,.57,0.7,0.7,0,0,0,1.14.27A0.73,0.73,0,0,0,51.76,6.6Z"/><path d="M58.69,7.11c-0.54.07-.54,0.07-0.6,0.37S58,7.8,58,7.82,58,8,58,8.16s-0.11.31-.21,0.31a0.22,0.22,0,0,0-.19.21c0,0.15,0,.19.07,0.16a0.13,0.13,0,0,1,.15,0s-0.11.7-.28,1.48c-0.34,1.57-.37,1.83-0.21,2.22a0.74,0.74,0,0,0,.65.52,1,1,0,0,0,1-.5c0.17-.35.17-0.35-0.09-0.38a0.22,0.22,0,0,1-.25-0.24,27,27,0,0,1,.59-3.07,0.45,0.45,0,0,1,.28,0,0.29,0.29,0,0,0,.24,0,0.91,0.91,0,0,1,0-.19c0-.11,0-0.13-0.24-0.13H59.21l0.15-.67c0.08-.37.15-0.69,0.15-0.72S59.47,7,58.69,7.11Z"/><path d="M54.27,8.13c-0.46,0-.59,0-0.63.16s-0.32,1.41-.66,3a0.89,0.89,0,0,1-1,.8C51.75,12,51.75,12,52.2,9.87l0.3-1.4H51.18L51,9.46c-0.57,2.65-.58,2.78-0.26,3.27a1.34,1.34,0,0,0,1.66.08,0.63,0.63,0,0,1,.34-0.14s-0.13.63-.28,1.32a12.77,12.77,0,0,0-.25,1.28,7.11,7.11,0,0,0,1.1-.23,0.37,0.37,0,0,0,.35-0.4c0-.18.12-0.65,0.22-1L54,12.87,54.28,13a1.83,1.83,0,0,0,1.94-.54c0.86-1,1.06-3.36.34-3.83a1.52,1.52,0,0,0-1.25-.06l-0.42.15,0-.26a0.36,0.36,0,0,0,0-.29A3.46,3.46,0,0,0,54.27,8.13Zm1.43,1.26A3.88,3.88,0,0,1,55.58,11a1.64,1.64,0,0,1-.72,1.12c-0.63.3-.73,0.15-0.52-0.84,0.09-.42.18-0.88,0.19-1a1.28,1.28,0,0,1,.68-1.19A0.43,0.43,0,0,1,55.69,9.39Z"/><path d="M4.59,8.45a8.15,8.15,0,0,0,.22.95L5,10l-0.41.45a2,2,0,0,0,0,3,1.86,1.86,0,0,0,2,.22c0.14-.08.13-0.09-0.07-0.1a2.18,2.18,0,0,1-1.45-1,2.25,2.25,0,0,1-.26-1.17,1.87,1.87,0,0,1,.41-0.86,1.14,1.14,0,0,1,.24.39,11.92,11.92,0,0,0,.81,1.28,5.76,5.76,0,0,1,1,1.88,2.09,2.09,0,0,0,1.24.8,4.49,4.49,0,0,0,1.7.2c2,0,2.88-.42,3.17-1.46a3.83,3.83,0,0,1,.49-0.93,8.77,8.77,0,0,0,1.54-2.68c0.11-.32.26-0.83,0.34-1.14s0.15-.62.16-0.67-0.1,0-.27.1a5.25,5.25,0,0,1-2,.66l-0.47.08A30.13,30.13,0,0,1,8,9.18a7.2,7.2,0,0,1-3.28-.9L4.54,8.11Z"/><path d="M33.27,8.5a2.6,2.6,0,0,0-1.49,1.72,2.52,2.52,0,0,0,.11,2.49c0.58,0.62,1.92.45,2.78-.36A3.5,3.5,0,0,1,35.06,12a0.36,0.36,0,0,1,0,.16,1.15,1.15,0,0,0,.31.48,1,1,0,0,0,.76.37,1.52,1.52,0,0,0,1.7-.8c0.23-.5.19-0.57-0.15-0.34-0.77.5-1.32,0.32-1.32-.44,0-.21,0-0.24.35-0.32a2.06,2.06,0,0,0,1.75-1.73,0.87,0.87,0,0,0-1-1c-1.25,0-2.17,1.06-2.42,2.78a1.51,1.51,0,0,1-1.49,1.12,0.59,0.59,0,0,1-.67-0.69c0-.33,0-0.37.23-0.41A2.25,2.25,0,0,0,34.81,10a1.05,1.05,0,0,0-.22-1.48A2.13,2.13,0,0,0,33.27,8.5Zm0.87,0.42c0.3,0.11,0,1.09-.38,1.44a1.76,1.76,0,0,1-.75.37A3.33,3.33,0,0,1,33.77,9C34,8.85,34,8.86,34.14,8.93Zm3.58,0.41a1.42,1.42,0,0,1-.8,1.24c-0.44.2-.45,0.2-0.41,0a3.39,3.39,0,0,1,.86-1.6C37.64,8.82,37.72,8.92,37.72,9.34Z"/><path d="M45.35,8.46a2.89,2.89,0,0,0-1.71,2.25c-0.24,1.08,0,2,.53,2.22a2.46,2.46,0,0,0,2.57-.63L47,12.08l0,0.32c0,0.18-.07.39-0.1,0.46s0,0.15.64,0.15h0.68l0.3-1.49c0.39-1.9.42-2,.73-2.18a1.44,1.44,0,0,1,.31-0.15,0.89,0.89,0,0,1,.2.3c0.13,0.28.18,0.31,0.43,0.29a0.67,0.67,0,0,0,0-1.32,1.89,1.89,0,0,0-.92.37C49,9,49,8.95,49,8.71l0-.24H48.41c-0.55,0-.66,0-0.7.14s-0.16.73-.31,1.45a2.91,2.91,0,0,1-.52,1.58,1.5,1.5,0,0,1-1.82.49c-0.42-.42,0-2.48.68-3.08,0.32-.3.5-0.15,0.48,0.4a0.85,0.85,0,0,0,0,.42l0.19,0A0.52,0.52,0,0,0,47,9.32a0.72,0.72,0,0,0-.41-0.81A2.21,2.21,0,0,0,45.35,8.46Z"/></svg>