<?xml version="1.0" encoding="utf-8"?>
<!-- Generator: Adobe Illustrator 20.1.0, SVG Export Plug-In . SVG Version: 6.00 Build 0)  -->
<svg version="1.1" id="Layer_1" xmlns="http://www.w3.org/2000/svg" xmlns:xlink="http://www.w3.org/1999/xlink" x="0px" y="0px"
	 viewBox="0 0 400 400" style="enable-background:new 0 0 400 400;" xml:space="preserve">
<style type="text/css">
	.st0{fill:#FFFFFF;}
</style>
<path class="st0" d="M263.7,188.8L200.6,10.6l-63.1,178.2L7.8,77.9L66,391.1h269.2l0,0l58.1-313.1L263.7,188.8z M151,227l7.3-20.5
	l42.4-119.8L243,206.4l-42.4,36.2l-42.4-36.2L151,227l34,29.1l-33.8,28.8l29.1,16.8l-70.1,40.5L151,227z M215,281.7l-14.4,8.3
	l-14.4-8.3l14.4-12.3L215,281.7z M38.3,130.6l92,78.7L79.5,352.8L38.3,130.6z M109.9,365.7l90.7-52.4l20.3-11.7l29.1-16.8L216.2,256
	l34-29.1L291,342.1l-70.1-40.5l-20.3,11.7l90.7,52.4H109.9z M321.7,352.8l-50.8-143.5l92-78.6L321.7,352.8z"/>
</svg>
