<?xml version="1.0" encoding="utf-8"?>
<!-- Generator: Adobe Illustrator 21.0.0, SVG Export Plug-In . SVG Version: 6.00 Build 0)  -->
<svg version="1.1" xmlns="http://www.w3.org/2000/svg" xmlns:xlink="http://www.w3.org/1999/xlink" x="0px" y="0px"
	 viewBox="0 0 80 80" style="enable-background:new 0 0 80 80;" xml:space="preserve">
<style type="text/css">
	.st0{fill:#FFFFFF;}
	.st1{fill:#0099CD;}
</style>
<g id="Layer_2">
</g>
<g id="motiv">
	<g>
		<path class="st0" d="M68,0H40H12C5.4,0,0,5.4,0,12v56c0,6.6,5.4,12,12,12h28h28c6.6,0,12-5.4,12-12V12C80,5.4,74.6,0,68,0z"/>
		<path class="st1" d="M50.5,36.3L40,6.7L29.5,36.3L8,17.9l9.7,52h44.7l0,0l9.7-52L50.5,36.3z M36.6,55.1L25,61.8l6.8-19.1l5.6,4.8
			l-5.6,4.8L36.6,55.1z M37.6,51.7l2.4-2l2.4,2L40,53.1L37.6,51.7z M42.6,47.5l5.6-4.8L55,61.8l-11.6-6.7l4.8-2.8L42.6,47.5z
			 M40,19.4l7,19.9l-7,6l-7-6L40,19.4z M13.1,26.7l15.3,13.1l-8.4,23.8L13.1,26.7z M24.9,65.7L40,57l15.1,8.7H24.9z M60.1,63.5
			l-8.4-23.8l15.3-13.1L60.1,63.5z"/>
	</g>
</g>
</svg>
