<?xml version="1.0" encoding="utf-8"?>
<!-- Generator: Adobe Illustrator 21.0.0, SVG Export Plug-In . SVG Version: 6.00 Build 0)  -->
<svg version="1.1" xmlns="http://www.w3.org/2000/svg" xmlns:xlink="http://www.w3.org/1999/xlink" x="0px" y="0px"
	 viewBox="0 0 538.6 113.4" style="enable-background:new 0 0 538.6 113.4;" xml:space="preserve">
<style type="text/css">
	.st0{fill:#FFFFFF;}
	.st1{fill:#0099CD;}
</style>
<g id="Layer_2">
</g>
<g id="motiv">
	<path class="st0" d="M96.7,10.9H65.3H33.9c-7.4,0-13.4,6-13.4,13.4v62.8c0,7.4,6,13.4,13.4,13.4h31.4h31.4c7.4,0,13.4-6,13.4-13.4
		V24.4C110.1,16.9,104.1,10.9,96.7,10.9z"/>
	<path class="st1" d="M77.1,51.6L65.3,18.4L53.6,51.6L29.5,31l10.8,58.3h50.1l0,0L101.2,31L77.1,51.6z M61.5,72.6l-13,7.5l7.6-21.4
		l6.3,5.4l-6.3,5.4L61.5,72.6z M62.7,68.9l2.7-2.3l2.7,2.3l-2.7,1.5L62.7,68.9z M68.2,64.1l6.3-5.4l7.6,21.4l-13-7.5l5.4-3.1
		L68.2,64.1z M65.3,32.6l7.9,22.3l-7.9,6.7l-7.9-6.7L65.3,32.6z M35.1,40.8l17.1,14.6l-9.4,26.7L35.1,40.8z M48.5,84.5l16.9-9.7
		l16.9,9.7H48.5z M87.8,82.1l-9.4-26.7l17.1-14.6L87.8,82.1z"/>
	<g>
		<path class="st0" d="M408.9,58.9c0-3.8,0.7-7.3,2.1-10.4c1.4-3.1,3.2-5.8,5.6-8c2.4-2.2,5.1-3.9,8.4-5.1c3.2-1.2,6.7-1.8,10.3-1.8
			c3.6,0,7.1,0.6,10.3,1.8s6,2.9,8.4,5.1c2.4,2.2,4.2,4.9,5.6,8c1.4,3.1,2.1,6.6,2.1,10.4c0,3.8-0.7,7.3-2.1,10.4
			c-1.4,3.1-3.2,5.8-5.6,8c-2.4,2.2-5.1,3.9-8.4,5.1c-3.2,1.2-6.7,1.8-10.3,1.8c-3.6,0-7.1-0.6-10.3-1.8c-3.2-1.2-6-2.9-8.4-5.1
			c-2.4-2.2-4.2-4.9-5.6-8C409.6,66.3,408.9,62.8,408.9,58.9z M421,58.9c0,1.9,0.3,3.7,1,5.4c0.6,1.8,1.6,3.3,2.8,4.6
			c1.2,1.3,2.7,2.4,4.5,3.2c1.7,0.8,3.7,1.2,6,1.2c2.2,0,4.2-0.4,6-1.2c1.7-0.8,3.2-1.9,4.5-3.2c1.2-1.3,2.2-2.9,2.8-4.6
			c0.6-1.7,1-3.6,1-5.4s-0.3-3.7-1-5.5c-0.6-1.7-1.6-3.3-2.8-4.6c-1.2-1.3-2.7-2.4-4.5-3.2c-1.8-0.8-3.7-1.2-6-1.2
			c-2.2,0-4.2,0.4-6,1.2c-1.8,0.8-3.2,1.9-4.5,3.2c-1.2,1.3-2.2,2.9-2.8,4.6C421.3,55.2,421,57.1,421,58.9z"/>
		<path class="st0" d="M213.1,47.9c-0.5-2.4-1.4-4.6-2.7-6.4c-1.3-1.9-3.1-3.3-5.4-4.5c-2.3-1.1-5.2-1.7-8.9-1.7
			c-3.8,0-7.1,0.9-9.9,2.8c-2.8,1.9-4.8,4.1-6.1,6.6H180V18l-6.1,4v61.2h6.1V59.8c0-3.2,0.4-6,1.3-8.4c0.8-2.4,2-4.4,3.4-6
			c1.4-1.6,3.2-2.8,5.1-3.5c2-0.8,4.1-1.2,6.3-1.2c2.4,0,4.4,0.4,5.9,1.3c1.5,0.8,2.7,2,3.5,3.4s1.4,3,1.8,4.8
			c0.3,1.8,0.5,3.6,0.5,5.5v27.5h6.1V55.4C213.9,52.8,213.6,50.4,213.1,47.9z"/>
		<path class="st0" d="M401.1,48.9c-1.1-3.1-2.7-5.8-4.7-8.1c-2.1-2.3-4.6-4.1-7.6-5.4c-3-1.3-6.3-2-10-2c-3.4,0-6.6,0.7-9.6,2
			c-3,1.3-5.3,3.5-7.1,6.5h-0.2v-7.3h-4.7l-6.8,4.4v67h0l12.1-7.9V77h0.3c0.6,0.8,1.4,1.6,2.3,2.5c0.9,0.8,2.1,1.6,3.4,2.4
			c1.3,0.7,2.9,1.3,4.6,1.8c1.7,0.5,3.8,0.7,6.1,0.7c3.4,0,6.6-0.7,9.5-2c2.9-1.3,5.4-3.1,7.4-5.4c2.1-2.3,3.7-5,4.8-8.1
			c1.1-3.1,1.7-6.4,1.7-10C402.7,55.4,402.2,52,401.1,48.9z M389.7,64.4c-0.6,1.8-1.6,3.3-2.8,4.6c-1.2,1.3-2.7,2.4-4.5,3.2
			c-1.7,0.8-3.7,1.2-6,1.2c-2.2,0-4.2-0.4-6-1.2c-1.7-0.8-3.2-1.9-4.5-3.2c-1.2-1.3-2.2-2.9-2.8-4.6c-0.6-1.7-1-3.6-1-5.4
			s0.3-3.7,1-5.5c0.6-1.7,1.6-3.3,2.8-4.6c1.2-1.3,2.7-2.4,4.5-3.2c1.7-0.8,3.7-1.2,6-1.2c2.2,0,4.2,0.4,6,1.2s3.2,1.9,4.5,3.2
			c1.2,1.3,2.2,2.9,2.8,4.6c0.6,1.7,1,3.6,1,5.5S390.3,62.6,389.7,64.4z"/>
		<path class="st0" d="M277.2,57.7c0-2.3,0.3-4.4,0.9-6.4c0.6-2,1.5-3.7,2.8-5.2c1.2-1.5,2.8-2.6,4.7-3.5c1.9-0.8,4.2-1.3,6.8-1.3
			c0.7,0,1.5,0.1,2.3,0.4l0.7-6c-0.6-0.1-1.2-0.3-1.8-0.4c-0.6-0.1-1.2-0.2-1.8-0.2c-3.5,0-6.5,0.9-8.9,2.6c-2.4,1.8-4.4,4-6,6.8
			c-0.1-0.5-0.2-1.5-0.3-3.1c0-1.6-0.1-3.2-0.1-4.9l-5.9,3.9c0,0.7,0.1,1.4,0.1,2.2c0,1.3,0.1,2.5,0.2,3.8c0.1,1.2,0.1,2.3,0.1,3.2
			v33.5h0l6.1-4V57.7z"/>
		<path class="st0" d="M321.6,78.9c-3.6,0-6.5-0.7-8.7-2c-2.3-1.3-4.1-3-5.4-4.8c-1.3-1.9-2.3-3.8-2.8-5.8c-0.5-2-0.8-3.6-0.8-4.9
			h39.2v-4.2c0-2.7-0.5-5.4-1.4-8c-0.9-2.6-2.3-5-4.2-7c-1.9-2.1-4.1-3.7-6.9-4.9c-2.7-1.2-5.9-1.9-9.4-1.9c-3.4,0-6.6,0.6-9.4,1.9
			c-2.8,1.2-5.3,3-7.4,5.1c-2.1,2.2-3.7,4.8-4.8,7.7c-1.1,3-1.7,6.2-1.7,9.7c0,3.6,0.6,6.9,1.7,9.9c1.1,3,2.7,5.6,4.8,7.8
			c2.1,2.2,4.6,3.9,7.5,5.1c2.9,1.2,6.1,1.8,9.7,1.8c2.4,0,4.7-0.3,6.9-0.8l-3.3-5C323.9,78.8,322.7,78.9,321.6,78.9z M304.7,52.5
			c0.5-1.6,1.4-3.3,2.7-5.1c1.3-1.7,3-3.3,5.2-4.6c2.2-1.3,4.9-2,8.2-2c2.2,0,4.3,0.4,6.3,1.2c2,0.8,3.7,1.9,5.1,3.3
			c1.4,1.4,2.6,3,3.4,4.8c0.8,1.8,1.3,3.8,1.3,5.9h-33.1C303.9,55.3,304.2,54.2,304.7,52.5z"/>
		<path class="st0" d="M260.3,79.1c-0.1-1.3-0.2-2.8-0.3-4.3c-0.1-1.5-0.1-3.2-0.2-5c0-1.8,0-3.9,0-6.2V52.2c0-5.9-1.7-10.2-5-12.9
			c-3.4-2.7-7.9-4-13.5-4c-3,0-6.2,0.6-9.5,1.7c-0.5,0.2-0.9,0.4-1.4,0.5l3,4.7c2.4-0.9,5-1.4,7.8-1.4c3.8,0,6.9,0.9,9.4,2.6
			c2.5,1.8,3.7,4.6,3.7,8.7v2.8h-7.1c-2.3,0-4.9,0.1-7.9,0.5c-3,0.3-5.8,1-8.5,2c-2.7,1-4.9,2.6-6.7,4.7c-1.8,2.1-2.7,4.9-2.7,8.5
			c0,2.5,0.5,4.6,1.5,6.4c1,1.8,2.2,3.2,3.8,4.3c1.5,1.1,3.3,1.9,5.2,2.4s3.9,0.8,6,0.8c4,0,7.3-0.7,9.8-2.1
			c2.6-1.4,4.8-3.6,6.5-6.7h0.2c0,2.8,0.2,5.3,0.6,7.6h5.7C260.5,81.8,260.4,80.5,260.3,79.1z M254.4,62.9c0,2-0.2,3.9-0.7,5.8
			c-0.5,1.9-1.3,3.6-2.6,5.1c-1.2,1.5-2.9,2.7-5,3.7c-2.1,0.9-4.7,1.4-8,1.4c-1.3,0-2.5-0.2-3.8-0.6c-1.2-0.4-2.4-0.9-3.4-1.6
			c-1-0.7-1.8-1.6-2.5-2.7c-0.6-1.1-1-2.4-1-3.8c0-2,0.6-3.7,1.7-5c1.1-1.3,2.7-2.4,4.6-3.2c1.9-0.8,4.1-1.4,6.5-1.7
			c2.4-0.3,4.9-0.5,7.4-0.5h6.7V62.9z"/>
		<path class="st0" d="M159.2,58.7c-2-0.9-4.2-1.6-6.7-2c-2.4-0.4-4.6-0.9-6.7-1.5c-2-0.6-3.7-1.4-5.1-2.4c-1.4-1-2.1-2.6-2.1-4.6
			c0-1.2,0.3-2.3,1-3.2c0.6-0.9,1.4-1.7,2.4-2.3c0.9-0.6,2-1.1,3.2-1.4c1.2-0.3,2.3-0.5,3.4-0.5c2.8,0,5,0.6,6.7,1.7
			c1.3,0.8,2.4,2,3.4,3.4l5.3-3.5c-1.4-2.1-3.2-3.8-5.5-4.9c-2.8-1.4-6.1-2.1-9.9-2.1c-2,0-3.9,0.3-5.8,0.8
			c-1.9,0.5-3.6,1.4-5.1,2.5c-1.5,1.1-2.7,2.5-3.7,4.2c-0.9,1.7-1.4,3.7-1.4,6c0,3,0.7,5.3,2.1,6.9c1.4,1.6,3.1,2.9,5.1,3.8
			c2,0.9,4.2,1.6,6.7,2c2.4,0.4,4.6,1,6.7,1.6c2,0.6,3.7,1.4,5.1,2.5c1.4,1.1,2.1,2.7,2.1,4.8c0,1.3-0.3,2.5-1,3.6
			c-0.6,1-1.5,1.9-2.5,2.7c-1,0.7-2.2,1.3-3.4,1.7c-1.3,0.4-2.6,0.6-3.8,0.6c-2.8,0-5.4-0.7-7.9-2c-1.4-0.7-2.6-1.7-3.6-2.8
			l-5.4,3.5c1.6,1.8,3.5,3.3,5.7,4.4c3.3,1.5,7,2.3,11.1,2.3c2.2,0,4.3-0.3,6.4-0.9c2-0.6,3.8-1.5,5.4-2.7c1.6-1.2,2.8-2.7,3.7-4.5
			s1.4-3.9,1.4-6.3c0-3.2-0.7-5.6-2.1-7.3C162.9,60.9,161.2,59.6,159.2,58.7z"/>
		<path class="st0" d="M518.9,48.9c-1.1-3.1-2.7-5.8-4.7-8.1c-2.1-2.3-4.6-4.1-7.6-5.4c-3-1.3-6.3-2-10-2c-3.4,0-6.6,0.7-9.6,2
			c-3,1.3-5.3,3.5-7.1,6.5h-0.2v-7.3h-4.6l-6.9,4.5v66.9l12.1-7.9V77h0.3c0.6,0.8,1.4,1.6,2.3,2.5c0.9,0.8,2.1,1.6,3.4,2.4
			c1.3,0.7,2.9,1.3,4.6,1.8c1.7,0.5,3.8,0.7,6.1,0.7c3.4,0,6.6-0.7,9.5-2c2.9-1.3,5.4-3.1,7.4-5.4c2.1-2.3,3.7-5,4.8-8.1
			c1.1-3.1,1.7-6.4,1.7-10C520.5,55.4,520,52,518.9,48.9z M507.4,64.4c-0.6,1.8-1.6,3.3-2.8,4.6c-1.2,1.3-2.7,2.4-4.5,3.2
			c-1.7,0.8-3.7,1.2-6,1.2c-2.2,0-4.2-0.4-6-1.2c-1.7-0.8-3.2-1.9-4.5-3.2c-1.2-1.3-2.2-2.9-2.8-4.6c-0.6-1.7-1-3.6-1-5.4
			s0.3-3.7,1-5.5c0.6-1.7,1.6-3.3,2.8-4.6c1.2-1.3,2.7-2.4,4.5-3.2c1.7-0.8,3.7-1.2,6-1.2c2.2,0,4.2,0.4,6,1.2
			c1.7,0.8,3.2,1.9,4.5,3.2c1.2,1.3,2.2,2.9,2.8,4.6c0.6,1.7,1,3.6,1,5.5S508.1,62.6,507.4,64.4z"/>
	</g>
</g>
</svg>
